<svg width="604" height="230" viewBox="0 0 604 230" fill="none" xmlns="http://www.w3.org/2000/svg">
<path opacity="0.4" d="M603.037 221.629C603.037 228.6 468.257 229.299 302.001 229.299C135.743 229.299 0.963379 228.599 0.963379 221.629C0.963379 214.66 135.741 202.801 302.001 202.801C468.256 202.801 603.037 214.66 603.037 221.629Z" fill="#231F20"/>
<path d="M483.037 129.518L464.2 208.926H506.96L488.123 129.518H483.037Z" fill="#E6E7E8"/>
<path d="M483.037 129.518L480.098 141.916H491.062L488.123 129.518H483.037Z" fill="#6842EF"/>
<path d="M477.193 154.155L474.141 167.028H497.019L493.967 154.155H477.193Z" fill="#6842EF"/>
<path d="M502.975 192.13L499.922 179.264H471.237L468.185 192.13H502.975Z" fill="#6842EF"/>
<path opacity="0.2" d="M506.663 207.672L492.243 146.888L480.479 207.672H506.663Z" fill="#231F20"/>
<path opacity="0.3" d="M488.563 131.387L488.123 129.519H483.037L464.2 208.927H471.736L488.563 131.387Z" fill="white"/>
<path d="M511.396 202.334H460.314V213.004H511.396V202.334Z" fill="#6842EF"/>
<path d="M119.108 129.518L137.944 208.926H95.186L114.022 129.518H119.108Z" fill="#E6E7E8"/>
<path d="M119.108 129.518L122.049 141.916H111.082L114.022 129.518H119.108Z" fill="#6842EF"/>
<path d="M124.953 154.155L128.005 167.028H105.126L108.178 154.155H124.953Z" fill="#6842EF"/>
<path d="M99.1699 192.13L102.223 179.264H130.908L133.962 192.13H99.1699Z" fill="#6842EF"/>
<path opacity="0.2" d="M95.4834 207.672L109.902 146.888L121.667 207.672H95.4834Z" fill="#231F20"/>
<path opacity="0.3" d="M113.578 131.387L114.022 129.519H119.107L137.943 208.927H130.407L113.578 131.387Z" fill="white"/>
<path d="M141.83 202.334H90.7505V213.004H141.83V202.334Z" fill="#6842EF"/>
<path d="M523.546 107.361L497.973 215.166H556.021L530.452 107.361H523.546Z" fill="#E6E7E8"/>
<path d="M523.546 107.361L519.556 124.193H534.444L530.452 107.361H523.546Z" fill="#6842EF"/>
<path d="M515.613 140.812L511.471 158.284H542.529L538.384 140.812H515.613Z" fill="#6842EF"/>
<path d="M550.617 192.37L546.47 174.9H507.528L503.381 192.37H550.617Z" fill="#6842EF"/>
<path opacity="0.2" d="M555.617 213.462L536.043 130.944L520.076 213.462H555.617Z" fill="#231F20"/>
<path opacity="0.3" d="M531.053 109.901L530.452 107.363H523.547L497.973 215.168H508.208L531.053 109.901Z" fill="white"/>
<path d="M562.044 206.219H492.699V220.709H562.044V206.219Z" fill="#6842EF"/>
<path d="M77.7476 107.361L103.32 215.166H45.27L70.8448 107.361H77.7476Z" fill="#E6E7E8"/>
<path d="M77.7483 107.361L81.7388 124.193H66.8535L70.8455 107.361H77.7483Z" fill="#6842EF"/>
<path d="M85.6815 140.812L89.8268 158.284H58.7656L62.9109 140.812H85.6815Z" fill="#6842EF"/>
<path d="M50.6792 192.37L54.8231 174.9H93.7696L97.9121 192.37H50.6792Z" fill="#6842EF"/>
<path opacity="0.2" d="M45.6733 213.462L65.2513 130.944L81.2205 213.462H45.6733Z" fill="#231F20"/>
<path opacity="0.3" d="M70.2427 109.901L70.8448 107.363H77.7476L103.32 215.168H93.0859L70.2427 109.901Z" fill="white"/>
<path d="M108.597 206.219H39.2485V220.709H108.597V206.219Z" fill="#6842EF"/>
<path d="M437.643 213.08H406.111L421.556 82.7744H453.091L437.643 213.08Z" fill="#BCBEC0"/>
<path d="M408.452 193.359L406.111 213.08H437.643L439.984 193.359H408.452Z" fill="#6842EF"/>
<path d="M163.51 213.08H195.041L179.596 82.7744H148.064L163.51 213.08Z" fill="#BCBEC0"/>
<path d="M163.51 213.08H195.041L192.702 193.359H161.173L163.51 213.08Z" fill="#6842EF"/>
<path d="M466.396 94.8066H134.706V129.322H466.396V94.8066Z" fill="#6842EF"/>
<path d="M210.903 129.322H189.925L212.886 94.8066H233.865L210.903 129.322ZM298.417 94.8066H277.437L254.475 129.322H275.457L298.417 94.8066ZM148.335 94.8066L134.706 115.295V129.322H146.352L169.314 94.8066H148.335ZM362.97 94.8066H341.993L319.028 129.322H340.01L362.97 94.8066ZM466.396 129.322V101.874L448.134 129.322H466.396ZM427.524 94.8066H406.544L383.583 129.322H404.561L427.524 94.8066Z" fill="#231F20"/>
<path opacity="0.2" d="M466.397 112.064H134.707V129.323H466.397V112.064Z" fill="#231F20"/>
<path opacity="0.2" d="M466.397 94.7998H134.707V102.896H466.397V94.7998Z" fill="white"/>
<path opacity="0.15" d="M217.387 54.2817C217.387 83.8732 193.396 107.862 163.804 107.862C134.214 107.862 110.225 83.8732 110.225 54.2817C110.225 24.6889 134.214 0.700195 163.804 0.700195C193.396 0.700195 217.387 24.6889 217.387 54.2817Z" fill="white"/>
<path opacity="0.3" d="M198.209 54.2836C198.209 73.2841 182.807 88.6881 163.802 88.6881C144.8 88.6881 129.394 73.2841 129.394 54.2836C129.394 35.2817 144.8 19.875 163.802 19.875C182.807 19.875 198.209 35.2817 198.209 54.2836Z" fill="white"/>
<path opacity="0.5" d="M187.826 54.8768C188.153 41.6148 177.667 30.5982 164.405 30.2705C151.142 29.9428 140.125 40.4281 139.797 53.6901C139.469 66.9521 149.955 77.9688 163.218 78.2965C176.481 78.6241 187.498 68.1388 187.826 54.8768Z" fill="white"/>
<path d="M179.996 54.2796C179.996 63.2201 172.746 70.4719 163.804 70.4719C154.864 70.4719 147.613 63.2201 147.613 54.2796C147.613 45.3377 154.864 38.0859 163.804 38.0859C172.746 38.0859 179.996 45.3363 179.996 54.2796Z" fill="#6842EF"/>
<path d="M175.469 54.2787C175.469 60.7217 170.247 65.9426 163.804 65.9426C157.363 65.9426 152.141 60.7203 152.141 54.2787C152.141 47.8357 157.363 42.6162 163.804 42.6162C170.247 42.6148 175.469 47.8357 175.469 54.2787Z" fill="#6842EF"/>
<path opacity="0.5" d="M152.325 48.1665C152.325 50.9104 154.55 53.1343 157.293 53.1343C160.035 53.1343 162.261 50.9104 162.261 48.1665C162.261 45.424 160.035 43.2002 157.293 43.2002C154.55 43.2002 152.325 45.424 152.325 48.1665Z" fill="white"/>
<path opacity="0.1" d="M163.804 70.4721C172.746 70.4721 179.996 63.2204 179.996 54.2798C179.996 49.1684 177.622 44.6167 173.92 41.6484C173.296 48.4185 169.724 62.7729 150.803 63.9005C153.751 67.8788 158.47 70.4721 163.804 70.4721Z" fill="#231F20"/>
<path d="M160.262 220.719H128.731L148.012 82.7744H179.542L160.262 220.719Z" fill="#F1F2F2"/>
<path d="M180.42 68.3252H147.186V82.8137H180.42V68.3252Z" fill="#58595B"/>
<path opacity="0.2" d="M180.42 75.21H147.186V82.8148H180.42V75.21Z" fill="#231F20"/>
<path d="M131.647 199.842L128.731 220.717H160.262L163.179 199.842H131.647Z" fill="#6842EF"/>
<path opacity="0.15" d="M383.77 54.2817C383.77 83.8732 407.759 107.862 437.349 107.862C466.941 107.862 490.931 83.8732 490.931 54.2817C490.931 24.6889 466.941 0.700195 437.349 0.700195C407.759 0.700195 383.77 24.6889 383.77 54.2817Z" fill="white"/>
<path opacity="0.3" d="M402.944 54.2836C402.944 73.2841 418.348 88.6881 437.35 88.6881C456.355 88.6881 471.759 73.2841 471.759 54.2836C471.759 35.2817 456.353 19.875 437.35 19.875C418.348 19.875 402.944 35.2817 402.944 54.2836Z" fill="white"/>
<path opacity="0.5" d="M413.33 54.2799C413.33 67.545 424.084 78.3002 437.35 78.3002C450.619 78.3002 461.373 67.545 461.373 54.2799C461.373 41.0135 450.621 30.2598 437.35 30.2598C424.084 30.2584 413.33 41.0135 413.33 54.2799Z" fill="white"/>
<path d="M421.16 54.2796C421.16 63.2201 428.409 70.4719 437.35 70.4719C446.293 70.4719 453.542 63.2201 453.542 54.2796C453.542 45.3377 446.293 38.0859 437.35 38.0859C428.409 38.0859 421.16 45.3363 421.16 54.2796Z" fill="#6842EF"/>
<path d="M425.792 54.2778C425.792 60.6619 430.968 65.8336 437.35 65.8336C443.734 65.8336 448.908 60.6619 448.908 54.2778C448.908 47.8937 443.734 42.7207 437.35 42.7207C430.968 42.7207 425.792 47.8923 425.792 54.2778Z" fill="#6842EF"/>
<path opacity="0.5" d="M426.515 48.1665C426.515 50.9104 428.735 53.1343 431.481 53.1343C434.223 53.1343 436.446 50.9104 436.446 48.1665C436.446 45.424 434.223 43.2002 431.481 43.2002C428.735 43.2002 426.515 45.424 426.515 48.1665Z" fill="white"/>
<path opacity="0.1" d="M437.379 70.4721C446.32 70.4721 453.571 63.2204 453.571 54.2798C453.571 49.1684 451.196 44.6167 447.496 41.6484C446.869 48.4185 443.296 62.7729 424.375 63.9005C427.327 67.8788 432.043 70.4721 437.379 70.4721Z" fill="#231F20"/>
<path d="M440.891 220.719H472.422L453.144 82.7744H421.612L440.891 220.719Z" fill="#F1F2F2"/>
<path d="M453.968 68.3252H420.732V82.8137H453.968V68.3252Z" fill="#58595B"/>
<path opacity="0.2" d="M453.968 75.1455H420.732V82.8133H453.968V75.1455Z" fill="#231F20"/>
<path d="M440.891 220.717H472.423L469.506 199.842H437.974L440.891 220.717Z" fill="#6842EF"/>
<path d="M401.052 91.0762H201.634V215.63H401.052V91.0762Z" fill="#6842EF"/>
<path d="M401.052 173.404H201.634V216.706H401.052V173.404Z" fill="#231F20"/>
<path d="M244.478 112.469V134.725C244.478 137.29 244.981 139.214 245.986 140.497C246.992 141.745 248.673 142.369 251.03 142.369C253.388 142.369 255.069 141.745 256.074 140.497C257.08 139.214 257.582 137.29 257.582 134.725V112.469H265.278V133.893C265.278 136.562 265.018 138.885 264.498 140.861C264.013 142.802 263.198 144.414 262.054 145.697C260.91 146.945 259.437 147.881 257.634 148.505C255.832 149.094 253.63 149.389 251.03 149.389C248.43 149.389 246.229 149.094 244.426 148.505C242.624 147.881 241.15 146.945 240.006 145.697C238.862 144.414 238.03 142.802 237.51 140.861C237.025 138.885 236.782 136.562 236.782 133.893V112.469H244.478ZM272.68 148.765V121.465H280.376V126.093H280.688C281.173 124.671 282.023 123.441 283.236 122.401C284.449 121.361 286.131 120.841 288.28 120.841C291.088 120.841 293.203 121.777 294.624 123.649C296.08 125.521 296.808 128.19 296.808 131.657V148.765H289.112V132.281C289.112 130.513 288.835 129.213 288.28 128.381C287.725 127.514 286.737 127.081 285.316 127.081C284.692 127.081 284.085 127.167 283.496 127.341C282.907 127.479 282.369 127.722 281.884 128.069C281.433 128.415 281.069 128.849 280.792 129.369C280.515 129.854 280.376 130.426 280.376 131.085V148.765H272.68ZM320.4 144.189H320.14C319.932 144.917 319.603 145.61 319.152 146.269C318.702 146.893 318.147 147.447 317.488 147.933C316.864 148.383 316.136 148.73 315.304 148.973C314.507 149.25 313.675 149.389 312.808 149.389C309.342 149.389 306.724 148.175 304.956 145.749C303.188 143.287 302.304 139.734 302.304 135.089C302.304 130.443 303.188 126.907 304.956 124.481C306.724 122.054 309.342 120.841 312.808 120.841C314.576 120.841 316.136 121.326 317.488 122.297C318.875 123.267 319.759 124.515 320.14 126.041H320.4V110.285H328.096V148.765H320.4V144.189ZM315.356 143.149C316.812 143.149 318.008 142.802 318.944 142.109C319.915 141.381 320.4 140.393 320.4 139.145V131.085C320.4 129.837 319.915 128.866 318.944 128.173C318.008 127.445 316.812 127.081 315.356 127.081C313.9 127.081 312.687 127.601 311.716 128.641C310.78 129.646 310.312 131.015 310.312 132.749V137.481C310.312 139.214 310.78 140.601 311.716 141.641C312.687 142.646 313.9 143.149 315.356 143.149ZM346.681 149.389C344.601 149.389 342.747 149.059 341.117 148.401C339.488 147.707 338.101 146.754 336.957 145.541C335.848 144.293 334.999 142.785 334.409 141.017C333.855 139.249 333.577 137.273 333.577 135.089C333.577 132.939 333.855 130.998 334.409 129.265C334.964 127.497 335.779 125.989 336.853 124.741C337.963 123.493 339.315 122.539 340.909 121.881C342.504 121.187 344.324 120.841 346.369 120.841C348.623 120.841 350.547 121.222 352.141 121.985C353.771 122.747 355.088 123.77 356.093 125.053C357.133 126.335 357.879 127.826 358.329 129.525C358.815 131.189 359.057 132.939 359.057 134.777V137.065H341.533V137.481C341.533 139.283 342.019 140.722 342.989 141.797C343.96 142.837 345.485 143.357 347.565 143.357C349.16 143.357 350.46 143.045 351.465 142.421C352.471 141.762 353.407 140.982 354.273 140.081L358.121 144.865C356.908 146.286 355.313 147.395 353.337 148.193C351.396 148.99 349.177 149.389 346.681 149.389ZM346.525 126.509C344.965 126.509 343.735 127.029 342.833 128.069C341.967 129.074 341.533 130.426 341.533 132.125V132.541H351.101V132.073C351.101 130.409 350.72 129.074 349.957 128.069C349.229 127.029 348.085 126.509 346.525 126.509ZM364.492 148.765V121.465H372.188V127.393H372.448C372.587 126.63 372.83 125.902 373.176 125.209C373.523 124.481 373.974 123.839 374.528 123.285C375.118 122.73 375.811 122.297 376.608 121.985C377.406 121.638 378.342 121.465 379.416 121.465H380.768V128.641H378.844C376.591 128.641 374.91 128.935 373.8 129.525C372.726 130.114 372.188 131.206 372.188 132.801V148.765H364.492Z" fill="white"/>
<path opacity="0.2" d="M401.052 112.612C375.651 136.307 295.466 167.3 201.634 172.701V216.681H401.052V112.612Z" fill="#231F20"/>
<path d="M243.597 191.11H243.525L242.301 193.558L239.037 199.486L235.845 193.582L234.573 190.942H234.501V202.102H231.069V185.35H234.933L239.037 193.198H239.085L243.141 185.35H247.029V202.102H243.597V191.11ZM259.853 202.102C259.213 202.102 258.677 201.902 258.245 201.502C257.829 201.102 257.565 200.566 257.453 199.894H257.309C257.117 200.71 256.693 201.334 256.037 201.766C255.381 202.182 254.573 202.39 253.613 202.39C252.349 202.39 251.381 202.054 250.709 201.382C250.037 200.71 249.701 199.822 249.701 198.718C249.701 197.39 250.181 196.406 251.141 195.766C252.117 195.11 253.437 194.782 255.101 194.782H257.093V193.99C257.093 193.382 256.933 192.902 256.613 192.55C256.293 192.182 255.757 191.998 255.005 191.998C254.301 191.998 253.741 192.15 253.325 192.454C252.909 192.758 252.565 193.102 252.293 193.486L250.181 191.614C250.693 190.862 251.333 190.278 252.101 189.862C252.885 189.43 253.941 189.214 255.269 189.214C257.061 189.214 258.405 189.606 259.301 190.39C260.197 191.174 260.645 192.318 260.645 193.822V199.342H261.821V202.102H259.853ZM254.933 199.918C255.525 199.918 256.029 199.79 256.445 199.534C256.877 199.278 257.093 198.862 257.093 198.286V196.798H255.365C253.973 196.798 253.277 197.27 253.277 198.214V198.574C253.277 199.038 253.421 199.382 253.709 199.606C253.997 199.814 254.405 199.918 254.933 199.918ZM265.981 188.158C265.261 188.158 264.733 187.998 264.397 187.678C264.077 187.342 263.917 186.918 263.917 186.406V185.878C263.917 185.366 264.077 184.95 264.397 184.63C264.733 184.294 265.261 184.126 265.981 184.126C266.701 184.126 267.221 184.294 267.541 184.63C267.877 184.95 268.045 185.366 268.045 185.878V186.406C268.045 186.918 267.877 187.342 267.541 187.678C267.221 187.998 266.701 188.158 265.981 188.158ZM264.205 189.502H267.757V202.102H264.205V189.502ZM271.072 202.102V189.502H274.624V191.638H274.768C274.992 190.982 275.384 190.414 275.944 189.934C276.504 189.454 277.28 189.214 278.272 189.214C279.568 189.214 280.544 189.646 281.2 190.51C281.872 191.374 282.208 192.606 282.208 194.206V202.102H278.656V194.494C278.656 193.678 278.528 193.078 278.272 192.694C278.016 192.294 277.56 192.094 276.904 192.094C276.616 192.094 276.336 192.134 276.064 192.214C275.792 192.278 275.544 192.39 275.32 192.55C275.112 192.71 274.944 192.91 274.816 193.15C274.688 193.374 274.624 193.638 274.624 193.942V202.102H271.072ZM289.785 202.102C288.553 202.102 287.617 201.79 286.977 201.166C286.353 200.542 286.041 199.63 286.041 198.43V192.262H284.265V189.502H285.153C285.633 189.502 285.961 189.39 286.137 189.166C286.313 188.926 286.401 188.59 286.401 188.158V186.094H289.593V189.502H292.089V192.262H289.593V199.342H291.897V202.102H289.785ZM299.719 202.39C298.759 202.39 297.903 202.238 297.151 201.934C296.399 201.614 295.759 201.174 295.231 200.614C294.719 200.038 294.327 199.342 294.055 198.526C293.799 197.71 293.671 196.798 293.671 195.79C293.671 194.798 293.799 193.902 294.055 193.102C294.311 192.286 294.687 191.59 295.183 191.014C295.695 190.438 296.319 189.998 297.055 189.694C297.791 189.374 298.631 189.214 299.575 189.214C300.615 189.214 301.503 189.39 302.239 189.742C302.991 190.094 303.599 190.566 304.063 191.158C304.543 191.75 304.887 192.438 305.095 193.222C305.319 193.99 305.431 194.798 305.431 195.646V196.702H297.343V196.894C297.343 197.726 297.567 198.39 298.015 198.886C298.463 199.366 299.167 199.606 300.127 199.606C300.863 199.606 301.463 199.462 301.927 199.174C302.391 198.87 302.823 198.51 303.223 198.094L304.999 200.302C304.439 200.958 303.703 201.47 302.791 201.838C301.895 202.206 300.871 202.39 299.719 202.39ZM299.647 191.83C298.927 191.83 298.359 192.07 297.943 192.55C297.543 193.014 297.343 193.638 297.343 194.422V194.614H301.759V194.398C301.759 193.63 301.583 193.014 301.231 192.55C300.895 192.07 300.367 191.83 299.647 191.83ZM307.939 202.102V189.502H311.491V191.638H311.635C311.859 190.982 312.251 190.414 312.811 189.934C313.371 189.454 314.147 189.214 315.139 189.214C316.435 189.214 317.411 189.646 318.067 190.51C318.739 191.374 319.075 192.606 319.075 194.206V202.102H315.523V194.494C315.523 193.678 315.395 193.078 315.139 192.694C314.883 192.294 314.427 192.094 313.771 192.094C313.483 192.094 313.203 192.134 312.931 192.214C312.659 192.278 312.411 192.39 312.187 192.55C311.979 192.71 311.811 192.91 311.683 193.15C311.555 193.374 311.491 193.638 311.491 193.942V202.102H307.939ZM331.548 202.102C330.908 202.102 330.372 201.902 329.94 201.502C329.524 201.102 329.26 200.566 329.148 199.894H329.004C328.812 200.71 328.388 201.334 327.732 201.766C327.076 202.182 326.268 202.39 325.308 202.39C324.044 202.39 323.076 202.054 322.404 201.382C321.732 200.71 321.396 199.822 321.396 198.718C321.396 197.39 321.876 196.406 322.836 195.766C323.812 195.11 325.132 194.782 326.796 194.782H328.788V193.99C328.788 193.382 328.628 192.902 328.308 192.55C327.988 192.182 327.452 191.998 326.7 191.998C325.996 191.998 325.436 192.15 325.02 192.454C324.604 192.758 324.26 193.102 323.988 193.486L321.876 191.614C322.388 190.862 323.028 190.278 323.796 189.862C324.58 189.43 325.636 189.214 326.964 189.214C328.756 189.214 330.1 189.606 330.996 190.39C331.892 191.174 332.34 192.318 332.34 193.822V199.342H333.516V202.102H331.548ZM326.628 199.918C327.22 199.918 327.724 199.79 328.14 199.534C328.572 199.278 328.788 198.862 328.788 198.286V196.798H327.06C325.668 196.798 324.972 197.27 324.972 198.214V198.574C324.972 199.038 325.116 199.382 325.404 199.606C325.692 199.814 326.1 199.918 326.628 199.918ZM335.9 202.102V189.502H339.452V191.638H339.596C339.82 190.982 340.212 190.414 340.772 189.934C341.332 189.454 342.108 189.214 343.1 189.214C344.396 189.214 345.372 189.646 346.028 190.51C346.7 191.374 347.036 192.606 347.036 194.206V202.102H343.484V194.494C343.484 193.678 343.356 193.078 343.1 192.694C342.844 192.294 342.388 192.094 341.732 192.094C341.444 192.094 341.164 192.134 340.892 192.214C340.62 192.278 340.372 192.39 340.148 192.55C339.94 192.71 339.772 192.91 339.644 193.15C339.516 193.374 339.452 193.638 339.452 193.942V202.102H335.9ZM355.285 202.39C354.341 202.39 353.501 202.238 352.765 201.934C352.029 201.614 351.413 201.174 350.917 200.614C350.421 200.038 350.045 199.342 349.789 198.526C349.533 197.71 349.405 196.798 349.405 195.79C349.405 194.782 349.533 193.878 349.789 193.078C350.045 192.262 350.421 191.566 350.917 190.99C351.413 190.414 352.029 189.974 352.765 189.67C353.501 189.366 354.341 189.214 355.285 189.214C356.565 189.214 357.629 189.502 358.477 190.078C359.341 190.654 359.957 191.462 360.325 192.502L357.445 193.75C357.333 193.27 357.101 192.862 356.749 192.526C356.397 192.19 355.909 192.022 355.285 192.022C354.565 192.022 354.021 192.262 353.653 192.742C353.285 193.206 353.101 193.838 353.101 194.638V196.99C353.101 197.79 353.285 198.422 353.653 198.886C354.021 199.35 354.565 199.582 355.285 199.582C355.925 199.582 356.429 199.414 356.797 199.078C357.181 198.726 357.461 198.27 357.637 197.71L360.397 198.91C359.981 200.11 359.333 200.99 358.453 201.55C357.589 202.11 356.533 202.39 355.285 202.39ZM367.734 202.39C366.774 202.39 365.918 202.238 365.166 201.934C364.414 201.614 363.774 201.174 363.246 200.614C362.734 200.038 362.342 199.342 362.07 198.526C361.814 197.71 361.686 196.798 361.686 195.79C361.686 194.798 361.814 193.902 362.07 193.102C362.326 192.286 362.702 191.59 363.198 191.014C363.71 190.438 364.334 189.998 365.07 189.694C365.806 189.374 366.646 189.214 367.59 189.214C368.63 189.214 369.518 189.39 370.254 189.742C371.006 190.094 371.614 190.566 372.078 191.158C372.558 191.75 372.902 192.438 373.11 193.222C373.334 193.99 373.446 194.798 373.446 195.646V196.702H365.358V196.894C365.358 197.726 365.582 198.39 366.03 198.886C366.478 199.366 367.182 199.606 368.142 199.606C368.878 199.606 369.478 199.462 369.942 199.174C370.406 198.87 370.838 198.51 371.238 198.094L373.014 200.302C372.454 200.958 371.718 201.47 370.806 201.838C369.91 202.206 368.886 202.39 367.734 202.39ZM367.662 191.83C366.942 191.83 366.374 192.07 365.958 192.55C365.558 193.014 365.358 193.638 365.358 194.422V194.614H369.774V194.398C369.774 193.63 369.598 193.014 369.246 192.55C368.91 192.07 368.382 191.83 367.662 191.83Z" fill="white"/>
</svg>
