<svg width="109" height="28" viewBox="0 0 109 28" fill="none" xmlns="http://www.w3.org/2000/svg">
<path d="M6.232 27.5L0.544 2.372H5.944L8.32 14.432L9.652 21.416H9.76L11.344 14.432L14.116 2.372H20.092L22.9 14.432L24.448 21.416H24.556L25.888 14.432L28.3 2.372H33.484L27.652 27.5H21.424L18.256 13.892L17.032 8.384H16.924L15.664 13.892L12.496 27.5H6.232ZM49.8778 27.5C48.9178 27.5 48.1138 27.2 47.4658 26.6C46.8418 26 46.4458 25.196 46.2778 24.188H46.0618C45.7738 25.412 45.1378 26.348 44.1538 26.996C43.1698 27.62 41.9578 27.932 40.5178 27.932C38.6218 27.932 37.1698 27.428 36.1618 26.42C35.1538 25.412 34.6498 24.08 34.6498 22.424C34.6498 20.432 35.3698 18.956 36.8098 17.996C38.2738 17.012 40.2538 16.52 42.7498 16.52H45.7378V15.332C45.7378 14.42 45.4978 13.7 45.0178 13.172C44.5378 12.62 43.7338 12.344 42.6058 12.344C41.5498 12.344 40.7098 12.572 40.0858 13.028C39.4618 13.484 38.9458 14 38.5378 14.576L35.3698 11.768C36.1378 10.64 37.0978 9.764 38.2498 9.14C39.4258 8.492 41.0098 8.168 43.0018 8.168C45.6898 8.168 47.7058 8.756 49.0498 9.932C50.3938 11.108 51.0658 12.824 51.0658 15.08V23.36H52.8298V27.5H49.8778ZM42.4978 24.224C43.3858 24.224 44.1418 24.032 44.7658 23.648C45.4138 23.264 45.7378 22.64 45.7378 21.776V19.544H43.1458C41.0578 19.544 40.0138 20.252 40.0138 21.668V22.208C40.0138 22.904 40.2298 23.42 40.6618 23.756C41.0938 24.068 41.7058 24.224 42.4978 24.224ZM61.6979 27.5C59.8739 27.5 58.5299 27.056 57.6659 26.168C56.8259 25.28 56.4059 23.996 56.4059 22.316V0.86H61.7339V23.36H64.1099V27.5H61.6979ZM72.3151 27.5C70.4911 27.5 69.1471 27.056 68.2831 26.168C67.4431 25.28 67.0231 23.996 67.0231 22.316V0.86H72.3511V23.36H74.7271V27.5H72.3151ZM85.8055 27.932C84.3655 27.932 83.0815 27.704 81.9535 27.248C80.8255 26.768 79.8655 26.108 79.0735 25.268C78.3055 24.404 77.7175 23.36 77.3095 22.136C76.9255 20.912 76.7335 19.544 76.7335 18.032C76.7335 16.544 76.9255 15.2 77.3095 14C77.6935 12.776 78.2575 11.732 79.0015 10.868C79.7695 10.004 80.7055 9.344 81.8095 8.888C82.9135 8.408 84.1735 8.168 85.5895 8.168C87.1495 8.168 88.4815 8.432 89.5855 8.96C90.7135 9.488 91.6255 10.196 92.3215 11.084C93.0415 11.972 93.5575 13.004 93.8695 14.18C94.2055 15.332 94.3735 16.544 94.3735 17.816V19.4H82.2415V19.688C82.2415 20.936 82.5775 21.932 83.2495 22.676C83.9215 23.396 84.9775 23.756 86.4175 23.756C87.5215 23.756 88.4215 23.54 89.1175 23.108C89.8135 22.652 90.4615 22.112 91.0615 21.488L93.7255 24.8C92.8855 25.784 91.7815 26.552 90.4135 27.104C89.0695 27.656 87.5335 27.932 85.8055 27.932ZM85.6975 12.092C84.6175 12.092 83.7655 12.452 83.1415 13.172C82.5415 13.868 82.2415 14.804 82.2415 15.98V16.268H88.8655V15.944C88.8655 14.792 88.6015 13.868 88.0735 13.172C87.5695 12.452 86.7775 12.092 85.6975 12.092ZM104.76 27.5C102.912 27.5 101.508 27.032 100.548 26.096C99.6123 25.16 99.1443 23.792 99.1443 21.992V12.74H96.4803V8.6H97.8123C98.5323 8.6 99.0243 8.432 99.2883 8.096C99.5523 7.736 99.6843 7.232 99.6843 6.584V3.488H104.472V8.6H108.216V12.74H104.472V23.36H107.928V27.5H104.76Z" fill="#051321"/>
</svg>
