<svg width="109" height="28" viewBox="0 0 109 28" fill="none" xmlns="http://www.w3.org/2000/svg">
<g clip-path="url(#clip0_228_34947)">
<path d="M35.4064 22.6075C33.3737 22.4914 30.8203 21.1149 29.7955 20.0866L32.0466 17.2506C32.601 17.8642 35.2552 19.3735 37.0695 19.0418C37.5566 18.9423 38.111 18.5276 38.111 17.8808C38.1446 17.4496 37.775 17.0516 37.4558 16.9023C37.1534 16.6867 36.1959 16.6536 35.5744 16.6204C34.8688 16.5872 34.0625 16.5043 33.2057 16.156C31.6266 15.3931 30.5179 13.8176 30.4675 12.1425C30.4675 10.1689 31.2738 9.07435 32.097 8.39438C33.7601 7.11735 36.0783 7.00126 37.6742 7.41588C38.9341 7.7144 40.3284 8.39438 41.1516 9.17386L39.0853 12.0264C38.7829 11.8108 37.3214 11.1474 36.7671 10.9982C35.9103 10.7494 34.8184 10.8821 34.3312 11.1806C34.18 11.2635 33.9617 11.6118 34.0289 12.0264C34.0289 12.3249 34.3144 12.7561 34.516 12.8722C34.9528 13.0878 35.356 13.2039 35.9271 13.2371C36.7335 13.2371 38.0774 13.2371 39.1021 13.7181C40.7988 14.6302 41.7899 16.1892 41.6555 17.9803C41.5547 19.5393 40.4796 21.0485 39.0685 21.7783C38.027 22.4582 36.6159 22.707 35.4064 22.6075Z" fill="#2A3137"/>
<path d="M50.3911 22.4583C48.392 22.4583 46.5105 21.6954 45.0658 20.3355C43.5875 18.9424 42.7476 17.0517 42.7308 15.0118C42.6972 12.9718 43.4699 11.0646 44.881 9.58855C46.2921 8.16226 48.2072 7.29985 50.2735 7.28326C52.3397 7.25009 54.2548 8.01299 55.7331 9.40611L53.1797 12.0265C52.4405 11.33 51.4494 10.9319 50.4079 10.9319H50.3407C49.2655 10.9319 48.2744 11.3631 47.5353 12.126C46.7961 12.8889 46.3929 13.884 46.4265 14.962C46.4265 16.0234 46.8633 17.0019 47.636 17.7317C48.4088 18.4614 49.4167 18.8594 50.5087 18.8263C51.4998 18.8263 52.4237 18.4282 53.1629 17.7648L55.6659 20.435C54.2716 21.712 52.4573 22.4417 50.5758 22.4749H50.3911V22.4583Z" fill="#2A3137"/>
<path d="M71.1376 7.33294V22.4914H68.0634V21.1148C66.8035 21.9607 65.2916 22.4914 63.6621 22.4914C59.412 22.4914 55.9514 19.0583 55.9514 14.879C55.9514 10.683 59.3952 7.2666 63.6621 7.2666C65.2916 7.2666 66.8035 7.78073 68.0634 8.64314V7.33294H71.1376ZM67.6434 14.879C67.6434 12.6898 65.8627 10.9318 63.6285 10.9318C61.4446 10.9318 59.6471 12.6898 59.6471 14.879C59.6471 17.035 61.4278 18.8096 63.6285 18.8096C65.8627 18.8096 67.6434 17.035 67.6434 14.879Z" fill="#2A3137"/>
<path d="M88.8436 15.1774C88.8436 19.3402 85.4166 22.7235 81.2337 22.7235C79.6546 22.7235 78.2099 22.2425 77.0172 21.4465V27.4999H73.3551V7.43237H77.0172V8.95817C78.2267 8.12893 79.6714 7.68115 81.2337 7.68115C85.4334 7.66456 88.8436 11.0478 88.8436 15.1774ZM85.1815 15.1774C85.1815 13.0214 83.4176 11.28 81.2337 11.28C79.0499 11.28 77.2524 13.0214 77.2524 15.1774C77.2524 17.3334 79.0331 19.108 81.2337 19.108C83.4176 19.108 85.1815 17.35 85.1815 15.1774Z" fill="#2A3137"/>
<path d="M92.1699 5.62469C90.7924 5.62469 89.6836 4.5301 89.6836 3.12039V2.95455C89.6836 1.59459 90.7924 0.5 92.1699 0.5C93.581 0.5 94.7401 1.59459 94.7401 2.95455V3.12039C94.7401 4.51351 93.581 5.62469 92.1699 5.62469ZM94.085 22.3919H90.4564V7.28317H94.085V22.3919Z" fill="#2A3137"/>
<path d="M103.358 22.4583C101.359 22.4583 99.4774 21.6954 98.0327 20.3355C96.5544 18.9424 95.7144 17.0517 95.6976 15.0118C95.664 12.9718 96.4368 11.0646 97.8479 9.58855C99.259 8.16226 101.174 7.29985 103.24 7.28326C105.307 7.25009 107.222 8.01299 108.7 9.40611L106.147 12.0265C105.407 11.33 104.416 10.9319 103.375 10.9319H103.308C102.232 10.9319 101.241 11.3631 100.502 12.126C99.763 12.8889 99.3598 13.884 99.3934 14.962C99.3934 16.0234 99.8302 17.0019 100.603 17.7317C101.376 18.4614 102.384 18.8594 103.476 18.8263C104.467 18.8263 105.391 18.4282 106.13 17.7648L108.633 20.435C107.238 21.712 105.424 22.4417 103.543 22.4749H103.358V22.4583Z" fill="#2A3137"/>
<path d="M12.6777 20.5841C12.3753 20.6173 12.2913 20.2027 12.5769 20.1198C12.5937 20.1198 12.5937 20.1198 12.6105 20.1032C18.5741 18.4447 22.9418 15.4429 22.3706 13.4029C21.7826 11.363 16.4742 11.0479 10.5106 12.7064C4.54695 14.3648 0.179239 17.3667 0.750401 19.4066C2.43029 25.2942 8.62907 28.7438 14.5927 27.0854C19.4476 25.742 22.6562 21.43 22.7738 16.7033C18.4565 20.3685 12.6777 20.5841 12.6777 20.5841Z" fill="#F54547"/>
<path d="M18.5909 5.54182C17.5493 1.87659 13.6856 -0.262849 9.95624 0.765407C7.13403 1.56147 5.18536 3.96627 4.89978 6.70275C5.40374 6.37106 7.638 5.04428 11.0314 4.82867C11.1154 4.82867 11.1658 4.81209 11.1658 4.81209C11.3505 4.77892 11.4009 5.06086 11.2329 5.11062H11.2161C7.48681 6.13887 4.76539 8.01295 5.11816 9.28998C5.48774 10.567 8.78032 10.7495 12.5097 9.72118C16.239 8.67634 18.9604 6.81885 18.5909 5.54182Z" fill="#F54547"/>
</g>
<defs>
<clipPath id="clip0_228_34947">
<rect width="108" height="27" fill="white" transform="translate(0.699951 0.5)"/>
</clipPath>
</defs>
</svg>
