<svg width="165" height="28" viewBox="0 0 165 28" fill="none" xmlns="http://www.w3.org/2000/svg">
<mask id="mask0_228_34951" style="mask-type:alpha" maskUnits="userSpaceOnUse" x="25" y="10" width="14" height="18">
<path d="M33.4822 10.0688L38.095 21.4402C39.0284 23.7413 38.0855 26.4373 35.989 27.4618C33.8924 28.4864 31.4361 27.4515 30.5027 25.1503L26.7738 15.958L25.1305 20.2072V10.0688H33.4822V10.0688Z" fill="white"/>
</mask>
<g mask="url(#mask0_228_34951)">
<path d="M33.4823 10.0688L38.095 21.4402C39.0285 23.7413 38.0856 26.4373 35.9891 27.4618C33.8925 28.4864 31.4362 27.4515 30.5028 25.1503L26.7739 15.958L25.1306 20.2072V10.0688H33.4823V10.0688Z" fill="#2AA8FF"/>
</g>
<mask id="mask1_228_34951" style="mask-type:alpha" maskUnits="userSpaceOnUse" x="25" y="11" width="10" height="8">
<path d="M33.9823 11.3013L34.9367 13.654C34.3602 13.4342 33.7409 13.3148 33.0961 13.3148C30.4329 13.3148 28.2039 15.3526 27.6362 18.0834L26.774 15.958L25.8602 18.3207L25.8602 11.3013H33.9823Z" fill="white"/>
</mask>
<g mask="url(#mask1_228_34951)">
<path d="M33.982 11.3013L34.9364 13.654C34.3599 13.4342 33.7406 13.3148 33.0958 13.3148C30.4326 13.3148 28.2036 15.3526 27.6359 18.0834L26.7737 15.958L25.8599 18.3207L25.8599 11.3013H33.982Z" fill="#393939" fill-opacity="0.2"/>
</g>
<mask id="mask2_228_34951" style="mask-type:alpha" maskUnits="userSpaceOnUse" x="2" y="0" width="19" height="18">
<path d="M20.1003 9.86911V17.9217H12.4156L11.619 15.9579L10.8596 17.9217H2.3595V16.5553L7.68695 2.77997C8.36074 1.03772 9.90559 -0.006176 11.5283 2.74946e-05C13.1246 -0.00607345 14.6501 1.00348 15.3411 2.70693L19.1955 12.2087L20.1003 9.86911Z" fill="white"/>
</mask>
<g mask="url(#mask2_228_34951)">
<path d="M20.1 9.86911V17.9217H12.4153L11.6187 15.9579L10.8593 17.9217H2.35919V16.5553L7.68665 2.77997C8.36044 1.03772 9.90528 -0.006176 11.528 2.74946e-05C13.1243 -0.00607345 14.6498 1.00348 15.3408 2.70693L19.1952 12.2087L20.1 9.86911Z" fill="#017ACE"/>
</g>
<mask id="mask3_228_34951" style="mask-type:alpha" maskUnits="userSpaceOnUse" x="11" y="0" width="24" height="28">
<path d="M19.1899 12.1949L19.1955 12.2087L22.8419 2.77997C23.5157 1.03772 25.0605 -0.006176 26.6832 2.74946e-05C28.2796 -0.00607345 29.8051 1.00348 30.4961 2.70693L34.9328 13.6444C34.0381 12.7963 32.8723 12.2835 31.5975 12.2835C29.3824 12.2835 27.4967 13.8318 26.7896 15.9964L26.774 15.9579L23.192 25.22C22.2953 27.5387 19.8558 28.6205 17.7433 27.6363C17.5366 27.54 17.3407 27.4275 17.1563 27.3007C16.3816 26.8383 15.7343 26.1028 15.3479 25.1503L11.6335 15.9935C12.1926 16.1692 12.7832 16.2633 13.3938 16.2633C15.963 16.2633 18.1777 14.5969 19.1899 12.1949Z" fill="white"/>
</mask>
<g mask="url(#mask3_228_34951)">
<path d="M19.1897 12.1949L19.1953 12.2087L22.8417 2.77997C23.5155 1.03772 25.0604 -0.006176 26.683 2.74946e-05C28.2794 -0.00607345 29.8049 1.00348 30.4959 2.70693L34.9326 13.6444C34.0379 12.7963 32.8721 12.2835 31.5973 12.2835C29.3822 12.2835 27.4966 13.8318 26.7894 15.9964L26.7738 15.9579L23.1918 25.22C22.2951 27.5387 19.8556 28.6205 17.7431 27.6363C17.5364 27.54 17.3405 27.4275 17.1561 27.3007C16.3814 26.8383 15.7341 26.1028 15.3477 25.1503L11.6333 15.9935C12.1925 16.1692 12.783 16.2633 13.3936 16.2633C15.9628 16.2633 18.1775 14.5969 19.1897 12.1949Z" fill="#AEDEFF"/>
</g>
<mask id="mask4_228_34951" style="mask-type:alpha" maskUnits="userSpaceOnUse" x="1" y="12" width="11" height="12">
<path d="M11.5958 16.0174L8.9209 22.934C8.26855 23.2626 7.54163 23.4457 6.77529 23.4457C4.08711 23.4457 1.884 21.1933 1.68304 18.3038L3.51873 13.5572C4.4027 12.7539 5.53758 12.271 6.77529 12.271C9.00315 12.271 10.8978 13.8355 11.5958 16.0174Z" fill="white"/>
</mask>
<g mask="url(#mask4_228_34951)">
<path d="M11.5958 16.0174L8.92096 22.934C8.26861 23.2626 7.54169 23.4457 6.77535 23.4457C4.08717 23.4457 1.88406 21.1933 1.68311 18.3038L3.5188 13.5572C4.40276 12.7539 5.53764 12.271 6.77535 12.271C9.00321 12.271 10.8979 13.8355 11.5958 16.0174Z" fill="black"/>
</g>
<mask id="mask5_228_34951" style="mask-type:alpha" maskUnits="userSpaceOnUse" x="0" y="13" width="11" height="15">
<path d="M10.8109 18.0475L8.03706 25.22C7.14035 27.5386 4.70088 28.6204 2.58836 27.6362C0.475844 26.652 -0.509764 23.9745 0.386948 21.6558L3.46708 13.6914C4.11909 13.3746 4.84021 13.1987 5.59865 13.1987C8.21706 13.1987 10.3908 15.2955 10.8109 18.0475Z" fill="white"/>
</mask>
<g mask="url(#mask5_228_34951)">
<path d="M10.8108 18.0475L8.03688 25.22C7.14017 27.5386 4.7007 28.6204 2.58818 27.6362C0.475661 26.652 -0.509947 23.9745 0.386764 21.6558L3.4669 13.6914C4.1189 13.3746 4.84003 13.1987 5.59847 13.1987C8.21688 13.1987 10.3906 15.2955 10.8108 18.0475Z" fill="#393939"/>
</g>
<path d="M61.6455 7.02079V21.0331C61.6455 21.2487 61.4863 21.4235 61.2898 21.4235H58.7997C58.6032 21.4235 58.444 21.2487 58.444 21.0331V12.9174C58.444 12.7018 58.2847 12.527 58.0882 12.527C57.9714 12.527 57.862 12.59 57.7956 12.6955L55.4908 16.3565C55.4244 16.462 55.3149 16.525 55.1981 16.525H53.9722C53.8544 16.525 53.7443 16.461 53.678 16.3542L51.4457 12.7529C51.3352 12.5747 51.1139 12.5285 50.9515 12.6497C50.8541 12.7224 50.7958 12.8432 50.7958 12.9725V21.0331C50.7958 21.2487 50.6365 21.4235 50.4401 21.4235H47.95C47.7535 21.4235 47.5942 21.2487 47.5942 21.0331V7.02079C47.5942 6.80523 47.7535 6.63048 47.95 6.63048H51.1036C51.2225 6.63048 51.3334 6.69559 51.3994 6.80402L54.3241 11.6089C54.4332 11.7882 54.6541 11.8364 54.8175 11.7167C54.8563 11.6882 54.8897 11.6516 54.9157 11.6089L57.8403 6.80402C57.9063 6.69559 58.0173 6.63048 58.1361 6.63048H61.2898C61.4863 6.63048 61.6455 6.80523 61.6455 7.02079ZM66.0105 16.9543C66.1409 17.5789 66.4107 18.0667 66.8198 18.418C67.2289 18.7693 67.8307 18.945 68.6251 18.945C69.0876 18.945 69.5293 18.8832 69.9502 18.7596C70.1796 18.6922 70.5445 18.5386 71.0447 18.2988C71.2247 18.2124 71.4344 18.3026 71.5131 18.5001C71.5173 18.5106 71.521 18.5213 71.5243 18.5322L72.0992 20.4103C72.157 20.5993 72.0757 20.8059 71.9106 20.8892C71.2364 21.2293 70.7223 21.4432 70.3682 21.5308C69.7635 21.6804 69.0401 21.7552 68.1982 21.7552C67.0243 21.7552 66.0253 21.5113 65.2012 21.0234C64.3771 20.5355 63.7516 19.8492 63.3248 18.9645C62.8979 18.0797 62.6844 17.0519 62.6844 15.881C62.6844 14.658 62.9038 13.6074 63.3425 12.7292C63.7813 11.851 64.3742 11.1874 65.1212 10.7386C65.8682 10.2897 66.7042 10.0653 67.6291 10.0653C69.1113 10.0653 70.2733 10.5369 71.1152 11.4802C71.9571 12.4234 72.3781 13.7993 72.3781 15.6078V16.564C72.3781 16.7796 72.2188 16.9543 72.0223 16.9543H66.0105ZM67.6291 12.8755C67.2022 12.8755 66.8554 12.9926 66.5886 13.2268C66.3952 13.4212 66.2506 13.6443 66.1548 13.8961C66.0791 14.0951 66.1647 14.3236 66.346 14.4067C66.3894 14.4266 66.436 14.4368 66.483 14.4368H68.7054C68.9019 14.4368 69.0611 14.2621 69.0611 14.0465C69.0611 14.0125 69.0571 13.9787 69.0491 13.9458C68.9755 13.6434 68.8549 13.4103 68.6874 13.2463C68.4173 13.002 68.0915 12.8755 67.6291 12.8755ZM85.6303 10.1433C86.911 10.1433 87.8685 10.5141 88.5028 11.2557C89.1372 11.9973 89.4544 13.1748 89.4544 14.7881V21.0331C89.4544 21.2487 89.2952 21.4235 89.0987 21.4235H86.7153C86.5189 21.4235 86.3596 21.2487 86.3596 21.0331V14.7881C86.3596 14.2547 86.2529 13.8481 86.0394 13.5683C85.826 13.2886 85.4584 13.1488 84.9367 13.1488C84.2964 13.1488 83.6442 13.461 82.9802 14.0855C82.992 14.2286 82.9979 14.4628 82.9979 14.7881V21.0331C82.9979 21.2487 82.8387 21.4235 82.6422 21.4235H80.2588C80.0624 21.4235 79.9031 21.2487 79.9031 21.0331V14.7881C79.9031 14.2547 79.7964 13.8481 79.5829 13.5683C79.3695 13.2886 79.0019 13.1488 78.4802 13.1488C77.8517 13.1488 77.2055 13.448 76.5415 14.0465V21.0331C76.5415 21.2487 76.3822 21.4235 76.1857 21.4235H73.8024C73.6059 21.4235 73.4466 21.2487 73.4466 21.0331V10.7678C73.4466 10.5523 73.6059 10.3775 73.8024 10.3775H76.1857C76.3822 10.3775 76.5415 10.5523 76.5415 10.7678V11.2362C76.9565 10.8589 77.3745 10.5824 77.7954 10.4068C78.2164 10.2311 78.6758 10.1433 79.1739 10.1433C80.7509 10.1433 81.83 10.6963 82.411 11.8022C82.9446 11.2297 83.4634 10.8101 83.9673 10.5434C84.4713 10.2767 85.0256 10.1433 85.6303 10.1433ZM96.482 10.0653C97.3832 10.0653 98.1806 10.2832 98.8743 10.719C99.568 11.1549 100.113 11.8119 100.511 12.6901C100.908 13.5684 101.106 14.6385 101.106 15.9005C101.106 17.1755 100.908 18.2521 100.511 19.1304C100.113 20.0086 99.568 20.6656 98.8743 21.1015C98.1806 21.5373 97.3832 21.7552 96.482 21.7552C95.5215 21.7552 94.6204 21.404 93.7785 20.7014V21.0331C93.7785 21.2487 93.6192 21.4235 93.4227 21.4235H91.0393C90.8429 21.4235 90.6836 21.2487 90.6836 21.0331V5.3034C90.6836 5.08784 90.8429 4.91309 91.0393 4.91309H93.4227C93.6192 4.91309 93.7785 5.08784 93.7785 5.3034V11.1191C94.6204 10.4165 95.5215 10.0653 96.482 10.0653ZM95.8061 18.7498C96.4939 18.7498 97.0126 18.5091 97.3624 18.0277C97.7122 17.5463 97.8871 16.8373 97.8871 15.9005C97.8871 14.9767 97.7122 14.2742 97.3624 13.7928C97.0126 13.3114 96.4939 13.0707 95.8061 13.0707C95.1302 13.0707 94.4543 13.3374 93.7785 13.8708V17.9496C94.4543 18.4831 95.1302 18.7498 95.8061 18.7498ZM105.027 16.9543C105.157 17.5789 105.427 18.0667 105.836 18.418C106.245 18.7693 106.847 18.945 107.641 18.945C108.104 18.945 108.546 18.8832 108.966 18.7596C109.196 18.6922 109.561 18.5386 110.061 18.2988C110.241 18.2124 110.451 18.3026 110.529 18.5001C110.534 18.5106 110.537 18.5213 110.541 18.5322L111.115 20.4103C111.173 20.5993 111.092 20.8059 110.927 20.8892C110.253 21.2293 109.739 21.4432 109.384 21.5308C108.78 21.6804 108.056 21.7552 107.215 21.7552C106.041 21.7552 105.042 21.5113 104.218 21.0234C103.393 20.5355 102.768 19.8492 102.341 18.9645C101.914 18.0797 101.701 17.0519 101.701 15.881C101.701 14.658 101.92 13.6074 102.359 12.7292C102.798 11.851 103.39 11.1874 104.137 10.7386C104.885 10.2897 105.72 10.0653 106.645 10.0653C108.128 10.0653 109.29 10.5369 110.132 11.4802C110.973 12.4234 111.394 13.7993 111.394 15.6078V16.564C111.394 16.7796 111.235 16.9543 111.039 16.9543H105.027ZM106.645 12.8755C106.218 12.8755 105.872 12.9926 105.605 13.2268C105.411 13.4212 105.267 13.6443 105.171 13.8961C105.095 14.0951 105.181 14.3236 105.362 14.4067C105.406 14.4266 105.452 14.4368 105.499 14.4368H107.722C107.918 14.4368 108.077 14.2621 108.077 14.0465C108.077 14.0125 108.073 13.9787 108.065 13.9458C107.992 13.6434 107.871 13.4103 107.704 13.2463C107.434 13.002 107.108 12.8755 106.645 12.8755ZM118.734 10.5336V12.7584C118.734 12.974 118.575 13.1488 118.378 13.1488H118.325C118.229 13.1488 118.132 13.1527 118.036 13.1607C117.219 13.2283 116.403 13.5821 115.586 14.2221V21.0331C115.586 21.2487 115.427 21.4235 115.23 21.4235H112.847C112.65 21.4235 112.491 21.2487 112.491 21.0331V10.7678C112.491 10.5523 112.65 10.3775 112.847 10.3775H115.23C115.427 10.3775 115.586 10.5523 115.586 10.7678V11.3533C116.025 10.95 116.466 10.6475 116.911 10.4458C117.323 10.2592 117.757 10.1589 118.214 10.145C118.251 10.1439 118.288 10.1433 118.325 10.1433H118.378C118.575 10.1433 118.734 10.3181 118.734 10.5336ZM123.538 21.7552C122.696 21.7552 121.952 21.6804 121.305 21.5308C120.916 21.4406 120.517 21.3115 120.108 21.1433C119.965 21.0844 119.762 20.9912 119.499 20.8637C119.37 20.8012 119.287 20.6612 119.287 20.5067V18.4125C119.287 18.1969 119.446 18.0222 119.642 18.0222C119.697 18.0222 119.751 18.0359 119.799 18.0622C119.932 18.1339 120.044 18.1909 120.134 18.2331C120.531 18.4192 120.931 18.5654 121.332 18.6717C122.02 18.8539 122.755 18.945 123.538 18.945C124.308 18.945 124.694 18.6913 124.694 18.1838C124.694 17.9757 124.64 17.8195 124.534 17.7155C124.427 17.6114 124.255 17.5268 124.018 17.4618L122.293 17.0714C121.285 16.8503 120.55 16.473 120.087 15.9395C119.625 15.4061 119.393 14.6775 119.393 13.7537C119.393 12.5047 119.746 11.5777 120.452 10.9727C121.157 10.3678 122.227 10.0653 123.662 10.0653C124.255 10.0653 124.875 10.1303 125.521 10.2604C125.891 10.3349 126.25 10.4222 126.599 10.5222C126.726 10.5587 126.896 10.6122 127.109 10.6829C127.259 10.7326 127.362 10.8844 127.362 11.0565V13.076C127.362 13.2916 127.202 13.4664 127.006 13.4664C126.963 13.4664 126.921 13.4578 126.88 13.4412C126.791 13.4043 126.712 13.3737 126.643 13.3496C126.36 13.2509 126.052 13.1644 125.716 13.0902C125.07 12.9471 124.439 12.8755 123.822 12.8755C123.336 12.8755 122.998 12.9276 122.808 13.0317C122.619 13.1357 122.524 13.2984 122.524 13.5196C122.524 13.6887 122.571 13.809 122.666 13.8806C122.761 13.9522 122.921 14.014 123.146 14.066L124.872 14.4563C125.915 14.6905 126.668 15.0743 127.131 15.6078C127.593 16.1412 127.824 16.9348 127.824 17.9887C127.824 19.2507 127.439 20.194 126.668 20.8185C125.897 21.443 124.854 21.7552 123.538 21.7552ZM132.77 14.1636V17.5008C132.77 17.9301 132.835 18.2326 132.966 18.4083C133.096 18.5839 133.333 18.6717 133.677 18.6717C133.903 18.6717 134.116 18.6543 134.314 18.6195C134.314 18.6195 134.314 18.6195 134.315 18.6195C134.508 18.5854 134.691 18.7304 134.722 18.9432C134.725 18.9636 134.726 18.9842 134.726 19.0049V21.0842C134.726 21.2707 134.606 21.4312 134.439 21.4672C134.424 21.4706 134.409 21.4736 134.396 21.4764C134.134 21.5322 133.903 21.5763 133.704 21.6089C133.425 21.6544 133.126 21.6772 132.805 21.6772C131.75 21.6772 130.965 21.4235 130.449 20.9161C129.933 20.4086 129.675 19.6801 129.675 18.7303V14.1636C129.675 13.948 129.516 13.7733 129.319 13.7733H128.643C128.447 13.7733 128.288 13.5985 128.288 13.3829V11.1581C128.288 10.9426 128.447 10.7678 128.643 10.7678H129.319C129.516 10.7678 129.675 10.5931 129.675 10.3775V7.45014C129.675 7.23458 129.834 7.05983 130.031 7.05983H132.414C132.611 7.05983 132.77 7.23458 132.77 7.45014V10.3775C132.77 10.5931 132.929 10.7678 133.126 10.7678H134.691C134.887 10.7678 135.047 10.9426 135.047 11.1581V13.3829C135.047 13.5985 134.887 13.7733 134.691 13.7733H133.126C132.929 13.7733 132.77 13.948 132.77 14.1636ZM140.11 10.3775C141.415 10.3775 142.408 10.5694 143.09 10.9532C143.771 11.337 144.225 11.8477 144.45 12.4852C144.676 13.1227 144.788 13.9359 144.788 14.9247V21.0331C144.788 21.2487 144.629 21.4235 144.432 21.4235H142.049C141.853 21.4235 141.693 21.2487 141.693 21.0331V20.5257C141.278 20.9421 140.869 21.2381 140.466 21.4137C140.063 21.5893 139.618 21.6772 139.132 21.6772C137.994 21.6772 137.101 21.3487 136.455 20.6916C135.809 20.0346 135.486 19.1206 135.486 17.9496C135.486 16.7657 135.815 15.855 136.473 15.2174C137.131 14.5799 138.047 14.2612 139.221 14.2612C140.193 14.2612 141.017 14.4563 141.693 14.8466C141.681 14.4823 141.631 14.1929 141.542 13.9782C141.453 13.7635 141.275 13.5976 141.009 13.4805C140.742 13.3634 140.353 13.3049 139.844 13.3049H138.172C137.975 13.3049 137.816 13.1301 137.816 12.9146V10.7678C137.816 10.5523 137.975 10.3775 138.172 10.3775H140.11ZM139.329 19.062C139.934 19.062 140.569 18.7628 141.233 18.1643V17.13C140.663 16.8307 140.088 16.6811 139.507 16.6811C139.08 16.6811 138.748 16.782 138.511 16.9836C138.274 17.1853 138.155 17.4943 138.155 17.9106C138.155 18.34 138.256 18.6392 138.458 18.8083C138.659 18.9775 138.95 19.062 139.329 19.062ZM150.754 21.7552C149.094 21.7422 147.825 21.2251 146.948 20.2037C146.07 19.1824 145.632 17.7415 145.632 15.881C145.632 14.0335 146.07 12.6056 146.948 11.5973C147.825 10.5889 149.094 10.0783 150.754 10.0653C151.359 10.0653 151.875 10.1043 152.302 10.1824C152.567 10.2309 152.839 10.3046 153.118 10.4034C153.19 10.4288 153.285 10.4659 153.405 10.5148C153.544 10.5718 153.636 10.7175 153.636 10.8803V13.0976C153.636 13.3131 153.476 13.4879 153.28 13.4879C153.234 13.4879 153.189 13.4783 153.147 13.4597C153.124 13.4496 153.103 13.4405 153.083 13.4324C152.847 13.3342 152.619 13.2591 152.399 13.2073C152.014 13.1162 151.584 13.0707 151.11 13.0707C150.315 13.0837 149.74 13.3244 149.385 13.7928C149.029 14.2612 148.851 14.9507 148.851 15.8615C148.851 16.7982 149.023 17.5138 149.367 18.0082C149.711 18.5026 150.262 18.7498 151.021 18.7498C151.448 18.7498 151.86 18.6782 152.257 18.5351C152.476 18.4563 152.699 18.3539 152.927 18.2278C152.98 18.1983 153.045 18.1596 153.122 18.1118C153.293 18.0055 153.51 18.0715 153.607 18.2591C153.618 18.2803 153.627 18.3026 153.634 18.3257L154.269 20.3733C154.325 20.5532 154.255 20.751 154.102 20.8418C153.958 20.9279 153.841 20.994 153.752 21.0402C152.828 21.5169 151.828 21.7552 150.754 21.7552ZM158.973 17.735L158.154 18.6912V21.0331C158.154 21.2487 157.995 21.4235 157.799 21.4235H155.415C155.219 21.4235 155.06 21.2487 155.06 21.0331V5.3034C155.06 5.08784 155.219 4.91309 155.415 4.91309H157.678H157.799C157.995 4.91309 158.154 5.08784 158.154 5.3034V5.42593V14.4563L161.197 10.8913C161.265 10.8125 161.359 10.7678 161.457 10.7678H164.176C164.373 10.7678 164.532 10.9426 164.532 11.1581C164.532 11.2579 164.497 11.3538 164.435 11.4263L161 15.4126L164.868 20.7914C164.99 20.9606 164.963 21.2061 164.809 21.3396C164.746 21.3939 164.669 21.4235 164.589 21.4235H161.795C161.686 21.4235 161.583 21.3687 161.516 21.2748L158.973 17.735Z" fill="#192A33"/>
</svg>
