<svg width="127" height="28" viewBox="0 0 127 28" fill="none" xmlns="http://www.w3.org/2000/svg">
<g clip-path="url(#clip0_228_34940)">
<path d="M22.4098 4.80711C17.6372 4.46429 12.3211 4.4643 7.54846 4.80711C6.54939 4.87887 5.79241 5.64387 5.71729 6.57894C5.47638 9.57768 5.44433 14.0704 5.66523 17.0661C5.7382 18.0556 6.60696 18.9049 7.78227 18.9049H11.4667V23.45L7.78978 23.4474C4.41672 23.4474 1.38908 20.9473 1.12755 17.4007C0.889455 14.1719 0.92234 9.44552 1.1819 6.21458C1.44202 2.97658 4.04578 0.496979 7.22248 0.268802C12.2122 -0.0895997 17.7461 -0.0896012 22.7358 0.268801C25.9125 0.496977 28.5163 2.97658 28.7765 6.21458C29.036 9.44552 29.0246 14.1719 28.7865 17.4007C28.525 20.9473 25.5044 23.4576 22.1313 23.4576L18.4924 23.4549L11.4667 28V23.45L18.4924 18.9049H22.1319C23.3071 18.9049 24.1759 18.0556 24.2489 17.0661C24.4698 14.0704 24.4819 9.57768 24.241 6.57894C24.1659 5.64387 23.409 4.87887 22.4098 4.80711Z" fill="#FE5000"/>
<path d="M35.9312 19.9773H46.9268V17.2165H39.2632V3.31738H35.9312V19.9773Z" fill="#1B1B20"/>
<path d="M48.5203 19.9776H51.7571V7.60162H48.5203V19.9776ZM48.2585 4.36482C48.2585 5.43582 49.0439 6.24502 50.1387 6.24502C51.2335 6.24502 52.0189 5.43582 52.0189 4.36482C52.0189 3.29382 51.2335 2.48462 50.1387 2.48462C49.0439 2.48462 48.2585 3.29382 48.2585 4.36482Z" fill="#1B1B20"/>
<path d="M64.4486 7.60156H61.2118L58.5462 16.6693L55.8806 7.60156H52.6438L56.8564 19.9775H60.236L64.4486 7.60156Z" fill="#1B1B20"/>
<path d="M70.2246 20.2631C72.9616 20.2631 75.175 18.6209 75.6034 16.3599H72.7712C72.4618 17.2167 71.605 17.9307 70.2246 17.9307C68.3444 17.9307 67.6066 16.6693 67.6066 15.2175V14.9081H75.6986V12.7423C75.6986 9.76734 73.8422 7.31592 70.177 7.31592C66.4642 7.31592 64.465 9.69594 64.465 13.0517V14.7415C64.465 18.2163 66.726 20.2631 70.2246 20.2631ZM67.6066 12.5043C67.6066 10.8383 68.3206 9.60074 70.177 9.60074C71.9144 9.60074 72.7236 10.7669 72.7236 12.3139V12.6233H67.6066V12.5043Z" fill="#1B1B20"/>
<path d="M84.3011 20.3108C88.5137 20.3108 91.1079 17.4548 91.2745 14.0514H88.1805C87.9663 15.9316 86.7763 17.5738 84.3011 17.5738C81.5165 17.5738 80.3265 15.6698 80.3265 13.0042V10.291C80.3265 7.62537 81.5165 5.72137 84.3011 5.72137C86.7763 5.72137 87.9663 7.36357 88.1805 9.24377H91.2745C91.1079 5.84037 88.5137 2.98438 84.3011 2.98438C79.2793 2.98438 77.0183 6.19738 77.0183 10.4576V12.8376C77.0183 17.0978 79.2793 20.3108 84.3011 20.3108Z" fill="#1B1B20"/>
<path d="M93.0342 19.9776H96.2712V12.6472C96.2712 10.9812 97.1989 10.1244 98.6512 10.1244C100.222 10.1244 100.912 11.1478 100.912 12.5758V19.9776H104.149V12.0522C104.149 9.12472 102.459 7.31591 99.7693 7.31591C98.1752 7.31591 96.9133 8.00611 96.2712 9.07711V2.60352H93.0342V19.9776Z" fill="#1B1B20"/>
<path d="M110.327 20.2631C111.755 20.2631 113.326 19.6681 113.897 18.8351V19.9775H117.015V12.0759C117.015 9.19612 114.897 7.31592 111.803 7.31592C109.137 7.31592 107.209 8.60112 106.495 11.0049H109.494C109.827 10.3385 110.518 9.83874 111.636 9.83874C112.969 9.83874 113.778 10.6955 113.778 11.8379V13.5277C113.207 13.0517 112.112 12.4805 110.636 12.4805C107.662 12.4805 105.638 13.7181 105.638 16.4075C105.638 18.8113 107.542 20.2631 110.327 20.2631ZM111.16 18.1211C109.804 18.1211 108.78 17.4547 108.78 16.3123C108.78 15.1699 109.732 14.5511 111.255 14.5511C112.707 14.5511 113.778 15.1937 113.778 16.2885C113.778 17.3357 112.588 18.1211 111.16 18.1211Z" fill="#1B1B20"/>
<path d="M123.063 19.9775H125.301V17.3595H123.991C123.134 17.3595 122.825 17.0263 122.825 16.2171V10.2195H125.467V7.60152H122.825V4.22192H119.564V7.60152H117.803V10.2195H119.564V16.4551C119.564 18.6447 120.683 19.9775 123.063 19.9775Z" fill="#1B1B20"/>
</g>
<defs>
<clipPath id="clip0_228_34940">
<rect width="125.067" height="28" fill="white" transform="translate(0.966675)"/>
</clipPath>
</defs>
</svg>
