<svg width="61" height="61" viewBox="0 0 61 61" fill="none" xmlns="http://www.w3.org/2000/svg">
<g clip-path="url(#clip0_228_32134)">
<path d="M30.7109 0.804688L30.4062 1.12109V11.1641V21.207L30.7109 21.5234L31.0273 21.8281H37.7422H44.4688V24.1719V26.5156H31.5078C19.2031 26.5156 18.5469 26.5039 18.6289 26.3047C18.9688 25.5078 19.0391 24.957 19.0391 23.2344V21.3945L19.9531 20.9375C21.2773 20.2695 22.8008 18.7344 23.4688 17.375C24.0547 16.168 24.3125 15.1484 24.3125 13.9648C24.3125 13.1562 24.2891 13.0391 24.0078 12.7578L23.6914 12.4531H21.043C19.1797 12.4531 18.207 12.5 17.7734 12.6172L17.1641 12.7695L17.0938 12.4648C16.5312 9.92188 15.3477 7.66016 13.6602 5.91406C13.2148 5.46875 13.1211 5.42188 12.5938 5.42188C12.0547 5.42188 11.9609 5.46875 11.5273 5.91406C9.86328 7.63672 8.62109 9.99219 8.09375 12.4648L8.02344 12.7695L7.41406 12.6172C6.98047 12.5 6.00781 12.4531 4.14453 12.4531H1.49609L1.17969 12.7578C0.898438 13.0391 0.875 13.1562 0.875 13.9648C0.875 15.1484 1.13281 16.168 1.71875 17.375C2.38672 18.7344 3.91016 20.2695 5.24609 20.9375L6.14844 21.3945V23.2344C6.14844 24.957 6.21875 25.5078 6.55859 26.3047C6.64062 26.5039 6.47656 26.5156 4.0625 26.5156H1.49609L1.17969 26.8203L0.875 27.1367V43.5078V59.8789L1.17969 60.1953C1.42578 60.4414 1.60156 60.5 2.04688 60.5C2.49219 60.5 2.66797 60.4414 2.91406 60.1953C3.20703 59.8906 3.21875 59.8438 3.21875 58.4375V56.9844H12.5938H21.9688V58.4375C21.9688 59.8438 21.9805 59.8906 22.2734 60.1953C22.7188 60.6289 23.5625 60.6289 24.0078 60.1953L24.3125 59.8789V47.8906V35.8906H41.4219H58.5312V47.8906V59.8789L58.8359 60.1953C59.082 60.4414 59.2578 60.5 59.7031 60.5C60.1484 60.5 60.3242 60.4414 60.5703 60.1953L60.875 59.8789V43.5078V27.1367L60.5703 26.8203L60.2539 26.5156H53.5391H46.8125V24.1719V21.8281H53.5391H60.2539L60.5703 21.5234L60.875 21.207V11.1641V1.12109L60.5703 0.804688L60.2539 0.5H55.3086H50.3633L50.0352 0.816406C49.7656 1.09766 49.7305 1.21484 49.7773 1.66016C49.8125 2 49.9297 2.26953 50.1406 2.48047L50.4453 2.78516L54.4883 2.82031L58.5312 2.85547V11.1641V19.4844H45.6406H32.75V11.1641V2.85547L36.793 2.82031L40.8359 2.78516L41.1406 2.48047C41.3516 2.26953 41.4688 2 41.5039 1.66016C41.5508 1.21484 41.5156 1.09766 41.2461 0.816406L40.918 0.5H35.9727H31.0273L30.7109 0.804688ZM13.1445 9.07812C13.9766 10.3203 14.6562 12.0664 14.8555 13.5195C14.9141 13.9062 14.8672 13.9766 14.1875 14.5859C13.7891 14.9492 13.2852 15.5 13.0625 15.8281C12.8398 16.168 12.6289 16.4258 12.5938 16.4258C12.5586 16.4258 12.3477 16.168 12.125 15.8281C11.9023 15.5 11.3984 14.9492 11 14.5859C10.3203 13.9766 10.2734 13.9062 10.332 13.5195C10.4375 12.7344 10.8359 11.3867 11.1875 10.6016C11.5273 9.85156 12.4648 8.35156 12.5938 8.35156C12.6289 8.35156 12.875 8.67969 13.1445 9.07812ZM7.03906 14.9609C8.60938 15.3828 10.0859 16.5781 10.7773 18.0195C11 18.4648 11.2109 18.9805 11.2578 19.1562L11.3281 19.4844H9.76953C8.82031 19.4844 7.96484 19.4141 7.60156 19.3203C6.6875 19.0742 5.62109 18.4531 4.92969 17.7734C4.29688 17.1406 3.54688 15.8633 3.39453 15.1719L3.3125 14.7969H4.88281C5.82031 14.7969 6.67578 14.8672 7.03906 14.9609ZM21.793 15.1719C21.6523 15.8516 20.9023 17.1289 20.2812 17.7617C19.6133 18.4414 18.5117 19.0742 17.5859 19.3203C17.2227 19.4141 16.3672 19.4844 15.418 19.4844H13.8594L13.9297 19.1562C13.9766 18.9805 14.1875 18.4648 14.4102 18.0195C15.0898 16.6016 16.5664 15.3828 18.0898 14.9609C18.3945 14.8789 19.3438 14.8086 20.2461 14.8086L21.875 14.7969L21.793 15.1719ZM16.6953 23.2344C16.6953 24.8516 16.6133 25.1914 16.0625 25.7891C15.4766 26.4453 15.1367 26.5156 12.5938 26.5156C10.0859 26.5156 9.86328 26.4688 9.21875 25.8828C8.62109 25.3555 8.49219 24.8867 8.49219 23.3047V21.8281L12.3945 21.793C14.5273 21.7812 16.3789 21.7578 16.4961 21.7344C16.6719 21.7109 16.6953 21.8516 16.6953 23.2344ZM58.5312 31.2031V33.5469H30.875H3.21875V31.2031V28.8594H30.875H58.5312V31.2031ZM21.9688 39.9922V44.0938H12.5938H3.21875V39.9922V35.8906H12.5938H21.9688V39.9922ZM21.9688 50.5391V54.6406H12.5938H3.21875V50.5391V46.4375H12.5938H21.9688V50.5391Z" fill="#0D1520"/>
<path d="M11.8204 39.2191C11.2696 39.7699 11.2813 40.2269 11.8321 40.7777C12.1954 41.141 12.3008 41.1879 12.6758 41.1293C13.2266 41.0355 13.6368 40.6254 13.7305 40.0746C13.7891 39.6996 13.7422 39.5941 13.379 39.2308C12.8282 38.68 12.3711 38.6683 11.8204 39.2191Z" fill="#0D1520"/>
<path d="M11.8204 49.766C11.2696 50.3168 11.2813 50.7738 11.8321 51.3246C12.1954 51.6879 12.3008 51.7347 12.6758 51.6761C13.2266 51.5824 13.6368 51.1722 13.7305 50.6214C13.7891 50.2464 13.7422 50.141 13.379 49.7777C12.8282 49.2269 12.3711 49.2152 11.8204 49.766Z" fill="#0D1520"/>
<path d="M44.7734 0.805041C44.3047 1.28551 44.3399 1.91832 44.8789 2.45738C45.2422 2.82067 45.3477 2.86754 45.7227 2.80895C46.3203 2.70348 46.707 2.2816 46.7774 1.66051C46.8242 1.2152 46.7891 1.09801 46.5195 0.81676C46.0625 0.371447 45.2188 0.359728 44.7734 0.805041Z" fill="#0D1520"/>
<path d="M12.1719 9.01953C11.3281 10.3086 10.7305 11.7617 10.4844 13.1211L10.3555 13.8594L11.2227 14.7031C11.7031 15.1719 12.207 15.7109 12.3359 15.9102L12.5938 16.2617L12.8516 15.9102C12.9805 15.7109 13.4844 15.1719 13.9648 14.7031L14.832 13.8594L14.7031 13.1211C14.5273 12.1836 14.1992 11.1992 13.7422 10.2969C13.3438 9.51172 12.6875 8.46875 12.5938 8.46875C12.5586 8.46875 12.3711 8.71484 12.1719 9.01953Z" fill="white"/>
<path d="M3.5 15.1602C3.62891 15.8516 4.25 16.9531 4.84766 17.5859C6.11328 18.8984 7.27344 19.3555 9.65234 19.4492L11.2227 19.5195L11.1523 19.1211C10.918 17.9492 9.66406 16.3203 8.45703 15.6289C7.48438 15.0781 6.71094 14.9023 4.98828 14.832L3.41797 14.7617L3.5 15.1602Z" fill="white"/>
<path d="M18.9805 14.8789C18.2891 14.9727 17.3281 15.2891 16.7305 15.6289C15.5234 16.3203 14.2695 17.9492 14.0352 19.1211L13.9648 19.5195L15.5352 19.4492C17.9141 19.3555 19.0742 18.8984 20.3398 17.5859C20.9375 16.9648 21.5586 15.8516 21.6875 15.1719L21.7695 14.7969L20.5508 14.8086C19.8828 14.8203 19.1797 14.8555 18.9805 14.8789Z" fill="white"/>
<path d="M3.21875 31.2031V33.5469H30.875H58.5312V31.2031V28.8594H30.875H3.21875V31.2031Z" fill="#03BD9D"/>
<path d="M3.21875 39.9922V44.0938H12.5938H21.9688V39.9922V35.8906H12.5938H3.21875V39.9922ZM13.4375 39.1367C13.707 39.3945 13.7656 39.5469 13.7656 39.9805C13.7656 40.7305 13.3438 41.1641 12.5938 41.1641C11.8555 41.1641 11.4219 40.7305 11.4219 39.9922C11.4219 39.2539 11.8555 38.8203 12.582 38.8203C12.9922 38.8203 13.1797 38.8906 13.4375 39.1367Z" fill="#03BD9D"/>
<path d="M3.21875 50.5391V54.6406H12.5938H21.9688V50.5391V46.4375H12.5938H3.21875V50.5391ZM13.4375 49.6836C13.707 49.9414 13.7656 50.0938 13.7656 50.5273C13.7656 51.2773 13.3438 51.7109 12.5938 51.7109C11.8555 51.7109 11.4219 51.2773 11.4219 50.5391C11.4219 49.8008 11.8555 49.3672 12.582 49.3672C12.9922 49.3672 13.1797 49.4375 13.4375 49.6836Z" fill="#03BD9D"/>
<path d="M41.5391 1.91797C41.5391 2.04688 41.3867 2.31641 41.1992 2.50391L40.8594 2.84375H36.8047H32.75V11.1641V19.4844H45.6406H58.5312V11.1641V2.84375H54.4766H50.4219L50.082 2.50391C49.8945 2.31641 49.7422 2.04688 49.7422 1.91797C49.7422 1.68359 49.6836 1.67188 48.2773 1.67188C46.8711 1.67188 46.8125 1.68359 46.8125 1.91797C46.8125 2.04688 46.6602 2.31641 46.4727 2.50391C46.2031 2.77344 46.0273 2.84375 45.6406 2.84375C45.2539 2.84375 45.0781 2.77344 44.8086 2.50391C44.6211 2.31641 44.4688 2.04688 44.4688 1.91797C44.4688 1.68359 44.4102 1.67188 43.0039 1.67188C41.5977 1.67188 41.5391 1.68359 41.5391 1.91797Z" fill="#F7F8FA"/>
<path d="M8.49219 23.0352C8.49219 24.5234 8.69141 25.2734 9.23047 25.7891C9.83984 26.375 10.4727 26.5156 12.5938 26.5156C14.7148 26.5156 15.3477 26.375 15.957 25.7891C16.4961 25.2734 16.6953 24.5234 16.6953 23.0352V21.8281H12.5938H8.49219V23.0352Z" fill="#5D6772"/>
</g>
<defs>
<clipPath id="clip0_228_32134">
<rect width="60" height="60" fill="white" transform="translate(0.875 0.5)"/>
</clipPath>
</defs>
</svg>
