<svg width="55" height="61" viewBox="0 0 55 61" fill="none" xmlns="http://www.w3.org/2000/svg">
<path d="M20.8009 0.8633L20.4029 1.22658V3.85158V6.47658H12.3542C3.45971 6.47658 3.78315 6.45314 3.18603 7.21486C2.93724 7.54298 2.9248 7.70705 2.88748 12.6406L2.85016 17.7266H2.10376C1.43201 17.7266 1.30761 17.7617 0.98417 18.0664L0.623413 18.4063V20.5039C0.623413 22.3086 0.660733 22.625 0.847331 22.8359C1.17077 23.2109 1.53153 23.3516 2.22816 23.3516H2.8626V28.2149V33.0781H2.22816C1.53153 33.0781 1.17077 33.2188 0.847331 33.5938C0.660733 33.8047 0.623413 34.1211 0.623413 35.9258V38.0234L0.98417 38.3633C1.30761 38.668 1.43201 38.7031 2.10376 38.7031H2.8626V43.5664V48.4297H2.31524C1.63105 48.4297 1.22053 48.5703 0.884651 48.9102C0.635853 49.1563 0.623413 49.3086 0.623413 51.3008V53.4219L0.98417 53.75C1.27029 54.0078 1.49421 54.0898 2.10376 54.1367L2.8626 54.207V56.668C2.8626 58.8828 2.88748 59.1875 3.11139 59.6211C3.24823 59.8789 3.52191 60.1836 3.72095 60.3008C4.05683 60.4883 5.52474 60.5 27.4065 60.5H50.7189L51.0548 60.2539C51.7141 59.7734 51.7514 59.5508 51.7514 56.75V54.1719H52.3112C53.0825 54.1719 53.6796 53.9141 53.916 53.4805C54.1772 53.0234 54.2021 49.5898 53.9533 49.1328C53.7418 48.7344 53.0576 48.4297 52.3485 48.4297H51.7514V43.5664V38.7031H52.5351C53.3562 38.7031 53.7045 38.5391 53.9782 38.0352C54.0652 37.8828 54.115 37.0391 54.115 35.832V33.875L53.692 33.4766C53.3064 33.1133 53.2069 33.0781 52.5103 33.0781H51.7514V28.2149V23.3516H52.5103C53.2069 23.3516 53.3064 23.3164 53.692 22.9531L54.115 22.5547V20.5977C54.115 19.3906 54.0652 18.5469 53.9782 18.3945C53.7045 17.8906 53.3562 17.7266 52.5351 17.7266H51.7514V12.6758C51.7514 7.01564 51.7763 7.14455 50.8557 6.69923C50.4204 6.4883 50.0347 6.47658 43.8023 6.47658C39.9335 6.47658 37.0848 6.52345 36.8982 6.59377C36.4379 6.75783 36.2762 7.10939 36.4503 7.60158C36.525 7.82423 36.6991 8.05861 36.8235 8.1172C36.9728 8.18752 39.4608 8.23439 43.4664 8.23439H49.8854V12.9805V17.7266H49.0893H48.2931L48.2434 15.6992C48.1812 12.6875 48.3553 12.8047 43.8272 12.8047C40.3689 12.8047 40.2321 12.8281 39.7594 13.4258C39.523 13.7305 39.4981 13.9414 39.4608 15.7461L39.411 17.7266L38.8388 17.7383C37.9307 17.7383 37.4207 17.961 37.1719 18.4297C36.9853 18.7578 36.9479 19.1563 36.9479 20.4922C36.9479 21.4063 37.0101 22.3086 37.0848 22.5078C37.3585 23.2578 37.1967 23.2344 43.8521 23.2344H49.8854V28.2149V33.1953H49.0893H48.2931L48.2434 31.1563C48.1812 28.0977 48.2807 28.168 43.8521 28.168C39.4235 28.168 39.523 28.0977 39.4608 31.1563L39.411 33.1953H38.5776C37.6694 33.1953 37.3087 33.3828 37.0599 33.9805C36.8733 34.4609 36.9231 37.4727 37.1345 37.9531C37.458 38.7031 37.4828 38.7031 44.0387 38.7031H49.8854V43.625V48.5469H49.0768H48.2682V46.8008C48.2682 44.7031 48.2185 44.4102 47.7458 43.9648L47.3726 43.625H43.8521H40.3316L39.9584 43.9648C39.5106 44.3984 39.4359 44.7617 39.4359 46.8594V48.5234L38.5651 48.5703C37.8187 48.6055 37.6446 48.6641 37.346 48.9336L37.0101 49.25V51.3008V53.3516L37.3585 53.668L37.6943 53.9961L43.7899 54.0313L49.8854 54.0664V56.3984V58.7422H42.0483H34.2112V54.3594V49.9648L33.8877 49.7305C33.4523 49.4141 33.1538 49.4258 32.7806 49.7773L32.4696 50.0586V54.4063V58.7422H27.3692H22.2688V36.6641C22.2688 21.2656 22.2315 14.4922 22.132 14.2344C21.8708 13.5313 20.8009 13.5313 20.5397 14.2344C20.4402 14.4922 20.4029 21.1953 20.4029 36.6641V58.7422H12.5657H4.72858L4.75346 56.4219L4.79078 54.1133L10.8241 54.0547C17.1312 53.9961 17.2431 53.9844 17.5417 53.4688C17.7034 53.1758 17.7034 49.4258 17.5417 49.1211C17.3302 48.7578 16.7455 48.5469 15.9369 48.5469H15.1905L15.1532 46.4258L15.1159 44.3047L14.7054 43.9648L14.3073 43.625H10.8241H7.34096L6.94288 43.9648L6.53237 44.3047L6.49505 46.4375L6.45773 48.5586L5.62425 48.5234L4.79078 48.4883L4.75346 43.6016L4.72858 38.7031H10.5007C13.6729 38.7031 16.4345 38.668 16.6585 38.6328C16.8699 38.5859 17.1809 38.4219 17.3551 38.2578C17.6661 37.9649 17.6661 37.9531 17.6661 35.9258V33.875L17.3053 33.5352C16.9694 33.2188 16.8699 33.1953 16.0613 33.1953H15.1781V31.2031C15.1781 29.0117 15.1035 28.6953 14.4815 28.3906C13.9963 28.1445 7.6644 28.1328 7.17924 28.3789C6.58213 28.6836 6.47017 29.1172 6.47017 31.25V33.207L5.63669 33.1719L4.79078 33.1367V28.2149V23.293L10.9237 23.2344L17.069 23.1758L17.3675 22.8477C17.6536 22.5313 17.6661 22.4609 17.6661 20.4922C17.6661 18.4766 17.6661 18.4649 17.3551 18.1719C17.0192 17.8438 16.5714 17.7266 15.7255 17.7266H15.1781V15.793C15.1781 12.7227 15.3025 12.8047 10.8241 12.8047C8.37347 12.8047 7.61464 12.8399 7.26632 12.9805C6.58213 13.25 6.47017 13.6485 6.47017 15.8516V17.7266H5.59937H4.72858L4.75346 13.0039L4.79078 8.29298L12.603 8.25783L20.4029 8.23439V9.62892C20.4029 10.4258 20.4651 11.1641 20.5397 11.3281C20.8507 11.961 21.821 11.961 22.132 11.3164C22.2191 11.1289 22.2688 9.6172 22.2688 6.65236V2.25783H27.3692H32.4696V24.6992C32.4696 46.9883 32.4696 47.1406 32.7184 47.375C32.8676 47.5156 33.1289 47.6094 33.4026 47.6094C34.2485 47.6094 34.1863 49.4727 34.2236 24.2305C34.2485 6.4883 34.2236 1.32033 34.1116 1.12111C33.7384 0.4883 33.9002 0.500019 27.307 0.500019H21.199L20.8009 0.8633ZM13.4116 16.1094L13.449 17.7266H10.8241H8.21175V16.168C8.21175 15.3008 8.24907 14.5625 8.29883 14.5156C8.34859 14.4805 9.5055 14.457 10.8739 14.4688L13.3743 14.5039L13.4116 16.1094ZM46.4023 16.086V17.7266H43.8521H41.3019V16.086V14.4453H43.8521H46.4023V16.086ZM15.9245 20.5391V21.5938H9.20695H2.4894V20.5391V19.4844H9.20695H15.9245V20.5391ZM52.249 20.5391V21.5938L45.5066 21.5703L38.7517 21.5352L38.7144 20.668C38.6895 20.1875 38.702 19.7305 38.7393 19.6367C38.789 19.5078 40.0206 19.4844 45.5315 19.4844H52.249V20.5391ZM13.4116 31.5195L13.3743 33.1367H10.8241H8.27395L8.23663 31.5195L8.19932 29.9141H10.8241H13.449L13.4116 31.5195ZM46.4023 31.5547V33.1953H43.8521H41.3019V31.5547V29.9141H43.8521H46.4023V31.5547ZM15.9245 35.8906V36.9453H9.20695H2.4894V35.8906V34.8359H9.20695H15.9245V35.8906ZM52.249 35.8906V36.9453H45.4693H38.6895V35.9727C38.6895 35.4336 38.7268 34.9531 38.7766 34.918C38.8139 34.8711 41.8741 34.8359 45.5564 34.8359H52.249V35.8906ZM13.4365 46.9063V48.5469H10.8241H8.21175V46.9063V45.2656H10.8241H13.4365V46.9063ZM46.4023 46.9063V48.5469H43.8521H41.3019V46.9063V45.2656H43.8521H46.4023V46.9063ZM15.9245 51.3008V52.4141H9.20695H2.4894V51.3008V50.1875H9.20695H15.9245V51.3008ZM52.2241 51.2656L52.1868 52.3555H45.4693H38.7517L38.7144 51.4297C38.6895 50.9141 38.702 50.4336 38.7393 50.3398C38.789 50.2109 40.033 50.1875 45.5315 50.1875H52.2615L52.2241 51.2656Z" fill="#0D1520"/>
<path d="M24.6325 10.4609C24.3961 10.6836 24.3837 10.8477 24.3837 14.5039V18.3242L24.6947 18.6055C24.9932 18.8984 25.0181 18.8984 27.3692 18.8984C29.5587 18.8984 29.7453 18.8867 29.9816 18.6641C30.1185 18.5352 30.2553 18.3125 30.2926 18.1719C30.3299 18.0195 30.3548 16.2852 30.3299 14.3164C30.2926 10.9766 30.2802 10.707 30.0563 10.4727C29.8323 10.2383 29.6955 10.2266 27.3444 10.2266C25.043 10.2266 24.8688 10.2383 24.6325 10.4609ZM28.4888 14.5625V17.2695L27.3444 17.2344L26.1875 17.1992L26.1501 14.5273L26.1253 11.8672H27.307H28.4888V14.5625Z" fill="#0D1520"/>
<path d="M24.9186 26.3979C24.7693 26.4565 24.5951 26.6089 24.5205 26.7378C24.4334 26.8901 24.3837 28.2847 24.3837 30.7104C24.3837 34.2261 24.3961 34.4722 24.62 34.73C24.8564 34.9995 24.9186 35.0112 27.0209 35.0464C29.5462 35.0932 30.0189 35.0112 30.218 34.4604C30.4046 33.98 30.4046 27.3823 30.2304 26.9018C30.1558 26.7026 29.9567 26.4917 29.7826 26.4097C29.4094 26.2573 25.3291 26.2456 24.9186 26.3979ZM28.4888 30.6753V33.312H27.307H26.1253V30.6753V28.0386H27.307H28.4888V30.6753Z" fill="#0D1520"/>
<path d="M24.6947 42.7461L24.3837 43.0273V46.8477C24.3837 50.5039 24.3961 50.668 24.6325 50.8906C24.8688 51.1133 25.043 51.125 27.3444 51.125C29.6955 51.125 29.8323 51.1133 30.0563 50.8789C30.2802 50.6445 30.2926 50.3984 30.2926 46.7656V42.8984L29.9941 42.6758C29.7328 42.4766 29.484 42.4531 27.3444 42.4531C25.0181 42.4531 24.9932 42.4531 24.6947 42.7461ZM28.4888 46.7891V49.4844H27.307H26.1253V46.8711C26.1253 45.4297 26.1626 44.2109 26.2123 44.1758C26.2497 44.1289 26.7846 44.0938 27.3941 44.0938H28.4888V46.7891Z" fill="#0D1520"/>
<path d="M2.48938 20.5391V21.4766H9.14473H15.8001V20.5391V19.6016H9.14473H2.48938V20.5391Z" fill="#03BD9D"/>
<path d="M38.8139 20.5391V21.4766H45.4693H52.1246V20.5391V19.6016H45.4693H38.8139V20.5391Z" fill="#03BD9D"/>
<path d="M2.48938 35.9492V36.9453H9.14473H15.8001V35.9492V34.9531H9.14473H2.48938V35.9492Z" fill="#03BD9D"/>
<path d="M38.8139 35.9492V36.9453H45.4693H52.1246V35.9492V34.9531H45.4693H38.8139V35.9492Z" fill="#03BD9D"/>
<path d="M2.48938 51.3008V52.2969H9.14473H15.8001V51.3008V50.3047H9.14473H2.48938V51.3008Z" fill="#03BD9D"/>
<path d="M38.8139 51.3008V52.2969H45.4693H52.1246V51.3008V50.3047H45.4693H38.8139V51.3008Z" fill="#03BD9D"/>
</svg>
