<svg width="61" height="61" viewBox="0 0 61 61" fill="none" xmlns="http://www.w3.org/2000/svg">
<path d="M29.3594 0.664719C28.9492 0.758671 28.3047 1.00529 27.9297 1.21668C27.0273 1.72167 1.02344 23.4362 0.800781 23.8707C0.707031 24.0469 0.625 24.4814 0.625 24.822C0.625 25.9611 1.33984 26.6775 2.47656 26.6775C2.81641 26.6775 3.21484 26.6188 3.35547 26.5366C3.70703 26.3604 5.62891 24.7515 6.07422 24.2817C6.27344 24.0704 11.6523 19.5372 18.0391 14.2055C25.7148 7.79328 29.8047 4.458 30.0859 4.36406C30.6484 4.1879 31.1758 4.28185 31.7617 4.69288C32.0195 4.86904 36.9297 8.93244 42.6836 13.7357L53.125 22.4732V38.9147C53.125 57.1178 53.1836 55.8494 52.375 56.4249C52.0117 56.6832 51.9766 56.6832 46.9492 56.7185L41.875 56.7537V46.5012C41.875 40.6763 41.8164 35.873 41.7578 35.368C41.4414 32.9253 39.4492 30.9053 37.0117 30.553C36.5664 30.4943 33.6836 30.4356 30.625 30.4356C27.5664 30.4356 24.6953 30.4943 24.2383 30.553C21.8008 30.9053 19.8086 32.9253 19.4922 35.368C19.4336 35.873 19.375 40.6763 19.375 46.5012V56.7537L14.3125 56.7185C9.27344 56.6832 9.23828 56.6832 8.875 56.4249C8.07812 55.8612 8.125 56.5775 8.125 43.8589C8.125 37.2588 8.07812 32.1737 8.00781 31.9036C7.84375 31.1754 7.15234 30.6 6.33203 30.4943C5.55859 30.4003 5.06641 30.6117 4.63281 31.2576L4.375 31.6452L4.39844 43.988L4.43359 56.3309L4.85547 57.2117C5.59375 58.7384 6.70703 59.7484 8.21875 60.2534C8.93359 60.5 9.05078 60.5 30.625 60.5C52.2695 60.5 52.3164 60.5 53.0312 60.2534C54.7773 59.6662 56.1836 58.2217 56.6992 56.4718C56.8516 55.9551 56.875 53.8764 56.875 40.8642C56.875 32.6082 56.8984 25.8554 56.9336 25.8554C56.9688 25.8554 57.2266 26.0433 57.5312 26.2665C58 26.6305 58.1523 26.6775 58.7266 26.6775C59.9219 26.6775 60.625 25.9846 60.625 24.822C60.625 24.4814 60.5547 24.0586 60.4609 23.8825C60.3672 23.7063 58.0469 21.6863 55.3047 19.3963L50.3125 15.2272V11.704C50.3125 8.40396 50.3008 8.15734 50.0781 7.79328C49.7266 7.22957 49.1992 6.94772 48.4375 6.94772C47.6758 6.94772 47.1484 7.22957 46.7969 7.79328C46.5859 8.13385 46.5625 8.39222 46.5625 10.0951C46.5625 11.152 46.5156 11.9976 46.4688 11.9741C46.4102 11.9506 43.5859 9.61359 40.1992 6.77156C36.8008 3.92953 33.7188 1.42807 33.332 1.21668C32.6055 0.81739 31.3516 0.48856 30.5664 0.500305C30.3086 0.500305 29.7695 0.582512 29.3594 0.664719ZM37.375 34.5107C38.1602 35.0744 38.125 34.4637 38.125 46.1607V56.7419H30.625H23.125L23.1484 46.0197L23.1836 35.3093L23.4414 34.9452C23.9922 34.1701 23.8047 34.1936 30.7422 34.2288L37.0117 34.2523L37.375 34.5107Z" fill="#0D1520"/>
</svg>
