<svg width="59" height="61" viewBox="0 0 59 61" fill="none" xmlns="http://www.w3.org/2000/svg">
<path d="M0.304324 2.65232C0.0924076 2.90504 0.0621338 5.84923 0.0621338 31.4372C0.0621338 57.0251 0.0924076 59.9693 0.304324 60.222L0.531378 60.5H29.125H57.7186L57.9456 60.222C58.1575 59.9693 58.1878 57.5684 58.1878 37.0981C58.1878 14.4165 58.1878 14.2522 57.8851 13.9995C57.5823 13.7467 57.3856 13.7467 46.2297 13.7467H34.877V10.474V7.20128L36.0274 7.15074C37.6016 7.08756 37.6016 7.1002 37.6016 4.71199C37.6016 3.01876 37.5714 2.76604 37.3292 2.58914C37.0718 2.38696 35.5733 2.37432 18.7865 2.37432H0.531378L0.304324 2.65232ZM35.9366 4.71199V5.65969H20.3758C6.54072 5.65969 4.78484 5.68496 4.48211 5.86187L4.1491 6.05141V32.587V59.11H2.93814H1.72719V31.4372V3.76429H18.8319H35.9366V4.71199ZM33.2119 10.4614V13.7467H27.5356C22.056 13.7467 21.8441 13.7594 21.5565 13.9995C21.2841 14.2269 21.2538 14.4165 21.2538 16.1476C21.2538 18.5611 21.2538 18.5484 23.2216 18.5484H24.5839V27.52V36.4916H23.161C21.1932 36.4916 21.2538 36.4284 21.2538 38.7408C21.2538 41.1922 21.2386 41.1669 23.161 41.1669H24.5839V50.1385V59.11H15.199H5.81415V33.143V7.17601H19.513H33.2119V10.4614ZM56.5228 37.1234V59.11H55.3118H54.1008V38.2859C54.1008 22.2634 54.0554 17.4238 53.9192 17.3101C53.783 17.1964 50.135 17.1585 38.4039 17.1585H23.0702V16.1476V15.1367H39.7965H56.5228V37.1234ZM52.4358 27.52V36.4916H39.3424H26.249V27.52V18.5484H39.3424H52.4358V27.52ZM52.4358 38.8292V39.7769H37.753H23.0702V38.8292V37.8815H37.753H52.4358V38.8292ZM37.6016 50.1385V59.11H35.9366H34.2715V52.6909C34.2715 47.864 34.2261 46.2339 34.0899 46.1202C33.9536 46.0065 32.8486 45.9686 30.0786 45.9686H26.249V43.5677V41.1669H31.9253H37.6016V50.1385ZM40.1749 50.1385V59.11H39.7208H39.2667V50.1385V41.1669H39.7208H40.1749V50.1385ZM52.4358 50.1385V59.11H47.1379H41.84V50.1385V41.1669H47.1379H52.4358V50.1385ZM32.6065 53.2343V59.11H29.4277H26.249V53.2343V47.3585H29.4277H32.6065V53.2343Z" fill="#0D1520"/>
<path d="M7.3581 8.46456C7.22186 8.57828 7.17645 11.1181 7.17645 19.1294V29.6552L7.50946 29.8447C7.79707 30.009 8.40254 30.0469 11.112 30.0469C13.8215 30.0469 14.427 30.009 14.7146 29.8447L15.0476 29.6552V19.2304C15.0476 12.2806 15.0022 8.71728 14.8963 8.55301C14.7449 8.32556 14.533 8.31292 11.1423 8.31292C8.53877 8.31292 7.49433 8.35083 7.3581 8.46456ZM13.5037 19.142L13.5339 28.6569H11.112H8.69014V19.1167V9.56389L11.0818 9.6018L13.4583 9.63971L13.5037 19.142Z" fill="#0D1520"/>
<path d="M7.41864 32.3979C7.20673 32.5748 7.17645 33.7121 7.17645 43.0627C7.17645 52.4134 7.20673 53.5506 7.41864 53.7275C7.61542 53.9044 8.16035 53.9297 11.0969 53.9297C14.2454 53.9297 14.5633 53.9044 14.7903 53.7022C15.0325 53.4874 15.0476 52.565 15.0476 43.0248C15.0476 33.7121 15.0174 32.5748 14.8054 32.3979C14.6087 32.221 14.0486 32.1957 11.112 32.1957C8.17549 32.1957 7.61542 32.221 7.41864 32.3979ZM13.4583 43.0627V52.6029H11.112H8.76583L8.72042 43.1891C8.70528 38.0083 8.72042 33.6994 8.76583 33.611C8.81124 33.4846 9.38644 33.4593 11.1423 33.4846L13.4583 33.5225V43.0627Z" fill="#0D1520"/>
<path d="M37.9346 20.5194L37.6016 20.709V27.8989C37.6016 34.2674 37.6319 35.1014 37.8438 35.2783C38.0406 35.4552 38.7672 35.4805 43.4142 35.4805C48.3942 35.4805 48.7727 35.4678 48.9997 35.253C49.2268 35.0382 49.257 34.3432 49.257 27.9241C49.257 20.987 49.257 20.8227 48.9543 20.57C48.6667 20.3299 48.4548 20.3172 43.4596 20.3172C39.0094 20.3172 38.2222 20.3425 37.9346 20.5194ZM47.592 27.8989V34.0905H43.4293H39.2667V27.8989V21.7072H43.4293H47.592V27.8989Z" fill="#0D1520"/>
<path d="M41.8097 24.3228C41.5675 24.5629 40.3263 27.2796 40.3263 27.5703C40.3263 28.0378 41.4616 28.3411 41.8248 27.9873C42.1124 27.684 43.2023 25.1315 43.2023 24.7398C43.2023 24.1459 42.279 23.8805 41.8097 24.3228Z" fill="#0D1520"/>
<path d="M44.2165 24.323C43.8986 24.6389 41.2345 30.6031 41.2345 31.0327C41.2345 31.2349 41.3102 31.4497 41.4161 31.5382C41.6886 31.7656 42.3698 31.7277 42.6271 31.4623C42.9147 31.1843 45.6242 25.1317 45.6242 24.7779C45.6242 24.184 44.7008 23.8934 44.2165 24.323Z" fill="#0D1520"/>
<path d="M30.669 52.1101C30.0484 52.4639 30.4268 53.2979 31.2139 53.2979C31.5318 53.2979 32.001 52.8682 32.001 52.5776C32.001 52.3628 31.4561 51.9079 31.1988 51.9079C31.0928 51.9079 30.8506 51.9963 30.669 52.1101Z" fill="#0D1520"/>
<path d="M10.3048 11.5568V22.6133H12.9538H15.6027V11.5568V0.500252H12.9538H10.3048V11.5568Z" fill="#03BD9D"/>
<path d="M10.3047 39.4191V50.4756H12.9537H15.6027V39.4191V28.3626H12.9537H10.3047V39.4191Z" fill="#03BD9D"/>
</svg>
