<svg width="60" height="60" viewBox="0 0 60 60" fill="none" xmlns="http://www.w3.org/2000/svg">
<path d="M10.2537 3.22842C9.43805 3.53999 8.53659 4.45321 8.2361 5.28048L8 5.90361V30.496V55.0884L8.2361 55.7116C8.54732 56.5603 9.43805 57.4521 10.2859 57.7636L10.9083 58H30H49.0917L49.7141 57.7636C50.562 57.4521 51.4527 56.5603 51.7639 55.7116L52 55.0884L51.9785 32.6663C51.9463 11.3185 51.9356 10.2226 51.7532 9.85731C51.6459 9.64243 50.2185 8.10608 48.5873 6.45155C46.3659 4.18462 45.4966 3.36809 45.1317 3.20694C44.6595 3.0028 44.4341 2.99206 27.7463 3.0028H10.8439L10.2537 3.22842ZM43.7366 6.64493C43.7366 8.10608 43.7688 8.43914 43.962 8.94409C44.2517 9.72839 44.9922 10.5342 45.7541 10.9102C46.3444 11.2003 46.441 11.211 48.2224 11.2433L50.0683 11.2862L50.0468 33.1282L50.0146 54.981L49.7893 55.2818C49.6712 55.443 49.4029 55.6901 49.2098 55.8298L48.8556 56.0661H30H11.1444L10.7902 55.819C10.5971 55.6901 10.3288 55.443 10.2107 55.2818L9.98537 54.981V30.496V6.01105L10.2107 5.71023C10.3288 5.54907 10.5971 5.30196 10.7902 5.1623L11.1444 4.92593H27.4351H43.7366V6.64493ZM47.9541 9.30938C47.1063 9.35235 46.6985 9.2664 46.3122 8.93335C45.7971 8.5036 45.6683 8.14906 45.6683 7.16063V6.27964L47.1171 7.77303L48.5766 9.27715L47.9541 9.30938Z" fill="#03BD9D"/>
<path d="M24.9024 13.0914L23.9258 14.0584L23.6683 13.7898C23.5288 13.6393 23.1961 13.4137 22.9278 13.2848C22.4449 13.0484 22.3483 13.0377 19 13.0377C15.2117 13.0377 15.1902 13.0377 14.3961 13.736C14.1814 13.9294 13.8917 14.2947 13.7629 14.5311C13.5375 14.9501 13.5268 15.1112 13.4946 18.4311C13.4624 21.7724 13.4732 21.912 13.6985 22.4277C13.999 23.1476 14.6966 23.7707 15.4156 23.9856C16.2419 24.2327 21.758 24.2327 22.6058 23.9856C23.3249 23.7707 24.1941 22.9434 24.398 22.2666C24.4839 21.9657 24.5268 20.9343 24.5268 19.0434V16.2608L25.8683 14.9179C26.9844 13.8005 27.2312 13.4997 27.2849 13.1774C27.3385 12.8336 27.2956 12.7369 27.0166 12.4468C26.7697 12.1997 26.5873 12.1245 26.2868 12.1245C25.9327 12.1245 25.7932 12.2212 24.9024 13.0914ZM22.2946 15.2187L22.5414 15.455L21.2322 16.7658L19.9229 18.0765L19.2253 17.4104C18.6458 16.8517 18.4741 16.7443 18.1629 16.7443C17.6263 16.7443 17.4546 16.8302 17.2722 17.1955C16.9717 17.7757 17.1327 18.098 18.281 19.2368C19.3434 20.3005 19.7619 20.5583 20.1697 20.4401C20.2878 20.4079 20.8888 19.8815 21.5005 19.2906L22.5951 18.1947V19.9352V21.6649L22.2624 21.955L21.919 22.2343L18.9249 22.2021L15.92 22.1699L15.6624 21.8691L15.4049 21.5682V18.5922C15.4049 15.3906 15.4263 15.2509 15.9844 15.0253C16.1024 14.9716 17.5297 14.9393 19.1288 14.9501C22.0049 14.9716 22.0585 14.9716 22.2946 15.2187Z" fill="#6842EF"/>
<path d="M29.6023 14.9607C28.9798 15.24 28.8296 16.0136 29.3018 16.4755L29.5593 16.7441H37.7798H46.0003L46.2579 16.4755C46.612 16.1317 46.612 15.5731 46.2686 15.1648L46.011 14.864L37.973 14.8425C31.3086 14.821 29.892 14.8425 29.6023 14.9607Z" fill="#03BD9D"/>
<path d="M29.3458 19.741C29.0131 20.074 28.9488 20.4608 29.1634 20.8583C29.4317 21.3633 29.3566 21.3525 34.5936 21.3633H39.5624L39.82 21.0947C40.0024 20.9228 40.0883 20.7187 40.0883 20.4608C40.0883 19.4079 40.2063 19.4294 34.5078 19.4294H29.657L29.3458 19.741Z" fill="#03BD9D"/>
<path d="M15.2117 26.0587C14.6 26.2736 13.8596 27.0364 13.6449 27.6702C13.3981 28.3901 13.3874 34.4281 13.6342 35.1264C13.8596 35.771 14.2566 36.2437 14.8469 36.5875L15.3513 36.8884L18.8605 36.9206C22.123 36.9528 22.4127 36.9421 22.8313 36.7487C23.5074 36.4479 23.9366 36.0396 24.2478 35.4165L24.5269 34.8578V31.3983V27.9388L24.2264 27.3694C23.8937 26.7248 23.2283 26.1554 22.6166 25.9835C22.3805 25.919 20.8996 25.876 18.9464 25.8868C16.3171 25.8868 15.5874 25.9298 15.2117 26.0587ZM22.3269 28.0785L22.5952 28.3364V31.4091V34.4818L22.3269 34.7396L22.0693 35.0082H19H15.9308L15.6732 34.7396L15.4049 34.4818V31.4091V28.3364L15.6732 28.0785L15.9308 27.8099H19H22.0693L22.3269 28.0785Z" fill="#03BD9D"/>
<path d="M29.5057 27.8318C28.9691 28.0896 28.894 28.8632 29.3447 29.3252L29.6559 29.6367H37.7798H45.9037L46.215 29.3252C46.6228 28.9061 46.6442 28.3797 46.2472 27.9822L45.9574 27.7028L37.8442 27.7136C32.4891 27.7136 29.6559 27.7566 29.5057 27.8318Z" fill="#03BD9D"/>
<path d="M29.3025 32.5916C28.9483 32.9354 28.9483 33.494 29.2918 33.9023L29.5493 34.2031H34.5396H39.5298L39.8088 33.9453C40.1844 33.5907 40.1952 32.8924 39.841 32.5593C39.5942 32.323 39.5727 32.323 34.5718 32.323H29.5601L29.3025 32.5916Z" fill="#03BD9D"/>
<path d="M15.4795 38.8119C14.5995 39.0483 13.8161 39.8433 13.5693 40.7243C13.5049 40.9929 13.4727 42.3896 13.4942 44.4953C13.5264 47.7077 13.5371 47.8689 13.7625 48.2879C13.8912 48.5242 14.181 48.8895 14.3956 49.0829C15.1898 49.7812 15.2112 49.7812 18.9459 49.7812C21.9615 49.7812 22.38 49.7598 22.8308 49.5879C23.4532 49.3515 24.2151 48.535 24.3976 47.9226C24.58 47.3209 24.58 41.1648 24.3976 40.5524C24.1937 39.8755 23.3244 39.0483 22.6054 38.8334C21.8434 38.6078 16.2951 38.597 15.4795 38.8119ZM22.3156 40.9069L22.5947 41.1648V44.2482V47.3317L22.3156 47.5895L22.0366 47.8474H18.9781H15.9195L15.662 47.5466L15.4044 47.2457V44.2697C15.4044 41.0681 15.4259 40.9284 15.9839 40.7028C16.102 40.6491 17.5186 40.6168 19.1283 40.6276L22.0366 40.6491L22.3156 40.9069Z" fill="#03BD9D"/>
<path d="M29.7096 40.5622C29.0765 40.6912 28.8189 41.6796 29.3018 42.1523L29.5594 42.4209H37.7799H46.0004L46.2579 42.1523C46.6121 41.8085 46.6121 41.2498 46.2687 40.8416L46.0111 40.5407L37.9731 40.53C33.5623 40.5193 29.8384 40.5407 29.7096 40.5622Z" fill="#03BD9D"/>
<path d="M29.3559 45.4187C28.8729 45.8914 28.9695 46.665 29.5383 46.9228C29.71 47.0088 31.3305 47.041 34.6788 47.041H39.5617L39.8193 46.7724C40.152 46.4501 40.1841 45.784 39.8837 45.4187L39.6798 45.1609L34.6681 45.1286L29.6671 45.0964L29.3559 45.4187Z" fill="#03BD9D"/>
</svg>
