<svg width="60" height="60" viewBox="0 0 60 60" fill="none" xmlns="http://www.w3.org/2000/svg">
<path d="M28.8023 4.62754C28.6842 4.71341 28.0831 5.78679 27.4713 7.03191L26.3549 9.27528L24.0257 9.60803C22.7484 9.7905 21.5784 9.99444 21.4174 10.0696C21.0417 10.2413 20.7626 10.8317 20.8485 11.2932C20.9022 11.5723 21.2886 12.0124 22.7055 13.3863L24.4873 15.1145L24.0686 17.5618C23.7037 19.7407 23.6715 20.0305 23.8003 20.3418C23.9613 20.7282 24.3907 21.0073 24.8415 21.0073C25.0884 21.0073 26.5374 20.2989 28.8667 19.043L29.4677 18.721L31.5394 19.8159C32.6772 20.4277 33.7613 20.9429 33.9545 20.9751C34.3516 21.0395 34.9098 20.7926 35.0815 20.4814C35.2533 20.1486 35.2103 19.6334 34.8132 17.3256L34.4375 15.1681L36.2622 13.3327C37.8401 11.7441 38.087 11.4542 38.087 11.1644C38.087 10.6921 37.926 10.3165 37.6362 10.1232C37.4966 10.0266 36.3803 9.8227 34.9635 9.61876L32.5376 9.27528L31.4857 7.08558C30.8524 5.78679 30.3157 4.81002 30.1654 4.68121C29.8542 4.43433 29.1135 4.40213 28.8023 4.62754ZM31.0886 11.1644C31.2496 11.3147 31.7433 11.4328 32.8704 11.5938C33.7291 11.7226 34.4375 11.8514 34.4375 11.8943C34.4375 11.9265 33.933 12.4418 33.3212 13.0428C32.5913 13.7513 32.1834 14.2343 32.1405 14.4382C32.0761 14.6851 32.3229 16.4562 32.5698 17.551C32.6128 17.7764 32.4839 17.7335 31.1422 17.0358C29.9508 16.424 29.5966 16.2845 29.3389 16.3381C29.1565 16.3703 28.4266 16.6923 27.7289 17.068C27.0204 17.4437 26.4193 17.712 26.4086 17.6584C26.3871 17.6047 26.473 16.9392 26.6018 16.1664C26.7414 15.3721 26.8058 14.61 26.7736 14.406C26.7199 14.1162 26.4516 13.8049 25.5606 12.9677C24.9274 12.3773 24.4336 11.8729 24.4658 11.8514C24.4873 11.8299 25.142 11.7226 25.9041 11.6152C27.9758 11.3362 27.8791 11.4113 28.7271 9.65096L29.4463 8.15896L30.1547 9.56509C30.5519 10.3379 30.9705 11.0571 31.0886 11.1644Z" fill="#6842EF"/>
<path d="M10.4907 14.3418C10.3512 14.4492 9.90036 15.222 9.49248 16.0378L8.75184 17.5405L7.0881 17.7767C6.165 17.9055 5.32776 18.0665 5.22042 18.1201C4.95208 18.2597 4.7052 18.7856 4.7052 19.1935C4.7052 19.4941 4.88767 19.7195 5.99326 20.8358L7.27058 22.1346L7.00223 23.7768C6.85196 24.6785 6.75536 25.5372 6.78756 25.6875C6.83049 25.8377 6.98077 26.0846 7.12031 26.2242C7.56039 26.6642 7.98974 26.5784 9.69642 25.7089L11.2099 24.9468L12.6589 25.7089C14.312 26.5891 14.6769 26.6535 15.2136 26.2027C15.6322 25.8592 15.6429 25.4943 15.3102 23.5085L15.0633 22.0916L16.2655 20.9539C17.7468 19.5585 17.9614 19.0325 17.3389 18.3455C17.0705 18.0557 16.7378 17.9591 14.9774 17.723L13.5928 17.5405L12.7985 15.9519C12.3691 15.0717 11.9183 14.3096 11.8002 14.2452C11.4568 14.0735 10.7698 14.1164 10.4907 14.3418ZM12.1759 19.4619C12.3155 19.5585 12.7985 19.6873 13.2386 19.7517L14.0329 19.8697L13.3996 20.5352C12.6911 21.2759 12.6375 21.4476 12.8629 22.6176C12.9273 22.9289 12.9488 23.208 12.9273 23.2294C12.9058 23.2509 12.5623 23.1006 12.1652 22.8967C11.768 22.682 11.328 22.5103 11.1884 22.5103C11.0381 22.5103 10.5873 22.682 10.1687 22.8967L9.40661 23.2724L9.49248 22.7035C9.69642 21.4476 9.65348 21.2973 8.90212 20.5352L8.22589 19.859L8.96652 19.7731C10.0828 19.6551 10.319 19.5048 10.7913 18.5924L11.1991 17.7981L11.5534 18.5495C11.7466 18.9574 12.0257 19.3653 12.1759 19.4619Z" fill="#6842EF"/>
<path d="M46.9854 14.3418C46.8459 14.4492 46.395 15.222 45.9872 16.0378L45.2465 17.5405L43.5828 17.7767C42.6597 17.9055 41.8225 18.0665 41.7151 18.1201C41.4468 18.2597 41.1999 18.7856 41.1999 19.1935C41.1999 19.4941 41.3824 19.7195 42.4879 20.8358L43.7653 22.1346L43.4969 23.7768C43.3467 24.6785 43.25 25.5372 43.2822 25.6875C43.3252 25.8377 43.4755 26.0846 43.615 26.2242C44.0551 26.6642 44.4844 26.5784 46.1911 25.7089L47.7046 24.9468L49.1536 25.7089C50.8066 26.5891 51.1716 26.6535 51.7083 26.2027C52.1269 25.8592 52.1376 25.4943 51.8049 23.5085L51.558 22.0916L52.7602 20.9539C54.2415 19.5585 54.4561 19.0325 53.8336 18.3455C53.5652 18.0557 53.2325 17.9591 51.4721 17.723L50.0875 17.5405L49.2932 15.9519C48.8638 15.0717 48.413 14.3096 48.2949 14.2452C47.9515 14.0735 47.2645 14.1164 46.9854 14.3418ZM48.6706 19.4619C48.8102 19.5585 49.2932 19.6873 49.7333 19.7517L50.5276 19.8697L49.8943 20.5352C49.1858 21.2759 49.1322 21.4476 49.3576 22.6176C49.422 22.9289 49.4434 23.208 49.422 23.2294C49.4005 23.2509 49.057 23.1006 48.6599 22.8967C48.2627 22.682 47.8226 22.5103 47.6831 22.5103C47.5328 22.5103 47.082 22.682 46.6634 22.8967L45.9013 23.2724L45.9872 22.7035C46.1911 21.4476 46.1482 21.2973 45.3968 20.5352L44.7206 19.859L45.4612 19.7731C46.5775 19.6551 46.8137 19.5048 47.286 18.5924L47.6938 17.7981L48.0481 18.5495C48.2413 18.9574 48.5203 19.3653 48.6706 19.4619Z" fill="#6842EF"/>
<path d="M27.6216 23.9489C25.9364 24.3353 24.702 25.033 23.4247 26.3103C22.3298 27.4052 21.7395 28.339 21.2672 29.7559C20.9988 30.5502 20.9774 30.7434 20.9774 32.3856C20.9774 34.0279 20.9988 34.2211 21.2672 35.0154C21.4282 35.4877 21.7609 36.2391 21.9971 36.6792C22.6089 37.774 24.1116 39.2767 25.2065 39.8886C26.0544 40.3501 27.4928 40.8653 27.9651 40.8653C28.4481 40.8653 28.169 40.9727 27.2674 41.1337C24.4336 41.6274 21.8146 43.0658 19.9147 45.1803L19.2063 45.9639L18.8521 45.6311C18.3368 45.1374 17.2957 44.4612 16.5014 44.0962C15.7715 43.7527 14.0648 43.2268 13.6784 43.2268C13.5603 43.2268 13.3886 43.1838 13.3027 43.1302C13.1954 43.0658 13.292 43.0121 13.5925 42.9584C13.8394 42.9155 14.4297 42.7008 14.9128 42.4647C16.5336 41.6811 17.8109 40.0925 18.2724 38.3214C18.4979 37.4842 18.4979 35.8741 18.2724 35.0369C17.6928 32.8043 15.8788 30.9902 13.6462 30.4106C12.8089 30.1852 11.1989 30.1852 10.3616 30.4106C8.129 30.9902 6.31499 32.8043 5.73536 35.0369C5.50995 35.8741 5.50995 37.4842 5.73536 38.3214C6.30425 40.5111 8.04313 42.2822 10.2328 42.9155C10.8339 43.0872 10.8554 43.098 10.5548 43.1624C8.42955 43.6239 7.03415 44.2358 5.75683 45.2447C4.41511 46.3074 3.51347 47.4559 2.8265 48.9479C2.19321 50.3218 2.10734 50.7941 2.05367 53.2092L2 55.4096L2.28981 55.7102L2.59036 56H29.5H56.4096L56.7102 55.7102L57 55.4096L56.9463 53.2092C56.8927 50.7941 56.8068 50.3218 56.1735 48.9479C55.4865 47.4559 54.5849 46.3074 53.2432 45.2447C51.9658 44.2358 50.5705 43.6239 48.4452 43.1624C48.1446 43.098 48.1661 43.0872 48.7672 42.9155C50.9569 42.2822 52.6957 40.5111 53.2646 38.3214C53.49 37.4842 53.49 35.8741 53.2646 35.0369C52.685 32.8043 50.871 30.9902 48.6384 30.4106C47.8011 30.1852 46.1911 30.1852 45.3538 30.4106C43.1212 30.9902 41.3072 32.8043 40.7276 35.0369C40.631 35.4018 40.5558 36.1317 40.5558 36.6792C40.5558 38.5254 41.1569 39.9852 42.4342 41.2625C43.2607 42.089 44.5166 42.8082 45.4075 42.9584C45.708 43.0121 45.8046 43.0658 45.6973 43.1302C45.6114 43.1838 45.4397 43.2268 45.3216 43.2268C44.9352 43.2268 43.2285 43.7527 42.4986 44.0962C41.7043 44.4612 40.6632 45.1374 40.1479 45.6311L39.7937 45.9639L39.0853 45.1803C37.1639 43.055 34.6522 41.6704 31.7004 41.123L30.7344 40.9405L31.3784 40.8009C32.9885 40.4682 34.2873 39.749 35.5753 38.461C36.6702 37.3661 37.2605 36.4323 37.7328 35.0154C38.0012 34.2211 38.0226 34.0279 38.0226 32.3856C38.0226 30.7434 38.0012 30.5502 37.7328 29.7559C37.2605 28.3497 36.6702 27.4052 35.5753 26.3103C34.4805 25.2155 33.5252 24.6144 32.1298 24.1635C31.4106 23.9167 31.0349 23.8737 29.7683 23.8415C28.7486 23.8201 28.0617 23.8523 27.6216 23.9489ZM31.0564 26.2137C32.1835 26.5035 33.0207 26.9973 33.9545 27.9311C35.2855 29.2514 35.8329 30.5609 35.8329 32.3856C35.8329 34.2104 35.2855 35.5199 33.9545 36.8402C32.6343 38.1712 31.3247 38.7186 29.5 38.7186C27.6753 38.7186 26.3657 38.1712 25.0455 36.8402C23.7145 35.5199 23.1671 34.2104 23.1671 32.3856C23.1671 30.5609 23.7145 29.2514 25.0455 27.9311C25.9578 27.008 26.8058 26.5035 27.8899 26.2244C28.6735 26.0205 30.2621 26.0098 31.0564 26.2137ZM13.7857 32.8687C14.6015 33.2658 15.4173 34.0923 15.8251 34.9081C16.1042 35.4984 16.1364 35.6487 16.1364 36.6792C16.1364 37.7096 16.1042 37.8599 15.8251 38.4502C15.4173 39.2767 14.6015 40.0925 13.775 40.5004C13.1846 40.7795 13.0343 40.8117 12.0039 40.8117C10.9735 40.8117 10.8232 40.7795 10.2328 40.5004C9.40632 40.0925 8.59055 39.2767 8.18267 38.4502C7.90359 37.8599 7.87139 37.7096 7.87139 36.6792C7.87139 35.6702 7.90359 35.4877 8.1612 34.9617C8.54762 34.1782 9.08431 33.5664 9.7498 33.137C10.5548 32.6218 11.0593 32.493 12.1756 32.5252C12.9914 32.5466 13.249 32.6003 13.7857 32.8687ZM48.7779 32.8687C49.5937 33.2658 50.4094 34.0923 50.8173 34.9081C51.0964 35.4984 51.1286 35.6487 51.1286 36.6792C51.1286 37.7096 51.0964 37.8599 50.8173 38.4502C50.4094 39.2767 49.5937 40.0925 48.7672 40.5004C48.1768 40.7795 48.0265 40.8117 46.9961 40.8117C45.9657 40.8117 45.8154 40.7795 45.225 40.5004C44.3985 40.0925 43.5827 39.2767 43.1749 38.4502C42.8958 37.8599 42.8636 37.7096 42.8636 36.6792C42.8636 35.6702 42.8958 35.4877 43.1534 34.9617C43.5398 34.1782 44.0765 33.5664 44.742 33.137C45.547 32.6218 46.0515 32.493 47.1678 32.5252C47.9836 32.5466 48.2412 32.6003 48.7779 32.8687ZM32.2801 43.5488C33.8687 43.9996 35.5431 44.9335 36.7346 46.0283C38.6989 47.8208 40.1265 50.8692 40.1265 53.2843V53.8532H29.5H18.8735V53.2843C18.8735 51.3523 19.7752 49.0016 21.2028 47.1983C22.6196 45.395 24.6483 44.1069 26.9776 43.5059C27.9865 43.2482 28.0617 43.2375 29.822 43.2804C31.1315 43.3019 31.6575 43.3663 32.2801 43.5488ZM14.6015 45.7707C15.7285 46.1571 16.5336 46.6294 17.3493 47.37L17.9612 47.9282L17.8109 48.2824C17.0381 50.193 16.6194 51.8997 16.6194 53.1555V53.8532H10.3831H4.14676L4.2219 52.8013C4.33997 51.0517 4.73712 49.8817 5.60656 48.6581C6.70141 47.1339 8.20414 46.0927 10.0933 45.5775C10.7373 45.4057 11.1345 45.3843 12.2722 45.4165C13.4744 45.4487 13.7964 45.5023 14.6015 45.7707ZM49.3897 45.7278C51.9229 46.5543 53.9194 48.6473 54.5527 51.1376C54.6386 51.4811 54.7459 52.2324 54.7781 52.8013L54.8532 53.8532H48.6169H42.3806V53.1555C42.3806 51.8997 41.9619 50.193 41.1891 48.2824L41.0388 47.9282L41.6507 47.37C42.4235 46.6616 43.2393 46.1786 44.2053 45.8458C45.3753 45.4379 45.751 45.3843 47.2108 45.4165C48.2949 45.4379 48.7135 45.5023 49.3897 45.7278Z" fill="#03BD9D"/>
<path d="M28.706 45.5454C28.4806 45.7708 28.4269 45.9318 28.4269 46.3397C28.4269 47.0481 28.7919 47.4131 29.5003 47.4131C30.2088 47.4131 30.5737 47.0481 30.5737 46.3397C30.5737 45.9318 30.52 45.7708 30.2946 45.5454C30.0692 45.32 29.9082 45.2663 29.5003 45.2663C29.0924 45.2663 28.9314 45.32 28.706 45.5454Z" fill="#6842EF"/>
<path d="M32.8703 46.811C32.5912 47.09 32.5053 47.2618 32.5053 47.5731C32.5053 47.938 32.6019 48.0668 33.6109 49.0651C34.2871 49.7198 34.856 50.3853 35.06 50.761C35.4678 51.4909 35.7469 51.7056 36.2943 51.7056C36.8525 51.7056 37.2067 51.448 37.3355 50.9435C37.4321 50.5893 37.4214 50.439 37.2282 50.0311C36.8954 49.2583 36.1333 48.26 35.3068 47.4979C34.0724 46.3494 33.4928 46.1884 32.8703 46.811Z" fill="#6842EF"/>
</svg>
