<svg width="55" height="55" viewBox="0 0 55 55" fill="none" xmlns="http://www.w3.org/2000/svg">
<path d="M37.1144 0.214798C36.9748 0.354446 36.8996 0.56929 36.8996 0.859329C36.8996 1.14937 36.9748 1.36421 37.1144 1.50386C37.3185 1.70796 37.4797 1.7187 40.3156 1.7187L43.2912 1.72945L42.7541 2.21284C33.1183 11 23.7619 16.6289 15.2218 18.7988C13.7716 19.164 11.8488 19.5078 10.6886 19.6044C9.25993 19.7226 8.95915 19.7763 8.74431 19.9912C8.45427 20.2812 8.46501 20.9794 8.76579 21.2802C8.99138 21.5058 9.06657 21.5166 10.3019 21.4521C15.1789 21.205 21.5705 19.0996 27.6076 15.7373C32.9465 12.7724 38.8117 8.45406 43.7209 3.87788L44.5802 3.07222L44.634 6.11226C44.6877 8.95894 44.6984 9.16304 44.8918 9.30269C45.2033 9.52827 45.88 9.49605 46.1379 9.23824C46.342 9.03413 46.3527 8.88374 46.3527 4.72652C46.3527 0.56929 46.342 0.4189 46.1379 0.214798C45.9338 0.0106964 45.7834 -4.57764e-05 41.6261 -4.57764e-05C37.4689 -4.57764e-05 37.3185 0.0106964 37.1144 0.214798Z" fill="#03BD9D"/>
<path d="M41.4112 12.2461C41.1964 12.4609 41.1964 12.6006 41.1964 30.7227V48.9844H39.4776H37.7589V33.3008C37.7589 17.7568 37.7589 17.6172 37.544 17.4023C37.3399 17.1982 37.1895 17.1875 33.462 17.1875C29.7344 17.1875 29.5841 17.1982 29.3799 17.4023C29.1651 17.6172 29.1651 17.7568 29.1651 33.3008V48.9844H27.4464H25.7276V35.8789C25.7276 22.9131 25.7276 22.7734 25.5128 22.5586C25.3087 22.3545 25.1583 22.3438 21.4307 22.3438C17.7032 22.3438 17.5528 22.3545 17.3487 22.5586C17.1339 22.7734 17.1339 22.9131 17.1339 30.1641V37.5654L17.3809 37.791C17.7247 38.1133 18.3155 38.1025 18.6163 37.7803L18.8526 37.5332V30.7979V24.0625H21.4307H24.0089V36.5234V48.9844H22.086H20.1524L19.9376 49.2637C19.6475 49.6289 19.6475 50.0586 19.9376 50.4238L20.1524 50.7031H36.6954H53.2276V51.9922V53.2812H35.3096H17.3809L17.1553 53.5283C16.8331 53.8721 16.8438 54.4629 17.1661 54.7637L17.4132 55H35.9649C54.377 55 54.5167 55 54.7315 54.7852C54.9356 54.5811 54.9464 54.4307 54.9464 51.9922C54.9464 49.5537 54.9356 49.4033 54.7315 49.1992C54.5274 48.9951 54.377 48.9844 52.1534 48.9844H49.7901V30.7227C49.7901 12.6006 49.7901 12.4609 49.5753 12.2461C49.3712 12.042 49.2208 12.0312 45.4932 12.0312C41.7657 12.0312 41.6153 12.042 41.4112 12.2461ZM48.0714 31.3672V48.9844H45.4932H42.9151V31.3672V13.75H45.4932H48.0714V31.3672ZM36.0401 33.9453V48.9844H33.462H30.8839V33.9453V18.9062H33.462H36.0401V33.9453Z" fill="#03BD9D"/>
<path d="M5.31738 26.8561C5.11328 27.0602 5.10254 27.2106 5.10254 30.7555V34.4508L5.34961 34.6764C5.67188 34.9772 6.16602 34.9772 6.54199 34.6871L6.82129 34.4723V31.4107V28.36H9.39941H11.9775V31.4C11.9775 34.44 11.9775 34.4508 12.2246 34.6764C12.5469 34.9772 13.041 34.9772 13.417 34.6871L13.6963 34.4723V30.7662C13.6963 27.2106 13.6855 27.0602 13.4814 26.8561C13.2773 26.652 13.127 26.6412 9.39941 26.6412C5.67188 26.6412 5.52148 26.652 5.31738 26.8561Z" fill="#03BD9D"/>
<path d="M7.19727 36.2979C3.80273 37.1895 1.40723 39.4238 0.311523 42.7539C0.0322266 43.6025 0.0107422 43.7852 0 45.4932C0 46.9756 0.0429688 47.4482 0.204102 48.0176C1.02051 50.8213 2.90039 53.0342 5.46777 54.1943C6.91797 54.8496 7.43359 54.9463 9.45312 54.9463C11.1611 54.9355 11.3438 54.9141 12.1924 54.6348C15.5869 53.5176 17.9395 50.9502 18.7021 47.5234C18.9277 46.5029 18.8633 44.0215 18.584 43.0225C18.3262 42.0771 17.5527 40.5518 16.8867 39.6924C15.7588 38.2207 13.7178 36.8457 11.9238 36.3516C10.9141 36.083 8.16406 36.04 7.19727 36.2979ZM10.9463 38.0381C13.4922 38.5322 15.7588 40.5625 16.6826 43.1729C16.9404 43.9141 16.9727 44.1289 16.9727 45.5469C16.9727 46.9648 16.9404 47.1797 16.6826 47.9209C16.5215 48.3721 16.21 49.0488 15.9951 49.4248C15.4795 50.3057 14.1582 51.627 13.2773 52.1426C8.88379 54.6992 3.3623 52.4111 1.9873 47.4697C1.72949 46.5029 1.69727 44.8486 1.93359 43.8496C2.88965 39.7998 6.85352 37.2432 10.9463 38.0381Z" fill="#6842EF"/>
<path d="M8.75488 39.7461C8.63672 39.8643 8.54004 40.0576 8.54004 40.1758C8.54004 40.3262 8.43262 40.4121 8.12109 40.498C7.46582 40.6699 6.70312 41.25 6.33789 41.8301C6.03711 42.3242 6.01562 42.4316 6.01562 43.3984C6.01562 44.3652 6.03711 44.4727 6.33789 44.9668C6.70312 45.5469 7.46582 46.127 8.12109 46.2988L8.54004 46.417V47.6523V48.8984L8.19629 48.6943C7.93848 48.5439 7.80957 48.3613 7.71289 48.0176C7.54102 47.4375 7.33691 47.2656 6.7998 47.2656C6.20898 47.2656 5.96191 47.5557 5.96191 48.2324C5.96191 49.2852 6.76758 50.2412 7.92773 50.5635C8.38965 50.6924 8.54004 50.7891 8.54004 50.9395C8.54004 51.2832 8.92676 51.5625 9.39941 51.5625C9.87207 51.5625 10.2588 51.2725 10.2588 50.918C10.2588 50.7676 10.3662 50.6816 10.6777 50.5957C11.333 50.4238 12.0957 49.8438 12.4609 49.2637C12.7617 48.7695 12.7832 48.6621 12.7832 47.6953C12.7832 46.7285 12.7617 46.6211 12.4609 46.127C12.0957 45.5469 11.333 44.9668 10.6777 44.7949L10.2588 44.6768V43.4414V42.1953L10.6025 42.3994C10.8604 42.5498 10.9893 42.7324 11.0859 43.0762C11.2578 43.6562 11.4619 43.8281 11.999 43.8281C12.5898 43.8281 12.8369 43.5381 12.8369 42.8613C12.8369 41.8086 12.042 40.8633 10.8818 40.5195C10.4307 40.3906 10.2588 40.2832 10.2588 40.1436C10.2588 39.8105 9.86133 39.5312 9.39941 39.5312C9.10938 39.5312 8.89453 39.6064 8.75488 39.7461ZM8.54004 43.3984C8.54004 43.9893 8.49707 44.4727 8.44336 44.4727C8.19629 44.4727 7.78809 43.7959 7.78809 43.3984C7.78809 43.001 8.19629 42.3242 8.44336 42.3242C8.49707 42.3242 8.54004 42.8076 8.54004 43.3984ZM10.7314 46.9541C11.1074 47.4053 11.1074 47.9854 10.7314 48.4365C10.5811 48.6191 10.4092 48.7695 10.3555 48.7695C10.3018 48.7695 10.2588 48.2861 10.2588 47.6953C10.2588 47.1045 10.3018 46.6211 10.3555 46.6211C10.4092 46.6211 10.5811 46.7715 10.7314 46.9541Z" fill="#6842EF"/>
</svg>
