<svg width="52" height="55" viewBox="0 0 52 55" fill="none" xmlns="http://www.w3.org/2000/svg">
<path d="M35.448 0.248997C34.0945 0.700153 32.8699 1.75285 32.3221 2.91297L32.0643 3.43932H22.8156H13.5776L12.9868 3.72934C12.6109 3.93344 12.2994 4.19124 12.0845 4.49201L11.7623 4.96465L11.7301 8.12275L11.6978 11.2808H8.61493C4.83381 11.2916 4.55453 11.356 4.07115 12.4087C3.88854 12.7954 3.86705 13.1607 3.86705 15.8998V18.9612L2.13762 20.3362C0.77341 21.4211 0.365222 21.8078 0.204094 22.1623C0.0214836 22.5705 0 22.9035 0 25.9219V29.2304L0.268545 29.4882C0.580058 29.8105 1.06344 29.8319 1.40718 29.5527C1.66498 29.3486 1.66498 29.3163 1.71869 26.8242L1.7724 24.2999L6.60621 28.167C9.27018 30.3046 11.5904 32.1307 11.7623 32.2381C12.1705 32.4959 12.8472 32.4959 13.2661 32.2488C13.4487 32.1307 15.7797 30.2938 18.4544 28.167L23.3097 24.2784L23.2882 30.702L23.256 37.1149H12.5142H1.7724L1.71869 34.6658C1.66498 32.2381 1.66498 32.2059 1.40718 32.0018C1.06344 31.7225 0.580058 31.744 0.268545 32.0662L0 32.324V34.8269C0 37.029 0.0322254 37.3834 0.204094 37.7594C0.429672 38.2535 0.784152 38.608 1.21382 38.7691C1.41792 38.8443 3.26551 38.8873 6.61696 38.8873H11.7086V41.895C11.7086 44.3764 11.7408 44.9779 11.8804 45.3109C12.0845 45.8158 12.5035 46.2562 13.0513 46.5462C13.481 46.7825 13.5347 46.7825 20.7424 46.8147L28.0039 46.847L28.0683 47.6848C28.1543 48.9524 28.5517 49.6076 29.54 50.048C29.9374 50.2306 30.2489 50.2736 31.2909 50.2736C32.494 50.2736 32.5692 50.2629 32.8162 50.0051C33.1707 49.6613 33.1707 49.1672 32.8162 48.8235C32.5799 48.5764 32.4832 48.5549 31.4413 48.5549C29.7226 48.5549 29.8085 48.716 29.8085 45.6869V43.227L30.1308 42.5932C30.5175 41.8305 31.1405 41.3257 31.9569 41.0894C32.451 40.939 33.2459 40.9175 37.4567 40.9497C42.2046 40.9819 42.3979 40.9927 42.8598 41.2075C43.7836 41.6479 44.5033 42.604 44.5141 43.4418C44.5248 43.85 44.5248 43.85 43.9447 44.0004C43.0102 44.2474 42.1616 44.7631 41.4204 45.5472C40.69 46.3314 40.2603 47.094 40.0455 47.9856L39.9058 48.5549H37.7789C35.6628 48.5549 35.6521 48.5549 35.3943 48.8235C35.0398 49.1672 35.0398 49.6613 35.3943 50.0051C35.6521 50.2736 35.6628 50.2736 37.8112 50.2736C39.8306 50.2736 39.9595 50.2843 39.9595 50.467C39.9595 50.8214 40.3785 51.9064 40.7222 52.4327C41.7856 54.0869 43.4721 55 45.4916 55C47.1995 55 48.553 54.4092 49.6701 53.1632C52.5489 49.9728 50.841 44.7845 46.6087 43.893C46.3509 43.8393 46.3187 43.7748 46.265 43.1948C46.1898 42.3354 45.6849 41.3149 44.9974 40.6275C44.2348 39.8648 43.311 39.4244 42.1723 39.2847L41.2808 39.1666L41.6997 38.6295C42.2153 37.942 42.5161 37.1579 42.6665 36.0944C42.8061 35.0739 42.602 33.9138 42.0972 32.8826C41.4634 31.6043 39.9595 30.412 38.5631 30.0897C37.7467 29.8964 36.3073 29.9501 35.5339 30.1864C34.116 30.6268 32.9236 31.658 32.2684 33.033C31.3553 34.9343 31.5272 36.9215 32.7625 38.7262L33.0633 39.1666L32.1825 39.2847C31.0438 39.4459 30.1952 39.8433 29.4326 40.606C28.4658 41.5727 28.0361 42.7436 28.0361 44.3871V45.1175H21.011C14.0718 45.1175 13.9858 45.1175 13.7065 44.892L13.4273 44.6771V41.7768V38.8873H18.4759C22.4826 38.8873 23.5998 38.8551 23.879 38.7369C24.3409 38.5543 24.8995 37.899 24.9747 37.4694C25.0069 37.276 25.0284 33.7742 25.0069 29.6816C24.9747 22.3664 24.9747 22.2482 24.7491 21.9475C24.631 21.7863 23.7716 21.0451 22.8478 20.304L21.1721 18.9612V15.8676C21.1614 13.5151 21.1291 12.6988 21.011 12.4302C20.8284 11.9791 20.302 11.5386 19.7864 11.3883C19.5608 11.3238 18.1322 11.2808 16.4135 11.2808H13.4273V8.43426C13.4273 5.72732 13.438 5.57693 13.6421 5.37284C13.8569 5.158 13.9966 5.158 22.7726 5.158H31.6883V5.60916C31.6883 6.60815 32.0965 7.77901 32.7625 8.75651L33.0633 9.19693L32.1717 9.31509C31.0223 9.47621 30.1952 9.87366 29.4218 10.6363C28.4228 11.6353 28.0791 12.6988 28.6054 13.1929C29.0996 13.6655 29.6904 13.4399 30.12 12.6128C30.453 11.9791 30.8183 11.6246 31.5165 11.2486C31.9569 11.0123 31.9999 11.0123 37.1667 11.0123C42.2475 11.0123 42.3872 11.023 42.8598 11.2379C43.7514 11.6568 44.4281 12.5484 44.5463 13.4292L44.6 13.8374L43.977 14.02C42.9565 14.31 42.1616 14.8041 41.4204 15.5776C40.69 16.3617 40.2603 17.1244 40.0455 18.0159L39.9058 18.5853H35.115C29.3144 18.5853 29.83 18.7357 29.7763 17.0384C29.7333 15.9643 29.7226 15.8891 29.4648 15.685C28.9921 15.3198 28.4443 15.4164 28.1973 15.9106C28.0146 16.2543 27.9824 17.7367 28.1435 18.4134C28.2939 19.0901 28.7773 19.6809 29.4218 20.0032L30.0126 20.304H34.9538H39.9058L40.0455 20.8625C40.2603 21.7648 40.69 22.5275 41.4204 23.3117C42.5376 24.4825 43.8051 25.0304 45.4379 25.0304C47.1351 25.0304 48.2522 24.5792 49.4446 23.4083C52.6241 20.261 51.0129 14.8901 46.6087 13.9233C46.3509 13.8696 46.3187 13.8052 46.265 13.2251C46.0716 11.0767 43.9233 9.23989 41.6138 9.23989H41.2486L41.6782 8.67058C42.2153 7.9831 42.5161 7.19895 42.6665 6.12477C43.0317 3.54673 41.3237 0.914989 38.7887 0.173805C37.8971 -0.0839996 36.3181 -0.0517731 35.448 0.248997ZM38.9068 2.10733C40.271 2.79481 41.1626 4.41682 40.98 5.85622C40.8081 7.12376 39.8629 8.41277 38.7027 8.94986C37.9078 9.30434 36.4684 9.28286 35.6413 8.89615C34.8572 8.53093 34.116 7.78975 33.7508 7.0056C33.5037 6.48999 33.4607 6.24293 33.4607 5.48026C33.4607 4.66388 33.5037 4.48127 33.8152 3.8475C34.7605 1.92472 37.0163 1.15131 38.9068 2.10733ZM19.4212 19.0794L19.4427 25.1163L16.0053 27.8662C13.6958 29.7138 12.5142 30.5946 12.4175 30.5409C12.3423 30.4979 10.774 29.2519 8.93719 27.7803L5.58574 25.1055V19.1224C5.58574 15.8354 5.61797 13.1069 5.66093 13.0747C5.69316 13.0317 8.80828 13.0103 12.5572 13.021L19.389 13.0532L19.4212 19.0794ZM47.1028 15.8998C47.4036 16.0395 47.9085 16.4262 48.2415 16.7592C49.0256 17.5326 49.3371 18.306 49.3371 19.4446C49.3371 20.5832 49.0256 21.3567 48.2415 22.1301C47.4144 22.9572 46.8021 23.2257 45.6527 23.2902C44.4496 23.3439 43.7407 23.0968 42.8706 22.2804C41.979 21.4533 41.6245 20.6584 41.6245 19.4446C41.6245 18.6712 41.6675 18.4349 41.9253 17.887C42.3979 16.8666 43.3002 16.0502 44.2885 15.7279C44.9867 15.5024 46.4368 15.5883 47.1028 15.8998ZM3.86705 22.506V23.7521L3.11512 23.1398C2.69619 22.8068 2.37394 22.4953 2.38468 22.4416C2.41691 22.3664 3.75963 21.2707 3.82408 21.2707C3.84557 21.2707 3.86705 21.8293 3.86705 22.506ZM22.0207 21.8723L22.7619 22.4738L22.4719 22.7101C22.3107 22.839 21.9563 23.1291 21.677 23.3546L21.1614 23.7628V22.5168C21.1614 21.8293 21.1828 21.2707 21.2258 21.2707C21.258 21.2707 21.6125 21.5393 22.0207 21.8723ZM38.8746 32.0555C41.2486 33.2693 41.6997 36.32 39.7877 38.1354C38.9391 38.941 38.402 39.1558 37.2204 39.1558C36.3933 39.1558 36.1677 39.1129 35.6413 38.8658C33.0203 37.6412 32.6551 34.1716 34.9646 32.4207C35.7165 31.8514 36.2751 31.6903 37.3815 31.7225C38.1227 31.7547 38.402 31.8192 38.8746 32.0555ZM47.2425 45.9769C48.596 46.6966 49.3371 47.9104 49.3371 49.4143C49.3371 50.4347 49.0364 51.2511 48.3811 51.9816C46.8773 53.6465 44.5033 53.7647 42.8706 52.2501C41.979 51.423 41.6245 50.6281 41.6245 49.4143C41.6245 48.6408 41.6675 48.4045 41.9253 47.8567C42.0864 47.5022 42.4301 47.0081 42.6772 46.7503C43.5795 45.8265 44.31 45.5365 45.6527 45.5794C46.4476 45.6117 46.6517 45.6546 47.2425 45.9769Z" fill="#03BD9D"/>
<path d="M8.38911 15.8576C8.08834 16.2336 8.10982 16.5773 8.42133 16.9425L8.67913 17.2433L12.2132 17.2755C14.1467 17.297 15.8976 17.2755 16.091 17.2433C16.2843 17.2111 16.5421 17.0822 16.6603 16.964C16.9288 16.6955 16.9288 16.1154 16.6496 15.8146C16.424 15.5783 16.4025 15.5783 12.514 15.5783H8.60394L8.38911 15.8576Z" fill="#6842EF"/>
<path d="M8.43249 19.2837C8.26062 19.4449 8.16394 19.6704 8.16394 19.8745C8.16394 20.0786 8.26062 20.3042 8.43249 20.4653L8.69029 20.7339H12.5144H16.3385L16.5963 20.4653C16.7681 20.3042 16.8648 20.0786 16.8648 19.8745C16.8648 19.6704 16.7681 19.4449 16.5963 19.2837L16.3385 19.0152H12.5144H8.69029L8.43249 19.2837Z" fill="#6842EF"/>
<path d="M8.38911 22.8395C8.08834 23.2155 8.10982 23.5592 8.42133 23.9245L8.67913 24.2252L12.2132 24.2575C14.1467 24.2789 15.8976 24.2575 16.091 24.2252C16.2843 24.193 16.5421 24.0641 16.6603 23.946C16.9288 23.6774 16.9288 23.0973 16.6496 22.7966C16.424 22.5603 16.4025 22.5603 12.514 22.5603H8.60394L8.38911 22.8395Z" fill="#6842EF"/>
<path d="M44.9756 16.8879C44.7286 17.0812 44.5782 17.5431 44.5782 18.1124V18.5851H43.9766C43.2569 18.5851 43.0421 18.6925 42.8595 19.1222C42.7521 19.38 42.7521 19.5089 42.8595 19.7667C43.0421 20.1964 43.2569 20.3038 43.9766 20.3038H44.5782V20.7764C44.5782 21.7002 44.8682 22.1299 45.5235 22.1299C46.0391 22.1299 46.2969 21.7432 46.2969 20.9698V20.3038H46.9736C47.8007 20.3038 48.123 20.0567 48.123 19.4229C48.123 18.8536 47.747 18.5851 46.9306 18.5851H46.2969V17.9084C46.2969 17.339 46.2539 17.1887 46.0498 16.9953C45.7705 16.7375 45.2549 16.6838 44.9756 16.8879Z" fill="#6842EF"/>
<path d="M44.976 46.8579C44.7289 47.0512 44.5785 47.5131 44.5785 48.0824V48.5551H43.9985C43.6762 48.5551 43.3325 48.5873 43.2358 48.6195C42.9673 48.7269 42.7309 49.2855 42.8061 49.64C42.9028 50.0912 43.2358 50.2738 43.9555 50.2738H44.5785V50.8109C44.5785 51.4017 44.7934 51.928 45.0619 52.0354C45.4057 52.1643 45.8246 52.0999 46.0609 51.885C46.2543 51.7024 46.2972 51.5413 46.2972 50.972V50.2738H46.974C47.8226 50.2738 48.1233 50.0482 48.1233 49.4144C48.1233 48.8129 47.7581 48.5551 46.931 48.5551H46.2972V47.8783C46.2972 47.309 46.2543 47.1586 46.0502 46.9653C45.7709 46.7075 45.2553 46.6538 44.976 46.8579Z" fill="#6842EF"/>
</svg>
