<svg width="210" height="30" viewBox="0 0 210 30" fill="none" xmlns="http://www.w3.org/2000/svg">
<path d="M15.2302 4.77016L22.9556 9.73849L22.6802 10.1555L14.9547 5.18715L15.2302 4.77016Z" fill="#4A68D6"/>
<path d="M5.43811 5.31707L12.6108 0L12.9138 0.397946L5.74113 5.71501L5.43811 5.31707Z" fill="#4A68D6"/>
<path d="M9.84581 17.7849L1.8245 12.4096V29.5499H9.84581V17.7849Z" fill="url(#paint0_linear_1327_30286)"/>
<path d="M13.0949 0.746003V29.5499H10.7713V16.72L5.98745 13.3224V6.07067L13.0949 0.746003Z" fill="url(#paint1_linear_1327_30286)"/>
<path d="M14.618 5.51283V29.4992H17.3595V19.7626L22.5378 16.2129V10.9389L14.618 5.51283Z" fill="url(#paint2_linear_1327_30286)"/>
<path d="M26.0001 29.4992H18.2834V20.5233L26.0001 15.1479V29.4992Z" fill="url(#paint3_linear_1327_30286)"/>
<path d="M3.64355 19.8009H5.41808V21.3519H3.64355V19.8009Z" fill="white"/>
<path d="M3.64355 22.9028H5.41808V24.4538H3.64355V22.9028Z" fill="white"/>
<path d="M3.64355 26.0048H5.41808V27.5558H3.64355V26.0048Z" fill="white"/>
<path d="M6.08352 19.8009H7.85805V21.3519H6.08352V19.8009Z" fill="white"/>
<path d="M6.08352 22.9028H7.85805V24.4538H6.08352V22.9028Z" fill="white"/>
<path d="M6.08352 26.0048H7.85805V27.5558H6.08352V26.0048Z" fill="white"/>
<path d="M20.5016 20.4656H22.2761V22.0166H20.5016V20.4656Z" fill="white"/>
<path d="M20.5016 23.5675H22.2761V25.1185H20.5016V23.5675Z" fill="white"/>
<path d="M20.5016 26.6695H22.2761V28.2205H20.5016V26.6695Z" fill="white"/>
<path d="M22.9416 20.4656H24.7161V22.0166H22.9416V20.4656Z" fill="white"/>
<path d="M22.9416 23.5675H24.7161V25.1185H22.9416V23.5675Z" fill="white"/>
<path d="M22.9416 26.6695H24.7161V28.2205H22.9416V26.6695Z" fill="white"/>
<path d="M0 29.0999H27.8248V30H0V29.0999Z" fill="#03BD9D"/>
<path d="M33.8621 29.6255C33.4626 29.6255 33.2629 29.4239 33.2629 29.0206C33.2629 28.5117 33.2726 28.0075 33.2921 27.5082C33.3116 26.9993 33.3262 26.4952 33.336 25.9959C33.3554 24.882 33.3701 23.773 33.3798 22.6687C33.3993 21.5549 33.409 20.4458 33.409 19.3416C33.409 18.2757 33.4042 17.2099 33.3944 16.144C33.3847 15.0782 33.3701 14.0123 33.3506 12.9465C33.3408 12.4664 33.3262 11.9815 33.3067 11.4917C33.2872 11.002 33.2775 10.5171 33.2775 10.037C33.2775 9.63372 33.4772 9.43207 33.8767 9.43207H39.3573C40.9941 9.43207 42.5336 9.66253 43.9755 10.1234C45.4273 10.5843 46.689 11.3189 47.7608 12.3271C48.8325 13.3258 49.6217 14.6413 50.1284 16.2736C50.4889 17.4451 50.6691 18.6358 50.6691 19.8457C50.6691 21.8141 50.2161 23.5329 49.31 25.0021C48.4136 26.4616 47.1859 27.5994 45.627 28.4156C44.0779 29.2222 42.3241 29.6255 40.3657 29.6255H33.8621ZM37.0189 26.1543H39.7226C41.8954 26.1543 43.6297 25.5926 44.9255 24.4691C46.2311 23.3361 46.8839 21.6701 46.8839 19.4712C46.8839 18.2229 46.616 17.1042 46.0801 16.1152C45.5442 15.1166 44.794 14.3292 43.8294 13.7531C42.8648 13.1769 41.7346 12.8889 40.4388 12.8889H37.0335C37.0433 13.9067 37.0481 14.9293 37.0481 15.9568C37.0579 16.9842 37.0627 18.0116 37.0627 19.0391C37.0627 21.4012 37.0481 23.773 37.0189 26.1543Z" fill="#0D1520"/>
<path d="M55.7989 16.5617C56.1692 16.5617 56.3689 16.7394 56.3982 17.0946L56.5443 18.7366C56.5443 18.7462 56.554 18.8182 56.5735 18.9527C56.593 19.0775 56.6271 19.1399 56.6758 19.1399C56.7245 19.1399 56.7733 19.0871 56.822 18.9815C56.8804 18.8758 56.9145 18.8134 56.9243 18.7942C57.3238 18.0549 57.8109 17.4739 58.3858 17.0514C58.9606 16.6289 59.6865 16.4177 60.5634 16.4177C60.768 16.4177 61.0262 16.4369 61.338 16.4753C61.6595 16.5041 61.8203 16.6625 61.8203 16.9506C61.8203 17.0946 61.791 17.3203 61.7326 17.6276C61.6741 17.9348 61.6059 18.2469 61.528 18.5638C61.4598 18.871 61.4062 19.1063 61.3672 19.2695C61.3282 19.4328 61.2649 19.5624 61.1772 19.6584C61.0993 19.7448 60.9628 19.7881 60.768 19.7881C60.6706 19.7881 60.5731 19.7833 60.4757 19.7737C60.388 19.7544 60.2906 19.7448 60.1834 19.7448C59.4137 19.7448 58.7658 19.9849 58.2396 20.465C57.7135 20.9355 57.3189 21.5165 57.0558 22.2078C56.7928 22.8992 56.6612 23.5809 56.6612 24.2531V29.035C56.6612 29.4287 56.4615 29.6255 56.062 29.6255H53.7967C53.3972 29.6255 53.1975 29.4239 53.1975 29.0206C53.1975 27.5322 53.2024 26.0487 53.2121 24.57C53.2316 23.0816 53.2413 21.5981 53.2413 20.1193V17.1522C53.2413 16.7586 53.4411 16.5617 53.8406 16.5617H55.7989Z" fill="#0D1520"/>
<path d="M69.683 29.9712C68.2605 29.9712 67.0183 29.6927 65.9563 29.1358C64.904 28.5789 64.0855 27.7867 63.501 26.7593C62.9164 25.7318 62.6241 24.5123 62.6241 23.1008C62.6241 21.7853 62.9018 20.6042 63.4571 19.5576C64.0125 18.511 64.7968 17.6852 65.8101 17.0802C66.8234 16.4657 68.0121 16.1584 69.3761 16.1584C71.0617 16.1584 72.3819 16.6241 73.3367 17.5555C74.3013 18.487 74.9541 19.7256 75.2951 21.2716C75.3049 21.3004 75.3097 21.3484 75.3097 21.4156C75.3097 21.5597 75.2708 21.6701 75.1928 21.7469C75.1246 21.8141 75.0321 21.8717 74.9151 21.9197C74.5839 22.0734 74.2331 22.2078 73.8629 22.323C73.4926 22.4383 73.1321 22.5631 72.7814 22.6975C71.7583 23.072 70.7304 23.4417 69.6976 23.8066C68.6649 24.1619 67.6418 24.5411 66.6285 24.9444C66.5506 24.9828 66.5116 25.0309 66.5116 25.0885C66.5116 25.1173 66.5214 25.1509 66.5408 25.1893C66.9306 25.8807 67.4664 26.3944 68.1485 26.7304C68.8305 27.0665 69.5612 27.2346 70.3407 27.2346C70.9545 27.2346 71.5245 27.1385 72.0506 26.9465C72.5865 26.7545 73.1126 26.5144 73.629 26.2263C73.6972 26.1879 73.7654 26.1543 73.8336 26.1255C73.9018 26.0967 73.97 26.0823 74.0383 26.0823C74.1747 26.0823 74.277 26.1255 74.3452 26.2119C74.4231 26.2887 74.4864 26.38 74.5352 26.4856C74.5741 26.5528 74.6472 26.7064 74.7544 26.9465C74.8713 27.177 74.9785 27.4122 75.0759 27.6523C75.1831 27.8827 75.2367 28.0315 75.2367 28.0988C75.2367 28.2044 75.2074 28.2908 75.149 28.358C75.0905 28.4252 75.0223 28.4877 74.9444 28.5453C74.2526 29.0158 73.4098 29.3711 72.416 29.6111C71.4319 29.8512 70.521 29.9712 69.683 29.9712ZM66.0147 22.9568C66.9988 22.6207 67.9828 22.2846 68.9669 21.9485C69.951 21.6125 70.9302 21.2764 71.9045 20.9403C71.6609 20.4122 71.3199 19.9513 70.8814 19.5576C70.4527 19.1639 69.9217 18.9671 69.2884 18.9671C68.5479 18.9671 67.9341 19.1639 67.447 19.5576C66.9598 19.9513 66.5993 20.4554 66.3655 21.0699C66.1316 21.6749 66.0147 22.3038 66.0147 22.9568Z" fill="#0D1520"/>
<path d="M82.8364 29.8992C81.5698 29.8992 80.5078 29.6015 79.6503 29.0062C78.7929 28.4108 78.145 27.6235 77.7066 26.644C77.2779 25.655 77.0635 24.5844 77.0635 23.4321V23.2016C77.083 21.9918 77.3363 20.8539 77.8235 19.7881C78.3204 18.7222 79.0365 17.8628 79.9719 17.2099C80.9072 16.5473 82.0374 16.216 83.3625 16.216C84.1809 16.216 84.9409 16.3697 85.6424 16.6769C86.3537 16.9746 87.0162 17.3827 87.63 17.9012C87.6982 17.9684 87.7567 18.002 87.8054 18.002C87.9223 18.002 87.9759 17.882 87.9662 17.642C87.9662 17.4019 88.0003 17.1618 88.0685 16.9218C88.1464 16.6817 88.3413 16.5617 88.6531 16.5617H90.7138C91.1132 16.5617 91.313 16.7586 91.313 17.1522C91.313 17.5651 91.3081 17.978 91.2984 18.3909C91.2984 18.8038 91.2984 19.2167 91.2984 19.6296C91.2984 20.6859 91.3032 21.7469 91.313 22.8127C91.3325 23.8786 91.3471 24.9396 91.3568 25.9959C91.3666 26.4952 91.3763 26.9993 91.3861 27.5082C91.4055 28.0075 91.4153 28.5117 91.4153 29.0206C91.4153 29.4239 91.2155 29.6255 90.8161 29.6255H88.5215C88.2585 29.6255 88.088 29.5439 88.01 29.3807C87.9321 29.2078 87.898 29.0062 87.9077 28.7757C87.9175 28.5453 87.9175 28.3388 87.9077 28.1564C87.9077 28.1276 87.9029 28.0796 87.8931 28.0123C87.8834 27.9451 87.8541 27.9115 87.8054 27.9115C87.7664 27.9115 87.7275 27.9259 87.6885 27.9547C87.6593 27.9835 87.63 28.0075 87.6008 28.0267C86.9188 28.5933 86.1832 29.0494 85.394 29.3951C84.6048 29.7311 83.7522 29.8992 82.8364 29.8992ZM84.3271 26.8313C85.0189 26.8313 85.657 26.692 86.2416 26.4136C86.836 26.1255 87.2988 25.6742 87.63 25.0597C87.6495 25.0213 87.6934 24.9252 87.7616 24.7716C87.8395 24.6084 87.8785 24.5075 87.8785 24.4691C87.8785 24.1331 87.8736 23.797 87.8639 23.4609C87.8639 23.1248 87.8639 22.7935 87.8639 22.4671C87.8639 22.3134 87.8688 22.1454 87.8785 21.963C87.8882 21.7709 87.8834 21.6029 87.8639 21.4588C87.8541 21.3916 87.8152 21.2908 87.747 21.1564C87.6885 21.0219 87.6447 20.9259 87.6154 20.8683C87.2744 20.2634 86.7921 19.8121 86.1686 19.5144C85.545 19.2167 84.8922 19.0679 84.2102 19.0679C83.4892 19.0679 82.8559 19.2455 82.3102 19.6008C81.7646 19.9561 81.3359 20.4266 81.0241 21.0123C80.7221 21.5885 80.5711 22.2222 80.5711 22.9136C80.5711 23.6049 80.7318 24.2483 81.0534 24.8436C81.3749 25.439 81.8182 25.9191 82.3833 26.2839C82.9582 26.6488 83.6061 26.8313 84.3271 26.8313Z" fill="#0D1520"/>
<path d="M94.9813 16.5617H96.9689C97.3002 16.5617 97.4951 16.7346 97.5535 17.0802C97.573 17.157 97.5925 17.3107 97.612 17.5411C97.6315 17.7716 97.6558 17.9876 97.685 18.1893C97.724 18.3909 97.7727 18.4918 97.8312 18.4918C97.8799 18.4918 97.9238 18.4725 97.9627 18.4341C98.0017 18.3861 98.0309 18.3477 98.0504 18.3189C98.6935 17.5603 99.4291 17.0226 100.257 16.7057C101.095 16.3793 102.006 16.216 102.99 16.216C103.789 16.216 104.564 16.3601 105.314 16.6481C106.074 16.9362 106.634 17.4643 106.995 18.2325C107.014 18.2613 107.034 18.2997 107.053 18.3477C107.073 18.3957 107.107 18.4197 107.155 18.4197C107.194 18.4197 107.229 18.4053 107.258 18.3765C107.287 18.3381 107.311 18.3093 107.331 18.2901C107.935 17.6372 108.636 17.133 109.435 16.7778C110.234 16.4129 111.082 16.2304 111.978 16.2304C113.167 16.2304 114.19 16.5569 115.047 17.2099C115.915 17.8532 116.348 18.8038 116.348 20.0617C116.348 21.0699 116.358 22.083 116.377 23.1008C116.397 24.109 116.416 25.1173 116.436 26.1255C116.455 26.6056 116.475 27.0905 116.494 27.5802C116.524 28.0604 116.538 28.5405 116.538 29.0206C116.538 29.4239 116.338 29.6255 115.939 29.6255H113.659C113.445 29.6255 113.294 29.5775 113.206 29.4815C113.128 29.3855 113.079 29.2414 113.06 29.0494C113.021 28.6461 113.006 28.238 113.016 27.8251C113.026 27.4026 113.021 26.9897 113.001 26.5864C112.992 25.7222 112.977 24.858 112.958 23.9938C112.948 23.1296 112.943 22.2654 112.943 21.4012C112.943 20.7291 112.777 20.2057 112.446 19.8313C112.124 19.4472 111.613 19.2551 110.911 19.2551C110.103 19.2551 109.416 19.5 108.851 19.9897C108.286 20.4794 107.852 21.0892 107.55 21.8189C107.258 22.5391 107.112 23.2496 107.112 23.9506C107.112 24.7956 107.116 25.6406 107.126 26.4856C107.136 27.3306 107.141 28.1804 107.141 29.035C107.141 29.4287 106.941 29.6255 106.542 29.6255H104.232C103.833 29.6255 103.633 29.4287 103.633 29.035C103.633 27.7579 103.643 26.4856 103.663 25.2181C103.682 23.9506 103.682 22.6783 103.663 21.4012C103.653 20.7579 103.487 20.2394 103.166 19.8457C102.854 19.452 102.352 19.2551 101.66 19.2551C100.832 19.2551 100.135 19.5 99.5704 19.9897C99.0052 20.4698 98.5766 21.0747 98.2843 21.8045C97.992 22.5343 97.8361 23.2593 97.8166 23.9794C97.8068 24.5652 97.7971 25.1509 97.7873 25.7366C97.7776 26.3224 97.763 26.9129 97.7435 27.5082C97.7435 27.7579 97.7435 28.0171 97.7435 28.286C97.7533 28.5453 97.7435 28.7997 97.7143 29.0494C97.6948 29.2414 97.6412 29.3855 97.5535 29.4815C97.4756 29.5775 97.3294 29.6255 97.1151 29.6255H94.8205C94.4211 29.6255 94.2213 29.4191 94.2213 29.0062C94.2213 28.5069 94.2311 28.0123 94.2506 27.5226C94.2798 27.0233 94.2993 26.524 94.309 26.0247C94.3675 23.9218 94.3967 21.8237 94.3967 19.7304C94.3967 19.3367 94.387 18.9046 94.3675 18.4341C94.348 17.9636 94.3529 17.5363 94.3821 17.1522C94.4113 16.7586 94.6111 16.5617 94.9813 16.5617Z" fill="#0D1520"/>
<path d="M122.092 30C121.536 30 120.957 29.8992 120.353 29.6975C119.749 29.4959 119.247 29.1934 118.847 28.7901C118.73 28.6749 118.672 28.5501 118.672 28.4156C118.672 28.358 118.701 28.214 118.76 27.9835C118.828 27.7435 118.901 27.4986 118.979 27.249C119.057 26.9993 119.106 26.8361 119.125 26.7593C119.164 26.644 119.218 26.5336 119.286 26.428C119.354 26.3128 119.461 26.2551 119.607 26.2551C119.792 26.2551 120.08 26.3752 120.47 26.6152C120.859 26.8553 121.307 26.9753 121.814 26.9753C122.701 26.9753 123.144 26.5528 123.144 25.7078C123.144 25.1605 122.964 24.7812 122.603 24.57C122.253 24.3587 121.873 24.1475 121.463 23.9362C120.645 23.5041 120.021 22.976 119.593 22.3518C119.164 21.7277 118.95 20.9499 118.95 20.0185C118.95 18.8374 119.3 17.9156 120.002 17.2531C120.713 16.5905 121.658 16.2592 122.837 16.2592C122.983 16.2592 123.207 16.2784 123.509 16.3169C123.821 16.3553 124.143 16.4177 124.474 16.5041C124.805 16.5809 125.088 16.6913 125.322 16.8354C125.556 16.9698 125.672 17.133 125.672 17.3251C125.672 17.5075 125.633 17.7092 125.556 17.93C125.478 18.1413 125.414 18.3381 125.366 18.5206C125.327 18.6454 125.273 18.7654 125.205 18.8806C125.137 18.9959 125.02 19.0535 124.854 19.0535C124.649 19.0535 124.43 19.0007 124.196 18.895C123.963 18.7894 123.709 18.7366 123.436 18.7366C123.066 18.7366 122.74 18.847 122.457 19.0679C122.175 19.2791 122.033 19.5816 122.033 19.9753C122.033 20.4266 122.17 20.7771 122.443 21.0267C122.725 21.2764 123.071 21.4972 123.48 21.6893C123.889 21.8813 124.299 22.1166 124.708 22.3951C125.117 22.6735 125.458 23.0624 125.731 23.5617C126.013 24.0514 126.155 24.7284 126.155 25.5926C126.155 26.8217 125.804 27.8635 125.102 28.7181C124.411 29.5727 123.407 30 122.092 30Z" fill="#0D1520"/>
<path d="M136.195 10.037C136.195 9.63372 136.395 9.43207 136.794 9.43207H148.428C148.827 9.43207 149.027 9.63372 149.027 10.037C149.027 10.4115 149.027 10.7956 149.027 11.1893C149.027 11.5734 149.017 11.9527 148.998 12.3271C148.968 12.7112 148.769 12.9033 148.398 12.9033H140.097C139.98 12.9033 139.922 12.9609 139.922 13.0761C139.922 13.8539 139.922 14.6317 139.922 15.4094C139.932 16.1776 139.937 16.9506 139.937 17.7284C139.937 17.8436 139.995 17.9012 140.112 17.9012H147.302C147.702 17.9012 147.902 18.0981 147.902 18.4918V20.465C147.902 20.8587 147.702 21.0555 147.302 21.0555H140.112C139.995 21.0555 139.937 21.1132 139.937 21.2284C139.937 22.0158 139.932 22.8079 139.922 23.6049C139.922 24.3923 139.922 25.1845 139.922 25.9815C139.922 26.0967 139.98 26.1543 140.097 26.1543H148.749C149.119 26.1543 149.319 26.3464 149.348 26.7304C149.368 27.1049 149.378 27.489 149.378 27.8827C149.387 28.2668 149.392 28.6461 149.392 29.0206C149.392 29.4239 149.193 29.6255 148.793 29.6255H136.78C136.38 29.6255 136.18 29.4239 136.18 29.0206C136.18 28.4925 136.185 27.9691 136.195 27.4506C136.215 26.9225 136.229 26.3944 136.239 25.8663C136.268 23.6577 136.283 21.454 136.283 19.2551C136.283 17.7092 136.268 16.1728 136.239 14.6461C136.21 13.1097 136.195 11.5734 136.195 10.037Z" fill="#0D1520"/>
<path d="M154.624 30C154.069 30 153.489 29.8992 152.885 29.6975C152.281 29.4959 151.779 29.1934 151.38 28.7901C151.263 28.6749 151.205 28.5501 151.205 28.4156C151.205 28.358 151.234 28.214 151.292 27.9835C151.36 27.7435 151.434 27.4986 151.511 27.249C151.589 26.9993 151.638 26.8361 151.658 26.7593C151.697 26.644 151.75 26.5336 151.818 26.428C151.887 26.3128 151.994 26.2551 152.14 26.2551C152.325 26.2551 152.612 26.3752 153.002 26.6152C153.392 26.8553 153.84 26.9753 154.347 26.9753C155.233 26.9753 155.677 26.5528 155.677 25.7078C155.677 25.1605 155.496 24.7812 155.136 24.57C154.785 24.3587 154.405 24.1475 153.996 23.9362C153.178 23.5041 152.554 22.976 152.125 22.3518C151.697 21.7277 151.482 20.9499 151.482 20.0185C151.482 18.8374 151.833 17.9156 152.535 17.2531C153.246 16.5905 154.191 16.2592 155.37 16.2592C155.516 16.2592 155.74 16.2784 156.042 16.3169C156.354 16.3553 156.675 16.4177 157.007 16.5041C157.338 16.5809 157.62 16.6913 157.854 16.8354C158.088 16.9698 158.205 17.133 158.205 17.3251C158.205 17.5075 158.166 17.7092 158.088 17.93C158.01 18.1413 157.947 18.3381 157.898 18.5206C157.859 18.6454 157.806 18.7654 157.737 18.8806C157.669 18.9959 157.552 19.0535 157.387 19.0535C157.182 19.0535 156.963 19.0007 156.729 18.895C156.495 18.7894 156.242 18.7366 155.969 18.7366C155.599 18.7366 155.272 18.847 154.99 19.0679C154.707 19.2791 154.566 19.5816 154.566 19.9753C154.566 20.4266 154.702 20.7771 154.975 21.0267C155.258 21.2764 155.604 21.4972 156.013 21.6893C156.422 21.8813 156.831 22.1166 157.24 22.3951C157.65 22.6735 157.991 23.0624 158.264 23.5617C158.546 24.0514 158.687 24.7284 158.687 25.5926C158.687 26.8217 158.337 27.8635 157.635 28.7181C156.943 29.5727 155.94 30 154.624 30Z" fill="#0D1520"/>
<path d="M162.356 16.3601C162.356 15.5343 162.351 14.7133 162.341 13.8971C162.331 13.0713 162.326 12.2503 162.326 11.4341C162.326 11.0404 162.526 10.8436 162.926 10.8436H165.22C165.62 10.8436 165.819 11.0404 165.819 11.4341C165.819 12.2503 165.815 13.0713 165.805 13.8971C165.805 14.7133 165.805 15.5343 165.805 16.3601C165.805 16.4753 165.868 16.5329 165.995 16.5329H168.289C168.689 16.5329 168.888 16.7297 168.888 17.1234C168.888 17.4211 168.884 17.7236 168.874 18.0308C168.874 18.3285 168.874 18.631 168.874 18.9383C168.874 19.3319 168.674 19.5288 168.275 19.5288H165.995C165.868 19.5288 165.805 19.5864 165.805 19.7016C165.805 21.2572 165.81 22.8127 165.819 24.3683C165.829 25.9239 165.834 27.4794 165.834 29.035C165.834 29.4287 165.634 29.6255 165.235 29.6255H162.911C162.512 29.6255 162.312 29.4287 162.312 29.035C162.312 27.4794 162.317 25.9239 162.326 24.3683C162.346 22.8127 162.356 21.2572 162.356 19.7016C162.356 19.5576 162.253 19.4904 162.049 19.5C161.844 19.5 161.61 19.5144 161.347 19.5432C161.084 19.572 160.85 19.5528 160.646 19.4856C160.441 19.4184 160.339 19.2359 160.339 18.9383V17.1234C160.339 16.7297 160.539 16.5329 160.938 16.5329H162.166C162.292 16.5329 162.356 16.4753 162.356 16.3601Z" fill="#0D1520"/>
<path d="M176.254 29.8992C174.988 29.8992 173.926 29.6015 173.068 29.0062C172.211 28.4108 171.563 27.6235 171.125 26.644C170.696 25.655 170.482 24.5844 170.482 23.4321V23.2016C170.501 21.9918 170.754 20.8539 171.241 19.7881C171.738 18.7222 172.454 17.8628 173.39 17.2099C174.325 16.5473 175.455 16.216 176.781 16.216C177.599 16.216 178.359 16.3697 179.06 16.6769C179.772 16.9746 180.434 17.3827 181.048 17.9012C181.116 17.9684 181.175 18.002 181.223 18.002C181.34 18.002 181.394 17.882 181.384 17.642C181.384 17.4019 181.418 17.1618 181.486 16.9218C181.564 16.6817 181.759 16.5617 182.071 16.5617H184.132C184.531 16.5617 184.731 16.7586 184.731 17.1522C184.731 17.5651 184.726 17.978 184.716 18.3909C184.716 18.8038 184.716 19.2167 184.716 19.6296C184.716 20.6859 184.721 21.7469 184.731 22.8127C184.75 23.8786 184.765 24.9396 184.775 25.9959C184.785 26.4952 184.794 26.9993 184.804 27.5082C184.824 28.0075 184.833 28.5117 184.833 29.0206C184.833 29.4239 184.634 29.6255 184.234 29.6255H181.94C181.676 29.6255 181.506 29.5439 181.428 29.3807C181.35 29.2078 181.316 29.0062 181.326 28.7757C181.335 28.5453 181.335 28.3388 181.326 28.1564C181.326 28.1276 181.321 28.0796 181.311 28.0123C181.301 27.9451 181.272 27.9115 181.223 27.9115C181.184 27.9115 181.145 27.9259 181.106 27.9547C181.077 27.9835 181.048 28.0075 181.019 28.0267C180.337 28.5933 179.601 29.0494 178.812 29.3951C178.023 29.7311 177.17 29.8992 176.254 29.8992ZM177.745 26.8313C178.437 26.8313 179.075 26.692 179.66 26.4136C180.254 26.1255 180.717 25.6742 181.048 25.0597C181.068 25.0213 181.111 24.9252 181.18 24.7716C181.258 24.6084 181.296 24.5075 181.296 24.4691C181.296 24.1331 181.292 23.797 181.282 23.4609C181.282 23.1248 181.282 22.7935 181.282 22.4671C181.282 22.3134 181.287 22.1454 181.296 21.963C181.306 21.7709 181.301 21.6029 181.282 21.4588C181.272 21.3916 181.233 21.2908 181.165 21.1564C181.106 21.0219 181.063 20.9259 181.033 20.8683C180.692 20.2634 180.21 19.8121 179.587 19.5144C178.963 19.2167 178.31 19.0679 177.628 19.0679C176.907 19.0679 176.274 19.2455 175.728 19.6008C175.183 19.9561 174.754 20.4266 174.442 21.0123C174.14 21.5885 173.989 22.2222 173.989 22.9136C173.989 23.6049 174.15 24.2483 174.471 24.8436C174.793 25.439 175.236 25.9191 175.801 26.2839C176.376 26.6488 177.024 26.8313 177.745 26.8313Z" fill="#0D1520"/>
<path d="M189.188 16.3601C189.188 15.5343 189.184 14.7133 189.174 13.8971C189.164 13.0713 189.159 12.2503 189.159 11.4341C189.159 11.0404 189.359 10.8436 189.758 10.8436H192.053C192.452 10.8436 192.652 11.0404 192.652 11.4341C192.652 12.2503 192.647 13.0713 192.638 13.8971C192.638 14.7133 192.638 15.5343 192.638 16.3601C192.638 16.4753 192.701 16.5329 192.828 16.5329H195.122C195.522 16.5329 195.721 16.7297 195.721 17.1234C195.721 17.4211 195.716 17.7236 195.707 18.0308C195.707 18.3285 195.707 18.631 195.707 18.9383C195.707 19.3319 195.507 19.5288 195.107 19.5288H192.828C192.701 19.5288 192.638 19.5864 192.638 19.7016C192.638 21.2572 192.642 22.8127 192.652 24.3683C192.662 25.9239 192.667 27.4794 192.667 29.035C192.667 29.4287 192.467 29.6255 192.068 29.6255H189.744C189.344 29.6255 189.145 29.4287 189.145 29.035C189.145 27.4794 189.15 25.9239 189.159 24.3683C189.179 22.8127 189.188 21.2572 189.188 19.7016C189.188 19.5576 189.086 19.4904 188.882 19.5C188.677 19.5 188.443 19.5144 188.18 19.5432C187.917 19.572 187.683 19.5528 187.479 19.4856C187.274 19.4184 187.172 19.2359 187.172 18.9383V17.1234C187.172 16.7297 187.371 16.5329 187.771 16.5329H188.998C189.125 16.5329 189.188 16.4753 189.188 16.3601Z" fill="#0D1520"/>
<path d="M204.373 29.9712C202.951 29.9712 201.709 29.6927 200.646 29.1358C199.594 28.5789 198.776 27.7867 198.191 26.7593C197.607 25.7318 197.314 24.5123 197.314 23.1008C197.314 21.7853 197.592 20.6042 198.147 19.5576C198.703 18.511 199.487 17.6852 200.5 17.0802C201.514 16.4657 202.702 16.1584 204.066 16.1584C205.752 16.1584 207.072 16.6241 208.027 17.5555C208.992 18.487 209.644 19.7256 209.985 21.2716C209.995 21.3004 210 21.3484 210 21.4156C210 21.5597 209.961 21.6701 209.883 21.7469C209.815 21.8141 209.722 21.8717 209.605 21.9197C209.274 22.0734 208.923 22.2078 208.553 22.323C208.183 22.4383 207.822 22.5631 207.472 22.6975C206.449 23.072 205.421 23.4417 204.388 23.8066C203.355 24.1619 202.332 24.5411 201.319 24.9444C201.241 24.9828 201.202 25.0309 201.202 25.0885C201.202 25.1173 201.212 25.1509 201.231 25.1893C201.621 25.8807 202.157 26.3944 202.839 26.7304C203.521 27.0665 204.251 27.2346 205.031 27.2346C205.645 27.2346 206.215 27.1385 206.741 26.9465C207.277 26.7545 207.803 26.5144 208.319 26.2263C208.387 26.1879 208.456 26.1543 208.524 26.1255C208.592 26.0967 208.66 26.0823 208.729 26.0823C208.865 26.0823 208.967 26.1255 209.035 26.2119C209.113 26.2887 209.177 26.38 209.225 26.4856C209.264 26.5528 209.337 26.7064 209.445 26.9465C209.562 27.177 209.669 27.4122 209.766 27.6523C209.873 27.8827 209.927 28.0315 209.927 28.0988C209.927 28.2044 209.898 28.2908 209.839 28.358C209.781 28.4252 209.713 28.4877 209.635 28.5453C208.943 29.0158 208.1 29.3711 207.106 29.6111C206.122 29.8512 205.211 29.9712 204.373 29.9712ZM200.705 22.9568C201.689 22.6207 202.673 22.2846 203.657 21.9485C204.641 21.6125 205.62 21.2764 206.595 20.9403C206.351 20.4122 206.01 19.9513 205.572 19.5576C205.143 19.1639 204.612 18.9671 203.979 18.9671C203.238 18.9671 202.624 19.1639 202.137 19.5576C201.65 19.9513 201.29 20.4554 201.056 21.0699C200.822 21.6749 200.705 22.3038 200.705 22.9568Z" fill="#0D1520"/>
<defs>
<linearGradient id="paint0_linear_1327_30286" x1="105" y1="0" x2="105" y2="30" gradientUnits="userSpaceOnUse">
<stop stop-color="#6842EF"/>
<stop offset="1" stop-color="#03BD9D"/>
</linearGradient>
<linearGradient id="paint1_linear_1327_30286" x1="105" y1="0" x2="105" y2="30" gradientUnits="userSpaceOnUse">
<stop stop-color="#6842EF"/>
<stop offset="1" stop-color="#03BD9D"/>
</linearGradient>
<linearGradient id="paint2_linear_1327_30286" x1="105" y1="0" x2="105" y2="30" gradientUnits="userSpaceOnUse">
<stop stop-color="#6842EF"/>
<stop offset="1" stop-color="#03BD9D"/>
</linearGradient>
<linearGradient id="paint3_linear_1327_30286" x1="105" y1="0" x2="105" y2="30" gradientUnits="userSpaceOnUse">
<stop stop-color="#6842EF"/>
<stop offset="1" stop-color="#03BD9D"/>
</linearGradient>
</defs>
</svg>
