<svg width="171" height="64" viewBox="0 0 171 64" fill="none" xmlns="http://www.w3.org/2000/svg">
<path d="M0 5C0 2.23858 2.23858 0 5 0H166C168.761 0 171 2.23858 171 5V59C171 61.7614 168.761 64 166 64H5C2.23858 64 0 61.7614 0 59V5Z" fill="white"/>
<path d="M52.775 40.0183C52.3134 41.0942 51.7433 42.12 51.0733 43.08C50.1783 44.3583 49.4433 45.2417 48.8799 45.7333C48.0049 46.5367 47.0649 46.95 46.0599 46.9733C45.3399 46.9733 44.4699 46.7683 43.4566 46.3517C42.4399 45.9367 41.5066 45.7333 40.6516 45.7333C39.7566 45.7333 38.7966 45.9367 37.7683 46.3517C36.7416 46.7683 35.9116 46.9867 35.2766 47.0067C34.3149 47.0483 33.3533 46.625 32.3949 45.7333C31.7833 45.2 31.0183 44.2833 30.0999 42.9867C29.1166 41.605 28.3083 39.9967 27.6749 38.1683C26.9966 36.19 26.6566 34.2767 26.6566 32.4233C26.6566 30.3017 27.1149 28.47 28.0333 26.9367C28.7279 25.7324 29.7209 24.7274 30.9166 24.0183C32.0957 23.3111 33.4418 22.9303 34.8166 22.915C35.5833 22.915 36.5883 23.1517 37.8333 23.6183C39.0783 24.085 39.8783 24.3217 40.2266 24.3217C40.4899 24.3217 41.3749 24.0433 42.8816 23.4917C44.3033 22.98 45.5033 22.7683 46.4866 22.8517C49.1533 23.0667 51.1549 24.1167 52.4866 26.01C50.1033 27.455 48.9249 29.4767 48.9483 32.0717C48.9683 34.0933 49.7033 35.775 51.1433 37.11C51.7799 37.7192 52.5227 38.2067 53.3349 38.5483C53.1583 39.06 52.9716 39.5483 52.775 40.0183ZM46.6633 15.9667C46.6633 17.55 46.0833 19.03 44.9316 20.3983C43.5383 22.025 41.8549 22.9667 40.0299 22.8183C40.0061 22.6192 39.9944 22.4189 39.9949 22.2183C39.9949 20.6967 40.655 19.07 41.8333 17.7383C42.4199 17.065 43.1666 16.5033 44.0716 16.0567C44.9749 15.6167 45.8283 15.3733 46.6316 15.3317C46.6533 15.545 46.6633 15.7567 46.6633 15.9667Z" fill="#051321"/>
<path d="M75.63 24.072H75.588C75.4667 24.5293 75.168 24.912 74.692 25.22C74.2253 25.5187 73.6187 25.668 72.872 25.668C72.2747 25.668 71.724 25.5607 71.22 25.346C70.7253 25.122 70.3007 24.8 69.946 24.38C69.5913 23.9507 69.3113 23.4233 69.106 22.798C68.91 22.1633 68.812 21.4353 68.812 20.614C68.812 19.802 68.91 19.0833 69.106 18.458C69.302 17.8233 69.582 17.296 69.946 16.876C70.31 16.4467 70.7487 16.12 71.262 15.896C71.7753 15.672 72.3447 15.56 72.97 15.56C73.8473 15.56 74.58 15.756 75.168 16.148C75.756 16.54 76.2087 17.058 76.526 17.702L75.56 18.29C75.336 17.7673 75 17.3567 74.552 17.058C74.1133 16.7593 73.586 16.61 72.97 16.61C72.5407 16.61 72.1487 16.6893 71.794 16.848C71.4393 16.9973 71.1313 17.212 70.87 17.492C70.618 17.772 70.422 18.108 70.282 18.5C70.142 18.892 70.072 19.3307 70.072 19.816V21.398C70.072 21.8833 70.142 22.3267 70.282 22.728C70.422 23.12 70.618 23.456 70.87 23.736C71.1313 24.016 71.4487 24.2353 71.822 24.394C72.1953 24.5433 72.6153 24.618 73.082 24.618C73.418 24.618 73.7353 24.576 74.034 24.492C74.342 24.3987 74.608 24.2633 74.832 24.086C75.0653 23.9087 75.2473 23.6893 75.378 23.428C75.5087 23.1573 75.574 22.84 75.574 22.476V21.51H73.418V20.474H76.722V25.5H75.63V24.072ZM81.6404 25.668C81.1457 25.668 80.6977 25.5793 80.2964 25.402C79.9044 25.2247 79.5637 24.9727 79.2744 24.646C78.9944 24.31 78.775 23.9133 78.6164 23.456C78.467 22.9893 78.3924 22.4667 78.3924 21.888C78.3924 21.3187 78.467 20.8007 78.6164 20.334C78.775 19.8673 78.9944 19.4707 79.2744 19.144C79.5637 18.808 79.9044 18.5513 80.2964 18.374C80.6977 18.1967 81.1457 18.108 81.6404 18.108C82.1257 18.108 82.5597 18.1967 82.9424 18.374C83.325 18.5513 83.6517 18.7987 83.9224 19.116C84.193 19.424 84.3984 19.7927 84.5384 20.222C84.6877 20.6513 84.7624 21.1227 84.7624 21.636V22.168H79.5684V22.504C79.5684 22.812 79.615 23.1013 79.7084 23.372C79.811 23.6333 79.951 23.862 80.1284 24.058C80.315 24.254 80.539 24.408 80.8004 24.52C81.071 24.632 81.3744 24.688 81.7104 24.688C82.1677 24.688 82.5644 24.5807 82.9004 24.366C83.2457 24.1513 83.5117 23.8433 83.6984 23.442L84.4964 24.016C84.263 24.5107 83.899 24.912 83.4044 25.22C82.9097 25.5187 82.3217 25.668 81.6404 25.668ZM81.6404 19.046C81.3324 19.046 81.0524 19.102 80.8004 19.214C80.5484 19.3167 80.329 19.466 80.1424 19.662C79.965 19.858 79.825 20.0913 79.7224 20.362C79.6197 20.6233 79.5684 20.9127 79.5684 21.23V21.328H83.5584V21.174C83.5584 20.53 83.381 20.0167 83.0264 19.634C82.681 19.242 82.219 19.046 81.6404 19.046ZM88.204 25.5C87.812 25.5 87.5133 25.3927 87.308 25.178C87.112 24.954 87.014 24.6647 87.014 24.31V19.256H85.824V18.276H86.496C86.7386 18.276 86.902 18.2293 86.986 18.136C87.0793 18.0333 87.126 17.8607 87.126 17.618V16.274H88.134V18.276H89.716V19.256H88.134V24.52H89.604V25.5H88.204ZM95.3848 16.582C95.1421 16.582 94.9648 16.526 94.8528 16.414C94.7501 16.2927 94.6988 16.1387 94.6988 15.952V15.77C94.6988 15.5833 94.7501 15.434 94.8528 15.322C94.9648 15.2007 95.1421 15.14 95.3848 15.14C95.6274 15.14 95.8001 15.2007 95.9028 15.322C96.0148 15.434 96.0708 15.5833 96.0708 15.77V15.952C96.0708 16.1387 96.0148 16.2927 95.9028 16.414C95.8001 16.526 95.6274 16.582 95.3848 16.582ZM94.8248 18.276H95.9448V25.5H94.8248V18.276ZM99.9208 25.5C99.5288 25.5 99.2301 25.3927 99.0248 25.178C98.8288 24.954 98.7308 24.6647 98.7308 24.31V19.256H97.5408V18.276H98.2128C98.4554 18.276 98.6188 18.2293 98.7028 18.136C98.7961 18.0333 98.8428 17.8607 98.8428 17.618V16.274H99.8508V18.276H101.433V19.256H99.8508V24.52H101.321V25.5H99.9208ZM109.272 25.668C108.786 25.668 108.343 25.5793 107.942 25.402C107.54 25.2247 107.195 24.9727 106.906 24.646C106.626 24.31 106.406 23.9133 106.248 23.456C106.089 22.9893 106.01 22.4667 106.01 21.888C106.01 21.3187 106.089 20.8007 106.248 20.334C106.406 19.8673 106.626 19.4707 106.906 19.144C107.195 18.808 107.54 18.5513 107.942 18.374C108.343 18.1967 108.786 18.108 109.272 18.108C109.757 18.108 110.196 18.1967 110.588 18.374C110.989 18.5513 111.334 18.808 111.624 19.144C111.913 19.4707 112.137 19.8673 112.296 20.334C112.454 20.8007 112.534 21.3187 112.534 21.888C112.534 22.4667 112.454 22.9893 112.296 23.456C112.137 23.9133 111.913 24.31 111.624 24.646C111.334 24.9727 110.989 25.2247 110.588 25.402C110.196 25.5793 109.757 25.668 109.272 25.668ZM109.272 24.674C109.878 24.674 110.373 24.4873 110.756 24.114C111.138 23.7407 111.33 23.1713 111.33 22.406V21.37C111.33 20.6047 111.138 20.0353 110.756 19.662C110.373 19.2887 109.878 19.102 109.272 19.102C108.665 19.102 108.17 19.2887 107.788 19.662C107.405 20.0353 107.214 20.6047 107.214 21.37V22.406C107.214 23.1713 107.405 23.7407 107.788 24.114C108.17 24.4873 108.665 24.674 109.272 24.674ZM114.376 25.5V18.276H115.496V19.452H115.552C115.729 19.0413 115.976 18.7147 116.294 18.472C116.62 18.2293 117.054 18.108 117.596 18.108C118.342 18.108 118.93 18.3507 119.36 18.836C119.798 19.312 120.018 19.9887 120.018 20.866V25.5H118.898V21.062C118.898 19.7647 118.352 19.116 117.26 19.116C117.036 19.116 116.816 19.144 116.602 19.2C116.396 19.256 116.21 19.34 116.042 19.452C115.874 19.564 115.738 19.7087 115.636 19.886C115.542 20.054 115.496 20.2547 115.496 20.488V25.5H114.376Z" fill="#5D6772"/>
<path d="M76.224 45.5L75.328 42.652H71.36L70.48 45.5H68.336L72.08 34.332H74.704L78.416 45.5H76.224ZM73.376 36.252H73.296L71.872 40.844H74.816L73.376 36.252ZM79.934 37.148H81.982V38.524H82.046C82.1953 38.044 82.478 37.6653 82.894 37.388C83.31 37.1 83.7953 36.956 84.35 36.956C85.4167 36.956 86.2273 37.3347 86.782 38.092C87.3473 38.8387 87.63 39.9107 87.63 41.308C87.63 42.716 87.3473 43.7987 86.782 44.556C86.2273 45.3133 85.4167 45.692 84.35 45.692C83.7953 45.692 83.31 45.548 82.894 45.26C82.4887 44.972 82.206 44.588 82.046 44.108H81.982V48.7H79.934V37.148ZM83.694 43.996C84.2273 43.996 84.6593 43.82 84.99 43.468C85.3207 43.116 85.486 42.6413 85.486 42.044V40.604C85.486 40.0067 85.3207 39.532 84.99 39.18C84.6593 38.8173 84.2273 38.636 83.694 38.636C83.2033 38.636 82.7927 38.7587 82.462 39.004C82.142 39.2493 81.982 39.5747 81.982 39.98V42.636C81.982 43.0733 82.142 43.4093 82.462 43.644C82.7927 43.8787 83.2033 43.996 83.694 43.996ZM89.5278 37.148H91.5758V38.524H91.6398C91.7891 38.044 92.0718 37.6653 92.4878 37.388C92.9038 37.1 93.3891 36.956 93.9438 36.956C95.0104 36.956 95.8211 37.3347 96.3758 38.092C96.9411 38.8387 97.2238 39.9107 97.2238 41.308C97.2238 42.716 96.9411 43.7987 96.3758 44.556C95.8211 45.3133 95.0104 45.692 93.9438 45.692C93.3891 45.692 92.9038 45.548 92.4878 45.26C92.0824 44.972 91.7998 44.588 91.6398 44.108H91.5758V48.7H89.5278V37.148ZM93.2878 43.996C93.8211 43.996 94.2531 43.82 94.5838 43.468C94.9144 43.116 95.0798 42.6413 95.0798 42.044V40.604C95.0798 40.0067 94.9144 39.532 94.5838 39.18C94.2531 38.8173 93.8211 38.636 93.2878 38.636C92.7971 38.636 92.3864 38.7587 92.0558 39.004C91.7358 39.2493 91.5758 39.5747 91.5758 39.98V42.636C91.5758 43.0733 91.7358 43.4093 92.0558 43.644C92.3864 43.8787 92.7971 43.996 93.2878 43.996ZM106.503 45.692C105.543 45.692 104.727 45.5213 104.055 45.18C103.393 44.8387 102.823 44.3907 102.343 43.836L103.767 42.46C104.151 42.908 104.577 43.2493 105.047 43.484C105.527 43.7187 106.055 43.836 106.631 43.836C107.281 43.836 107.772 43.6973 108.103 43.42C108.433 43.132 108.599 42.748 108.599 42.268C108.599 41.8947 108.492 41.5907 108.279 41.356C108.065 41.1213 107.665 40.9507 107.079 40.844L106.023 40.684C103.793 40.332 102.679 39.2493 102.679 37.436C102.679 36.9347 102.769 36.4813 102.951 36.076C103.143 35.6707 103.415 35.324 103.767 35.036C104.119 34.748 104.54 34.5293 105.031 34.38C105.532 34.22 106.097 34.14 106.727 34.14C107.569 34.14 108.305 34.2787 108.935 34.556C109.564 34.8333 110.103 35.244 110.551 35.788L109.111 37.148C108.833 36.8067 108.497 36.5293 108.103 36.316C107.708 36.1027 107.212 35.996 106.615 35.996C106.007 35.996 105.548 36.1133 105.239 36.348C104.94 36.572 104.791 36.892 104.791 37.308C104.791 37.7347 104.913 38.0493 105.159 38.252C105.404 38.4547 105.799 38.604 106.343 38.7L107.383 38.892C108.513 39.0947 109.345 39.4573 109.879 39.98C110.423 40.492 110.695 41.212 110.695 42.14C110.695 42.6733 110.599 43.1587 110.407 43.596C110.225 44.0227 109.953 44.396 109.591 44.716C109.239 45.0253 108.801 45.2653 108.279 45.436C107.767 45.6067 107.175 45.692 106.503 45.692ZM115.23 45.5C114.526 45.5 113.987 45.3187 113.614 44.956C113.251 44.5827 113.07 44.0547 113.07 43.372V38.78H111.838V37.148H112.478C112.787 37.148 112.995 37.0787 113.102 36.94C113.219 36.7907 113.278 36.572 113.278 36.284V34.86H115.118V37.148H116.83V38.78H115.118V43.868H116.702V45.5H115.23ZM121.855 45.692C121.258 45.692 120.719 45.5907 120.239 45.388C119.77 45.1853 119.365 44.892 119.023 44.508C118.693 44.124 118.437 43.6653 118.255 43.132C118.074 42.588 117.983 41.98 117.983 41.308C117.983 40.636 118.074 40.0333 118.255 39.5C118.437 38.9667 118.693 38.5133 119.023 38.14C119.365 37.756 119.77 37.4627 120.239 37.26C120.719 37.0573 121.258 36.956 121.855 36.956C122.453 36.956 122.991 37.0573 123.471 37.26C123.951 37.4627 124.357 37.756 124.687 38.14C125.029 38.5133 125.29 38.9667 125.471 39.5C125.653 40.0333 125.743 40.636 125.743 41.308C125.743 41.98 125.653 42.588 125.471 43.132C125.29 43.6653 125.029 44.124 124.687 44.508C124.357 44.892 123.951 45.1853 123.471 45.388C122.991 45.5907 122.453 45.692 121.855 45.692ZM121.855 44.044C122.399 44.044 122.826 43.8787 123.135 43.548C123.445 43.2173 123.599 42.732 123.599 42.092V40.54C123.599 39.9107 123.445 39.4307 123.135 39.1C122.826 38.7693 122.399 38.604 121.855 38.604C121.322 38.604 120.901 38.7693 120.591 39.1C120.282 39.4307 120.127 39.9107 120.127 40.54V42.092C120.127 42.732 120.282 43.2173 120.591 43.548C120.901 43.8787 121.322 44.044 121.855 44.044ZM127.559 45.5V37.148H129.607V38.876H129.687C129.74 38.652 129.82 38.4387 129.927 38.236C130.044 38.0227 130.194 37.836 130.375 37.676C130.556 37.516 130.77 37.388 131.015 37.292C131.271 37.196 131.564 37.148 131.895 37.148H132.343V39.084H131.703C131.01 39.084 130.487 39.1853 130.135 39.388C129.783 39.5907 129.607 39.9213 129.607 40.38V45.5H127.559ZM137.138 45.692C136.519 45.692 135.965 45.5907 135.474 45.388C134.994 45.1747 134.583 44.8813 134.242 44.508C133.911 44.124 133.655 43.6653 133.474 43.132C133.293 42.588 133.202 41.98 133.202 41.308C133.202 40.6467 133.287 40.0493 133.458 39.516C133.639 38.9827 133.895 38.5293 134.226 38.156C134.557 37.772 134.962 37.4787 135.442 37.276C135.922 37.0627 136.466 36.956 137.074 36.956C137.725 36.956 138.29 37.068 138.77 37.292C139.25 37.516 139.645 37.82 139.954 38.204C140.263 38.588 140.493 39.036 140.642 39.548C140.802 40.0493 140.882 40.588 140.882 41.164V41.836H135.33V42.044C135.33 42.652 135.501 43.1427 135.842 43.516C136.183 43.8787 136.69 44.06 137.362 44.06C137.874 44.06 138.29 43.9533 138.61 43.74C138.941 43.5267 139.234 43.2547 139.49 42.924L140.594 44.156C140.253 44.636 139.783 45.0147 139.186 45.292C138.599 45.5587 137.917 45.692 137.138 45.692ZM137.106 38.492C136.562 38.492 136.13 38.6733 135.81 39.036C135.49 39.3987 135.33 39.868 135.33 40.444V40.572H138.754V40.428C138.754 39.852 138.61 39.388 138.322 39.036C138.045 38.6733 137.639 38.492 137.106 38.492Z" fill="#051321"/>
</svg>
