<svg width="24" height="25" viewBox="0 0 24 25" fill="none" xmlns="http://www.w3.org/2000/svg">
<path d="M6.70001 18.5H4.15002C2.72002 18.5 2 17.78 2 16.35V4.65002C2 3.22002 2.72002 2.5 4.15002 2.5H8.45001C9.88001 2.5 10.6 3.22002 10.6 4.65002V6.5" stroke="#6842EF" stroke-width="1.5" stroke-miterlimit="10" stroke-linecap="round" stroke-linejoin="round"/>
<path d="M17.3699 8.91998V20.08C17.3699 21.69 16.57 22.5 14.96 22.5H9.11993C7.50993 22.5 6.69995 21.69 6.69995 20.08V8.91998C6.69995 7.30998 7.50993 6.5 9.11993 6.5H14.96C16.57 6.5 17.3699 7.30998 17.3699 8.91998Z" stroke="#6842EF" stroke-width="1.5" stroke-miterlimit="10" stroke-linecap="round" stroke-linejoin="round"/>
<path d="M13.3999 6.5V4.65002C13.3999 3.22002 14.1199 2.5 15.5499 2.5H19.8499C21.2799 2.5 21.9999 3.22002 21.9999 4.65002V16.35C21.9999 17.78 21.2799 18.5 19.8499 18.5H17.3699" stroke="#6842EF" stroke-width="1.5" stroke-miterlimit="10" stroke-linecap="round" stroke-linejoin="round"/>
<path d="M10 11.5H14" stroke="#03BD9D" stroke-width="1.5" stroke-miterlimit="10" stroke-linecap="round" stroke-linejoin="round"/>
<path d="M10 14.5H14" stroke="#03BD9D" stroke-width="1.5" stroke-miterlimit="10" stroke-linecap="round" stroke-linejoin="round"/>
<path d="M12 22.5V19.5" stroke="#6842EF" stroke-width="1.5" stroke-miterlimit="10" stroke-linecap="round" stroke-linejoin="round"/>
</svg>
