<svg width="24" height="25" viewBox="0 0 24 25" fill="none" xmlns="http://www.w3.org/2000/svg">
<path d="M12.5 22.5003H4.07997C2.91997 22.5003 1.96997 21.5703 1.96997 20.4303V5.59035C1.96997 2.97035 3.91997 1.78035 6.30997 2.95035L10.75 5.13035C11.71 5.60035 12.5 6.85035 12.5 7.91035V22.5003Z" stroke="#6842EF" stroke-width="1.5" stroke-linecap="round" stroke-linejoin="round"/>
<path d="M21.97 15.5599V19.3399C21.97 21.4999 20.97 22.4999 18.81 22.4999H12.5V10.9199L12.97 11.0199L17.47 12.0299L19.5 12.4799C20.82 12.7699 21.9 13.4499 21.96 15.3699C21.97 15.4299 21.97 15.4899 21.97 15.5599Z" stroke="#6842EF" stroke-width="1.5" stroke-linecap="round" stroke-linejoin="round"/>
<path d="M5.5 9.5H8.97" stroke="#03BD9D" stroke-width="1.5" stroke-linecap="round" stroke-linejoin="round"/>
<path d="M5.5 13.5H8.97" stroke="#03BD9D" stroke-width="1.5" stroke-linecap="round" stroke-linejoin="round"/>
<path d="M17.47 12.03V15.25C17.47 16.49 16.46 17.5 15.22 17.5C13.98 17.5 12.97 16.49 12.97 15.25V11.02L17.47 12.03Z" stroke="#6842EF" stroke-width="1.5" stroke-linecap="round" stroke-linejoin="round"/>
<path d="M21.96 15.3703C21.9 16.5503 20.92 17.5003 19.72 17.5003C18.48 17.5003 17.47 16.4903 17.47 15.2503V12.0303L19.5 12.4803C20.82 12.7703 21.9 13.4503 21.96 15.3703Z" stroke="#6842EF" stroke-width="1.5" stroke-linecap="round" stroke-linejoin="round"/>
</svg>
