<svg width="24" height="19" viewBox="0 0 24 19" fill="none" xmlns="http://www.w3.org/2000/svg">
<path d="M6.31875 0.236763C5.61094 0.321138 4.99219 0.616451 4.44844 1.13676C4.03594 1.52583 3.73125 1.98989 3.55781 2.50551C3.39375 2.99301 3.34687 3.83208 3.46406 4.32426C3.675 5.21489 4.24219 5.99301 5.04844 6.48051C5.92031 7.0102 7.17187 7.08051 8.11406 6.65395C9.07969 6.21801 9.81094 5.33208 10.0312 4.33364C10.1484 3.80395 10.1109 2.95551 9.94687 2.49145C9.40312 0.958638 7.93594 0.049263 6.31875 0.236763Z" fill="#6842EF"/>
<path d="M12.7734 5.89987C12.3844 6.02174 12.0281 6.32174 11.8313 6.70143C11.7281 6.89831 11.7188 6.97331 11.7047 7.83112L11.6906 8.74987L12.0094 8.97956C13.1625 9.79518 14.025 11.2342 14.2219 12.6733C14.2547 12.8936 14.2734 13.953 14.2734 15.3217C14.2734 17.6139 14.2688 17.7264 14.1094 18.1061C14.0766 18.1858 14.2641 18.1905 18.45 18.1764L22.8281 18.1624L23.0906 18.0405C23.4 17.8952 23.6906 17.6186 23.8453 17.3327L23.9531 17.1311L23.9672 12.0967C23.9813 6.42018 24.0047 6.80456 23.6156 6.37331C23.4984 6.24206 23.2922 6.07799 23.1609 6.00768L22.9219 5.88112L21.5531 5.86706L20.1797 5.85299V8.39831C20.1797 10.8546 20.175 10.9483 20.0859 11.0983C19.9547 11.3092 19.7297 11.4358 19.4766 11.4358C19.2891 11.4358 19.1859 11.3842 18.5531 10.9717L17.8406 10.5077L17.1281 10.9717C16.4813 11.3936 16.3969 11.4358 16.1953 11.4358C15.9281 11.4358 15.7078 11.2999 15.5813 11.0608C15.4969 10.9061 15.4922 10.7421 15.4922 8.37956V5.85768L14.1938 5.86237C13.4766 5.86237 12.8391 5.88112 12.7734 5.89987Z" fill="#0D1520"/>
<path d="M16.1953 8.27617C16.1953 10.198 16.2094 10.6902 16.2563 10.6715C16.2844 10.6621 16.5984 10.4652 16.9453 10.2355C17.85 9.64961 17.8359 9.64961 18.7313 10.2355C19.1109 10.484 19.4344 10.6855 19.4484 10.6855C19.4625 10.6855 19.4766 9.59805 19.4766 8.27148V5.85742H17.8359H16.1953V8.27617Z" fill="#0D1520"/>
<path d="M4.125 8.67461C3.14531 8.7918 2.175 9.25586 1.42031 9.97305C0.80625 10.559 0.323438 11.3746 0.103125 12.1996C0.0046875 12.5746 0 12.6543 0 15.1715V17.7637L0.16875 17.9324C0.267188 18.0309 0.4125 18.1152 0.520313 18.1387C0.61875 18.1621 1.27969 18.1855 1.98281 18.1855H3.25781V16.423C3.25781 15.1762 3.27188 14.6324 3.31406 14.5621C3.44531 14.309 3.67031 14.2762 3.87188 14.4777L4.00781 14.6137V16.3996V18.1855H6.75H9.4875L9.50156 16.3762L9.51562 14.5668L9.64688 14.4543C9.85313 14.2809 10.0594 14.3184 10.1859 14.5621C10.2281 14.6324 10.2422 15.1762 10.2422 16.423V18.1855H11.5219C12.2203 18.1855 12.8766 18.1621 12.9797 18.1434C13.2047 18.0871 13.4625 17.8434 13.5234 17.623C13.5844 17.4074 13.5844 13.5168 13.5234 12.9355C13.3547 11.3277 12.4359 9.95898 11.0203 9.2043C10.2516 8.79648 9.73125 8.66992 8.61563 8.63711L7.80469 8.60898V8.72148C7.80469 8.78242 7.89844 9.81367 8.01094 11.0137L8.21719 13.1934L8.08594 13.4512C8.01094 13.5918 7.74375 14.0793 7.48594 14.5293C6.77813 15.7762 6.73594 15.7809 6.06094 14.5996C5.80781 14.159 5.53125 13.6668 5.44219 13.498L5.28281 13.1934L5.48906 11.0605C5.60156 9.88867 5.69063 8.85742 5.69531 8.77305V8.62305L5.07656 8.62773C4.73438 8.63242 4.30781 8.65117 4.125 8.67461Z" fill="#6842EF"/>
<path d="M6.42188 8.82028C6.40781 8.93278 6.31406 9.9359 6.21094 11.0562L6.02344 13.0906L6.37969 13.7234C6.79688 14.4593 6.7125 14.4687 7.17656 13.6297L7.48125 13.0812L7.28906 11.0047C7.18594 9.8609 7.0875 8.85778 7.07344 8.7734L7.05 8.6234H6.75H6.45L6.42188 8.82028Z" fill="#6842EF"/>
</svg>
