<svg width="24" height="25" viewBox="0 0 24 25" fill="none" xmlns="http://www.w3.org/2000/svg">
<g clip-path="url(#clip0_114_4536)">
<path d="M10.3734 0.565597C8.77969 0.870284 7.39219 1.90153 6.65625 3.3406C6.46875 3.70622 6.1875 4.49841 6.1875 4.66716C6.1875 4.71403 6.27656 4.88747 6.37969 5.05153C7.44844 6.69685 8.43281 8.84372 8.8875 10.5218C8.92969 10.6812 8.98594 10.8078 9.00469 10.8031C9.02813 10.7937 10.0125 9.92185 11.2031 8.86716C12.9516 7.30622 13.425 6.91247 13.6969 6.77185C14.5359 6.33591 15.3469 6.47653 16.1625 7.19841C16.3688 7.38122 16.5516 7.53122 16.5656 7.53122C16.5797 7.53122 16.5938 7.02966 16.5938 6.4156C16.5938 5.15935 16.5375 4.68122 16.3031 4.0156C15.7313 2.37028 14.3531 1.09997 12.6656 0.654659C12.2906 0.556221 12.0797 0.532784 11.4609 0.518722C10.9641 0.509346 10.5984 0.523409 10.3734 0.565597Z" fill="#6842EF"/>
<path d="M20.0297 0.58914C19.1531 0.846952 18.4594 1.42351 18.0703 2.2157C17.8547 2.6657 17.7656 3.05476 17.7656 3.59383C17.7656 4.37664 18 5.0282 18.4828 5.60476C19.0875 6.32195 19.9078 6.69695 20.8594 6.70164C22.1953 6.70633 23.3156 5.91883 23.8031 4.63445C23.9156 4.34851 23.925 4.25476 23.9297 3.6407C23.9297 3.06414 23.9156 2.90945 23.8266 2.63289C23.5406 1.73289 22.8281 0.996953 21.9 0.650077C21.4688 0.486015 20.4797 0.453202 20.0297 0.58914Z" fill="#6842EF"/>
<path d="M3.63282 4.52656C3.48282 4.59219 3.37501 4.71406 3.11251 5.09844C2.0297 6.67813 1.07814 8.55313 0.557823 10.1188C0.126573 11.4125 -0.00936476 12.4203 0.0515727 13.7656C0.192198 16.6813 1.29376 19.1 2.82657 19.8594L3.23439 20.0609V21.5563V23.0469H1.91251C0.707823 23.0469 0.567198 23.0563 0.389073 23.1406C0.0984477 23.2719 -0.00936476 23.4688 0.00938524 23.8344C0.0281352 24.1016 0.0421977 24.1438 0.201573 24.3031L0.37501 24.4766H12H23.625L23.7984 24.3031C23.9578 24.1438 23.9719 24.1016 23.9906 23.8344C24.0234 23.2484 23.7469 23.0516 22.8891 23.0469H22.3594V19.7609V16.475L22.6406 16.7141C22.8094 16.85 22.9922 16.9625 23.0859 16.9813C23.4234 17.0422 23.7375 16.9016 23.8828 16.625C23.9672 16.4609 23.9719 16.1141 23.8969 15.9406C23.8641 15.875 23.3625 15.3922 22.7813 14.8766L21.7266 13.9344L21.7031 12.0125C21.6797 10.1938 21.675 10.0766 21.5859 9.92656C21.45 9.69688 21.2719 9.58438 21.0141 9.56094C20.7516 9.5375 20.5219 9.64063 20.3719 9.84219C20.2781 9.96875 20.2734 10.0531 20.25 11.2906L20.2266 12.6031L17.6109 10.2828C16.1766 9.00313 14.9531 7.94375 14.8922 7.925C14.7094 7.86875 14.3906 7.89688 14.2594 7.98125C13.9734 8.16406 5.40939 15.8234 5.35314 15.9406C5.27813 16.1141 5.28282 16.4609 5.3672 16.625C5.51251 16.9016 5.82657 17.0422 6.16407 16.9813C6.25782 16.9625 6.44063 16.85 6.60939 16.7141L6.89064 16.475V19.7609V23.0469H5.78907H4.68751V21.5469V20.0422L4.91251 19.9484C5.03439 19.8969 5.22189 19.7984 5.3297 19.7281L5.53126 19.6016V18.9547C5.53126 18.3828 5.52188 18.3078 5.45157 18.2844C4.86095 18.0922 4.38751 17.6844 4.13439 17.15C3.79689 16.4375 3.90001 15.5563 4.39688 14.9609C4.4672 14.8766 5.25001 14.1594 6.14064 13.3719C7.03126 12.5797 7.7672 11.9 7.77188 11.8625C7.80001 11.7406 7.59376 10.8688 7.37345 10.1844C7.14376 9.46719 6.74532 8.50156 6.37501 7.76563C5.8547 6.725 4.74845 4.93438 4.4672 4.6625C4.21876 4.42813 3.94689 4.38125 3.63282 4.52656ZM12.6844 16.6109C12.9938 16.8313 12.9844 16.7234 12.9844 20.0422V23.0469H12.3047H11.625V20.4453V17.8438H10.8984H10.1719V20.4453V23.0469H9.4922H8.81251L8.82189 19.9859L8.83595 16.9297L8.93907 16.7844C9.15001 16.4891 9.18282 16.4844 10.9453 16.4984C12.5109 16.5078 12.5438 16.5078 12.6844 16.6109ZM19.8656 16.5781C19.95 16.6297 20.0578 16.7375 20.1094 16.8219C20.1984 16.9672 20.2031 17.0609 20.2031 18.8516C20.2031 20.6422 20.1984 20.7359 20.1094 20.8813C20.0578 20.9656 19.95 21.0734 19.8656 21.125C19.7203 21.2141 19.6219 21.2188 17.8313 21.2188C15.9563 21.2188 15.9516 21.2188 15.7922 21.1109C15.4641 20.8953 15.4641 20.9 15.4781 18.7953C15.4922 16.9766 15.4969 16.9109 15.5906 16.7797C15.8063 16.4844 15.8203 16.4844 17.8594 16.4844C19.6266 16.4844 19.7203 16.4891 19.8656 16.5781Z" fill="#03BD9D"/>
<path d="M16.8281 18.8516V19.8594H17.8359H18.8438V18.8516V17.8438H17.8359H16.8281V18.8516Z" fill="#151515"/>
</g>
<defs>
<clipPath id="clip0_114_4536">
<rect width="24" height="24" fill="white" transform="translate(0 0.5)"/>
</clipPath>
</defs>
</svg>
