<svg width="24" height="25" viewBox="0 0 24 25" fill="none" xmlns="http://www.w3.org/2000/svg">
<path d="M10.3661 0.275069C8.77238 0.579757 7.38488 1.61101 6.64894 3.05007C6.46144 3.41569 6.18019 4.20788 6.18019 4.37663C6.18019 4.42351 6.26925 4.59694 6.37238 4.76101C7.44113 6.40632 8.4255 8.55319 8.88019 10.2313C8.92238 10.3907 8.97863 10.5173 8.99738 10.5126C9.02082 10.5032 10.0052 9.63132 11.1958 8.57663C12.9443 7.01569 13.4177 6.62194 13.6896 6.48132C14.5286 6.04538 15.3396 6.18601 16.1552 6.90788C16.3614 7.09069 16.5443 7.24069 16.5583 7.24069C16.5724 7.24069 16.5864 6.73913 16.5864 6.12507C16.5864 4.86882 16.5302 4.39069 16.2958 3.72507C15.7239 2.07976 14.3458 0.809444 12.6583 0.364132C12.2833 0.265694 12.0724 0.242256 11.4536 0.228194C10.9568 0.218819 10.5911 0.232882 10.3661 0.275069Z" fill="#0D1520"/>
<path d="M20.0224 0.297636C19.1458 0.555449 18.4521 1.13201 18.063 1.9242C17.8474 2.3742 17.7583 2.76326 17.7583 3.30232C17.7583 4.08514 17.9927 4.7367 18.4755 5.31326C19.0802 6.03045 19.9005 6.40545 20.8521 6.41014C22.188 6.41482 23.3083 5.62732 23.7958 4.34295C23.9083 4.05701 23.9177 3.96326 23.9224 3.3492C23.9224 2.77264 23.9083 2.61795 23.8193 2.34139C23.5333 1.44139 22.8208 0.705449 21.8927 0.358573C21.4614 0.194511 20.4724 0.161698 20.0224 0.297636Z" fill="#0D1520"/>
<path d="M3.6255 4.23555C3.4755 4.30117 3.36769 4.42305 3.10519 4.80742C2.02237 6.38711 1.07081 8.26211 0.550498 9.82773C0.119249 11.1215 -0.016689 12.1293 0.0442485 13.4746C0.184874 16.3902 1.28644 18.809 2.81925 19.5684L3.22706 19.7699V21.2652V22.7559H1.90519C0.700499 22.7559 0.559873 22.7652 0.381748 22.8496C0.0911235 22.9809 -0.016689 23.1777 0.00206102 23.5434C0.020811 23.8105 0.0348735 23.8527 0.194248 24.0121L0.367686 24.1855H11.9927H23.6177L23.7911 24.0121C23.9505 23.8527 23.9646 23.8105 23.9833 23.5434C24.0161 22.9574 23.7396 22.7605 22.8817 22.7559H22.3521V19.4699V16.184L22.6333 16.423C22.8021 16.559 22.9849 16.6715 23.0786 16.6902C23.4161 16.7512 23.7302 16.6105 23.8755 16.334C23.9599 16.1699 23.9646 15.823 23.8896 15.6496C23.8567 15.584 23.3552 15.1012 22.7739 14.5855L21.7192 13.6434L21.6958 11.7215C21.6724 9.90273 21.6677 9.78555 21.5786 9.63555C21.4427 9.40586 21.2646 9.29336 21.0067 9.26992C20.7442 9.24649 20.5146 9.34961 20.3646 9.55117C20.2708 9.67774 20.2661 9.76211 20.2427 10.9996L20.2192 12.3121L17.6036 9.9918C16.1692 8.71211 14.9458 7.65273 14.8849 7.63399C14.7021 7.57774 14.3833 7.60586 14.2521 7.69024C13.9661 7.87305 5.40206 15.5324 5.34581 15.6496C5.27081 15.823 5.2755 16.1699 5.35987 16.334C5.50519 16.6105 5.81925 16.7512 6.15675 16.6902C6.2505 16.6715 6.43331 16.559 6.60206 16.423L6.88331 16.184V19.4699V22.7559H5.78175H4.68019V21.2559V19.7512L4.90519 19.6574C5.02706 19.6059 5.21456 19.5074 5.32237 19.4371L5.52394 19.3105V18.6637C5.52394 18.0918 5.51456 18.0168 5.44425 17.9934C4.85362 17.8012 4.38019 17.3934 4.12706 16.859C3.78956 16.1465 3.89269 15.2652 4.38956 14.6699C4.45987 14.5855 5.24269 13.8684 6.13331 13.0809C7.02394 12.2887 7.75987 11.609 7.76456 11.5715C7.79269 11.4496 7.58644 10.5777 7.36612 9.89336C7.13644 9.17617 6.738 8.21055 6.36769 7.47461C5.84737 6.43398 4.74112 4.64336 4.45987 4.37148C4.21144 4.13711 3.93956 4.09023 3.6255 4.23555ZM12.6771 16.3199C12.9864 16.5402 12.9771 16.4324 12.9771 19.7512V22.7559H12.2974H11.6177V20.1543V17.5527H10.8911H10.1646V20.1543V22.7559H9.48487H8.80519L8.81456 19.6949L8.82862 16.6387L8.93175 16.4934C9.14269 16.198 9.1755 16.1934 10.938 16.2074C12.5036 16.2168 12.5364 16.2168 12.6771 16.3199ZM19.8583 16.2871C19.9427 16.3387 20.0505 16.4465 20.1021 16.5309C20.1911 16.6762 20.1958 16.7699 20.1958 18.5605C20.1958 20.3512 20.1911 20.4449 20.1021 20.5902C20.0505 20.6746 19.9427 20.7824 19.8583 20.834C19.713 20.923 19.6146 20.9277 17.8239 20.9277C15.9489 20.9277 15.9442 20.9277 15.7849 20.8199C15.4567 20.6043 15.4567 20.609 15.4708 18.5043C15.4849 16.6855 15.4896 16.6199 15.5833 16.4887C15.7989 16.1934 15.813 16.1934 17.8521 16.1934C19.6192 16.1934 19.713 16.198 19.8583 16.2871Z" fill="#6842EF"/>
<path d="M16.8208 18.5605V19.5684H17.8286H18.8364V18.5605V17.5527H17.8286H16.8208V18.5605Z" fill="#151515"/>
</svg>
