<svg width="24" height="25" viewBox="0 0 24 25" fill="none" xmlns="http://www.w3.org/2000/svg">
<path d="M6.34215 3.5517C5.63434 3.63608 5.01559 3.93139 4.47184 4.4517C4.05933 4.84077 3.75465 5.30483 3.58121 5.82045C3.41715 6.30795 3.37027 7.14702 3.48746 7.6392C3.6984 8.52983 4.26559 9.30795 5.07184 9.79545C5.94371 10.3251 7.19527 10.3955 8.13746 9.96889C9.10309 9.53295 9.83434 8.64702 10.0546 7.64858C10.1718 7.11889 10.1343 6.27045 9.97027 5.80639C9.42652 4.27358 7.95934 3.3642 6.34215 3.5517Z" fill="#03BD9D"/>
<path d="M12.7969 9.21383C12.4079 9.33571 12.0516 9.63571 11.8547 10.0154C11.7516 10.2123 11.7422 10.2873 11.7282 11.1451L11.7141 12.0638L12.0329 12.2935C13.186 13.1091 14.0485 14.5482 14.2454 15.9873C14.2782 16.2076 14.2969 17.267 14.2969 18.6357C14.2969 20.9279 14.2922 21.0404 14.1329 21.4201C14.1 21.4998 14.2875 21.5045 18.4735 21.4904L22.8516 21.4763L23.1141 21.3545C23.4235 21.2091 23.7141 20.9326 23.8688 20.6466L23.9766 20.4451L23.9907 15.4107C24.0047 9.73415 24.0282 10.1185 23.6391 9.68727C23.5219 9.55602 23.3157 9.39196 23.1844 9.32165L22.9454 9.19508L21.5766 9.18102L20.2032 9.16696V11.7123C20.2032 14.1685 20.1985 14.2623 20.1094 14.4123C19.9782 14.6232 19.7532 14.7498 19.5 14.7498C19.3125 14.7498 19.2094 14.6982 18.5766 14.2857L17.8641 13.8216L17.1516 14.2857C16.5047 14.7076 16.4204 14.7498 16.2188 14.7498C15.9516 14.7498 15.7313 14.6138 15.6047 14.3748C15.5204 14.2201 15.5157 14.056 15.5157 11.6935V9.17165L14.2172 9.17633C13.5 9.17633 12.8625 9.19508 12.7969 9.21383Z" fill="#6842EF"/>
<path d="M16.2188 11.5906C16.2188 13.5125 16.2328 14.0047 16.2797 13.9859C16.3078 13.9766 16.6219 13.7797 16.9688 13.55C17.8734 12.9641 17.8594 12.9641 18.7547 13.55C19.1344 13.7984 19.4578 14 19.4719 14C19.4859 14 19.5 12.9125 19.5 11.5859V9.17188H17.8594H16.2188V11.5906Z" fill="#6842EF"/>
<path d="M4.14844 11.9891C3.16875 12.1062 2.19844 12.5703 1.44375 13.2875C0.829688 13.8734 0.346875 14.6891 0.126563 15.5141C0.028125 15.8891 0.0234375 15.9688 0.0234375 18.4859V21.0781L0.192188 21.2469C0.290625 21.3453 0.435938 21.4297 0.54375 21.4531C0.642188 21.4766 1.30313 21.5 2.00625 21.5H3.28125V19.7375C3.28125 18.4906 3.29531 17.9469 3.3375 17.8766C3.46875 17.6234 3.69375 17.5906 3.89531 17.7922L4.03125 17.9281V19.7141V21.5H6.77344H9.51094L9.525 19.6906L9.53906 17.8812L9.67031 17.7687C9.87656 17.5953 10.0828 17.6328 10.2094 17.8766C10.2516 17.9469 10.2656 18.4906 10.2656 19.7375V21.5H11.5453C12.2438 21.5 12.9 21.4766 13.0031 21.4578C13.2281 21.4016 13.4859 21.1578 13.5469 20.9375C13.6078 20.7219 13.6078 16.8312 13.5469 16.25C13.3781 14.6422 12.4594 13.2734 11.0438 12.5187C10.275 12.1109 9.75469 11.9844 8.63906 11.9516L7.82813 11.9234V12.0359C7.82813 12.0969 7.92188 13.1281 8.03438 14.3281L8.24063 16.5078L8.10938 16.7656C8.03438 16.9062 7.76719 17.3937 7.50938 17.8437C6.80156 19.0906 6.75938 19.0953 6.08438 17.9141C5.83125 17.4734 5.55469 16.9812 5.46563 16.8125L5.30625 16.5078L5.5125 14.375C5.625 13.2031 5.71406 12.1719 5.71875 12.0875V11.9375L5.1 11.9422C4.75781 11.9469 4.33125 11.9656 4.14844 11.9891Z" fill="#03BD9D"/>
<path d="M6.44531 12.1342C6.43125 12.2467 6.3375 13.2499 6.23438 14.3702L6.04688 16.4046L6.40313 17.0374C6.82031 17.7733 6.73594 17.7827 7.2 16.9436L7.50469 16.3952L7.3125 14.3186C7.20938 13.1749 7.11094 12.1717 7.09688 12.0874L7.07344 11.9374H6.77344H6.47344L6.44531 12.1342Z" fill="#03BD9D"/>
</svg>
