<svg width="24" height="25" viewBox="0 0 24 25" fill="none" xmlns="http://www.w3.org/2000/svg">
<path d="M11.6672 1.76953C11.5969 1.80703 11.3344 2.13984 11.0813 2.51484L10.6172 3.19453L9.86721 3.41484C9.45471 3.53203 9.07034 3.66328 9.0094 3.70078C8.77034 3.85078 8.65784 4.20703 8.76096 4.47422C8.7844 4.53516 9.01878 4.85391 9.27659 5.19141L9.75003 5.80078V6.69609C9.75003 7.53516 9.75471 7.60078 9.84846 7.71797C9.97034 7.87734 10.1766 7.98047 10.3547 7.98047C10.4344 7.98047 10.8235 7.86328 11.2219 7.72266C11.6203 7.58203 11.9719 7.46484 12 7.46484C12.0282 7.46484 12.3797 7.58203 12.7782 7.72266C13.1766 7.86328 13.5657 7.98047 13.6453 7.98047C13.8235 7.98047 14.0297 7.87734 14.1516 7.71797C14.2453 7.60078 14.25 7.53516 14.25 6.69609V5.80078L14.7235 5.19141C14.986 4.85391 15.2157 4.53516 15.2391 4.47422C15.3422 4.20234 15.2297 3.85078 14.9907 3.70078C14.9297 3.66328 14.5453 3.53203 14.1328 3.41016L13.3828 3.19453L12.9188 2.51484C12.6375 2.10234 12.4032 1.80703 12.3235 1.76953C12.1594 1.68047 11.8266 1.68047 11.6672 1.76953Z" fill="#0D1520"/>
<path d="M4.47168 3.77046C4.41543 3.7939 4.19512 4.07515 3.97949 4.3939L3.58574 4.97046L2.91543 5.17202C2.17949 5.39233 2.03887 5.4814 1.9873 5.75327C1.94512 5.98296 2.01074 6.10483 2.48418 6.71421L2.86855 7.2064L2.84512 7.89077C2.82168 8.65952 2.85449 8.8189 3.08887 8.93608C3.30449 9.04858 3.44043 9.02983 4.12949 8.79077L4.7623 8.57046L5.37637 8.79077C6.12637 9.06265 6.28105 9.06733 6.49668 8.85171L6.65605 8.69233V7.93765V7.18296L7.07793 6.62983C7.47168 6.11421 7.4998 6.06265 7.4998 5.8564C7.4998 5.49546 7.36855 5.39702 6.59043 5.17202C6.22949 5.06421 5.92012 4.96577 5.90605 4.94702C5.8873 4.92358 5.70918 4.67046 5.5123 4.38452C5.31543 4.0939 5.10449 3.82671 5.04824 3.78452C4.93574 3.70483 4.62168 3.69546 4.47168 3.77046Z" fill="#0D1520"/>
<path d="M18.9514 3.78452C18.8951 3.82202 18.6889 4.0939 18.4873 4.38452C18.2904 4.67046 18.1123 4.92358 18.0983 4.94233C18.0795 4.96577 17.7701 5.06421 17.4139 5.17202C16.6311 5.40171 16.4998 5.50015 16.4998 5.8564C16.4998 6.06265 16.5279 6.11421 16.9217 6.62983L17.3436 7.17827V7.93765V8.69233L17.5029 8.85171C17.7186 9.06733 17.8733 9.06265 18.6233 8.79077L19.2373 8.57046L19.8701 8.79077C20.5592 9.02983 20.6951 9.04858 20.9108 8.93608C21.1451 8.8189 21.1779 8.65952 21.1545 7.89077L21.1311 7.2064L21.5154 6.71421C21.9842 6.11421 22.0545 5.98296 22.0123 5.76265C21.9608 5.4814 21.8154 5.38765 21.0842 5.17202L20.4139 4.97046L20.0201 4.3939C19.8045 4.07515 19.5795 3.7939 19.5139 3.76577C19.3545 3.69077 19.0686 3.70015 18.9514 3.78452Z" fill="#0D1520"/>
<path d="M11.3342 10.2581C10.3639 10.4925 9.53419 11.3316 9.3045 12.3066C9.21544 12.6769 9.21544 13.2206 9.3045 13.591C9.48731 14.3738 10.0545 15.0769 10.7811 15.4285C10.9967 15.5363 11.217 15.6206 11.2686 15.6206C11.4608 15.6206 11.3014 15.6675 10.9404 15.7191C9.39356 15.93 8.14669 16.9988 7.63575 18.5503C7.53731 18.855 7.52794 18.9722 7.50919 20.191C7.49513 21.4425 7.49513 21.5175 7.59356 21.7706C7.71544 22.0941 7.99669 22.3988 8.32013 22.5581L8.5545 22.6753L11.9389 22.6894C15.2623 22.6988 15.3233 22.6988 15.5811 22.605C15.8951 22.4831 16.2045 22.1972 16.3592 21.8785C16.4764 21.6441 16.4764 21.6347 16.4764 20.2847C16.4764 18.991 16.4717 18.9066 16.3686 18.5738C15.9842 17.3503 15.1029 16.3894 13.9733 15.9535C13.6264 15.8222 13.3451 15.7566 12.867 15.6863L12.6326 15.6581L12.8201 15.5972C13.7154 15.33 14.4795 14.5097 14.6951 13.5956C14.8404 12.9769 14.7608 12.2878 14.4748 11.6972C14.2639 11.2613 13.6873 10.6847 13.2514 10.4738C12.6654 10.1925 11.9389 10.1081 11.3342 10.2581Z" fill="#6842EF"/>
<path d="M5.2875 10.7875C4.60781 11.0078 4.02656 11.6031 3.825 12.2875C3.72656 12.6203 3.72656 13.2766 3.825 13.6094C4.02188 14.2938 4.6125 14.8984 5.27813 15.1047L5.54531 15.1844L5.15156 15.2078C3.95625 15.2875 2.8125 16.0938 2.30156 17.2234C2.02969 17.8188 1.99219 18.0391 1.99219 19.1125V20.0969L2.12813 20.3688C2.28281 20.6688 2.5125 20.9031 2.82188 21.0672C3.01875 21.175 3.05156 21.175 4.77188 21.1891L6.51562 21.2031V20.3219C6.51562 18.9813 6.64688 18.3016 7.07344 17.4531C7.31719 16.975 7.75781 16.3891 8.1375 16.0516C8.30156 15.9063 8.4375 15.7703 8.4375 15.7563C8.4375 15.7375 8.28281 15.6484 8.09531 15.5547C7.67344 15.3484 7.11094 15.1984 6.73125 15.1938H6.44531L6.7125 15.1094C7.39219 14.8891 7.97344 14.2938 8.175 13.6094C8.27344 13.2766 8.27344 12.6203 8.175 12.2875C7.97344 11.5938 7.3875 11.0031 6.69844 10.7875C6.31875 10.6703 5.65781 10.6703 5.2875 10.7875Z" fill="#6842EF"/>
<path d="M17.2875 10.7883C16.6078 11.0086 16.0266 11.6039 15.825 12.2883C15.7266 12.6211 15.7266 13.2773 15.825 13.6102C16.0266 14.2945 16.6078 14.8898 17.2875 15.1102L17.5547 15.1945H17.2688C16.8891 15.1992 16.3266 15.3492 15.9047 15.5555C15.7172 15.6492 15.5625 15.7383 15.5625 15.757C15.5625 15.7711 15.6984 15.907 15.8625 16.0523C16.2422 16.3898 16.6828 16.9758 16.9266 17.4539C17.3531 18.3023 17.4844 18.982 17.4844 20.318V21.1992H19.1391C20.0719 21.1992 20.8594 21.1805 20.9531 21.1523C21.4172 21.0258 21.8297 20.5898 21.9656 20.0883C22.0688 19.7086 22.0359 18.2367 21.9141 17.8008C21.5063 16.3523 20.2641 15.2977 18.8484 15.2086L18.4547 15.1852L18.7219 15.1055C19.0547 14.9977 19.3875 14.7867 19.65 14.5055C20.0766 14.0508 20.25 13.5961 20.25 12.9492C20.25 12.3023 20.0766 11.8477 19.65 11.393C19.3828 11.107 19.0547 10.9008 18.6984 10.7883C18.3188 10.6711 17.6578 10.6711 17.2875 10.7883Z" fill="#6842EF"/>
</svg>
