<svg width="24" height="25" viewBox="0 0 24 25" fill="none" xmlns="http://www.w3.org/2000/svg">
<path d="M11.6672 2.07031C11.5969 2.10781 11.3344 2.44062 11.0813 2.81562L10.6172 3.49531L9.86721 3.71562C9.45471 3.83281 9.07034 3.96406 9.0094 4.00156C8.77034 4.15156 8.65784 4.50781 8.76096 4.775C8.7844 4.83594 9.01878 5.15469 9.27659 5.49219L9.75003 6.10156V6.99687C9.75003 7.83594 9.75471 7.90156 9.84846 8.01875C9.97034 8.17812 10.1766 8.28125 10.3547 8.28125C10.4344 8.28125 10.8235 8.16406 11.2219 8.02344C11.6203 7.88281 11.9719 7.76562 12 7.76562C12.0282 7.76562 12.3797 7.88281 12.7782 8.02344C13.1766 8.16406 13.5657 8.28125 13.6453 8.28125C13.8235 8.28125 14.0297 8.17812 14.1516 8.01875C14.2453 7.90156 14.25 7.83594 14.25 6.99687V6.10156L14.7235 5.49219C14.986 5.15469 15.2157 4.83594 15.2391 4.775C15.3422 4.50312 15.2297 4.15156 14.9907 4.00156C14.9297 3.96406 14.5453 3.83281 14.1328 3.71094L13.3828 3.49531L12.9188 2.81562C12.6375 2.40312 12.4032 2.10781 12.3235 2.07031C12.1594 1.98125 11.8266 1.98125 11.6672 2.07031Z" fill="#6842EF"/>
<path d="M4.47192 4.07173C4.41567 4.09517 4.19536 4.37642 3.97974 4.69517L3.58599 5.27173L2.91567 5.47329C2.17974 5.6936 2.03911 5.78267 1.98755 6.05454C1.94536 6.28423 2.01099 6.4061 2.48442 7.01548L2.8688 7.50767L2.84536 8.19204C2.82192 8.96079 2.85474 9.12017 3.08911 9.23735C3.30474 9.34985 3.44067 9.3311 4.12974 9.09204L4.76255 8.87173L5.37661 9.09204C6.12661 9.36392 6.2813 9.3686 6.49692 9.15298L6.6563 8.9936V8.23892V7.48423L7.07817 6.9311C7.47192 6.41548 7.50005 6.36392 7.50005 6.15767C7.50005 5.79673 7.3688 5.69829 6.59067 5.47329C6.22973 5.36548 5.92036 5.26704 5.9063 5.24829C5.88755 5.22485 5.70942 4.97173 5.51255 4.68579C5.31567 4.39517 5.10474 4.12798 5.04849 4.08579C4.93599 4.0061 4.62192 3.99673 4.47192 4.07173Z" fill="#6842EF"/>
<path d="M18.9516 4.08579C18.8953 4.12329 18.6891 4.39517 18.4875 4.68579C18.2906 4.97173 18.1125 5.22485 18.0984 5.2436C18.0797 5.26704 17.7703 5.36548 17.4141 5.47329C16.6313 5.70298 16.5 5.80142 16.5 6.15767C16.5 6.36392 16.5281 6.41548 16.9219 6.9311L17.3438 7.47954V8.23892V8.9936L17.5031 9.15298C17.7188 9.3686 17.8734 9.36392 18.6234 9.09204L19.2375 8.87173L19.8703 9.09204C20.5594 9.3311 20.6953 9.34985 20.9109 9.23735C21.1453 9.12017 21.1781 8.96079 21.1547 8.19204L21.1313 7.50767L21.5156 7.01548C21.9844 6.41548 22.0547 6.28423 22.0125 6.06392C21.9609 5.78267 21.8156 5.68892 21.0844 5.47329L20.4141 5.27173L20.0203 4.69517C19.8047 4.37642 19.5797 4.09517 19.5141 4.06704C19.3547 3.99204 19.0688 4.00142 18.9516 4.08579Z" fill="#6842EF"/>
<path d="M11.3343 10.5594C10.364 10.7938 9.53434 11.6329 9.30465 12.6079C9.21559 12.9782 9.21559 13.5219 9.30465 13.8922C9.48747 14.675 10.0547 15.3782 10.7812 15.7297C10.9968 15.8375 11.2172 15.9219 11.2687 15.9219C11.4609 15.9219 11.3015 15.9688 10.9406 16.0204C9.39372 16.2313 8.14684 17.3 7.6359 18.8516C7.53747 19.1563 7.52809 19.2735 7.50934 20.4922C7.49528 21.7438 7.49528 21.8188 7.59372 22.0719C7.71559 22.3954 7.99684 22.7 8.32028 22.8594L8.55465 22.9766L11.939 22.9907C15.2625 23 15.3234 23 15.5812 22.9063C15.8953 22.7844 16.2047 22.4985 16.3593 22.1797C16.4765 21.9454 16.4765 21.936 16.4765 20.586C16.4765 19.2922 16.4718 19.2079 16.3687 18.875C15.9843 17.6516 15.1031 16.6907 13.9734 16.2547C13.6265 16.1235 13.3453 16.0579 12.8672 15.9875L12.6328 15.9594L12.8203 15.8985C13.7156 15.6313 14.4797 14.811 14.6953 13.8969C14.8406 13.2782 14.7609 12.5891 14.475 11.9985C14.264 11.5625 13.6875 10.986 13.2515 10.775C12.6656 10.4938 11.939 10.4094 11.3343 10.5594Z" fill="#03BD9D"/>
<path d="M5.2875 11.0893C4.60781 11.3096 4.02656 11.9049 3.825 12.5893C3.72656 12.9221 3.72656 13.5783 3.825 13.9111C4.02188 14.5955 4.6125 15.2002 5.27813 15.4064L5.54531 15.4861L5.15156 15.5096C3.95625 15.5893 2.8125 16.3955 2.30156 17.5252C2.02969 18.1205 1.99219 18.3408 1.99219 19.4143V20.3986L2.12813 20.6705C2.28281 20.9705 2.5125 21.2049 2.82188 21.3689C3.01875 21.4768 3.05156 21.4768 4.77188 21.4908L6.51562 21.5049V20.6236C6.51562 19.283 6.64688 18.6033 7.07344 17.7549C7.31719 17.2768 7.75781 16.6908 8.1375 16.3533C8.30156 16.208 8.4375 16.0721 8.4375 16.058C8.4375 16.0393 8.28281 15.9502 8.09531 15.8564C7.67344 15.6502 7.11094 15.5002 6.73125 15.4955H6.44531L6.7125 15.4111C7.39219 15.1908 7.97344 14.5955 8.175 13.9111C8.27344 13.5783 8.27344 12.9221 8.175 12.5893C7.97344 11.8955 7.3875 11.3049 6.69844 11.0893C6.31875 10.9721 5.65781 10.9721 5.2875 11.0893Z" fill="#03BD9D"/>
<path d="M17.2875 11.0891C16.6078 11.3094 16.0266 11.9047 15.825 12.5891C15.7266 12.9219 15.7266 13.5781 15.825 13.9109C16.0266 14.5953 16.6078 15.1906 17.2875 15.4109L17.5547 15.4953H17.2688C16.8891 15.5 16.3266 15.65 15.9047 15.8562C15.7172 15.95 15.5625 16.0391 15.5625 16.0578C15.5625 16.0719 15.6984 16.2078 15.8625 16.3531C16.2422 16.6906 16.6828 17.2766 16.9266 17.7547C17.3531 18.6031 17.4844 19.2828 17.4844 20.6187V21.5H19.1391C20.0719 21.5 20.8594 21.4812 20.9531 21.4531C21.4172 21.3266 21.8297 20.8906 21.9656 20.3891C22.0688 20.0094 22.0359 18.5375 21.9141 18.1016C21.5063 16.6531 20.2641 15.5984 18.8484 15.5094L18.4547 15.4859L18.7219 15.4062C19.0547 15.2984 19.3875 15.0875 19.65 14.8062C20.0766 14.3516 20.25 13.8969 20.25 13.25C20.25 12.6031 20.0766 12.1484 19.65 11.6937C19.3828 11.4078 19.0547 11.2016 18.6984 11.0891C18.3188 10.9719 17.6578 10.9719 17.2875 11.0891Z" fill="#03BD9D"/>
</svg>
