<svg width="17" height="16" viewBox="0 0 17 16" fill="none" xmlns="http://www.w3.org/2000/svg">
<path d="M16.5 8.04902C16.5 3.60302 12.918 -0.000976562 8.50005 -0.000976562C4.08005 2.34374e-05 0.498047 3.60302 0.498047 8.05002C0.498047 12.067 3.42405 15.397 7.24805 16.001V10.376H5.21805V8.05002H7.25005V6.27502C7.25005 4.25802 8.44505 3.14402 10.272 3.14402C11.148 3.14402 12.063 3.30102 12.063 3.30102V5.28102H11.054C10.061 5.28102 9.75105 5.90202 9.75105 6.53902V8.04902H11.969L11.615 10.375H9.75005V16C13.574 15.396 16.5 12.066 16.5 8.04902Z" fill="#2F80ED"/>
</svg>
