<svg width="16" height="16" viewBox="0 0 16 16" fill="none" xmlns="http://www.w3.org/2000/svg">
<g clip-path="url(#clip0_118_10987)">
<path d="M15.8442 8.18417C15.8442 7.64035 15.8001 7.09359 15.706 6.55859H8.16016V9.63925H12.4813C12.302 10.6328 11.7258 11.5117 10.8822 12.0703V14.0692H13.4602C14.9741 12.6758 15.8442 10.6181 15.8442 8.18417Z" fill="#4285F4"/>
<path d="M8.15925 16.0012C10.3169 16.0012 12.1365 15.2928 13.4622 14.0699L10.8842 12.071C10.167 12.559 9.24101 12.8353 8.16219 12.8353C6.07511 12.8353 4.3055 11.4273 3.67055 9.53418H1.01025V11.5948C2.36833 14.2963 5.13445 16.0012 8.15925 16.0012Z" fill="#27AE60"/>
<path d="M3.66851 9.5338C3.33341 8.54023 3.33341 7.46435 3.66851 6.47078V4.41016H1.01116C-0.123511 6.67067 -0.123511 9.33391 1.01116 11.5944L3.66851 9.5338Z" fill="#FBBC04"/>
<path d="M8.15925 3.16644C9.2998 3.1488 10.4021 3.57798 11.2281 4.36578L13.5122 2.08174C12.0659 0.72367 10.1464 -0.0229773 8.15925 0.000539111C5.13445 0.000539111 2.36833 1.70548 1.01025 4.40987L3.66761 6.4705C4.29962 4.57449 6.07217 3.16644 8.15925 3.16644Z" fill="#EA4335"/>
</g>
<defs>
<clipPath id="clip0_118_10987">
<rect width="16" height="16" fill="white"/>
</clipPath>
</defs>
</svg>
