<svg width="176" height="64" viewBox="0 0 176 64" fill="none" xmlns="http://www.w3.org/2000/svg">
<path d="M0 5C0 2.23858 2.23858 0 5 0H171C173.761 0 176 2.23858 176 5V59C176 61.7614 173.761 64 171 64H5C2.23857 64 0 61.7614 0 59V5Z" fill="white"/>
<path d="M41.59 31.36L46.5183 26.4317L30.6 17.485C29.545 16.915 28.5566 16.835 27.69 17.4583L41.59 31.36ZM47.3583 37.13L52.4816 34.2483C53.4816 33.6883 54.03 32.895 54.03 32.015C54.03 31.1367 53.4816 30.3417 52.4833 29.7817L47.845 27.1767L42.6233 32.3967L47.3583 37.13ZM26.8333 18.67C26.7266 18.9983 26.6666 19.365 26.6666 19.7667V44.275C26.6666 44.91 26.8066 45.4567 27.06 45.8917L40.555 32.395L26.8333 18.67ZM41.59 33.4283L28.17 46.85C28.4266 46.9483 28.7033 47 28.995 47C29.515 47 30.0566 46.8467 30.6083 46.54L46.0333 37.8783L41.59 33.4283Z" fill="#051321"/>
<path d="M78.13 24.072H78.088C77.9667 24.5293 77.668 24.912 77.192 25.22C76.7253 25.5187 76.1187 25.668 75.372 25.668C74.7747 25.668 74.224 25.5607 73.72 25.346C73.2253 25.122 72.8007 24.8 72.446 24.38C72.0913 23.9507 71.8113 23.4233 71.606 22.798C71.41 22.1633 71.312 21.4353 71.312 20.614C71.312 19.802 71.41 19.0833 71.606 18.458C71.802 17.8233 72.082 17.296 72.446 16.876C72.81 16.4467 73.2487 16.12 73.762 15.896C74.2753 15.672 74.8447 15.56 75.47 15.56C76.3473 15.56 77.08 15.756 77.668 16.148C78.256 16.54 78.7087 17.058 79.026 17.702L78.06 18.29C77.836 17.7673 77.5 17.3567 77.052 17.058C76.6133 16.7593 76.086 16.61 75.47 16.61C75.0407 16.61 74.6487 16.6893 74.294 16.848C73.9393 16.9973 73.6313 17.212 73.37 17.492C73.118 17.772 72.922 18.108 72.782 18.5C72.642 18.892 72.572 19.3307 72.572 19.816V21.398C72.572 21.8833 72.642 22.3267 72.782 22.728C72.922 23.12 73.118 23.456 73.37 23.736C73.6313 24.016 73.9487 24.2353 74.322 24.394C74.6953 24.5433 75.1153 24.618 75.582 24.618C75.918 24.618 76.2353 24.576 76.534 24.492C76.842 24.3987 77.108 24.2633 77.332 24.086C77.5653 23.9087 77.7473 23.6893 77.878 23.428C78.0087 23.1573 78.074 22.84 78.074 22.476V21.51H75.918V20.474H79.222V25.5H78.13V24.072ZM84.1404 25.668C83.6457 25.668 83.1977 25.5793 82.7964 25.402C82.4044 25.2247 82.0637 24.9727 81.7744 24.646C81.4944 24.31 81.275 23.9133 81.1164 23.456C80.967 22.9893 80.8924 22.4667 80.8924 21.888C80.8924 21.3187 80.967 20.8007 81.1164 20.334C81.275 19.8673 81.4944 19.4707 81.7744 19.144C82.0637 18.808 82.4044 18.5513 82.7964 18.374C83.1977 18.1967 83.6457 18.108 84.1404 18.108C84.6257 18.108 85.0597 18.1967 85.4424 18.374C85.825 18.5513 86.1517 18.7987 86.4224 19.116C86.693 19.424 86.8984 19.7927 87.0384 20.222C87.1877 20.6513 87.2624 21.1227 87.2624 21.636V22.168H82.0684V22.504C82.0684 22.812 82.115 23.1013 82.2084 23.372C82.311 23.6333 82.451 23.862 82.6284 24.058C82.815 24.254 83.039 24.408 83.3004 24.52C83.571 24.632 83.8744 24.688 84.2104 24.688C84.6677 24.688 85.0644 24.5807 85.4004 24.366C85.7457 24.1513 86.0117 23.8433 86.1984 23.442L86.9964 24.016C86.763 24.5107 86.399 24.912 85.9044 25.22C85.4097 25.5187 84.8217 25.668 84.1404 25.668ZM84.1404 19.046C83.8324 19.046 83.5524 19.102 83.3004 19.214C83.0484 19.3167 82.829 19.466 82.6424 19.662C82.465 19.858 82.325 20.0913 82.2224 20.362C82.1197 20.6233 82.0684 20.9127 82.0684 21.23V21.328H86.0584V21.174C86.0584 20.53 85.881 20.0167 85.5264 19.634C85.181 19.242 84.719 19.046 84.1404 19.046ZM90.704 25.5C90.312 25.5 90.0133 25.3927 89.808 25.178C89.612 24.954 89.514 24.6647 89.514 24.31V19.256H88.324V18.276H88.996C89.2386 18.276 89.402 18.2293 89.486 18.136C89.5793 18.0333 89.626 17.8607 89.626 17.618V16.274H90.634V18.276H92.216V19.256H90.634V24.52H92.104V25.5H90.704ZM97.8848 16.582C97.6421 16.582 97.4648 16.526 97.3528 16.414C97.2501 16.2927 97.1988 16.1387 97.1988 15.952V15.77C97.1988 15.5833 97.2501 15.434 97.3528 15.322C97.4648 15.2007 97.6421 15.14 97.8848 15.14C98.1274 15.14 98.3001 15.2007 98.4028 15.322C98.5148 15.434 98.5708 15.5833 98.5708 15.77V15.952C98.5708 16.1387 98.5148 16.2927 98.4028 16.414C98.3001 16.526 98.1274 16.582 97.8848 16.582ZM97.3248 18.276H98.4448V25.5H97.3248V18.276ZM102.421 25.5C102.029 25.5 101.73 25.3927 101.525 25.178C101.329 24.954 101.231 24.6647 101.231 24.31V19.256H100.041V18.276H100.713C100.955 18.276 101.119 18.2293 101.203 18.136C101.296 18.0333 101.343 17.8607 101.343 17.618V16.274H102.351V18.276H103.933V19.256H102.351V24.52H103.821V25.5H102.421ZM111.772 25.668C111.286 25.668 110.843 25.5793 110.442 25.402C110.04 25.2247 109.695 24.9727 109.406 24.646C109.126 24.31 108.906 23.9133 108.748 23.456C108.589 22.9893 108.51 22.4667 108.51 21.888C108.51 21.3187 108.589 20.8007 108.748 20.334C108.906 19.8673 109.126 19.4707 109.406 19.144C109.695 18.808 110.04 18.5513 110.442 18.374C110.843 18.1967 111.286 18.108 111.772 18.108C112.257 18.108 112.696 18.1967 113.088 18.374C113.489 18.5513 113.834 18.808 114.124 19.144C114.413 19.4707 114.637 19.8673 114.796 20.334C114.954 20.8007 115.034 21.3187 115.034 21.888C115.034 22.4667 114.954 22.9893 114.796 23.456C114.637 23.9133 114.413 24.31 114.124 24.646C113.834 24.9727 113.489 25.2247 113.088 25.402C112.696 25.5793 112.257 25.668 111.772 25.668ZM111.772 24.674C112.378 24.674 112.873 24.4873 113.256 24.114C113.638 23.7407 113.83 23.1713 113.83 22.406V21.37C113.83 20.6047 113.638 20.0353 113.256 19.662C112.873 19.2887 112.378 19.102 111.772 19.102C111.165 19.102 110.67 19.2887 110.288 19.662C109.905 20.0353 109.714 20.6047 109.714 21.37V22.406C109.714 23.1713 109.905 23.7407 110.288 24.114C110.67 24.4873 111.165 24.674 111.772 24.674ZM116.876 25.5V18.276H117.996V19.452H118.052C118.229 19.0413 118.476 18.7147 118.794 18.472C119.12 18.2293 119.554 18.108 120.096 18.108C120.842 18.108 121.43 18.3507 121.86 18.836C122.298 19.312 122.518 19.9887 122.518 20.866V25.5H121.398V21.062C121.398 19.7647 120.852 19.116 119.76 19.116C119.536 19.116 119.316 19.144 119.102 19.2C118.896 19.256 118.71 19.34 118.542 19.452C118.374 19.564 118.238 19.7087 118.136 19.886C118.042 20.054 117.996 20.2547 117.996 20.488V25.5H116.876Z" fill="#5D6772"/>
<path d="M76.432 43.772H76.368C76.272 44.316 75.968 44.7747 75.456 45.148C74.9547 45.5107 74.2827 45.692 73.44 45.692C72.7787 45.692 72.1653 45.5693 71.6 45.324C71.0453 45.0787 70.56 44.716 70.144 44.236C69.7387 43.7453 69.4187 43.1427 69.184 42.428C68.9493 41.7133 68.832 40.8867 68.832 39.948C68.832 39.0093 68.9493 38.1827 69.184 37.468C69.4293 36.7427 69.7707 36.1347 70.208 35.644C70.6453 35.1533 71.168 34.78 71.776 34.524C72.384 34.268 73.0613 34.14 73.808 34.14C74.8107 34.14 75.664 34.3587 76.368 34.796C77.072 35.2333 77.6267 35.8627 78.032 36.684L76.32 37.692C76.1173 37.212 75.8133 36.812 75.408 36.492C75.0133 36.172 74.48 36.012 73.808 36.012C72.976 36.012 72.3093 36.268 71.808 36.78C71.3173 37.2813 71.072 38.028 71.072 39.02V40.812C71.072 41.7933 71.3227 42.54 71.824 43.052C72.3253 43.564 72.9973 43.82 73.84 43.82C74.1707 43.82 74.48 43.7827 74.768 43.708C75.056 43.6227 75.3067 43.5 75.52 43.34C75.7333 43.18 75.904 42.9827 76.032 42.748C76.16 42.5133 76.224 42.236 76.224 41.916V41.196H74.032V39.42H78.256V45.5H76.432V43.772ZM83.8866 45.692C83.2893 45.692 82.7506 45.5907 82.2706 45.388C81.8013 45.1853 81.396 44.892 81.0546 44.508C80.724 44.124 80.468 43.6653 80.2866 43.132C80.1053 42.588 80.0146 41.98 80.0146 41.308C80.0146 40.636 80.1053 40.0333 80.2866 39.5C80.468 38.9667 80.724 38.5133 81.0546 38.14C81.396 37.756 81.8013 37.4627 82.2706 37.26C82.7506 37.0573 83.2893 36.956 83.8866 36.956C84.484 36.956 85.0226 37.0573 85.5026 37.26C85.9826 37.4627 86.388 37.756 86.7186 38.14C87.06 38.5133 87.3213 38.9667 87.5026 39.5C87.684 40.0333 87.7746 40.636 87.7746 41.308C87.7746 41.98 87.684 42.588 87.5026 43.132C87.3213 43.6653 87.06 44.124 86.7186 44.508C86.388 44.892 85.9826 45.1853 85.5026 45.388C85.0226 45.5907 84.484 45.692 83.8866 45.692ZM83.8866 44.044C84.4306 44.044 84.8573 43.8787 85.1666 43.548C85.476 43.2173 85.6306 42.732 85.6306 42.092V40.54C85.6306 39.9107 85.476 39.4307 85.1666 39.1C84.8573 38.7693 84.4306 38.604 83.8866 38.604C83.3533 38.604 82.932 38.7693 82.6226 39.1C82.3133 39.4307 82.1586 39.9107 82.1586 40.54V42.092C82.1586 42.732 82.3133 43.2173 82.6226 43.548C82.932 43.8787 83.3533 44.044 83.8866 44.044ZM92.9023 45.692C92.3049 45.692 91.7663 45.5907 91.2863 45.388C90.8169 45.1853 90.4116 44.892 90.0703 44.508C89.7396 44.124 89.4836 43.6653 89.3023 43.132C89.1209 42.588 89.0303 41.98 89.0303 41.308C89.0303 40.636 89.1209 40.0333 89.3023 39.5C89.4836 38.9667 89.7396 38.5133 90.0703 38.14C90.4116 37.756 90.8169 37.4627 91.2863 37.26C91.7663 37.0573 92.3049 36.956 92.9023 36.956C93.4996 36.956 94.0383 37.0573 94.5183 37.26C94.9983 37.4627 95.4036 37.756 95.7343 38.14C96.0756 38.5133 96.3369 38.9667 96.5183 39.5C96.6996 40.0333 96.7903 40.636 96.7903 41.308C96.7903 41.98 96.6996 42.588 96.5183 43.132C96.3369 43.6653 96.0756 44.124 95.7343 44.508C95.4036 44.892 94.9983 45.1853 94.5183 45.388C94.0383 45.5907 93.4996 45.692 92.9023 45.692ZM92.9023 44.044C93.4463 44.044 93.8729 43.8787 94.1823 43.548C94.4916 43.2173 94.6463 42.732 94.6463 42.092V40.54C94.6463 39.9107 94.4916 39.4307 94.1823 39.1C93.8729 38.7693 93.4463 38.604 92.9023 38.604C92.3689 38.604 91.9476 38.7693 91.6383 39.1C91.3289 39.4307 91.1743 39.9107 91.1743 40.54V42.092C91.1743 42.732 91.3289 43.2173 91.6383 43.548C91.9476 43.8787 92.3689 44.044 92.9023 44.044ZM106.142 46.204C106.142 46.6413 106.062 47.0253 105.902 47.356C105.753 47.6973 105.502 47.98 105.15 48.204C104.798 48.428 104.345 48.5987 103.79 48.716C103.235 48.8333 102.558 48.892 101.758 48.892C101.054 48.892 100.457 48.844 99.9659 48.748C99.4752 48.6627 99.0699 48.5347 98.7499 48.364C98.4405 48.204 98.2165 48.0013 98.0779 47.756C97.9392 47.5107 97.8699 47.2333 97.8699 46.924C97.8699 46.4547 97.9979 46.0867 98.2539 45.82C98.5205 45.564 98.8885 45.3987 99.3579 45.324V45.148C99.0165 45.0627 98.7499 44.8973 98.5579 44.652C98.3765 44.396 98.2859 44.0973 98.2859 43.756C98.2859 43.5427 98.3285 43.356 98.4139 43.196C98.4992 43.0253 98.6112 42.8813 98.7499 42.764C98.8992 42.6467 99.0645 42.5507 99.2459 42.476C99.4272 42.3907 99.6192 42.3267 99.8219 42.284V42.22C99.3099 41.9853 98.9259 41.66 98.6699 41.244C98.4245 40.828 98.3019 40.3427 98.3019 39.788C98.3019 38.9347 98.5952 38.252 99.1819 37.74C99.7685 37.2173 100.627 36.956 101.758 36.956C102.014 36.956 102.265 36.972 102.51 37.004C102.766 37.036 103.001 37.0893 103.214 37.164V36.892C103.214 36.0813 103.609 35.676 104.398 35.676H105.694V37.244H103.918V37.468C104.355 37.7133 104.681 38.0333 104.894 38.428C105.107 38.8227 105.214 39.276 105.214 39.788C105.214 40.6307 104.921 41.308 104.334 41.82C103.758 42.332 102.899 42.588 101.758 42.588C101.267 42.588 100.841 42.54 100.478 42.444C100.318 42.5187 100.179 42.62 100.062 42.748C99.9445 42.8653 99.8859 43.0147 99.8859 43.196C99.8859 43.612 100.249 43.82 100.974 43.82H103.214C104.238 43.82 104.979 44.0333 105.438 44.46C105.907 44.876 106.142 45.4573 106.142 46.204ZM104.222 46.444C104.222 46.1773 104.115 45.9693 103.902 45.82C103.689 45.6707 103.321 45.596 102.798 45.596H99.9499C99.6619 45.8093 99.5179 46.0973 99.5179 46.46C99.5179 46.78 99.6512 47.0307 99.9179 47.212C100.185 47.3933 100.638 47.484 101.278 47.484H102.302C102.974 47.484 103.459 47.3987 103.758 47.228C104.067 47.0573 104.222 46.796 104.222 46.444ZM101.758 41.196C102.761 41.196 103.262 40.7693 103.262 39.916V39.644C103.262 38.7907 102.761 38.364 101.758 38.364C100.755 38.364 100.254 38.7907 100.254 39.644V39.916C100.254 40.7693 100.755 41.196 101.758 41.196ZM109.373 45.5C108.669 45.5 108.151 45.324 107.821 44.972C107.49 44.62 107.325 44.124 107.325 43.484V33.66H109.373V43.868H110.477V45.5H109.373ZM115.404 45.692C114.785 45.692 114.23 45.5907 113.74 45.388C113.26 45.1747 112.849 44.8813 112.508 44.508C112.177 44.124 111.921 43.6653 111.74 43.132C111.558 42.588 111.468 41.98 111.468 41.308C111.468 40.6467 111.553 40.0493 111.724 39.516C111.905 38.9827 112.161 38.5293 112.492 38.156C112.822 37.772 113.228 37.4787 113.708 37.276C114.188 37.0627 114.732 36.956 115.34 36.956C115.99 36.956 116.556 37.068 117.036 37.292C117.516 37.516 117.91 37.82 118.22 38.204C118.529 38.588 118.758 39.036 118.908 39.548C119.068 40.0493 119.148 40.588 119.148 41.164V41.836H113.596V42.044C113.596 42.652 113.766 43.1427 114.108 43.516C114.449 43.8787 114.956 44.06 115.628 44.06C116.14 44.06 116.556 43.9533 116.876 43.74C117.206 43.5267 117.5 43.2547 117.756 42.924L118.86 44.156C118.518 44.636 118.049 45.0147 117.452 45.292C116.865 45.5587 116.182 45.692 115.404 45.692ZM115.372 38.492C114.828 38.492 114.396 38.6733 114.076 39.036C113.756 39.3987 113.596 39.868 113.596 40.444V40.572H117.02V40.428C117.02 39.852 116.876 39.388 116.588 39.036C116.31 38.6733 115.905 38.492 115.372 38.492ZM124.859 45.5V34.332H129.883C130.395 34.332 130.854 34.4173 131.259 34.588C131.675 34.748 132.027 34.9827 132.315 35.292C132.603 35.5907 132.822 35.9533 132.971 36.38C133.12 36.8067 133.195 37.276 133.195 37.788C133.195 38.3107 133.12 38.7853 132.971 39.212C132.822 39.628 132.603 39.9907 132.315 40.3C132.027 40.5987 131.675 40.8333 131.259 41.004C130.854 41.164 130.395 41.244 129.883 41.244H126.971V45.5H124.859ZM126.971 39.42H129.691C130.096 39.42 130.416 39.3133 130.651 39.1C130.886 38.876 131.003 38.5613 131.003 38.156V37.42C131.003 37.0147 130.886 36.7053 130.651 36.492C130.416 36.2787 130.096 36.172 129.691 36.172H126.971V39.42ZM137.029 45.5C136.325 45.5 135.808 45.324 135.477 44.972C135.146 44.62 134.981 44.124 134.981 43.484V33.66H137.029V43.868H138.133V45.5H137.029ZM145.828 45.5C145.38 45.5 145.023 45.372 144.756 45.116C144.5 44.8493 144.34 44.4973 144.276 44.06H144.18C144.041 44.604 143.759 45.0147 143.332 45.292C142.905 45.5587 142.377 45.692 141.748 45.692C140.895 45.692 140.239 45.468 139.78 45.02C139.321 44.572 139.092 43.9747 139.092 43.228C139.092 42.364 139.401 41.724 140.02 41.308C140.639 40.8813 141.519 40.668 142.66 40.668H144.084V40.06C144.084 39.5907 143.961 39.228 143.716 38.972C143.471 38.716 143.076 38.588 142.532 38.588C142.052 38.588 141.663 38.6947 141.364 38.908C141.076 39.1107 140.831 39.356 140.628 39.644L139.412 38.556C139.721 38.076 140.132 37.692 140.644 37.404C141.156 37.1053 141.833 36.956 142.676 36.956C143.807 36.956 144.665 37.212 145.252 37.724C145.839 38.236 146.132 38.972 146.132 39.932V43.868H146.964V45.5H145.828ZM142.436 44.204C142.895 44.204 143.284 44.1027 143.604 43.9C143.924 43.6973 144.084 43.3987 144.084 43.004V41.9H142.772C141.705 41.9 141.172 42.2413 141.172 42.924V43.196C141.172 43.5373 141.279 43.7933 141.492 43.964C141.716 44.124 142.031 44.204 142.436 44.204ZM153.617 37.148H155.536L152.177 46.988C152.07 47.2867 151.947 47.5427 151.809 47.756C151.681 47.98 151.526 48.1613 151.345 48.3C151.163 48.4387 150.945 48.54 150.689 48.604C150.433 48.668 150.134 48.7 149.793 48.7H148.561V47.068H150.065L150.449 45.9L147.457 37.148H149.489L150.945 41.564L151.489 43.676H151.585L152.161 41.564L153.617 37.148Z" fill="#051321"/>
</svg>
