<svg width="121" height="27" viewBox="0 0 121 27" fill="none" xmlns="http://www.w3.org/2000/svg">
<g style="mix-blend-mode:luminosity" clip-path="url(#clip0_114_4913)">
<path d="M21.0772 4.63542C16.4751 4.30485 11.3489 4.30486 6.74662 4.63542C5.78323 4.70462 5.05329 5.4423 4.98086 6.34397C4.74855 9.23562 4.71764 13.5679 4.93066 16.4566C5.00102 17.4108 5.83875 18.2298 6.97208 18.2298H10.5249V22.6125L6.97933 22.61C3.72673 22.61 0.807224 20.1992 0.555034 16.7792C0.32544 13.6658 0.357151 9.10818 0.607439 5.99263C0.858273 2.87027 3.36904 0.479229 6.43229 0.259202C11.2438 -0.0863997 16.5801 -0.0864012 21.3916 0.259201C24.4548 0.479227 26.9657 2.87027 27.2165 5.99263C27.4668 9.10818 27.4558 13.6658 27.2262 16.7792C26.974 20.1992 24.0613 22.6198 20.8087 22.6198L17.2997 22.6173L10.5249 27V22.6125L17.2997 18.2298H20.8092C21.9425 18.2298 22.7802 17.4108 22.8506 16.4566C23.0636 13.5679 23.0753 9.23562 22.843 6.34397C22.7706 5.4423 22.0407 4.70462 21.0772 4.63542Z" fill="white"/>
<path d="M34.1156 19.2639H44.7185V16.6017H37.3286V3.19897H34.1156V19.2639Z" fill="white"/>
<path d="M46.2553 19.2642H49.3765V7.33025H46.2553V19.2642ZM46.0028 4.20905C46.0028 5.2418 46.7602 6.0221 47.8159 6.0221C48.8716 6.0221 49.6289 5.2418 49.6289 4.20905C49.6289 3.1763 48.8716 2.396 47.8159 2.396C46.7602 2.396 46.0028 3.1763 46.0028 4.20905Z" fill="white"/>
<path d="M61.6146 7.33008H58.4934L55.923 16.074L53.3526 7.33008H50.2314L54.2936 19.2641H57.5525L61.6146 7.33008Z" fill="white"/>
<path d="M67.1843 19.5393C69.8235 19.5393 71.9579 17.9557 72.371 15.7755H69.6399C69.3416 16.6017 68.5154 17.2902 67.1843 17.2902C65.3712 17.2902 64.6598 16.0738 64.6598 14.6739V14.3755H72.4628V12.2871C72.4628 9.41831 70.6727 7.05444 67.1384 7.05444C63.5582 7.05444 61.6304 9.34946 61.6304 12.5854V14.2149C61.6304 17.5656 63.8106 19.5393 67.1843 19.5393ZM64.6598 12.0576C64.6598 10.4511 65.3483 9.25766 67.1384 9.25766C68.8137 9.25766 69.594 10.3822 69.594 11.874V12.1723H64.6598V12.0576Z" fill="white"/>
<path d="M80.7581 19.5853C84.8202 19.5853 87.3218 16.8313 87.4824 13.5494H84.4989C84.2923 15.3625 83.1449 16.946 80.7581 16.946C78.0729 16.946 76.9254 15.11 76.9254 12.5396V9.92333C76.9254 7.35294 78.0729 5.51694 80.7581 5.51694C83.1449 5.51694 84.2923 7.10049 84.4989 8.91354H87.4824C87.3218 5.63169 84.8202 2.87769 80.7581 2.87769C75.9156 2.87769 73.7354 5.97594 73.7354 10.084V12.379C73.7354 16.487 75.9156 19.5853 80.7581 19.5853Z" fill="white"/>
<path d="M89.1793 19.264H92.3007V12.1954C92.3007 10.5889 93.1953 9.76274 94.5957 9.76274C96.1104 9.76274 96.7755 10.7496 96.7755 12.1266V19.264H99.8967V11.6217C99.8967 8.7988 98.2677 7.0546 95.6739 7.0546C94.1367 7.0546 92.9199 7.72015 92.3007 8.7529V2.5105H89.1793V19.264Z" fill="white"/>
<path d="M105.855 19.5393C107.232 19.5393 108.746 18.9655 109.297 18.1623V19.2639H112.303V11.6445C112.303 8.86749 110.261 7.05444 107.278 7.05444C104.707 7.05444 102.848 8.29374 102.159 10.6117H105.051C105.372 9.96911 106.038 9.48716 107.117 9.48716C108.402 9.48716 109.182 10.3134 109.182 11.415V13.0444C108.631 12.5854 107.576 12.0346 106.153 12.0346C103.284 12.0346 101.333 13.228 101.333 15.8214C101.333 18.1393 103.169 19.5393 105.855 19.5393ZM106.658 17.4738C105.35 17.4738 104.363 16.8312 104.363 15.7296C104.363 14.628 105.281 14.0313 106.749 14.0313C108.15 14.0313 109.182 14.6509 109.182 15.7066C109.182 16.7164 108.035 17.4738 106.658 17.4738Z" fill="white"/>
<path d="M118.136 19.2639H120.293V16.7394H119.031C118.205 16.7394 117.907 16.4181 117.907 15.6378V9.85441H120.454V7.32994H117.907V4.07104H114.762V7.32994H113.064V9.85441H114.762V15.8673C114.762 17.9787 115.841 19.2639 118.136 19.2639Z" fill="white"/>
</g>
<defs>
<clipPath id="clip0_114_4913">
<rect width="120.6" height="27" fill="white" transform="translate(0.399902)"/>
</clipPath>
</defs>
</svg>
