<svg width="109" height="28" viewBox="0 0 109 28" fill="none" xmlns="http://www.w3.org/2000/svg">
<g clip-path="url(#clip0_143_8415)">
<path d="M35.4065 22.6075C33.3738 22.4914 30.8204 21.1149 29.7956 20.0866L32.0467 17.2506C32.6011 17.8642 35.2553 19.3735 37.0696 19.0418C37.5567 18.9423 38.1111 18.5276 38.1111 17.8808C38.1447 17.4496 37.7751 17.0516 37.4559 16.9023C37.1535 16.6867 36.196 16.6536 35.5745 16.6204C34.8689 16.5872 34.0626 16.5043 33.2058 16.156C31.6267 15.3931 30.518 13.8176 30.4676 12.1425C30.4676 10.1689 31.2739 9.07435 32.0971 8.39438C33.7602 7.11735 36.0784 7.00126 37.6743 7.41588C38.9342 7.7144 40.3285 8.39438 41.1517 9.17386L39.0854 12.0264C38.783 11.8108 37.3215 11.1474 36.7672 10.9982C35.9104 10.7494 34.8185 10.8821 34.3313 11.1806C34.1801 11.2635 33.9618 11.6118 34.029 12.0264C34.029 12.3249 34.3145 12.7561 34.5161 12.8722C34.9529 13.0878 35.3561 13.2039 35.9272 13.2371C36.7336 13.2371 38.0775 13.2371 39.1022 13.7181C40.7989 14.6302 41.79 16.1892 41.6556 17.9803C41.5548 19.5393 40.4797 21.0485 39.0686 21.7783C38.0271 22.4582 36.616 22.707 35.4065 22.6075Z" fill="#2A3137"/>
<path d="M50.3911 22.4583C48.392 22.4583 46.5105 21.6954 45.0658 20.3355C43.5875 18.9424 42.7476 17.0517 42.7308 15.0118C42.6972 12.9718 43.4699 11.0646 44.881 9.58855C46.2921 8.16226 48.2072 7.29985 50.2735 7.28326C52.3397 7.25009 54.2548 8.01299 55.7331 9.40611L53.1797 12.0265C52.4405 11.33 51.4494 10.9319 50.4079 10.9319H50.3407C49.2655 10.9319 48.2744 11.3631 47.5353 12.126C46.7961 12.8889 46.3929 13.884 46.4265 14.962C46.4265 16.0234 46.8633 17.0019 47.636 17.7317C48.4088 18.4614 49.4167 18.8594 50.5087 18.8263C51.4998 18.8263 52.4237 18.4282 53.1629 17.7648L55.6659 20.435C54.2716 21.712 52.4573 22.4417 50.5758 22.4749H50.3911V22.4583Z" fill="#2A3137"/>
<path d="M71.1376 7.33294V22.4914H68.0635V21.1148C66.8036 21.9607 65.2916 22.4914 63.6621 22.4914C59.412 22.4914 55.9514 19.0583 55.9514 14.879C55.9514 10.683 59.3952 7.2666 63.6621 7.2666C65.2916 7.2666 66.8036 7.78073 68.0635 8.64314V7.33294H71.1376ZM67.6434 14.879C67.6434 12.6898 65.8627 10.9318 63.6285 10.9318C61.4446 10.9318 59.6471 12.6898 59.6471 14.879C59.6471 17.035 61.4278 18.8096 63.6285 18.8096C65.8627 18.8096 67.6434 17.035 67.6434 14.879Z" fill="#2A3137"/>
<path d="M88.8437 15.1774C88.8437 19.3402 85.4167 22.7235 81.2338 22.7235C79.6547 22.7235 78.21 22.2425 77.0173 21.4465V27.4999H73.3552V7.43237H77.0173V8.95817C78.2268 8.12893 79.6715 7.68115 81.2338 7.68115C85.4335 7.66456 88.8437 11.0478 88.8437 15.1774ZM85.1816 15.1774C85.1816 13.0214 83.4177 11.28 81.2338 11.28C79.05 11.28 77.2525 13.0214 77.2525 15.1774C77.2525 17.3334 79.0332 19.108 81.2338 19.108C83.4177 19.108 85.1816 17.35 85.1816 15.1774Z" fill="#2A3137"/>
<path d="M92.1698 5.62469C90.7923 5.62469 89.6835 4.5301 89.6835 3.12039V2.95455C89.6835 1.59459 90.7923 0.5 92.1698 0.5C93.5809 0.5 94.74 1.59459 94.74 2.95455V3.12039C94.74 4.51351 93.5809 5.62469 92.1698 5.62469ZM94.0849 22.3919H90.4563V7.28317H94.0849V22.3919Z" fill="#2A3137"/>
<path d="M103.358 22.4583C101.359 22.4583 99.4773 21.6954 98.0326 20.3355C96.5543 18.9424 95.7143 17.0517 95.6975 15.0118C95.6639 12.9718 96.4367 11.0646 97.8478 9.58855C99.2589 8.16226 101.174 7.29985 103.24 7.28326C105.307 7.25009 107.222 8.01299 108.7 9.40611L106.147 12.0265C105.407 11.33 104.416 10.9319 103.375 10.9319H103.308C102.232 10.9319 101.241 11.3631 100.502 12.126C99.7629 12.8889 99.3597 13.884 99.3933 14.962C99.3933 16.0234 99.8301 17.0019 100.603 17.7317C101.376 18.4614 102.384 18.8594 103.476 18.8263C104.467 18.8263 105.391 18.4282 106.13 17.7648L108.633 20.435C107.238 21.712 105.424 22.4417 103.543 22.4749H103.358V22.4583Z" fill="#2A3137"/>
<path d="M12.6777 20.5841C12.3753 20.6173 12.2913 20.2027 12.5769 20.1198C12.5937 20.1198 12.5937 20.1198 12.6105 20.1032C18.5741 18.4447 22.9418 15.4429 22.3706 13.4029C21.7826 11.363 16.4742 11.0479 10.5106 12.7064C4.54695 14.3648 0.179239 17.3667 0.750401 19.4066C2.43029 25.2942 8.62907 28.7438 14.5927 27.0854C19.4476 25.742 22.6562 21.43 22.7738 16.7033C18.4565 20.3685 12.6777 20.5841 12.6777 20.5841Z" fill="#F54547"/>
<path d="M18.5909 5.54182C17.5493 1.87659 13.6856 -0.262849 9.95618 0.765407C7.13397 1.56147 5.1853 3.96627 4.89972 6.70275C5.40368 6.37106 7.63794 5.04428 11.0314 4.82867C11.1153 4.82867 11.1658 4.81209 11.1658 4.81209C11.3505 4.77892 11.4008 5.06086 11.2329 5.11062H11.2161C7.48675 6.13887 4.76533 8.01295 5.1181 9.28998C5.48768 10.567 8.78026 10.7495 12.5097 9.72118C16.239 8.67634 18.9604 6.81885 18.5909 5.54182Z" fill="#F54547"/>
</g>
<defs>
<clipPath id="clip0_143_8415">
<rect width="108" height="27" fill="white" transform="translate(0.699951 0.5)"/>
</clipPath>
</defs>
</svg>
