<svg width="126" height="28" viewBox="0 0 126 28" fill="none" xmlns="http://www.w3.org/2000/svg">
<g clip-path="url(#clip0_143_8411)">
<path d="M33.7 5.8667H35.8333V11.8C36.7 10.5333 37.8999 9.86667 39.2999 9.86667C41.2333 9.86667 42.3667 10.9333 42.3667 13.0667V20.3333H40.2333V13.6667C40.2333 12.2 39.6999 11.8 38.6333 11.8C37.9666 11.8 37.3666 12.2 36.7666 12.9333C36.1666 13.7333 35.9 14.7333 35.9 16V20.3333H33.7666L33.7 5.8667Z" fill="#3A3938"/>
<path d="M53.0333 15.7334H45.7667C45.7667 17.3334 46.7 18.6 48.3 18.6C49.4333 18.6 50.5 17.9334 50.9667 16.8667L52.7667 17.6C51.7 19.6 50.5 20.4667 48.2333 20.4667C44.8333 20.4667 43.4333 17.6001 43.4333 15.1334C43.4333 12.6667 44.8333 9.80005 48.2333 9.80005C51.5 9.80005 52.9667 12.4667 52.9667 14.8001V15.7334H53.0333ZM45.8333 14H50.8333C50.6333 12.7334 49.7667 11.7334 48.3667 11.7334C46.9667 11.7334 46.1 12.6667 45.8333 14Z" fill="#3A3938"/>
<path d="M69.7 9.86675C70.2333 9.86675 70.7 10.0001 71.3 10.2667C71.8333 10.5334 72.2333 10.8001 72.5 11.1334V5.80005H74.6333V20.2667H72.5V19.0667C72.1 19.7334 70.9667 20.4001 69.7 20.4001C66.7 20.4001 65.1 18.4667 65.1 15.0667C65.1 11.8667 66.7 9.86675 69.7 9.86675ZM67.3 15.1334C67.3 16.2001 67.5667 17.0001 68.0333 17.6667C68.5 18.2667 69.1667 18.6001 69.9 18.6001C70.7 18.6001 71.3 18.2667 71.7667 17.6667C72.2333 17.0667 72.5 16.2001 72.5 15.1334C72.5 14.0667 72.2333 13.2667 71.7667 12.6667C71.3 12.0667 70.6333 11.7334 69.9 11.7334C69.1 11.7334 68.5 12.0667 68.0333 12.6667C67.5667 13.2667 67.3 14.1334 67.3 15.1334Z" fill="#3A3938"/>
<path d="M82.7 11.4667L81.3666 12.6667C80.9 12.0667 80.3 11.7334 79.5666 11.7334C78.9666 11.7334 78.5666 12.1334 78.5666 12.7334C78.5666 12.9334 78.6333 13.2 78.8333 13.3334C79.1667 13.6667 79.5 13.8667 80.4333 14.2C81.1667 14.4667 81.4333 14.6 82.0333 14.9334C82.8333 15.4 83.2333 16.0667 83.3 17.1334C83.3 18.0667 82.9666 18.8 82.3 19.4667C81.6333 20.0667 80.7666 20.4 79.7 20.4C77.7666 20.4 76.3666 19.1334 75.7 17.6667L77.5 16.6667C78.0333 17.9334 78.8333 18.5334 79.7667 18.5334C80.7 18.5334 81.1666 18.0667 81.1666 17.2C81.1666 16.8667 81.0333 16.6 80.6333 16.4C80.4333 16.2667 80.3 16.2 80.1 16.1334C79.7667 16 79.0333 15.7334 78.7 15.6C77.2333 15 76.5 14.0667 76.5 12.8C76.5 12 76.8333 11.2667 77.3666 10.7334C77.9666 10.1334 78.7 9.8667 79.6333 9.8667C80.9 9.8667 82.0333 10.4667 82.7 11.4667Z" fill="#3A3938"/>
<path d="M89.5 20.4667C88.3 20.4667 87.2333 19.8667 86.7667 19.1334V24.4668H84.6333V10H86.7667V11.2C87.1667 10.5334 88.3 9.8667 89.5667 9.8667C92.5667 9.8667 94.1667 11.8 94.1667 15.2C94.1 18.4 92.5 20.4667 89.5 20.4667ZM91.9 15.1334C91.9 14.0667 91.6333 13.2667 91.1667 12.6667C90.7 12.0667 90.0333 11.7334 89.3 11.7334C88.5 11.7334 87.9 12.0667 87.4333 12.6667C86.9667 13.2667 86.7 14.1334 86.7 15.1334C86.7 16.2 86.9667 17 87.4333 17.6667C87.9 18.2667 88.5667 18.6 89.3 18.6C90.1 18.6 90.7 18.2667 91.1667 17.6667C91.6333 17.0667 91.9 16.2 91.9 15.1334Z" fill="#3A3938"/>
<path d="M115.1 17.6C114.233 19.4667 112.767 20.4667 110.633 20.4667C109.1 20.4667 107.9 19.9334 107.033 18.9334C106.167 17.9334 105.767 16.6667 105.767 15.1334C105.767 13.6 106.167 12.3334 107.033 11.3334C107.9 10.3334 109.1 9.80005 110.633 9.80005C112.767 9.80005 114.233 10.7334 115.1 12.6667L113.233 13.4667C112.7 12.2667 111.833 11.6667 110.7 11.6667C108.967 11.6667 108.1 13.0667 108.1 15.0667C108.1 17.1334 108.967 18.4667 110.7 18.4667C111.833 18.4667 112.7 17.8667 113.233 16.6667L115.1 17.6Z" fill="#3A3938"/>
<path d="M125.367 15.7334H118.1C118.1 17.3334 119.033 18.6 120.633 18.6C121.767 18.6 122.833 17.9334 123.3 16.8667L125.1 17.6C124.033 19.6 122.833 20.4667 120.567 20.4667C117.167 20.4667 115.767 17.6001 115.767 15.1334C115.767 12.6667 117.167 9.80005 120.567 9.80005C123.833 9.80005 125.3 12.4667 125.3 14.8001V15.7334H125.367ZM118.167 14H123.167C122.967 12.7334 122.1 11.7334 120.7 11.7334C119.3 11.7334 118.367 12.6667 118.167 14Z" fill="#3A3938"/>
<path d="M58.9 9.8667C59.4333 9.8667 59.9001 10 60.5001 10.2667C61.0334 10.5334 61.4333 10.8 61.7 11.1334V10H63.8334V20.3334H62.0333L61.7 19.1334C61.3 19.8 60.1667 20.4667 58.9 20.4667C55.9 20.4667 54.3 18.5334 54.3 15.1334C54.2333 11.9334 55.8333 9.8667 58.9 9.8667ZM56.5001 15.2C56.5001 16.2667 56.7667 17.0667 57.2333 17.7334C57.7 18.3334 58.3667 18.6667 59.1001 18.6667C59.9001 18.6667 60.5 18.3334 60.9667 17.7334C61.4333 17.1334 61.7 16.2667 61.7 15.2C61.7 14.1334 61.4333 13.3334 60.9667 12.7334C60.5 12.1334 59.8334 11.8 59.1001 11.8C58.3001 11.8 57.7 12.1334 57.2333 12.7334C56.7667 13.2667 56.5001 14.1334 56.5001 15.2Z" fill="#3A3938"/>
<path d="M99.7667 9.8667C100.3 9.8667 100.767 10 101.367 10.2667C101.9 10.5334 102.3 10.8 102.567 11.1334V10H104.7V20.3334H102.9L102.567 19.1334C102.167 19.8 101.033 20.4667 99.7667 20.4667C96.7667 20.4667 95.1667 18.5334 95.1667 15.1334C95.1 11.9334 96.7 9.8667 99.7667 9.8667ZM97.3667 15.2C97.3667 16.2667 97.6333 17.0667 98.1 17.7334C98.5667 18.3334 99.2333 18.6667 99.9667 18.6667C100.767 18.6667 101.367 18.3334 101.833 17.7334C102.3 17.1334 102.567 16.2667 102.567 15.2C102.567 14.1334 102.3 13.3334 101.833 12.7334C101.367 12.1334 100.7 11.8 99.9667 11.8C99.1667 11.8 98.5667 12.1334 98.1 12.7334C97.5667 13.2667 97.3667 14.1334 97.3667 15.2Z" fill="#3A3938"/>
<path d="M27.1 13.8667C27.4333 18.2667 25.3667 20.7333 24.1667 22.4667C22.3 24.4667 19.8333 27.2 13.7667 27.3333C8.56666 27.5333 6.03333 25.2667 3.89999 23.2667C1.09999 20.2 0.366659 18.3333 0.233326 13.8667C0.233326 11.0667 1.29999 8.33335 3.16666 5.86671C5.76666 2.20004 9.89999 0.933375 13.7667 0.666711C17.7667 0.533377 20.9667 2.53337 23.1667 4.73337C25.9667 7.73335 26.8333 10.2667 27.1 13.8667Z" fill="#FF7E1D"/>
</g>
<defs>
<clipPath id="clip0_143_8411">
<rect width="125.333" height="28" fill="white" transform="translate(0.233326)"/>
</clipPath>
</defs>
</svg>
