<svg width="106" height="28" viewBox="0 0 106 28" fill="none" xmlns="http://www.w3.org/2000/svg">
<g clip-path="url(#clip0_143_8413)">
<path fill-rule="evenodd" clip-rule="evenodd" d="M1.43435 0.00129087H8.59575C8.8579 0.00129087 9.08158 0.151142 9.18207 0.393176C9.2821 0.635212 9.22967 0.89909 9.04445 1.08433L1.88302 8.24575C1.69779 8.43097 1.43391 8.48341 1.19143 8.38337C0.949402 8.28289 0.799988 8.05921 0.799988 7.79705V0.635649C0.799988 0.286577 1.08484 0.00129087 1.43435 0.00129087ZM12.7208 0.000703067C14.1341 -0.00191824 15.3321 -0.0158985 16.7581 0.390404C21.0548 1.61499 24.2249 5.5867 24.2249 10.2627C24.2249 15.9068 19.607 20.5242 13.9633 20.5242H6.59613L11.0615 21.9878V27.3021C11.0615 27.6516 10.7762 27.9364 10.4272 27.9364H1.43435C1.08484 27.9364 0.799988 27.6516 0.799988 27.3021V11.9233C0.799988 11.7485 0.862462 11.5982 0.985664 11.4746L12.2739 0.186816C12.3966 0.0636146 12.5465 0.00113995 12.7208 0.000703067Z" fill="#D70432"/>
<path fill-rule="evenodd" clip-rule="evenodd" d="M33.3654 23.0987C33.3654 23.2935 33.4742 23.404 33.6708 23.404H35.067C35.2637 23.404 35.3724 23.2953 35.3724 23.0987V17.9391C35.9396 18.6809 37.1615 19.0081 37.9031 19.0081C40.456 19.0081 42.4416 17.4152 42.4416 14.3828C42.4416 11.5684 40.456 9.7575 37.9031 9.7575C35.3506 9.7575 33.3654 11.3508 33.3654 14.3828V23.0987ZM35.3724 14.3828C35.3724 12.201 36.7905 11.6771 37.9031 11.6771C39.0161 11.6771 40.4343 12.201 40.4343 14.3828C40.4343 16.5646 39.0161 17.088 37.9031 17.088C36.7905 17.088 35.3724 16.5646 35.3724 14.3828ZM53.5681 14.4698C53.5681 11.3281 51.5829 9.7575 49.0303 9.7575C46.4557 9.7575 44.4051 11.5029 44.4051 14.4483C44.4051 16.8045 45.8887 18.9863 48.5939 18.9863C49.4451 18.9863 50.8195 18.7242 51.5612 17.5681V18.4406C51.5612 18.6372 51.6704 18.7464 51.8667 18.7464H53.2632C53.4596 18.7464 53.5681 18.6372 53.5681 18.4406V14.4698ZM51.5612 14.4483C51.5612 16.6083 49.8591 17.219 48.7685 17.1535C47.6559 17.088 46.434 16.3898 46.434 14.3828C46.434 12.332 47.9177 11.6771 49.0303 11.6771C50.143 11.6771 51.5612 12.201 51.5612 14.4483ZM59.2297 23.3639C59.4054 23.425 59.5531 23.3944 59.6441 23.1891L65.3501 10.3028C65.4173 10.1507 65.3277 10.0192 65.1755 10.0192H63.6047C63.4083 10.0192 63.2554 10.1066 63.1682 10.3028L60.5065 16.4335L57.8664 10.3028C57.8013 10.1066 57.6484 10.0192 57.4517 10.0192H55.8375C55.6845 10.0192 55.5977 10.1499 55.6632 10.3028L59.4155 18.7464L57.7677 22.5128C57.6851 22.702 57.745 22.844 57.9203 22.9056L59.2297 23.3639ZM72.026 11.6772C73.0295 11.6772 74.2079 12.0263 74.2079 14.1207V18.4406C74.2079 18.6372 74.3168 18.7464 74.5131 18.7464H75.9096C76.1056 18.7464 76.2148 18.6372 76.2148 18.4406V14.1207C76.2148 11.1538 74.4477 9.75754 72.026 9.75754C71.0009 9.75754 70.2151 10.1284 69.6695 10.7174V4.72286C69.6695 4.52672 69.5603 4.41748 69.3643 4.41748H67.9678C67.7721 4.41748 67.6626 4.52714 67.6626 4.72286V18.4406C67.6626 18.6368 67.7718 18.7464 67.9678 18.7464H69.3643C69.5606 18.7464 69.6695 18.6372 69.6695 18.4406V13.9682C69.7349 12.1136 71.0443 11.6772 72.026 11.6772ZM87.5825 14.3828C87.5825 11.35 85.5966 9.7575 83.044 9.7575C80.4911 9.7575 78.5059 11.35 78.5059 14.3828C78.5059 17.4152 80.4911 19.0081 83.044 19.0081C84.6148 19.0081 85.9021 18.4406 86.7096 17.3283C86.8188 17.1754 86.753 17.0006 86.6 16.9355L85.3131 16.368C85.1384 16.2806 84.9641 16.3462 84.8112 16.4554C84.3096 16.9569 83.6327 17.088 83.044 17.088C81.9968 17.088 80.6878 16.6301 80.5132 14.7537H87.2545C87.4295 14.7537 87.5825 14.6227 87.5825 14.4483V14.3828ZM80.6661 13.2919C81.0588 12.0262 82.1494 11.6771 83.044 11.6771C83.9386 11.6771 85.0292 12.0262 85.4223 13.2919H80.6661ZM95.4582 10.412C95.5236 10.2372 95.3931 10.0848 95.2181 10.0192C94.6731 9.86632 94.1275 9.80122 93.6035 9.80122C91.5966 9.80122 89.9821 10.7829 89.9821 13.4881V18.4406C89.9821 18.6372 90.0909 18.7464 90.2876 18.7464H91.6838C91.8801 18.7464 91.9893 18.6372 91.9893 18.4406V13.4881C91.9893 12.0918 92.8622 11.7427 93.8219 11.7427C94.1709 11.7427 94.5202 11.7864 94.8912 11.8519C95.0658 11.9175 95.2181 11.7864 95.2401 11.6121L95.4582 10.412ZM105.8 14.3828C105.8 11.35 103.814 9.7575 101.262 9.7575C98.7093 9.7575 96.7238 11.35 96.7238 14.3828C96.7238 17.4152 98.7093 19.0081 101.262 19.0081C102.833 19.0081 104.12 18.4406 104.927 17.3283C105.036 17.1754 104.971 17.0006 104.818 16.9355L103.531 16.368C103.357 16.2806 103.182 16.3462 103.029 16.4554C102.527 16.9569 101.851 17.088 101.262 17.088C100.214 17.088 98.9057 16.6301 98.7307 14.7537H105.473C105.647 14.7537 105.8 14.6227 105.8 14.4483V14.3828ZM98.8836 13.2919C99.2763 12.0262 100.367 11.6771 101.262 11.6771C102.156 11.6771 103.247 12.0262 103.64 13.2919H98.8836Z" fill="#1C1A1A"/>
</g>
<defs>
<clipPath id="clip0_143_8413">
<rect width="105" height="28" fill="white" transform="translate(0.799988)"/>
</clipPath>
</defs>
</svg>
