<svg width="128" height="27" viewBox="0 0 128 27" fill="none" xmlns="http://www.w3.org/2000/svg">
<g clip-path="url(#clip0_114_4910)">
<path d="M33.0815 8.17937C34.2727 7.46467 35.6227 7.06761 37.0521 7.06761C37.7668 7.06761 38.4021 7.14702 38.958 7.38525C39.5139 7.54408 39.9903 7.86171 40.3874 8.33818C40.7844 8.81465 41.1021 9.37055 41.3403 10.1647C41.5786 10.9588 41.658 11.8323 41.658 13.0235C41.658 14.9294 41.4991 16.4382 41.1815 17.55C40.8639 18.6617 40.4668 19.5353 39.9903 20.1706C39.5139 20.8058 39.0374 21.2029 38.4815 21.3617C37.9256 21.5206 37.4492 21.6 37.0521 21.6C36.4962 21.6 35.9403 21.5205 35.5433 21.2823C35.1462 21.0441 34.7492 20.8853 34.5903 20.5676V26.6823C34.4315 26.6823 34.3521 26.7617 34.1933 26.7617C34.0344 26.7617 33.955 26.7617 33.7962 26.7617C33.558 26.7617 33.3197 26.6823 33.2403 26.6029C33.1609 26.5235 33.0815 26.3647 33.0815 26.1264V8.17937ZM34.5903 18.8205C34.8286 19.2176 35.1462 19.5353 35.5433 19.7735C35.9403 20.0117 36.258 20.0911 36.655 20.0911C36.8933 20.0911 37.2903 20.0117 37.608 19.8529C38.005 19.6941 38.3227 19.3764 38.7198 18.9C39.0374 18.4235 39.355 17.7088 39.5933 16.8353C39.8315 15.9617 39.9903 14.6911 39.9903 13.1823C39.9903 12.2294 39.9109 11.4352 39.8315 10.8C39.7521 10.1647 39.5139 9.68819 39.2756 9.29113C39.0374 8.89407 38.7198 8.65584 38.3227 8.57643C37.9256 8.41761 37.5286 8.33818 37.0521 8.33818C36.1786 8.33818 35.3845 8.57644 34.6697 9.05291V18.8205H34.5903ZM33.7962 26.9999C33.5489 27.0034 33.3041 26.949 33.0815 26.8411C32.9227 26.6823 32.8433 26.4441 32.8433 26.1264V8.02054L33.0021 7.94112C34.2727 7.147 35.6227 6.82936 37.1315 6.82936C37.8462 6.82936 38.5609 6.90877 39.1168 7.147C39.7521 7.38524 40.2286 7.7029 40.705 8.17937C41.1021 8.65584 41.4197 9.29113 41.658 10.0852C41.8962 10.8794 41.9756 11.8323 41.9756 13.0235C41.9756 14.9294 41.8168 16.4382 41.4992 17.6294C41.1815 18.8205 40.7845 19.6941 40.308 20.3294C39.8315 20.9647 39.2756 21.3617 38.7198 21.6C38.1639 21.7588 37.608 21.9176 37.2109 21.9176C36.5756 21.9176 36.0198 21.8382 35.5433 21.6C35.305 21.5205 35.1462 21.3617 34.9874 21.2823V26.9206L34.8286 26.9999C34.6697 27.0794 34.5109 27.0794 34.3521 27.0794C34.0345 26.9205 33.8756 26.9999 33.7962 26.9999ZM33.3197 8.33818V26.047C33.3197 26.2853 33.3992 26.3647 33.3992 26.3647C33.3992 26.3647 33.4786 26.4441 33.7962 26.4441C33.8756 26.4441 34.0344 26.4441 34.1933 26.4441C34.2727 26.4441 34.2727 26.4441 34.3521 26.4441V19.7735L34.8286 20.4088C34.9874 20.647 35.305 20.8058 35.7021 21.0441C36.0991 21.2029 36.5756 21.3617 37.1315 21.3617C37.5286 21.3617 38.005 21.2823 38.4815 21.1235C38.958 20.9647 39.4345 20.5676 39.8315 20.0117C40.308 19.4558 40.6256 18.5823 40.9433 17.4705C41.2609 16.3588 41.4197 14.85 41.4197 13.0235C41.4197 11.9117 41.3403 11.0382 41.1021 10.2441C40.8639 9.52938 40.6256 8.97349 40.2286 8.57643C39.8315 8.17937 39.4344 7.86172 38.8786 7.7029C38.3227 7.54407 37.7668 7.46467 37.0521 7.46467C35.7021 7.30585 34.4315 7.70289 33.3197 8.33818ZM36.655 20.4088C36.258 20.4088 35.7815 20.25 35.3844 20.0911C34.9874 19.8529 34.5903 19.5352 34.3521 19.0588V8.97349L34.4315 8.89407C35.1462 8.4176 36.0197 8.17937 36.9727 8.17937C37.5286 8.17937 38.005 8.25877 38.4021 8.4176C38.7991 8.57642 39.1962 8.89407 39.4345 9.29113C39.6727 9.68819 39.9109 10.2441 40.0697 10.8794C40.2286 11.5147 40.308 12.3088 40.308 13.3411C40.308 14.9294 40.1492 16.1999 39.9109 17.0735C39.6727 18.0264 39.355 18.7411 38.958 19.2176C38.5609 19.6941 38.1639 20.0911 37.7668 20.2499C37.2903 20.3294 36.9727 20.4088 36.655 20.4088ZM34.8286 18.7411C35.0668 19.0588 35.305 19.3764 35.6227 19.5352C35.9403 19.6941 36.258 19.8529 36.655 19.8529C36.8933 19.8529 37.2109 19.7735 37.5286 19.6941C37.8462 19.5353 38.1639 19.297 38.4815 18.9C38.7991 18.4235 39.1168 17.7882 39.2756 16.9147C39.5139 16.0411 39.5933 14.85 39.5933 13.2617C39.5933 12.3088 39.5139 11.5147 39.4345 10.9588C39.355 10.3235 39.1962 9.847 38.958 9.52936C38.7197 9.21171 38.4815 8.97348 38.1639 8.89407C37.8462 8.73525 37.4492 8.73524 36.9727 8.73524C36.1786 8.73524 35.4639 8.89407 34.8286 9.29113V18.7411ZM43.1668 8.33818C43.1668 8.09995 43.2462 7.86172 43.405 7.78231C43.7227 7.62349 44.1992 7.46466 44.9933 7.30584C45.7874 7.14701 46.7403 7.06761 47.6933 7.06761C48.805 7.06761 49.5992 7.30584 50.155 7.78231C50.7109 8.25878 50.9492 9.1323 50.9492 10.4029V12.0705C50.9492 13.6588 50.9492 15.1676 50.8697 16.6764C50.8697 18.1058 50.7903 19.3764 50.7903 20.4882C50.4727 20.7264 49.9962 20.8852 49.4403 21.1235C48.805 21.3617 48.0109 21.4411 47.058 21.4411C46.5815 21.4411 46.105 21.4411 45.5491 21.3617C45.0727 21.2823 44.6756 21.1235 44.2786 20.8058C43.8815 20.5676 43.6433 20.0911 43.405 19.5352C43.1668 18.9794 43.0874 18.2647 43.0874 17.3117C43.0874 16.3588 43.1668 15.5647 43.405 14.9294C43.6433 14.3735 43.9609 13.897 44.358 13.5794C44.755 13.2617 45.1521 13.0235 45.708 12.9441C46.1845 12.8647 46.7403 12.7852 47.2168 12.7852C47.6139 12.7852 48.0109 12.7852 48.408 12.8647C48.805 12.9441 49.2021 13.0235 49.5197 13.1029V10.6411C49.5197 10.1647 49.4403 9.847 49.3609 9.52936C49.2815 9.21171 49.1227 9.05289 48.8845 8.81466C48.7256 8.65583 48.4874 8.57643 48.1698 8.49701C47.9315 8.4176 47.6139 8.4176 47.2962 8.4176C45.94 8.40916 44.5938 8.65146 43.3256 9.1323C43.2462 8.97348 43.1668 8.65583 43.1668 8.33818ZM49.5992 14.2941C49.3609 14.2147 49.0433 14.1353 48.7256 14.0558C48.408 13.9764 48.0903 13.9764 47.8521 13.9764C47.455 13.9764 47.058 13.9764 46.7403 14.0558C46.3433 14.1353 46.0256 14.2941 45.7874 14.4529C45.5492 14.6911 45.3109 15.0088 45.1521 15.4058C44.9933 15.8029 44.9139 16.4382 44.9139 17.1529C44.9139 17.7882 44.9933 18.3441 45.1521 18.7411C45.3109 19.1382 45.4697 19.3764 45.708 19.6147C45.9462 19.7735 46.2639 19.9323 46.5815 20.0117C46.8992 20.0911 47.2168 20.0911 47.6139 20.0911C48.0903 20.0911 48.4874 20.0117 48.8845 19.9323C49.2815 19.7735 49.5197 19.6941 49.6786 19.5352C49.6786 19.2176 49.6786 18.9 49.758 18.5029C49.758 18.1058 49.758 17.6294 49.8374 17.1529C49.8374 16.6764 49.8374 16.2 49.8374 15.7235C49.5992 15.247 49.5992 14.7705 49.5992 14.2941ZM47.1374 21.7588C46.6609 21.7588 46.105 21.7588 45.6286 21.6794C45.0727 21.6 44.5962 21.4411 44.1992 21.1235C43.8021 20.8058 43.4844 20.3294 43.2462 19.7735C43.008 19.2176 42.8492 18.4235 42.8492 17.3911C42.8492 16.3588 43.008 15.5647 43.2462 14.9294C43.4344 14.3805 43.7591 13.8884 44.1897 13.4994C44.6203 13.1105 45.1428 12.8374 45.708 12.7058C46.2639 12.6264 46.7403 12.547 47.2962 12.547C47.6933 12.547 48.0903 12.547 48.4874 12.6264C48.805 12.6264 49.0433 12.7058 49.2815 12.7852V10.7205C49.2815 10.3235 49.2021 10.0058 49.1227 9.68819C49.0433 9.44995 48.8844 9.29112 48.7256 9.1323C48.656 9.05437 48.5702 8.99265 48.4741 8.95148C48.3781 8.91032 48.2742 8.89073 48.1698 8.89407C47.9315 8.81466 47.6139 8.81466 47.2962 8.81466C46.4227 8.81466 45.6286 8.89408 44.9933 9.05291C44.2786 9.21173 43.8021 9.37053 43.405 9.52936L43.1668 9.60877L43.0874 9.37055C42.9286 9.0529 42.8492 8.73524 42.8492 8.33818C42.8492 8.02053 42.9286 7.70289 43.1668 7.54406C43.4844 7.38524 44.0403 7.22643 44.9139 6.9882C45.708 6.82937 46.6609 6.74995 47.6933 6.74995C48.8845 6.74995 49.758 6.98818 50.3933 7.54406C51.0286 8.09995 51.3462 9.05289 51.3462 10.4029V12.0705C51.3462 13.6588 51.3462 15.1676 51.2668 16.6764C51.2668 18.1058 51.1874 19.3764 51.1874 20.4882V20.647L51.108 20.7264C50.7903 20.9647 50.3139 21.2029 49.6786 21.4411C49.0433 21.6794 48.1697 21.7588 47.1374 21.7588ZM47.2962 13.1029C46.8197 13.1029 46.3433 13.1823 45.7874 13.2617C45.3109 13.3411 44.9139 13.5794 44.5962 13.8176C44.2786 14.1353 43.9609 14.5323 43.7227 15.0882C43.4845 15.6441 43.405 16.4382 43.405 17.3117C43.405 18.1853 43.4845 18.8999 43.7227 19.4558C43.9609 19.9323 44.1992 20.3294 44.5168 20.5676C44.8345 20.8058 45.2315 20.9647 45.708 21.0441C46.1845 21.1235 46.6609 21.1235 47.1374 21.1235C48.363 21.1858 49.5794 20.8817 50.6315 20.2499C50.6315 19.2176 50.7109 17.947 50.7109 16.597C50.7109 15.1676 50.7903 13.5794 50.7903 11.9911V10.3235C50.7903 9.1323 50.5521 8.33818 50.0756 7.94112C49.5992 7.46465 48.805 7.30584 47.7727 7.30584C46.7403 7.30584 45.8668 7.38524 45.0727 7.54406C44.1198 7.70289 43.7227 7.86172 43.5639 8.02054C43.4844 8.09995 43.4845 8.17936 43.4845 8.33818C43.4845 8.497 43.4844 8.73525 43.5639 8.89407C43.9609 8.73525 44.358 8.65584 44.9933 8.49701C45.708 8.33819 46.5021 8.25879 47.455 8.25879C47.7727 8.25879 48.0903 8.25877 48.408 8.33818C48.7256 8.41759 48.9639 8.497 49.2021 8.73524C49.4403 8.89406 49.5992 9.21171 49.758 9.52936C49.8374 9.847 49.9168 10.2441 49.9168 10.7205V13.5794L49.5197 13.4206C49.2021 13.2617 48.8845 13.1823 48.4874 13.1823C48.0109 13.1029 47.6933 13.1029 47.2962 13.1029ZM47.3756 20.4088C46.9786 20.4088 46.6609 20.4088 46.3433 20.3294C45.9462 20.25 45.6286 20.1705 45.3903 19.9323C45.1521 19.6941 44.9139 19.3764 44.755 18.9794C44.5962 18.5823 44.5168 18.0264 44.5168 17.3117C44.5168 16.5176 44.5962 15.8823 44.755 15.4852C44.9139 15.0088 45.1521 14.6117 45.4698 14.3735C45.7874 14.1352 46.1845 13.9764 46.5815 13.897C46.9786 13.8176 47.3756 13.8176 47.7727 13.8176C48.0109 13.8176 48.3286 13.8176 48.7256 13.897C49.1227 13.9764 49.4403 14.0558 49.6786 14.1353L49.8374 14.2147V14.2941C49.8374 14.6911 49.8374 15.1676 49.8374 15.7235V17.1529C49.8374 17.6294 49.8374 18.1058 49.758 18.5029C49.758 18.9 49.758 19.297 49.6786 19.5352V19.6147L49.5992 19.6941C49.4403 19.8529 49.1227 20.0117 48.7256 20.1706C48.3286 20.4088 47.8521 20.4088 47.3756 20.4088ZM47.7727 14.2941C47.3756 14.2941 47.058 14.2941 46.6609 14.3735C46.3433 14.4529 46.0256 14.5323 45.7874 14.7705C45.5492 14.9294 45.3903 15.247 45.2315 15.6441C45.0727 16.0411 44.9933 16.597 44.9933 17.3117C44.9933 17.947 45.0727 18.4235 45.1521 18.8205C45.3109 19.1382 45.4697 19.3764 45.6286 19.5352C45.8668 19.6941 46.105 19.7735 46.3433 19.8529C46.6609 19.9323 46.9786 19.9323 47.2962 19.9323C47.6933 19.9323 48.0903 19.8529 48.4874 19.7735C48.805 19.6941 49.0433 19.5352 49.1227 19.4558C49.1227 19.2176 49.1227 18.9 49.2021 18.5029C49.2021 18.1058 49.2021 17.6294 49.2815 17.1529V15.7235C49.2815 15.3264 49.2815 14.85 49.2815 14.5323C49.0433 14.4529 48.8845 14.4529 48.6462 14.3735C48.3286 14.2941 48.0109 14.2941 47.7727 14.2941ZM53.5697 8.02054C54.205 7.7823 54.9198 7.54407 55.7139 7.30584C56.508 7.14701 57.3021 6.9882 58.0962 6.9882C58.8109 6.9882 59.4462 7.0676 59.9227 7.22642C60.3992 7.38524 60.7962 7.62348 61.1139 7.94112C61.4315 8.25877 61.5903 8.65583 61.7492 9.1323C61.8286 9.60877 61.908 10.1647 61.908 10.8V20.8058C61.908 20.8853 61.908 20.9647 61.908 21.0441C61.908 21.1235 61.8286 21.1235 61.7492 21.1235C61.6698 21.1235 61.5109 21.2029 61.2727 21.2029C61.0345 21.2029 60.7962 21.2029 60.3992 21.2029V11.2764C60.3992 10.8 60.3992 10.3235 60.3197 10.0058C60.2403 9.60877 60.1609 9.37053 60.0021 9.1323C59.8433 8.89406 59.605 8.73526 59.2874 8.65585C58.9698 8.57644 58.5727 8.49701 58.0962 8.49701C57.6992 8.49701 57.2227 8.57644 56.6668 8.65585C56.1109 8.73526 55.6344 8.89406 55.158 9.1323V20.9647C55.158 21.0441 55.158 21.1235 55.158 21.2029C55.158 21.2823 55.0786 21.2823 54.9992 21.2823C54.9198 21.2823 54.7609 21.3617 54.5227 21.3617C54.2845 21.3617 54.0462 21.3617 53.6492 21.3617V8.02054H53.5697ZM61.2727 21.5205H60.0815V11.2764C60.0815 10.8 60.0815 10.4029 60.0021 10.0058C59.945 9.72413 59.8374 9.45509 59.6845 9.21172C59.5256 9.05289 59.3668 8.89407 59.1286 8.81466C58.6521 8.65583 57.858 8.57642 56.6668 8.81466C56.1903 8.89407 55.7933 9.05289 55.3962 9.21172V20.8058C55.3962 20.9647 55.3962 21.0441 55.3168 21.1235C55.2374 21.2823 54.9992 21.3617 54.9198 21.3617C54.7609 21.3617 54.6021 21.4411 54.3639 21.4411H53.2521V7.86173L53.4109 7.78231C54.0462 7.46467 54.8403 7.22644 55.6345 7.06761C56.4286 6.90879 57.2227 6.74995 58.0168 6.74995C58.8109 6.74995 59.4462 6.82937 59.9227 6.9882C60.4786 7.14702 60.8756 7.38525 61.1933 7.78231C61.5109 8.09996 61.7492 8.57642 61.908 9.1323C61.9874 9.60877 62.0668 10.2441 62.0668 10.8794V20.8853C62.0668 21.0441 62.0668 21.1235 61.9874 21.2029C61.908 21.3617 61.6697 21.4411 61.5903 21.4411C61.6697 21.4411 61.4315 21.5205 61.2727 21.5205ZM60.6374 20.9647H61.2727C61.5109 20.9647 61.5903 20.9647 61.6698 20.9647C61.6698 20.9647 61.6698 20.9647 61.6698 20.8853V10.8794C61.6698 10.2441 61.5903 9.68819 61.5109 9.21172C61.4315 8.81466 61.1933 8.41761 60.9551 8.17937C60.7168 7.86172 60.3197 7.70289 59.9227 7.54406C59.4462 7.38524 58.8903 7.30584 58.1756 7.30584C57.4609 7.30584 56.6668 7.38524 55.8727 7.54406C55.158 7.70289 54.5227 7.94114 53.9668 8.17937V20.8853H54.5227C54.7609 20.8853 54.8403 20.8853 54.9198 20.8853C54.9198 20.8853 54.9198 20.8853 54.9198 20.8058V8.89407L55.0786 8.81466C55.555 8.57642 56.0315 8.41759 56.5874 8.33818C57.1433 8.25877 57.6198 8.17937 58.0962 8.17937C58.6521 8.17937 59.0492 8.25877 59.3668 8.33818C59.6845 8.497 60.0021 8.65584 60.1609 8.97349C60.3198 9.21173 60.4786 9.60877 60.558 10.0058C60.6374 10.4029 60.6374 10.8 60.6374 11.3558V20.9647ZM70.9609 1.58818C70.9609 1.19112 71.0403 1.03231 71.2786 0.952896C71.5168 0.873484 71.9139 0.794063 72.4697 0.794063V20.647C71.9933 20.8852 71.4374 21.1235 70.8021 21.2823C70.1668 21.4411 69.3727 21.5205 68.5786 21.5205C67.9433 21.5205 67.3874 21.4411 66.8315 21.2823C66.2756 21.1235 65.7992 20.8058 65.4021 20.3294C65.005 19.8529 64.6874 19.1382 64.4492 18.2647C64.2109 17.3911 64.0521 16.1206 64.0521 14.6117C64.0521 13.2617 64.2109 12.15 64.4492 11.197C64.6874 10.2441 65.005 9.44995 65.4021 8.81466C65.7992 8.17936 66.2756 7.78232 66.9109 7.46467C67.553 7.12765 68.2722 6.96495 68.9968 6.99282C69.7214 7.02069 70.4261 7.23814 71.0403 7.62348V1.58818H70.9609ZM70.9609 8.97349C70.7227 8.73525 70.405 8.65584 70.1668 8.57643C69.9286 8.49702 69.5315 8.4176 69.1345 8.4176C68.658 8.4176 68.2609 8.497 67.8639 8.73524C67.4668 8.97348 67.0697 9.29114 66.7521 9.76761C66.4345 10.2441 66.1962 10.8794 66.0374 11.6735C65.8786 12.4676 65.7992 13.4205 65.7992 14.5323C65.7992 15.7235 65.8786 16.7558 66.0374 17.4705C66.1962 18.1852 66.355 18.7411 66.6727 19.1382C66.9109 19.5352 67.2286 19.7735 67.6256 19.9323C68.0227 20.0911 68.4198 20.0911 68.8168 20.0911C69.2139 20.0911 69.6109 20.0117 70.008 19.9323C70.405 19.8529 70.7227 19.6941 71.0403 19.5352L70.9609 8.97349ZM68.5786 21.7588C67.9433 21.7588 67.308 21.6794 66.7521 21.5205C66.1168 21.3617 65.6403 21.0441 65.1639 20.4882C64.7668 20.0117 64.3698 19.297 64.1315 18.3441C63.8933 17.3911 63.7345 16.2 63.7345 14.6117C63.7345 13.2617 63.8933 12.0705 64.1315 11.1176C64.3698 10.1647 64.6874 9.29114 65.1639 8.65585C65.5454 8.07604 66.0636 7.59893 66.6729 7.26658C67.2822 6.93422 67.9639 6.75679 68.658 6.74995C69.4521 6.74995 70.0874 6.90877 70.6433 7.147V1.58818C70.6433 0.952886 70.8815 0.714671 71.1198 0.714671C71.358 0.635259 71.755 0.635254 72.4697 0.635254H72.708V20.8853L72.5492 20.9647C72.0727 21.2029 71.5168 21.4411 70.8021 21.6C70.1668 21.6794 69.4521 21.7588 68.5786 21.7588ZM68.658 7.30584C68.1021 7.30584 67.5462 7.46466 66.9903 7.7029C66.4344 7.94113 66.0374 8.41761 65.6403 8.97349C65.2433 9.52937 64.9256 10.3235 64.6874 11.2764C64.4492 12.2294 64.3697 13.3411 64.3697 14.6911C64.3697 16.1999 64.4492 17.3911 64.6874 18.2647C64.9256 19.1382 65.2433 19.7735 65.6403 20.2499C66.0374 20.647 66.4345 20.9647 66.9109 21.0441C67.4668 21.2029 68.0227 21.2823 68.5786 21.2823C69.3727 21.2823 70.0874 21.2029 70.8021 21.0441C71.358 20.8852 71.8345 20.7264 72.3109 20.5676V1.11173C71.755 1.11173 71.5168 1.19112 71.4374 1.19112C71.358 1.19112 71.2786 1.42936 71.2786 1.58818V8.17937L70.8021 7.94112C70.2462 7.54406 69.5315 7.30584 68.658 7.30584ZM68.7374 20.4088C68.2609 20.4088 67.8639 20.3294 67.4668 20.2499C67.0697 20.0911 66.6727 19.8529 66.355 19.3764C66.0374 18.9794 65.8786 18.3441 65.7198 17.55C65.5609 16.8352 65.4815 15.8029 65.4815 14.5323C65.4815 13.4205 65.5609 12.3882 65.7992 11.5941C65.958 10.8 66.2756 10.1647 66.5933 9.60877C66.9109 9.05289 67.308 8.73525 67.7845 8.49701C68.2609 8.25878 68.7374 8.17937 69.2139 8.17937C69.6903 8.17937 70.008 8.25877 70.3256 8.33818C70.6433 8.41759 70.8815 8.57642 71.1992 8.81466L71.2786 8.89407V19.7735L71.1198 19.8529C70.8021 20.0911 70.405 20.25 70.008 20.3294C69.6109 20.3294 69.1345 20.4088 68.7374 20.4088ZM69.1345 8.73524C68.7374 8.73524 68.3403 8.81467 67.9433 9.05291C67.5462 9.21173 67.2286 9.52936 66.9903 10.0058C66.6727 10.4823 66.4344 11.0382 66.2756 11.8323C66.1168 12.547 66.0374 13.5 66.0374 14.6117C66.0374 15.8029 66.1168 16.7558 66.2756 17.4705C66.4344 18.1852 66.5933 18.7411 66.8315 19.0588C67.0698 19.3764 67.308 19.6147 67.6256 19.6941C67.9433 19.7735 68.3403 19.8529 68.7374 19.8529C69.1345 19.8529 69.5315 19.7735 69.9286 19.7735C70.2462 19.6941 70.4845 19.6147 70.8021 19.4558V9.1323C70.6074 8.99527 70.3933 8.8882 70.1668 8.81466C69.8492 8.73524 69.5315 8.73524 69.1345 8.73524ZM74.7727 8.33818C74.7727 8.09995 74.8521 7.86172 75.0109 7.78231C75.2492 7.62349 75.805 7.46466 76.5992 7.30584C77.3933 7.14701 78.3462 7.06761 79.2992 7.06761C80.4109 7.06761 81.205 7.30584 81.7609 7.78231C82.3168 8.25878 82.555 9.1323 82.555 10.4029V12.0705C82.555 13.6588 82.555 15.1676 82.4756 16.6764C82.4756 18.1058 82.3962 19.3764 82.3962 20.4882C82.0786 20.7264 81.6021 20.8852 81.0462 21.1235C80.4109 21.3617 79.6168 21.4411 78.6639 21.4411C78.1874 21.4411 77.7109 21.4411 77.155 21.3617C76.6786 21.2823 76.2815 21.1235 75.8845 20.8058C75.4874 20.5676 75.2492 20.0911 75.0109 19.5352C74.7727 18.9794 74.6933 18.2647 74.6933 17.3117C74.6933 16.3588 74.7727 15.5647 75.0109 14.9294C75.2492 14.3735 75.5668 13.897 75.9639 13.5794C76.3609 13.2617 76.758 13.0235 77.3139 12.9441C77.7903 12.8647 78.3462 12.7852 78.8227 12.7852C79.2197 12.7852 79.6168 12.7852 80.0139 12.8647C80.4109 12.9441 80.808 13.0235 81.1256 13.1029V10.6411C81.1256 10.1647 81.0462 9.847 80.9668 9.52936C80.8874 9.21171 80.7286 9.05289 80.4903 8.81466C80.3315 8.65583 80.0933 8.57643 79.7756 8.49701C79.5374 8.4176 79.2198 8.4176 78.9021 8.4176C77.5458 8.40916 76.1997 8.65146 74.9315 9.1323C74.8521 8.97348 74.7727 8.65583 74.7727 8.33818ZM81.205 14.2941C80.9668 14.2147 80.6492 14.1353 80.3315 14.0558C80.0139 13.9764 79.6962 13.9764 79.458 13.9764C79.0609 13.9764 78.6639 13.9764 78.3462 14.0558C77.9492 14.1353 77.6315 14.2941 77.3933 14.4529C77.155 14.6117 76.9168 15.0088 76.758 15.4058C76.5992 15.8029 76.5198 16.4382 76.5198 17.1529C76.5198 17.7882 76.5992 18.3441 76.758 18.7411C76.9168 19.1382 77.0756 19.3764 77.3139 19.6147C77.5521 19.7735 77.8697 19.9323 78.1874 20.0117C78.505 20.0911 78.8227 20.0911 79.2197 20.0911C79.6962 20.0911 80.0933 20.0117 80.4903 19.9323C80.8874 19.7735 81.1256 19.6941 81.2845 19.5352C81.2845 19.2176 81.2845 18.9 81.3639 18.5029C81.3639 18.1058 81.3639 17.6294 81.4433 17.1529C81.4433 16.6764 81.4433 16.2 81.4433 15.7235C81.205 15.247 81.205 14.7705 81.205 14.2941ZM78.8227 21.7588C78.3462 21.7588 77.7903 21.7588 77.3139 21.6794C76.758 21.6 76.2815 21.4411 75.8845 21.1235C75.4874 20.8058 75.1698 20.3294 74.9315 19.7735C74.6933 19.2176 74.5345 18.4235 74.5345 17.3911C74.5345 16.3588 74.6933 15.5647 74.9315 14.9294C75.1197 14.3805 75.4444 13.8884 75.875 13.4994C76.3056 13.1105 76.8281 12.8374 77.3933 12.7058C77.8697 12.6264 78.4256 12.547 78.9815 12.547C79.3786 12.547 79.7756 12.547 80.1727 12.6264C80.4903 12.6264 80.7286 12.7058 80.9668 12.7852V10.7205C80.9668 10.3235 80.8874 10.0058 80.808 9.68819C80.7286 9.44995 80.5697 9.29112 80.4109 9.1323C80.3413 9.05437 80.2555 8.99265 80.1594 8.95148C80.0634 8.91032 79.9595 8.89073 79.855 8.89407C79.6168 8.81466 79.2992 8.81466 78.9815 8.81466C78.108 8.81466 77.3139 8.89408 76.6786 9.05291C75.9639 9.21173 75.4874 9.37053 75.0903 9.52936L74.8521 9.60877L74.7727 9.37055C74.6139 9.0529 74.5345 8.73524 74.5345 8.33818C74.5345 8.02053 74.6139 7.70289 74.8521 7.54406C75.1697 7.38524 75.7256 7.22643 76.5992 6.9882C77.3933 6.82937 78.3462 6.74995 79.3786 6.74995C80.5697 6.74995 81.4433 6.98818 82.0786 7.54406C82.7139 8.09995 83.0315 9.05289 83.0315 10.4029V12.0705C83.0315 13.6588 83.0315 15.1676 82.9521 16.6764C82.9521 18.1058 82.8727 19.3764 82.8727 20.4882V20.647L82.7933 20.7264C82.4756 20.9647 81.9992 21.2029 81.3639 21.4411C80.6492 21.6794 79.7756 21.7588 78.8227 21.7588ZM78.9815 13.1029C78.505 13.1029 77.9492 13.1823 77.4727 13.2617C76.9962 13.3411 76.5992 13.5794 76.2815 13.8176C75.9101 14.18 75.6133 14.6116 75.408 15.0882C75.1697 15.6441 75.0903 16.4382 75.0903 17.3117C75.0903 18.1853 75.1697 18.8999 75.408 19.4558C75.6462 19.9323 75.8845 20.3294 76.2021 20.5676C76.5197 20.8058 76.9168 20.9647 77.3933 21.0441C77.8697 21.1235 78.3462 21.1235 78.8227 21.1235C80.0483 21.1858 81.2647 20.8817 82.3168 20.2499C82.3168 19.2176 82.3962 17.947 82.3962 16.597C82.3962 15.1676 82.4756 13.5794 82.4756 11.9911V10.3235C82.4756 9.1323 82.2374 8.33818 81.7609 7.94112C81.2845 7.46465 80.4903 7.30584 79.458 7.30584C78.4256 7.30584 77.5521 7.38524 76.758 7.54406C75.805 7.70289 75.408 7.86172 75.2492 8.02054C75.1697 8.09995 75.1698 8.17936 75.1698 8.33818C75.1698 8.497 75.1697 8.73525 75.2492 8.89407C75.6462 8.73525 76.0433 8.65584 76.6786 8.49701C77.3933 8.33819 78.1874 8.25879 79.1403 8.25879C79.458 8.25879 79.7756 8.25877 80.0933 8.33818C80.4109 8.41759 80.6492 8.497 80.8874 8.73524C81.1256 8.89406 81.2845 9.21171 81.4433 9.52936C81.5227 9.847 81.6021 10.2441 81.6021 10.7205V13.5794L81.205 13.4206C80.8874 13.2617 80.5697 13.1823 80.1727 13.1823C79.6962 13.1029 79.2992 13.1029 78.9815 13.1029ZM79.0609 20.4088C78.6639 20.4088 78.3462 20.4088 78.0286 20.3294C77.6315 20.25 77.3139 20.1705 77.0756 19.9323C76.8374 19.6941 76.5992 19.3764 76.4403 18.9794C76.2815 18.5823 76.2021 18.0264 76.2021 17.3117C76.2021 16.5176 76.2815 15.8823 76.4403 15.4852C76.5992 15.0088 76.8374 14.6117 77.155 14.3735C77.4727 14.1352 77.8698 13.9764 78.2668 13.897C78.6639 13.8176 79.0609 13.8176 79.458 13.8176C79.6962 13.8176 80.0139 13.8176 80.4109 13.897C80.808 13.9764 81.1256 14.0558 81.3639 14.1353L81.5227 14.2147V14.2941C81.5227 14.6911 81.5227 15.1676 81.5227 15.7235V17.1529C81.5227 17.6294 81.5227 18.1058 81.4433 18.5029C81.4433 18.9 81.4433 19.297 81.3639 19.5352V19.6147L81.2845 19.6941C81.1256 19.8529 80.808 20.0117 80.4109 20.1706C79.9345 20.4088 79.5374 20.4088 79.0609 20.4088ZM79.3786 14.2941C78.9815 14.2941 78.6639 14.2941 78.2668 14.3735C77.9492 14.4529 77.6315 14.5323 77.3933 14.7705C77.155 14.9294 76.9962 15.247 76.8374 15.6441C76.6786 16.0411 76.5992 16.597 76.5992 17.3117C76.5992 17.947 76.6786 18.4235 76.758 18.8205C76.9168 19.1382 77.0756 19.3764 77.2345 19.5352C77.4727 19.6941 77.7109 19.7735 77.9492 19.8529C78.2668 19.9323 78.5845 19.9323 78.9021 19.9323C79.2992 19.9323 79.6962 19.8529 80.0933 19.7735C80.4109 19.6941 80.6492 19.5352 80.7286 19.4558C80.7286 19.2176 80.7286 18.9 80.808 18.5029C80.808 18.1058 80.808 17.6294 80.8874 17.1529V15.7235C80.8874 15.3264 80.8874 14.85 80.8874 14.5323C80.6492 14.4529 80.4903 14.4529 80.2521 14.3735C79.9345 14.2941 79.6962 14.2941 79.3786 14.2941Z" fill="white"/>
<path d="M89.3844 7.0677C90.0197 7.0677 90.5756 7.1471 91.0521 7.22651C91.5285 7.30592 91.8462 7.46474 92.1638 7.62357C92.4021 7.78239 92.6403 7.94122 92.7991 8.10004C92.9579 8.25886 92.9579 8.41769 92.9579 8.4971C92.9579 8.73534 92.7991 9.05299 92.5609 9.37063C91.6808 8.74243 90.6245 8.40885 89.5432 8.41768C88.6697 8.41768 87.955 8.57651 87.4785 8.89416C86.9226 9.21181 86.6844 9.60887 86.6844 10.2442C86.6844 10.5618 86.7638 10.8794 86.9226 11.1971C87.0815 11.5147 87.4785 11.8324 88.0344 12.2295L91.0521 14.3736C91.6874 14.9294 92.1638 15.4059 92.4815 15.9618C92.7991 16.5177 92.9579 17.0736 92.9579 17.7883C92.9579 18.9795 92.5609 19.9324 91.7668 20.5677C90.9726 21.203 89.8609 21.5206 88.4315 21.5206C87.3197 21.5206 86.5256 21.4412 85.8903 21.203C85.255 20.9647 84.9373 20.7265 84.9373 20.3294C84.9373 19.9324 85.0168 19.6942 85.255 19.3765C85.6521 19.6148 86.1285 19.853 86.605 19.9324C87.0815 20.0118 87.6374 20.0912 88.2726 20.0912C89.2256 20.0912 89.9403 19.9324 90.4962 19.6147C91.052 19.2971 91.2903 18.7412 91.2903 18.0265C91.2903 17.4706 91.1315 16.9942 90.8932 16.5971C90.655 16.2001 90.2579 15.7236 89.702 15.3265L86.7638 13.1824C85.9697 12.6265 85.4932 12.15 85.255 11.6736C85.0168 11.1971 84.9373 10.7206 84.9373 10.2442C84.9373 9.29123 85.3344 8.49709 86.1285 7.94121C86.8432 7.38533 87.955 7.0677 89.3844 7.0677ZM88.2726 21.7589C87.1609 21.7589 86.2873 21.6 85.6521 21.3618C84.9373 21.1236 84.5403 20.7265 84.5403 20.25C84.5403 19.853 84.6991 19.4559 84.9373 19.1383L85.0962 18.9795L85.3344 19.1383C85.7315 19.3765 86.1285 19.5353 86.605 19.6942C87.0815 19.7736 87.6373 19.853 88.1932 19.853C89.0668 19.853 89.7815 19.6942 90.2579 19.3765C90.7344 19.0589 90.9726 18.6618 90.9726 17.9471C90.9726 17.4706 90.8932 16.9941 90.655 16.6765C90.4168 16.2794 90.0197 15.8824 89.5432 15.4853L86.605 13.3412C85.8109 12.7853 85.255 12.3089 85.0168 11.753C84.7785 11.2765 84.6197 10.7206 84.6197 10.1648C84.6197 9.1324 85.0962 8.25886 85.9697 7.62357C86.8432 7.06768 87.955 6.75003 89.4638 6.75003C90.0991 6.75003 90.7344 6.82945 91.2109 6.90886C91.6873 6.98828 92.0844 7.1471 92.4021 7.30592C92.7197 7.46475 92.9579 7.62358 93.1168 7.86182C93.2756 8.10005 93.355 8.25886 93.355 8.41768C93.355 8.73533 93.1962 9.1324 92.9579 9.45005L92.7991 9.60886L92.5609 9.45005C92.0844 9.1324 91.6079 8.89415 91.2109 8.81474C90.7344 8.65592 90.2579 8.65593 89.702 8.65593C88.9079 8.65593 88.2726 8.81476 87.7168 9.05299C87.2403 9.29123 87.0021 9.68828 87.0021 10.1648C87.0021 10.403 87.0815 10.7206 87.2403 10.9589C87.3197 11.1177 87.6374 11.4353 88.2726 11.9118L91.2903 14.0559C91.9256 14.6118 92.4815 15.1677 92.7991 15.7236C93.1168 16.2795 93.2756 16.9942 93.2756 17.7089C93.2756 18.9795 92.7991 20.0118 92.005 20.7265C90.9726 21.4412 89.7815 21.7589 88.2726 21.7589ZM85.255 19.6942C85.1756 19.853 85.0962 20.0912 85.0962 20.25C85.0962 20.4883 85.3344 20.6471 85.8903 20.8059C86.5256 21.0442 87.3197 21.1236 88.3521 21.1236C89.7021 21.1236 90.8138 20.8059 91.5285 20.25C92.2432 19.6941 92.6403 18.8206 92.6403 17.7089C92.6403 17.0736 92.4815 16.5177 92.2432 15.9618C91.9256 15.4853 91.5285 14.9295 90.8932 14.453L87.8756 12.3089C87.2403 11.9118 86.8432 11.5147 86.6844 11.1971C86.5256 10.8794 86.3668 10.4824 86.3668 10.1648C86.3668 9.45005 86.6844 8.97358 87.3197 8.57652C87.8756 8.25887 88.6697 8.10004 89.5432 8.10004C90.1785 8.10004 90.7344 8.17944 91.2109 8.33827C91.6079 8.49709 92.0844 8.65592 92.4815 8.89416C92.5609 8.73534 92.6403 8.57651 92.6403 8.41768C92.6403 8.41768 92.6403 8.33828 92.4815 8.17946C92.402 8.02063 92.2432 7.94122 92.005 7.7824C91.7668 7.62358 91.3697 7.54417 90.9726 7.46476C90.5756 7.38534 90.0197 7.30592 89.3844 7.30592C88.0344 7.30592 87.0021 7.54416 86.2079 8.10004C85.4932 8.57651 85.0962 9.29122 85.0962 10.1648C85.0962 10.6412 85.1756 11.0383 85.4138 11.5147C85.6521 11.9118 86.1285 12.3883 86.8432 12.8647L89.7815 15.0089C90.3373 15.4853 90.8138 15.8824 91.0521 16.3589C91.2903 16.8353 91.4491 17.3118 91.4491 17.9471C91.4491 18.8206 91.1315 19.3765 90.4962 19.7736C89.9403 20.1706 89.1462 20.3294 88.1932 20.3294C87.5579 20.3294 86.9226 20.25 86.4462 20.1706C85.9697 20.0912 85.5726 19.9324 85.255 19.6942ZM103.599 20.5677C102.964 20.8853 102.329 21.1236 101.534 21.2824C100.82 21.4412 100.026 21.5206 99.3903 21.5206C98.5962 21.5206 97.8815 21.4412 97.405 21.2824C96.8491 21.1236 96.4521 20.8059 96.1344 20.4089C95.8168 20.0118 95.5785 19.4559 95.4991 18.9C95.3403 18.2648 95.3403 17.55 95.3403 16.6765V7.7824C95.3403 7.70299 95.3403 7.62356 95.3403 7.54415C95.3403 7.46474 95.4197 7.46475 95.4991 7.38534C95.5785 7.38534 95.7373 7.30592 95.9756 7.30592C96.2138 7.30592 96.452 7.30592 96.8491 7.30592V16.6765C96.8491 17.3118 96.8491 17.8677 96.9285 18.2647C97.0079 18.6618 97.1668 19.0589 97.3256 19.2971C97.4844 19.5353 97.8021 19.7736 98.1197 19.853C98.4373 19.9324 98.9138 20.0118 99.4697 20.0118C99.7873 20.0118 100.184 19.9324 100.661 19.853C101.137 19.7736 101.614 19.6148 102.011 19.3765V7.7824C102.011 7.70299 102.011 7.62356 102.011 7.54415C102.011 7.46474 102.09 7.46475 102.17 7.38534C102.249 7.38534 102.408 7.30592 102.646 7.30592C102.884 7.30592 103.123 7.30592 103.52 7.30592V20.5677H103.599ZM99.3109 21.7589C98.4373 21.7589 97.802 21.6794 97.2462 21.4412C96.6903 21.203 96.2138 20.8853 95.8962 20.4883C95.5785 20.0118 95.3403 19.5353 95.1815 18.8206C95.0226 18.1853 95.0226 17.3912 95.0226 16.5177V7.7824C95.0226 7.70299 95.0226 7.62356 95.0226 7.54415C95.0226 7.46474 95.1021 7.30592 95.4197 7.22651C95.5785 7.22651 95.7373 7.14709 95.9756 7.14709H97.1668V16.7559C97.1668 17.3912 97.1668 17.9471 97.2462 18.3442C97.3256 18.7412 97.405 19.0589 97.5638 19.2971C97.7226 19.5353 97.9609 19.6942 98.2785 19.7736C98.5962 19.853 98.9932 19.9324 99.5491 19.9324C100.318 19.8863 101.072 19.6978 101.773 19.3765V7.7824C101.773 7.62358 101.773 7.54417 101.852 7.46476C101.852 7.38534 102.011 7.2265 102.249 7.14709C102.408 7.14709 102.567 7.0677 102.805 7.0677H103.917V20.6471L103.758 20.7265C103.123 21.0442 102.408 21.2824 101.614 21.4412C100.82 21.6794 100.026 21.7589 99.3109 21.7589ZM95.4991 7.62357V16.5177C95.4991 17.3912 95.5785 18.1059 95.6579 18.7412C95.7373 19.2971 95.9756 19.7736 96.2138 20.1706C96.4521 20.5677 96.8491 20.8059 97.3256 20.9648C97.8021 21.1236 98.4373 21.203 99.2315 21.203C99.9462 21.203 100.661 21.1236 101.376 20.9648C102.011 20.8059 102.646 20.5677 103.202 20.3294V7.62357H102.646C102.408 7.62357 102.329 7.62357 102.249 7.62357V19.6147L102.09 19.6942C101.614 19.9324 101.137 20.1706 100.661 20.25C100.184 20.3294 99.7874 20.4089 99.3903 20.4089C98.8344 20.4089 98.3579 20.3294 97.9609 20.25C97.5638 20.0912 97.2462 19.9324 97.0079 19.6147C96.7697 19.2971 96.6109 18.9 96.5315 18.4236C96.4521 17.9471 96.452 17.3912 96.452 16.7559V7.62357H95.8168C95.7374 7.62357 95.5785 7.62357 95.4991 7.62357ZM106.458 2.70005C106.458 1.82652 106.776 1.42946 107.411 1.42946C107.729 1.42946 107.967 1.50887 108.046 1.7471C108.126 1.98534 108.205 2.30299 108.205 2.70005C108.205 3.57358 107.887 3.97062 107.252 3.97062C107.128 3.97764 107.004 3.95204 106.892 3.89632C106.781 3.8406 106.686 3.75671 106.617 3.65298C106.458 3.49415 106.458 3.09711 106.458 2.70005ZM108.046 20.8853C108.046 20.9648 108.046 21.0442 108.046 21.1236C108.046 21.203 107.967 21.203 107.887 21.203C107.808 21.203 107.649 21.2824 107.411 21.2824C107.173 21.2824 106.934 21.2824 106.537 21.2824V8.10004C106.537 7.70298 106.617 7.54417 106.855 7.46476C107.093 7.38534 107.49 7.38534 108.126 7.38534L108.046 20.8853ZM107.411 21.5206H106.22V8.10004C106.22 7.46475 106.537 7.22651 106.776 7.22651C107.014 7.1471 107.49 7.14709 108.126 7.14709H108.364V20.9648C108.364 21.1236 108.364 21.203 108.284 21.2824C108.205 21.4412 107.967 21.5206 107.887 21.5206C107.808 21.4412 107.649 21.5206 107.411 21.5206ZM106.776 20.9648H107.411C107.649 20.9648 107.729 20.9648 107.808 20.9648C107.808 20.9648 107.808 20.9648 107.808 20.8853V7.62357C107.252 7.62357 107.014 7.70298 106.934 7.70298C106.855 7.70298 106.776 7.94122 106.776 8.10004V20.9648ZM107.252 4.20887C106.855 4.20887 106.617 4.05005 106.379 3.81181C106.22 3.57358 106.14 3.17652 106.14 2.62063C106.14 1.27064 106.855 1.11182 107.331 1.11182C107.808 1.11182 108.126 1.35005 108.205 1.50888C108.364 1.74711 108.443 2.14416 108.443 2.62063C108.443 3.97063 107.808 4.20887 107.252 4.20887ZM107.331 1.66768C107.173 1.66768 106.696 1.6677 106.696 2.70005C106.696 3.17652 106.776 3.41476 106.855 3.49417C106.934 3.65299 107.093 3.65298 107.252 3.65298C107.411 3.65298 107.887 3.65299 107.887 2.62063C107.887 2.14416 107.808 1.90593 107.729 1.82652C107.729 1.74711 107.649 1.66768 107.331 1.66768ZM112.176 8.73533H110.111C110.111 8.10003 110.111 7.78239 110.19 7.62357C110.27 7.46474 110.349 7.38534 110.508 7.38534H112.176V2.93828C112.176 2.62063 112.255 2.4618 112.414 2.38239C112.573 2.30297 113.049 2.30299 113.684 2.30299V7.30592H117.02C117.02 7.94122 117.02 8.25886 116.94 8.41768C116.94 8.57651 116.781 8.65593 116.702 8.65593H113.684V17.153C113.684 17.55 113.684 17.9471 113.684 18.2647C113.684 18.5824 113.764 18.9 113.843 19.2177C113.923 19.5353 114.081 19.6941 114.24 19.853C114.399 20.0118 114.637 20.0912 114.955 20.0912C115.352 20.0912 115.67 20.0912 115.908 20.0118C116.146 19.9324 116.464 19.853 116.781 19.6942C116.781 19.7736 116.861 19.9324 116.861 20.0912C116.861 20.25 116.861 20.4089 116.861 20.4883C116.861 20.6471 116.781 20.8059 116.702 20.9648C116.543 21.1236 116.384 21.203 116.226 21.2824C115.987 21.3618 115.749 21.4412 115.511 21.4412C115.273 21.4412 114.955 21.5206 114.717 21.5206C114.161 21.5206 113.684 21.4412 113.367 21.203C113.049 20.9647 112.811 20.7265 112.652 20.3294C112.493 19.9324 112.414 19.5353 112.334 18.9795C112.334 18.4236 112.255 17.8677 112.255 17.2324V8.73533H112.176ZM114.637 21.7589C114.002 21.7589 113.526 21.6 113.129 21.3618C112.731 21.1236 112.493 20.8059 112.255 20.3294C112.096 19.9324 111.937 19.4559 111.937 18.9C111.937 18.3442 111.858 17.7883 111.858 17.153V8.97358H109.793V8.73533C109.793 7.8618 109.793 7.62356 109.873 7.54415C109.952 7.30591 110.111 7.14709 110.429 7.14709H111.858V2.93828C111.858 2.38239 112.176 2.14416 112.334 2.14416C112.493 2.14416 112.731 2.06474 113.684 2.06474H113.923V7.0677H117.258V7.30592C117.258 8.17945 117.258 8.41769 117.179 8.4971C117.099 8.73534 116.94 8.89416 116.623 8.89416H113.843V17.153C113.843 17.55 113.843 17.9471 113.843 18.2647C113.843 18.5824 113.923 18.9 114.002 19.1383C114.081 19.3765 114.161 19.5353 114.32 19.6147C114.399 19.6942 114.637 19.7736 114.876 19.7736C115.273 19.7736 115.511 19.7736 115.749 19.6942C115.987 19.6148 116.226 19.5353 116.543 19.3765L116.781 19.2177L116.861 19.5353C116.94 19.6942 116.94 19.7736 116.94 19.9324C116.94 20.0912 116.94 20.25 116.94 20.4089C116.94 20.6471 116.861 20.8853 116.623 21.0441C116.464 21.203 116.305 21.2824 115.987 21.4412C115.749 21.5206 115.511 21.6 115.193 21.6C115.273 21.7589 114.955 21.7589 114.637 21.7589ZM110.429 8.41768H112.493V17.153C112.493 17.7883 112.493 18.3442 112.573 18.9C112.573 19.3765 112.731 19.853 112.89 20.1706C113.049 20.4883 113.287 20.7265 113.526 20.9648C113.843 21.1236 114.24 21.203 114.717 21.203C114.955 21.203 115.273 21.203 115.511 21.1236C115.749 21.1236 115.987 21.0442 116.146 20.9648C116.305 20.8853 116.464 20.8059 116.543 20.7265C116.623 20.6471 116.623 20.5677 116.623 20.4883C116.623 20.3295 116.623 20.25 116.623 20.0912C116.384 20.1706 116.226 20.25 116.067 20.3294C115.829 20.4089 115.431 20.4883 115.034 20.4883C114.637 20.4883 114.32 20.4089 114.161 20.1706C113.923 20.0118 113.843 19.7736 113.684 19.4559C113.605 19.1383 113.526 18.8206 113.526 18.4236C113.526 18.1059 113.526 17.7089 113.526 17.2324V8.41768H116.781C116.781 8.33827 116.861 8.17945 116.861 7.62357H113.526V2.62063C112.89 2.62063 112.652 2.62064 112.573 2.70005C112.493 2.70005 112.493 2.85887 112.493 3.01769V7.70298H110.508C110.508 7.70298 110.508 7.70298 110.429 7.70298C110.429 7.70298 110.429 7.8618 110.429 8.41768ZM122.896 7.0677C124.087 7.0677 125.04 7.46476 125.596 8.25887C126.152 9.05299 126.39 10.0853 126.39 11.5147C126.39 12.0706 126.39 12.7059 126.311 13.2618C126.231 13.8177 126.231 14.3736 126.073 14.85C125.517 14.9295 124.881 15.0883 124.246 15.0883C123.611 15.1677 122.976 15.2471 122.34 15.2471C121.705 15.2471 121.149 15.3265 120.673 15.3265C120.117 15.3265 119.72 15.3265 119.481 15.3265C119.481 16.3589 119.561 17.153 119.72 17.7883C119.879 18.4236 120.117 18.9 120.355 19.2177C120.673 19.5353 120.99 19.7736 121.387 19.853C121.784 19.9324 122.261 20.0118 122.737 20.0118C123.373 20.0118 124.008 19.9324 124.564 19.7736C125.12 19.6148 125.676 19.3765 126.073 19.0589C126.152 19.2177 126.231 19.4559 126.231 19.6147C126.231 19.7736 126.311 20.0118 126.311 20.0912C126.311 20.25 126.231 20.4089 125.993 20.5677C125.755 20.7265 125.517 20.8853 125.199 20.9648C124.881 21.1236 124.484 21.203 124.008 21.2824C123.531 21.3618 123.055 21.4412 122.579 21.4412C121.943 21.4412 121.308 21.3618 120.752 21.203C120.196 21.0442 119.72 20.7265 119.323 20.25C118.926 19.7736 118.608 19.1383 118.37 18.2647C118.131 17.3912 118.052 16.2795 118.052 14.9295C118.052 13.1824 118.211 11.753 118.529 10.7206C118.846 9.68827 119.243 8.89415 119.72 8.33827C120.196 7.78238 120.752 7.46475 121.308 7.30592C121.784 7.1471 122.34 7.0677 122.896 7.0677ZM122.817 8.4971C122.499 8.4971 122.102 8.57652 121.705 8.65593C121.308 8.81476 120.99 9.05299 120.673 9.45005C120.355 9.84711 120.117 10.403 119.879 11.1177C119.64 11.8324 119.561 12.7853 119.481 14.0559C119.72 14.0559 120.117 14.0559 120.514 14.0559C120.911 14.0559 121.387 14.0559 121.943 13.9765C122.42 13.9765 122.976 13.8971 123.452 13.8177C123.929 13.7383 124.405 13.6589 124.802 13.5794C124.802 13.2618 124.881 12.9442 124.881 12.6265C124.881 12.3089 124.881 11.9912 124.881 11.753C124.881 10.6412 124.723 9.8471 124.405 9.29122C124.087 8.73534 123.611 8.4971 122.817 8.4971ZM122.499 21.7589C121.784 21.7589 121.149 21.6794 120.593 21.5206C119.958 21.3618 119.481 21.0442 119.005 20.4883C118.608 20.0118 118.211 19.2971 117.973 18.4236C117.734 17.55 117.655 16.4383 117.655 15.0089C117.655 13.1824 117.814 11.753 118.131 10.7206C118.449 9.60886 118.846 8.81475 119.323 8.17946C119.799 7.62358 120.434 7.22652 121.07 6.98828C121.705 6.82946 122.261 6.75003 122.896 6.75003C124.167 6.75003 125.199 7.1471 125.755 8.02062C126.311 8.81474 126.629 10.0059 126.629 11.4353C126.629 11.9912 126.629 12.6265 126.549 13.1824C126.47 13.7383 126.47 14.2942 126.311 14.7706V14.9295H126.152C125.517 15.0089 124.881 15.1677 124.246 15.2471C123.611 15.3265 122.976 15.4059 122.34 15.4059C121.705 15.4059 121.149 15.4853 120.673 15.4853C120.276 15.4853 119.958 15.4853 119.72 15.4853C119.72 16.3589 119.799 17.0736 119.958 17.6295C120.117 18.1853 120.276 18.6618 120.593 18.9795C120.831 19.2971 121.149 19.4559 121.467 19.5353C122.464 19.7581 123.5 19.7308 124.484 19.4559C125.04 19.2971 125.517 19.0589 125.914 18.8206L126.231 18.5824L126.39 18.9C126.47 19.1383 126.549 19.2971 126.549 19.5353C126.549 19.7736 126.629 19.9324 126.629 20.0912C126.629 20.3295 126.47 20.5677 126.231 20.8059C125.993 20.9647 125.676 21.1236 125.358 21.2824C125.04 21.4412 124.564 21.5206 124.087 21.6C123.531 21.7589 123.055 21.7589 122.499 21.7589ZM122.896 7.30592C122.34 7.30592 121.784 7.38533 121.229 7.54415C120.673 7.70297 120.196 8.02063 119.799 8.4971C119.323 9.05298 119.005 9.76768 118.687 10.8C118.37 11.8324 118.211 13.2618 118.211 15.0089C118.211 16.3589 118.29 17.4706 118.529 18.2647C118.767 19.0589 119.084 19.6942 119.402 20.0912C119.799 20.4883 120.196 20.8059 120.673 20.8853C121.229 21.0442 121.784 21.1236 122.42 21.1236C122.896 21.1236 123.373 21.0442 123.849 20.9648C124.326 20.8853 124.723 20.8059 125.04 20.6471C125.358 20.5677 125.596 20.4089 125.755 20.25C125.914 20.1706 125.993 20.0118 125.993 19.9324C125.993 19.7736 125.993 19.6147 125.993 19.4559C125.993 19.3765 125.993 19.2971 125.993 19.2971C125.596 19.5353 125.199 19.6941 124.723 19.853C123.633 20.1431 122.49 20.1703 121.387 19.9324C120.911 19.7736 120.514 19.5353 120.276 19.2177C119.958 18.8206 119.72 18.3442 119.561 17.7089C119.402 17.0736 119.323 16.2 119.323 15.1677V14.9295H119.561C119.879 14.9295 120.276 14.9295 120.752 14.9295C121.229 14.9295 121.784 14.9295 122.42 14.85C122.976 14.85 123.611 14.7706 124.246 14.6912C124.802 14.6118 125.358 14.5324 125.914 14.453C125.993 14.0559 126.073 13.5794 126.073 13.103C126.152 12.5471 126.152 11.9118 126.152 11.3559C126.152 10.0059 125.914 8.97358 125.358 8.25887C124.881 7.70299 124.087 7.30592 122.896 7.30592ZM120.593 14.2941H119.243V13.9765C119.323 12.7059 119.402 11.753 119.64 10.9589C119.879 10.1648 120.117 9.60886 120.434 9.2118C120.752 8.81474 121.149 8.49709 121.546 8.33827C121.943 8.17944 122.34 8.17946 122.737 8.17946C123.69 8.17946 124.326 8.49709 124.643 9.13238C124.961 9.68827 125.12 10.5618 125.12 11.753C125.12 12.0706 125.12 12.3883 125.12 12.7059C125.12 13.0236 125.04 13.3412 125.04 13.6589V13.8177L124.881 13.8971C124.484 13.9765 124.008 14.0559 123.531 14.1353C123.055 14.2148 122.499 14.2147 122.023 14.2941C121.546 14.2941 121.07 14.2941 120.593 14.2941ZM119.799 13.7383H120.593C120.99 13.7383 121.467 13.7383 121.943 13.6589C122.42 13.6589 122.896 13.5794 123.452 13.5C123.849 13.4206 124.246 13.4206 124.564 13.3412C124.564 13.103 124.643 12.8648 124.643 12.5471C124.643 12.2295 124.643 11.9118 124.643 11.6736C124.643 10.6412 124.484 9.8471 124.246 9.29122C124.008 8.81475 123.531 8.57652 122.817 8.57652C122.499 8.57652 122.181 8.65591 121.784 8.73533C121.467 8.81474 121.149 9.05299 120.911 9.37063C120.593 9.76769 120.355 10.2442 120.196 10.9589C120.037 11.8324 119.879 12.7059 119.799 13.7383Z" fill="white"/>
<path d="M21.3285 1.90579C21.3285 1.90579 20.5344 2.69989 20.5344 3.17636C22.6785 4.44694 25.0609 6.90872 25.9344 8.89401C25.9344 8.89401 26.5697 8.89402 27.0462 8.65579C28.4756 7.94108 28.9521 5.95577 28.7933 4.44695C28.6344 2.93813 27.2844 2.6999 26.808 2.30285C26.3315 1.90579 26.4903 0.873424 24.7433 0.555777C22.9962 0.158718 21.3285 1.90579 21.3285 1.90579Z" fill="#E7E7E7"/>
<path d="M9.97277 2.46186C9.97277 2.46186 15.611 -0.158735 21.4875 3.57362C27.364 7.30597 27.1257 13.2619 27.1257 13.2619C27.1257 13.2619 30.5404 19.5354 24.5845 23.903C18.6287 28.2707 11.8787 26.7619 10.3698 26.1266C8.94042 25.5707 6.31983 4.1295 9.97277 2.46186Z" fill="#EFEFEF"/>
<path d="M16.3256 1.74705C12.6726 1.27058 9.97264 2.54116 9.97264 2.54116C6.3197 4.20881 4.57264 9.21175 4.41382 11.6735C4.33441 13.7382 2.98442 14.0559 2.98442 18.2647C2.90501 23.347 8.94029 25.5706 10.3697 26.2059C11.1638 26.5235 13.4668 27.1588 16.2462 27V1.74705H16.3256Z" fill="#F8F8F8"/>
<path d="M13.5462 9.13244C11.5609 8.10009 9.57564 9.5295 9.01976 10.8001C8.06682 12.8648 6.95506 15.1677 6.71682 15.6442C5.92271 17.3119 7.74918 18.3442 9.17859 17.9472C10.4492 17.5501 12.2757 16.9148 14.3404 14.9295C16.4845 12.8648 15.6109 10.1648 13.5462 9.13244ZM12.5139 13.9766C12.3551 13.6589 11.8786 13.4207 11.3227 13.4207C10.9257 13.4207 10.5286 13.5795 10.2904 13.8178C10.3698 13.3413 10.6874 12.5472 11.4815 12.6266C12.2756 12.706 12.5139 13.4207 12.5139 13.9766ZM17.9139 14.9295C19.9786 16.9148 21.8051 17.5501 23.0757 17.9472C24.5051 18.3442 26.3315 17.3913 25.5374 15.6442C25.2992 15.1677 24.1874 12.8648 23.2345 10.8001C22.5992 9.45009 20.6933 8.02067 18.708 9.13244C16.8021 10.1648 15.8492 12.8648 17.9139 14.9295ZM19.8198 13.9766C19.8198 13.4207 20.058 12.706 20.8521 12.706C21.6463 12.6266 21.9639 13.4207 22.0433 13.8971C21.8051 13.6589 21.4874 13.5001 21.0109 13.5001C20.5345 13.4207 20.058 13.6589 19.8198 13.9766C19.8992 13.9766 19.8198 13.9766 19.8198 13.9766Z" fill="#E7E7E7"/>
<path d="M20.3756 24.6971C18.4697 25.4912 15.6108 25.8883 12.1961 25.0147C6.5579 23.4265 9.41673 16.1206 15.8491 16.1206C22.202 16.0412 26.1726 22.3147 20.3756 24.6971Z" fill="#F8F8F8"/>
<path d="M16.3255 25.4913V16.0413C16.1667 16.0413 16.0079 16.0413 15.849 16.0413C9.41669 16.0413 6.63727 23.4266 12.1961 24.9354C13.7049 25.3324 15.0549 25.4913 16.3255 25.4913Z" fill="white"/>
<path d="M21.0904 20.7265C21.011 21.2824 20.3757 21.8383 18.8669 21.6001C17.7551 21.4412 17.1198 20.7265 16.8816 20.3295C17.2787 20.25 17.5169 19.853 17.9139 19.5353C18.3904 19.1383 18.8669 18.9001 18.9463 18.503C19.0257 18.1059 18.9463 17.6295 17.8345 17.3912C16.7228 17.2324 16.8816 17.9471 15.4522 17.4706C14.0228 16.9148 13.7051 17.9471 13.7051 18.5824C13.7051 19.2177 14.7375 19.5353 15.4522 20.0118C15.7698 20.1706 15.9287 20.3295 16.0875 20.3295C15.8492 20.6471 15.214 21.4412 14.1022 21.6001C12.5934 21.8383 11.9581 21.2824 11.8786 20.7265C11.7992 20.1706 11.3228 20.8853 11.7992 21.5206C12.2757 22.1559 13.5463 22.95 14.9757 22.2353C15.9286 21.7589 16.3257 21.2824 16.4845 20.8059C16.6434 21.2824 17.0404 21.7589 17.9934 22.2353C19.4228 22.95 20.6934 22.1559 21.1698 21.5206C21.6463 20.8059 21.1698 20.1706 21.0904 20.7265ZM4.89042 8.73534C5.76395 8.81475 6.47864 8.4177 6.63746 8.10006C6.71687 7.94123 6.71687 7.78241 6.63746 7.703C6.79628 7.54417 6.8757 7.30594 6.71688 6.90888C6.71688 6.82947 6.63746 6.59123 6.63746 6.51182C6.63746 6.51182 6.71689 6.4324 6.95513 6.4324C7.03454 6.4324 7.11394 6.4324 7.19335 6.4324C7.35218 6.35299 7.511 6.353 7.511 6.19418C7.511 6.03535 7.4316 5.95595 7.35219 5.87654C7.27277 5.79712 7.11393 5.7177 7.03452 5.63829C6.95511 5.55887 6.79629 5.47947 6.79629 5.40006C6.79629 5.32065 6.87572 5.24123 6.95513 5.24123C7.03454 5.24123 7.19334 5.24123 7.43158 5.32064C7.51099 5.40006 7.66983 5.40006 7.74925 5.40006C7.90807 5.47947 7.98747 5.40006 7.98747 5.32064C8.06688 5.24123 8.06689 5.08241 8.06689 4.92359C8.22571 4.92359 8.38454 5.00301 8.54336 5.08242C8.70219 5.16183 8.78159 5.16181 8.86101 5.16181C9.09924 5.16181 9.17865 5.00299 9.17865 4.84417C9.17865 4.76476 9.17865 4.76475 9.17865 4.76475C9.33747 4.76475 9.65512 4.60595 9.65512 4.2883H9.73454C9.73454 4.2883 9.81394 4.2883 9.89335 4.2883C10.0522 4.2883 10.2904 4.28829 10.4492 4.05005C10.5287 3.89123 10.6081 3.7324 10.6081 3.57358C10.6081 3.57358 10.6081 3.5736 10.6081 3.49418C10.5286 2.54124 10.1316 0.317713 7.43158 -0.0793457C7.35217 6.60568e-05 7.19336 4.6663e-05 6.95513 4.6663e-05C4.96983 4.6663e-05 3.461 1.27064 2.42865 3.73241C1.79335 5.32064 1.71394 7.30595 3.30218 8.25889C3.54042 8.41771 3.69923 8.49712 3.93746 8.57653" fill="#E7E7E7"/>
</g>
<defs>
<clipPath id="clip0_114_4910">
<rect width="127.059" height="27" fill="white" transform="translate(0.840332)"/>
</clipPath>
</defs>
</svg>
