<svg width="175" height="27" viewBox="0 0 175 27" fill="none" xmlns="http://www.w3.org/2000/svg">
<mask id="mask0_114_4907" style="mask-type:alpha" maskUnits="userSpaceOnUse" x="26" y="9" width="15" height="18">
<path d="M35.3433 9.70923L40.2205 20.6745C41.2075 22.8934 40.2105 25.4931 37.9938 26.481C35.777 27.469 33.1799 26.471 32.1929 24.2521L28.2503 15.388L26.5127 19.4855V9.70923H35.3433V9.70923Z" fill="white"/>
</mask>
<g mask="url(#mask0_114_4907)">
<path d="M35.3433 9.70923L40.2205 20.6745C41.2075 22.8934 40.2105 25.4931 37.9938 26.481C35.777 27.469 33.1799 26.471 32.1929 24.2521L28.2503 15.388L26.5127 19.4855V9.70923H35.3433V9.70923Z" fill="white"/>
</g>
<mask id="mask1_114_4907" style="mask-type:alpha" maskUnits="userSpaceOnUse" x="27" y="10" width="10" height="8">
<path d="M35.8719 10.8977L36.881 13.1664C36.2715 12.9545 35.6167 12.8393 34.935 12.8393C32.1191 12.8393 29.7623 14.8044 29.1619 17.4376L28.2503 15.3881L27.2842 17.6664L27.2842 10.8977H35.8719Z" fill="white"/>
</mask>
<g mask="url(#mask1_114_4907)">
<path d="M35.8717 10.8977L36.8808 13.1664C36.2713 12.9545 35.6165 12.8393 34.9347 12.8393C32.1188 12.8393 29.762 14.8044 29.1617 17.4376L28.2501 15.3881L27.2839 17.6664L27.2839 10.8977H35.8717Z" fill="white" fill-opacity="0.2"/>
</g>
<mask id="mask2_114_4907" style="mask-type:alpha" maskUnits="userSpaceOnUse" x="2" y="0" width="20" height="18">
<path d="M21.194 9.51664V17.2816H13.0688L12.2265 15.388L11.4235 17.2816H2.43604V15.9641L8.06894 2.68068C8.78136 1.00066 10.4148 -0.00595543 12.1305 2.65126e-05C13.8184 -0.00585654 15.4313 0.967642 16.1619 2.61025L20.2373 11.7726L21.194 9.51664Z" fill="white"/>
</mask>
<g mask="url(#mask2_114_4907)">
<path d="M21.1937 9.51664V17.2816H13.0685L12.2262 15.388L11.4232 17.2816H2.43579V15.9641L8.0687 2.68068C8.78112 1.00066 10.4145 -0.00595543 12.1303 2.65126e-05C13.8181 -0.00585654 15.4311 0.967642 16.1617 2.61025L20.2371 11.7726L21.1937 9.51664Z" fill="white"/>
</g>
<mask id="mask3_114_4907" style="mask-type:alpha" maskUnits="userSpaceOnUse" x="12" y="0" width="25" height="27">
<path d="M20.2313 11.7594L20.2372 11.7726L24.0928 2.68068C24.8052 1.00066 26.4386 -0.00595543 28.1543 2.65126e-05C29.8422 -0.00585654 31.4552 0.967642 32.1858 2.61025L36.8769 13.1571C35.9309 12.3393 34.6983 11.8448 33.3503 11.8448C31.0082 11.8448 29.0145 13.3378 28.2668 15.4251L28.2503 15.388L24.4629 24.3193C23.5148 26.5552 20.9354 27.5983 18.7018 26.6492C18.4833 26.5564 18.2761 26.4479 18.0812 26.3256C17.262 25.8798 16.5776 25.1705 16.1691 24.2521L12.2417 15.4223C12.8329 15.5918 13.4573 15.6825 14.1029 15.6825C16.8195 15.6825 19.1612 14.0756 20.2313 11.7594Z" fill="white"/>
</mask>
<g mask="url(#mask3_114_4907)">
<path d="M20.2311 11.7594L20.237 11.7726L24.0925 2.68068C24.8049 1.00066 26.4384 -0.00595543 28.1541 2.65126e-05C29.8419 -0.00585654 31.4549 0.967642 32.1855 2.61025L36.8767 13.1571C35.9306 12.3393 34.698 11.8448 33.3501 11.8448C31.008 11.8448 29.0142 13.3378 28.2666 15.4251L28.2501 15.388L24.4627 24.3193C23.5145 26.5552 20.9352 27.5983 18.7016 26.6492C18.483 26.5564 18.2759 26.4479 18.0809 26.3256C17.2618 25.8798 16.5774 25.1705 16.1688 24.2521L12.2415 15.4223C12.8327 15.5918 13.4571 15.6825 14.1027 15.6825C16.8192 15.6825 19.1609 14.0756 20.2311 11.7594Z" fill="white"/>
</g>
<mask id="mask4_114_4907" style="mask-type:alpha" maskUnits="userSpaceOnUse" x="1" y="11" width="12" height="12">
<path d="M12.2018 15.4454L9.37354 22.1149C8.68379 22.4319 7.9152 22.6084 7.10492 22.6084C4.2626 22.6084 1.93318 20.4364 1.7207 17.6502L3.66164 13.0731C4.59629 12.2984 5.79624 11.8328 7.10492 11.8328C9.46051 11.8328 11.4638 13.3414 12.2018 15.4454Z" fill="white"/>
</mask>
<g mask="url(#mask4_114_4907)">
<path d="M12.2018 15.4454L9.37354 22.1149C8.68379 22.4319 7.9152 22.6084 7.10492 22.6084C4.2626 22.6084 1.93318 20.4364 1.7207 17.6502L3.66164 13.0731C4.59629 12.2984 5.79624 11.8328 7.10492 11.8328C9.46051 11.8328 11.4638 13.3414 12.2018 15.4454Z" fill="white"/>
</g>
<mask id="mask5_114_4907" style="mask-type:alpha" maskUnits="userSpaceOnUse" x="0" y="12" width="12" height="15">
<path d="M11.3721 17.4029L8.43914 24.3192C7.49102 26.555 4.91168 27.5982 2.67804 26.6491C0.4444 25.7001 -0.597718 23.1182 0.350407 20.8824L3.60714 13.2024C4.29653 12.8969 5.059 12.7273 5.86092 12.7273C8.62946 12.7273 10.9278 14.7491 11.3721 17.4029Z" fill="white"/>
</mask>
<g mask="url(#mask5_114_4907)">
<path d="M11.3718 17.4029L8.4389 24.3192C7.49077 26.555 4.91144 27.5982 2.6778 26.6491C0.444156 25.7001 -0.597962 23.1182 0.350163 20.8824L3.60689 13.2024C4.29629 12.8969 5.05876 12.7273 5.86068 12.7273C8.62922 12.7273 10.9276 14.7491 11.3718 17.4029Z" fill="white"/>
</g>
<path d="M65.1213 6.76998V20.2819C65.1213 20.4898 64.9529 20.6583 64.7452 20.6583H62.1123C61.9046 20.6583 61.7362 20.4898 61.7362 20.2819V12.456C61.7362 12.2481 61.5678 12.0796 61.3601 12.0796C61.2365 12.0796 61.1208 12.1403 61.0506 12.242L58.6137 15.7723C58.5435 15.874 58.4278 15.9347 58.3042 15.9347H57.008C56.8835 15.9347 56.7671 15.8731 56.697 15.77L54.3367 12.2974C54.2198 12.1255 53.9859 12.081 53.8141 12.1979C53.7112 12.268 53.6495 12.3845 53.6495 12.5091V20.2819C53.6495 20.4898 53.4811 20.6583 53.2734 20.6583H50.6405C50.4328 20.6583 50.2644 20.4898 50.2644 20.2819V6.76998C50.2644 6.56211 50.4328 6.3936 50.6405 6.3936H53.975C54.1007 6.3936 54.218 6.45639 54.2878 6.56095L57.3801 11.1942C57.4955 11.3671 57.729 11.4136 57.9018 11.2982C57.9429 11.2707 57.9782 11.2354 58.0057 11.1942L61.0979 6.56095C61.1677 6.45639 61.2851 6.3936 61.4107 6.3936H64.7452C64.9529 6.3936 65.1213 6.56211 65.1213 6.76998ZM69.7366 16.3488C69.8745 16.951 70.1597 17.4214 70.5923 17.7602C71.0248 18.0989 71.6611 18.2683 72.5011 18.2683C72.9901 18.2683 73.4571 18.2087 73.9022 18.0895C74.1447 18.0245 74.5305 17.8764 75.0594 17.6452C75.2497 17.5619 75.4715 17.6489 75.5546 17.8393C75.5591 17.8495 75.563 17.8598 75.5665 17.8702L76.1743 19.6813C76.2355 19.8636 76.1495 20.0627 75.9749 20.1431C75.2621 20.4711 74.7185 20.6773 74.3441 20.7618C73.7047 20.9061 72.9399 20.9782 72.0498 20.9782C70.8085 20.9782 69.7523 20.743 68.8809 20.2725C68.0095 19.802 67.3482 19.1402 66.8968 18.2871C66.4455 17.434 66.2198 16.4429 66.2198 15.3137C66.2198 14.1344 66.4518 13.1213 66.9156 12.2745C67.3795 11.4276 68.0064 10.7878 68.7963 10.355C69.5861 9.92213 70.47 9.70572 71.448 9.70572C73.0151 9.70572 74.2438 10.1605 75.134 11.0701C76.0241 11.9797 76.4692 13.3064 76.4692 15.0503V15.9724C76.4692 16.1803 76.3008 16.3488 76.0931 16.3488H69.7366ZM71.448 12.4156C70.9966 12.4156 70.6299 12.5285 70.3478 12.7544C70.1433 12.9418 69.9904 13.1569 69.8891 13.3998C69.8091 13.5916 69.8996 13.812 70.0913 13.8921C70.1372 13.9113 70.1864 13.9211 70.2362 13.9211H72.586C72.7937 13.9211 72.9621 13.7526 72.9621 13.5448C72.9621 13.512 72.9578 13.4793 72.9494 13.4477C72.8716 13.1561 72.7441 12.9312 72.5669 12.7732C72.2814 12.5375 71.9369 12.4156 71.448 12.4156ZM90.4813 9.78099C91.8354 9.78099 92.8478 10.1385 93.5185 10.8537C94.1893 11.5688 94.5247 12.7042 94.5247 14.2599V20.2819C94.5247 20.4898 94.3563 20.6583 94.1485 20.6583H91.6285C91.4208 20.6583 91.2524 20.4898 91.2524 20.2819V14.2599C91.2524 13.7455 91.1395 13.3534 90.9139 13.0837C90.6882 12.814 90.2995 12.6791 89.7479 12.6791C89.0709 12.6791 88.3813 12.9802 87.6792 13.5824C87.6917 13.7204 87.698 13.9462 87.698 14.2599V20.2819C87.698 20.4898 87.5296 20.6583 87.3219 20.6583H84.8018C84.5941 20.6583 84.4257 20.4898 84.4257 20.2819V14.2599C84.4257 13.7455 84.3129 13.3534 84.0872 13.0837C83.8615 12.814 83.4729 12.6791 82.9212 12.6791C82.2567 12.6791 81.5734 12.9676 80.8713 13.5448V20.2819C80.8713 20.4898 80.7029 20.6583 80.4952 20.6583H77.9752C77.7674 20.6583 77.599 20.4898 77.599 20.2819V10.3832C77.599 10.1753 77.7674 10.0068 77.9752 10.0068H80.4952C80.7029 10.0068 80.8713 10.1753 80.8713 10.3832V10.8348C81.3101 10.471 81.7521 10.2044 82.1972 10.035C82.6423 9.86568 83.1281 9.78099 83.6547 9.78099C85.3222 9.78099 86.4631 10.3142 87.0774 11.3806C87.6416 10.8286 88.1901 10.424 88.7229 10.1668C89.2558 9.90959 89.8419 9.78099 90.4813 9.78099ZM101.955 9.70572C102.908 9.70572 103.751 9.91586 104.485 10.3361C105.218 10.7564 105.795 11.39 106.215 12.2368C106.635 13.0837 106.845 14.1156 106.845 15.3325C106.845 16.562 106.635 17.6002 106.215 18.4471C105.795 19.2939 105.218 19.9275 104.485 20.3478C103.751 20.768 102.908 20.9782 101.955 20.9782C100.94 20.9782 99.9868 20.6395 99.0966 19.962V20.2819C99.0966 20.4898 98.9282 20.6583 98.7205 20.6583H96.2004C95.9927 20.6583 95.8243 20.4898 95.8243 20.2819V5.11393C95.8243 4.90606 95.9927 4.73755 96.2004 4.73755H98.7205C98.9282 4.73755 99.0966 4.90606 99.0966 5.11393V10.7219C99.9868 10.0445 100.94 9.70572 101.955 9.70572ZM101.241 18.0801C101.968 18.0801 102.516 17.848 102.886 17.3838C103.256 16.9196 103.441 16.2359 103.441 15.3325C103.441 14.4418 103.256 13.7643 102.886 13.3001C102.516 12.8359 101.968 12.6038 101.241 12.6038C100.526 12.6038 99.8113 12.861 99.0966 13.3754V17.3085C99.8113 17.8229 100.526 18.0801 101.241 18.0801ZM110.99 16.3488C111.128 16.951 111.413 17.4214 111.846 17.7602C112.278 18.0989 112.914 18.2683 113.754 18.2683C114.243 18.2683 114.71 18.2087 115.155 18.0895C115.398 18.0245 115.784 17.8764 116.313 17.6452C116.503 17.5619 116.725 17.6489 116.808 17.8393C116.812 17.8495 116.816 17.8598 116.82 17.8702L117.428 19.6813C117.489 19.8636 117.403 20.0627 117.228 20.1431C116.515 20.4711 115.972 20.6773 115.597 20.7618C114.958 20.9061 114.193 20.9782 113.303 20.9782C112.062 20.9782 111.006 20.743 110.134 20.2725C109.263 19.802 108.601 19.1402 108.15 18.2871C107.699 17.434 107.473 16.4429 107.473 15.3137C107.473 14.1344 107.705 13.1213 108.169 12.2745C108.633 11.4276 109.26 10.7878 110.05 10.355C110.839 9.92213 111.723 9.70572 112.701 9.70572C114.268 9.70572 115.497 10.1605 116.387 11.0701C117.277 11.9797 117.723 13.3064 117.723 15.0503V15.9724C117.723 16.1803 117.554 16.3488 117.346 16.3488H110.99ZM112.701 12.4156C112.25 12.4156 111.883 12.5285 111.601 12.7544C111.397 12.9418 111.244 13.1569 111.142 13.3998C111.062 13.5916 111.153 13.812 111.345 13.8921C111.39 13.9113 111.44 13.9211 111.489 13.9211H113.839C114.047 13.9211 114.215 13.7526 114.215 13.5448C114.215 13.512 114.211 13.4793 114.203 13.4477C114.125 13.1561 113.997 12.9312 113.82 12.7732C113.535 12.5375 113.19 12.4156 112.701 12.4156ZM125.483 10.1574V12.3027C125.483 12.5106 125.315 12.6791 125.107 12.6791H125.051C124.949 12.6791 124.847 12.6829 124.745 12.6906C123.881 12.7558 123.018 13.097 122.155 13.7141V20.2819C122.155 20.4898 121.986 20.6583 121.778 20.6583H119.258C119.051 20.6583 118.882 20.4898 118.882 20.2819V10.3832C118.882 10.1753 119.051 10.0068 119.258 10.0068H121.778C121.986 10.0068 122.155 10.1753 122.155 10.3832V10.9478C122.618 10.5588 123.085 10.2671 123.556 10.0727C123.991 9.8927 124.45 9.79601 124.934 9.78261C124.972 9.78153 125.011 9.78099 125.051 9.78099H125.107C125.315 9.78099 125.483 9.9495 125.483 10.1574ZM130.562 20.9782C129.672 20.9782 128.885 20.9061 128.202 20.7618C127.79 20.6748 127.368 20.5503 126.936 20.3882C126.784 20.3313 126.569 20.2414 126.291 20.1185C126.155 20.0583 126.067 19.9233 126.067 19.7742V17.7548C126.067 17.547 126.236 17.3785 126.443 17.3785C126.501 17.3785 126.558 17.3917 126.609 17.4171C126.75 17.4862 126.868 17.5411 126.963 17.5819C127.383 17.7613 127.806 17.9023 128.23 18.0048C128.957 18.1805 129.735 18.2683 130.562 18.2683C131.377 18.2683 131.784 18.0236 131.784 17.5343C131.784 17.3336 131.728 17.1831 131.615 17.0827C131.502 16.9823 131.321 16.9008 131.07 16.838L129.246 16.4617C128.18 16.2484 127.403 15.8846 126.914 15.3702C126.425 14.8558 126.18 14.1532 126.18 13.2625C126.18 12.0581 126.553 11.1642 127.299 10.5808C128.045 9.99741 129.177 9.70572 130.694 9.70572C131.321 9.70572 131.976 9.76845 132.659 9.89391C133.05 9.96573 133.43 10.0499 133.799 10.1464C133.933 10.1815 134.113 10.2331 134.338 10.3013C134.497 10.3493 134.605 10.4956 134.605 10.6616V12.609C134.605 12.8168 134.437 12.9853 134.229 12.9853C134.184 12.9853 134.139 12.9771 134.097 12.9611C134.002 12.9255 133.918 12.896 133.845 12.8727C133.547 12.7775 133.22 12.6942 132.866 12.6226C132.183 12.4846 131.515 12.4156 130.863 12.4156C130.349 12.4156 129.992 12.4658 129.791 12.5662C129.59 12.6665 129.49 12.8234 129.49 13.0366C129.49 13.1997 129.54 13.3158 129.641 13.3848C129.741 13.4538 129.91 13.5134 130.148 13.5636L131.973 13.94C133.076 14.1658 133.872 14.5359 134.361 15.0503C134.85 15.5646 135.094 16.3299 135.094 17.3462C135.094 18.5631 134.687 19.4727 133.872 20.0749C133.057 20.6771 131.954 20.9782 130.562 20.9782ZM140.324 13.6577V16.8757C140.324 17.2897 140.393 17.5814 140.531 17.7508C140.668 17.9201 140.919 18.0048 141.283 18.0048C141.522 18.0048 141.747 17.988 141.956 17.9545C141.957 17.9545 141.957 17.9544 141.957 17.9544C142.162 17.9216 142.355 18.0614 142.388 18.2666C142.391 18.2863 142.392 18.3062 142.392 18.3261V20.3311C142.392 20.511 142.265 20.6657 142.089 20.7004C142.072 20.7037 142.057 20.7066 142.043 20.7093C141.766 20.7631 141.522 20.8057 141.311 20.837C141.016 20.881 140.7 20.9029 140.361 20.9029C139.245 20.9029 138.415 20.6583 137.869 20.169C137.324 19.6797 137.051 18.9771 137.051 18.0613V13.6577C137.051 13.4498 136.883 13.2813 136.675 13.2813H135.961C135.753 13.2813 135.584 13.1128 135.584 12.9049V10.7596C135.584 10.5517 135.753 10.3832 135.961 10.3832H136.675C136.883 10.3832 137.051 10.2147 137.051 10.0068V7.184C137.051 6.97613 137.22 6.80762 137.428 6.80762H139.948C140.155 6.80762 140.324 6.97613 140.324 7.184V10.0068C140.324 10.2147 140.492 10.3832 140.7 10.3832H142.355C142.562 10.3832 142.731 10.5517 142.731 10.7596V12.9049C142.731 13.1128 142.562 13.2813 142.355 13.2813H140.7C140.492 13.2813 140.324 13.4498 140.324 13.6577ZM148.085 10.0068C149.464 10.0068 150.514 10.1919 151.235 10.562C151.956 10.9321 152.435 11.4245 152.674 12.0393C152.912 12.654 153.031 13.4381 153.031 14.3916V20.2819C153.031 20.4898 152.863 20.6583 152.655 20.6583H150.135C149.927 20.6583 149.759 20.4898 149.759 20.2819V19.7926C149.32 20.1941 148.887 20.4795 148.461 20.6489C148.035 20.8182 147.565 20.9029 147.051 20.9029C145.847 20.9029 144.904 20.5861 144.22 19.9526C143.537 19.319 143.195 18.4377 143.195 17.3085C143.195 16.1668 143.543 15.2886 144.239 14.6739C144.935 14.0591 145.903 13.7518 147.145 13.7518C148.173 13.7518 149.044 13.9399 149.759 14.3163C149.746 13.965 149.693 13.6859 149.599 13.4789C149.505 13.2719 149.317 13.1119 149.035 12.999C148.753 12.8861 148.342 12.8296 147.803 12.8296H146.035C145.827 12.8296 145.659 12.6611 145.659 12.4533V10.3832C145.659 10.1753 145.827 10.0068 146.035 10.0068H148.085ZM147.259 18.3812C147.899 18.3812 148.569 18.0926 149.271 17.5155V16.5181C148.67 16.2296 148.062 16.0853 147.447 16.0853C146.996 16.0853 146.645 16.1825 146.394 16.377C146.143 16.5715 146.018 16.8694 146.018 17.2709C146.018 17.6849 146.125 17.9735 146.338 18.1365C146.551 18.2996 146.858 18.3812 147.259 18.3812ZM159.339 20.9782C157.584 20.9656 156.242 20.4669 155.315 19.4821C154.387 18.4972 153.923 17.1078 153.923 15.3137C153.923 13.5322 154.387 12.1553 155.315 11.183C156.242 10.2107 157.584 9.71826 159.339 9.70572C159.979 9.70572 160.524 9.74335 160.975 9.81863C161.256 9.86543 161.544 9.93648 161.839 10.0318C161.915 10.0562 162.016 10.092 162.141 10.1392C162.288 10.1942 162.386 10.3347 162.386 10.4917V12.6297C162.386 12.8376 162.217 13.0061 162.01 13.0061C161.962 13.0061 161.914 12.9969 161.869 12.979C161.845 12.9692 161.823 12.9604 161.802 12.9526C161.552 12.8579 161.311 12.7855 161.079 12.7355C160.671 12.6477 160.217 12.6038 159.715 12.6038C158.875 12.6164 158.267 12.8485 157.891 13.3001C157.515 13.7518 157.327 14.4167 157.327 15.2949C157.327 16.1982 157.509 16.8882 157.872 17.365C158.236 17.8417 158.819 18.0801 159.621 18.0801C160.073 18.0801 160.508 18.0111 160.928 17.8731C161.159 17.7971 161.395 17.6983 161.636 17.5767C161.692 17.5483 161.761 17.511 161.843 17.4648C162.024 17.3624 162.253 17.426 162.355 17.6069C162.367 17.6273 162.377 17.6488 162.384 17.6711L163.056 19.6456C163.115 19.8191 163.04 20.0098 162.879 20.0974C162.727 20.1804 162.603 20.2441 162.509 20.2887C161.531 20.7484 160.475 20.9782 159.339 20.9782ZM168.029 17.1015L167.164 18.0236V20.2819C167.164 20.4898 166.995 20.6583 166.788 20.6583H164.267C164.06 20.6583 163.891 20.4898 163.891 20.2819V5.11393C163.891 4.90606 164.06 4.73755 164.267 4.73755H166.66H166.788C166.995 4.73755 167.164 4.90606 167.164 5.11393V5.23208V13.94L170.381 10.5023C170.452 10.4263 170.551 10.3832 170.655 10.3832H173.531C173.739 10.3832 173.907 10.5517 173.907 10.7596C173.907 10.8557 173.87 10.9483 173.804 11.0181L170.173 14.8621L174.262 20.0488C174.391 20.212 174.363 20.4486 174.2 20.5774C174.133 20.6298 174.051 20.6583 173.967 20.6583H171.013C170.898 20.6583 170.789 20.6054 170.718 20.5149L168.029 17.1015Z" fill="white"/>
</svg>
