<svg width="203" height="27" viewBox="0 0 203 27" fill="none" xmlns="http://www.w3.org/2000/svg">
<g clip-path="url(#clip0_114_4908)">
<path d="M140.105 10.5924C140.105 7.26932 138.028 4.88086 134.186 4.88086H121.516V22.1193H125.67V16.2001H130.551L135.328 22.1193H140.001V21.7039L135.328 16.0962C138.339 15.4732 140.105 13.2924 140.105 10.5924ZM133.666 12.6693H125.67V8.41163H133.666C135.12 8.41163 136.055 9.2424 136.055 10.5924C136.159 11.9424 135.224 12.6693 133.666 12.6693Z" fill="white"/>
<path d="M202.828 4.77686H198.986V11.3192H188.497V4.77686H184.343V22.0153H188.497V15.2653H198.986V22.0153H202.828V4.77686Z" fill="white"/>
<path d="M110.405 4.77686L105.836 19.2115H105.628L100.955 4.77686H93.5818V22.0153H97.5279V7.89224H97.7356L102.305 22.0153H108.639L113.313 7.89224H113.52V22.0153H117.57V4.77686H110.405Z" fill="white"/>
<path d="M65.2317 11.8385C63.7779 11.7347 61.0779 11.4231 59.5202 11.3193C58.0663 11.2154 57.2355 10.6962 57.2355 9.76157C57.2355 8.82696 58.1702 8.10003 61.7009 8.10003C64.8163 8.10003 67.724 8.82696 70.3202 9.96927V6.12696C67.8279 4.8808 65.024 4.36157 61.4932 4.36157C56.6125 4.36157 53.1855 6.4385 53.1855 9.86542C53.1855 12.7731 55.1586 14.4347 59.2086 14.85C60.6625 15.0577 63.1548 15.2654 64.8163 15.3693C66.6855 15.4731 67.2048 16.0962 67.2048 16.927C67.2048 18.0693 65.8548 18.7962 62.6355 18.7962C59.3125 18.7962 55.8855 17.6539 53.3932 16.2V20.1462C55.3663 21.4962 58.6894 22.5347 62.5317 22.5347C67.8279 22.5347 71.2548 20.4577 71.2548 16.8231C71.2548 14.0193 69.4894 12.2539 65.2317 11.8385Z" fill="white"/>
<path d="M74.0588 4.77686V22.0153H90.0511V18.4845H78.005V14.9538H89.8435V11.423H78.005V8.30762H90.0511V4.77686H74.0588Z" fill="white"/>
<path d="M175.724 11.8385C174.27 11.7347 171.57 11.4231 170.013 11.3193C168.559 11.2154 167.728 10.6962 167.728 9.76157C167.728 8.82696 168.663 8.10003 172.193 8.10003C175.309 8.10003 178.216 8.72311 180.813 9.96927V6.12696C178.32 4.8808 175.516 4.36157 171.986 4.36157C167.105 4.36157 163.678 6.4385 163.678 9.86542C163.678 12.7731 165.651 14.4347 169.701 14.85C171.155 15.0577 173.647 15.2654 175.309 15.3693C177.178 15.4731 177.697 16.0962 177.697 16.927C177.697 18.0693 176.347 18.7962 173.128 18.7962C169.805 18.7962 166.378 17.6539 163.886 16.2V20.1462C165.859 21.4962 169.182 22.5347 173.024 22.5347C178.32 22.5347 181.747 20.4577 181.747 16.8231C181.747 14.0193 179.878 12.2539 175.724 11.8385Z" fill="white"/>
<path d="M156.72 4.77686V13.6038C156.72 16.9269 154.643 18.7961 151.632 18.7961C148.516 18.7961 146.543 17.0307 146.543 13.6038V4.77686H142.389V13.1884C142.389 19.4192 146.336 22.5345 151.632 22.5345C156.824 22.5345 160.77 19.523 160.77 13.3961V4.77686H156.72Z" fill="white"/>
<path d="M39.0626 13.2923C39.0626 14.1231 38.6472 14.2269 37.6087 14.2269C36.4664 14.2269 36.2587 14.0192 36.1549 13.1885C35.9472 11.0077 34.4933 9.13846 32.001 9.03462C31.2741 8.93077 31.0664 8.72308 31.0664 7.68462C31.0664 6.75 31.1703 6.33462 31.8972 6.33462C36.051 6.43846 39.0626 9.86539 39.0626 13.2923ZM45.1895 13.2923C45.1895 6.85385 40.828 0 30.651 0H10.6087C10.1933 0 9.88181 0.207692 9.88181 0.623077C9.88181 0.830769 9.98566 1.03846 10.1933 1.14231C10.9203 1.76538 11.9587 2.38846 13.4126 3.11538C14.7626 3.84231 15.9049 4.25769 16.9433 4.67308C17.3587 4.88077 17.5664 5.08846 17.5664 5.29615C17.5664 5.60769 17.3587 5.91923 16.8395 5.91923H0.951044C0.431813 5.81538 0.224121 6.12692 0.224121 6.43846C0.224121 6.75 0.327967 6.95769 0.535659 7.16538C1.78181 8.51538 3.85874 10.1769 6.87027 12.0462C9.46643 13.7077 12.7895 15.4731 15.3857 16.7192C15.801 16.9269 16.0087 17.1346 16.0087 17.4462C16.0087 17.7577 15.801 17.9654 15.2818 17.9654H7.90873C7.49335 17.9654 7.28566 18.1731 7.28566 18.4846C7.28566 18.6923 7.3895 18.9 7.5972 19.1077C9.25873 20.6654 11.9587 22.2231 15.4895 23.7808C20.2664 25.7538 25.0433 27 30.4433 27C40.7241 27 45.1895 19.3154 45.1895 13.2923ZM31.7933 22.5346C26.8087 22.5346 22.551 18.4846 22.551 13.2923C22.551 8.30769 26.7049 4.25769 31.7933 4.25769C36.9857 4.25769 41.0357 8.30769 41.0357 13.2923C41.0357 18.3808 36.9857 22.5346 31.7933 22.5346Z" fill="white"/>
</g>
<defs>
<clipPath id="clip0_114_4908">
<rect width="202.604" height="27" fill="white" transform="translate(0.224121)"/>
</clipPath>
</defs>
</svg>
