<svg width="122" height="27" viewBox="0 0 122 27" fill="none" xmlns="http://www.w3.org/2000/svg">
<g style="mix-blend-mode:luminosity" clip-path="url(#clip0_114_4911)">
<path d="M33.0518 5.65723H35.1089V11.3786C35.9446 10.1572 37.1017 9.51434 38.4517 9.51434C40.316 9.51434 41.4089 10.5429 41.4089 12.6001V19.6072H39.3518V13.1786C39.3518 11.7643 38.8374 11.3786 37.8088 11.3786C37.166 11.3786 36.5874 11.7643 36.0088 12.4715C35.4303 13.2429 35.1732 14.2072 35.1732 15.4286V19.6072H33.116L33.0518 5.65723Z" fill="white"/>
<path d="M51.6946 15.1714H44.6875C44.6875 16.7142 45.5875 17.9357 47.1304 17.9357C48.2232 17.9357 49.2518 17.2928 49.7018 16.2642L51.4375 16.9714C50.4089 18.9 49.2518 19.7357 47.0661 19.7357C43.7875 19.7357 42.4375 16.9714 42.4375 14.5928C42.4375 12.2142 43.7875 9.44995 47.0661 9.44995C50.2161 9.44995 51.6304 12.0214 51.6304 14.2714V15.1714H51.6946ZM44.7518 13.5H49.5732C49.3804 12.2785 48.5446 11.3142 47.1946 11.3142C45.8446 11.3142 45.0089 12.2142 44.7518 13.5Z" fill="white"/>
<path d="M67.766 9.51423C68.2803 9.51423 68.7303 9.64281 69.3089 9.89995C69.8232 10.1571 70.2089 10.4142 70.466 10.7357V5.59277H72.5232V19.5428H70.466V18.3857C70.0803 19.0285 68.9875 19.6714 67.766 19.6714C64.8732 19.6714 63.3303 17.8071 63.3303 14.5285C63.3303 11.4428 64.8732 9.51423 67.766 9.51423ZM65.4517 14.5928C65.4517 15.6214 65.7089 16.3928 66.1589 17.0357C66.6089 17.6142 67.2517 17.9357 67.9589 17.9357C68.7303 17.9357 69.3089 17.6142 69.7589 17.0357C70.2089 16.4571 70.466 15.6214 70.466 14.5928C70.466 13.5642 70.2089 12.7928 69.7589 12.2142C69.3089 11.6357 68.666 11.3142 67.9589 11.3142C67.1875 11.3142 66.6089 11.6357 66.1589 12.2142C65.7089 12.7928 65.4517 13.6285 65.4517 14.5928Z" fill="white"/>
<path d="M80.3018 11.0573L79.016 12.2144C78.566 11.6358 77.9875 11.3144 77.2803 11.3144C76.7018 11.3144 76.316 11.7001 76.316 12.2787C76.316 12.4715 76.3803 12.7287 76.5732 12.8573C76.8946 13.1787 77.216 13.3715 78.116 13.693C78.8232 13.9501 79.0803 14.0787 79.6589 14.4001C80.4303 14.8501 80.816 15.493 80.8803 16.5215C80.8803 17.4215 80.5589 18.1287 79.916 18.7715C79.2732 19.3501 78.4375 19.6715 77.4089 19.6715C75.5446 19.6715 74.1946 18.4501 73.5518 17.0358L75.2875 16.0715C75.8018 17.293 76.5732 17.8715 77.4732 17.8715C78.3732 17.8715 78.8232 17.4215 78.8232 16.5858C78.8232 16.2644 78.6946 16.0073 78.3089 15.8144C78.116 15.6858 77.9875 15.6215 77.7946 15.5573C77.4732 15.4287 76.766 15.1715 76.4446 15.043C75.0303 14.4644 74.3232 13.5644 74.3232 12.343C74.3232 11.5715 74.6446 10.8644 75.1589 10.3501C75.7375 9.77155 76.4446 9.5144 77.3446 9.5144C78.566 9.5144 79.6589 10.093 80.3018 11.0573Z" fill="white"/>
<path d="M86.8589 19.7358C85.7017 19.7358 84.6732 19.1573 84.2232 18.4501V23.593H82.166V9.64298H84.2232V10.8001C84.6089 10.1573 85.7017 9.5144 86.9232 9.5144C89.816 9.5144 91.3589 11.3787 91.3589 14.6573C91.2946 17.743 89.7517 19.7358 86.8589 19.7358ZM89.1732 14.593C89.1732 13.5644 88.916 12.793 88.466 12.2144C88.016 11.6358 87.3732 11.3144 86.666 11.3144C85.8946 11.3144 85.316 11.6358 84.866 12.2144C84.416 12.793 84.1589 13.6287 84.1589 14.593C84.1589 15.6215 84.416 16.393 84.866 17.0358C85.316 17.6144 85.9589 17.9358 86.666 17.9358C87.4374 17.9358 88.016 17.6144 88.466 17.0358C88.916 16.4573 89.1732 15.6215 89.1732 14.593Z" fill="white"/>
<path d="M111.544 16.9714C110.709 18.7714 109.294 19.7357 107.237 19.7357C105.759 19.7357 104.602 19.2214 103.766 18.2571C102.93 17.2928 102.544 16.0714 102.544 14.5928C102.544 13.1142 102.93 11.8928 103.766 10.9285C104.602 9.96424 105.759 9.44995 107.237 9.44995C109.294 9.44995 110.709 10.35 111.544 12.2142L109.744 12.9857C109.23 11.8285 108.394 11.25 107.302 11.25C105.63 11.25 104.794 12.6 104.794 14.5285C104.794 16.5214 105.63 17.8071 107.302 17.8071C108.394 17.8071 109.23 17.2285 109.744 16.0714L111.544 16.9714Z" fill="white"/>
<path d="M121.445 15.1714H114.438C114.438 16.7142 115.338 17.9357 116.88 17.9357C117.973 17.9357 119.002 17.2928 119.452 16.2642L121.188 16.9714C120.159 18.9 119.002 19.7357 116.816 19.7357C113.537 19.7357 112.188 16.9714 112.188 14.5928C112.188 12.2142 113.537 9.44995 116.816 9.44995C119.966 9.44995 121.38 12.0214 121.38 14.2714V15.1714H121.445ZM114.502 13.5H119.323C119.13 12.2785 118.295 11.3142 116.945 11.3142C115.595 11.3142 114.695 12.2142 114.502 13.5Z" fill="white"/>
<path d="M57.3517 9.5144C57.866 9.5144 58.3161 9.64298 58.8946 9.90012C59.4089 10.1573 59.7946 10.4144 60.0517 10.7358V9.64298H62.1089V19.6073H60.3731L60.0517 18.4501C59.666 19.093 58.5731 19.7358 57.3517 19.7358C54.4589 19.7358 52.916 17.8715 52.916 14.593C52.8517 11.5073 54.3946 9.5144 57.3517 9.5144ZM55.0375 14.6573C55.0375 15.6858 55.2946 16.4573 55.7446 17.1001C56.1946 17.6787 56.8375 18.0001 57.5446 18.0001C58.3161 18.0001 58.8946 17.6787 59.3446 17.1001C59.7946 16.5215 60.0517 15.6858 60.0517 14.6573C60.0517 13.6287 59.7946 12.8573 59.3446 12.2787C58.8946 11.7001 58.2518 11.3787 57.5446 11.3787C56.7732 11.3787 56.1946 11.7001 55.7446 12.2787C55.2946 12.793 55.0375 13.6287 55.0375 14.6573Z" fill="white"/>
<path d="M96.7589 9.5144C97.2732 9.5144 97.7232 9.64298 98.3018 9.90012C98.8161 10.1573 99.2018 10.4144 99.4589 10.7358V9.64298H101.516V19.6073H99.7804L99.4589 18.4501C99.0732 19.093 97.9804 19.7358 96.7589 19.7358C93.8661 19.7358 92.3232 17.8715 92.3232 14.593C92.2589 11.5073 93.8018 9.5144 96.7589 9.5144ZM94.4446 14.6573C94.4446 15.6858 94.7018 16.4573 95.1518 17.1001C95.6018 17.6787 96.2447 18.0001 96.9518 18.0001C97.7232 18.0001 98.3018 17.6787 98.7518 17.1001C99.2018 16.5215 99.4589 15.6858 99.4589 14.6573C99.4589 13.6287 99.2018 12.8573 98.7518 12.2787C98.3018 11.7001 97.6589 11.3787 96.9518 11.3787C96.1804 11.3787 95.6018 11.7001 95.1518 12.2787C94.6375 12.793 94.4446 13.6287 94.4446 14.6573Z" fill="white"/>
<path d="M26.6874 13.3713C27.0088 17.6142 25.016 19.9928 23.8588 21.6642C22.0588 23.5928 19.6803 26.2285 13.8303 26.3571C8.81599 26.5499 6.37313 24.3642 4.31599 22.4356C1.61599 19.4785 0.908845 17.6785 0.780273 13.3713C0.780273 10.6713 1.80885 8.03563 3.60885 5.65709C6.11599 2.12137 10.1017 0.899944 13.8303 0.642804C17.6874 0.514232 20.7731 2.4428 22.8946 4.56423C25.5946 7.45706 26.4303 9.89992 26.6874 13.3713Z" fill="white"/>
</g>
<defs>
<clipPath id="clip0_114_4911">
<rect width="120.857" height="27" fill="white" transform="translate(0.780273)"/>
</clipPath>
</defs>
</svg>
