<svg width="109" height="27" viewBox="0 0 109 27" fill="none" xmlns="http://www.w3.org/2000/svg">
<g style="mix-blend-mode:luminosity" clip-path="url(#clip0_114_4912)">
<path d="M35.2252 22.1075C33.1925 21.9914 30.6391 20.6149 29.6143 19.5866L31.8654 16.7506C32.4198 17.3642 35.074 18.8735 36.8883 18.5418C37.3754 18.4423 37.9298 18.0276 37.9298 17.3808C37.9634 16.9496 37.5938 16.5516 37.2746 16.4023C36.9722 16.1867 36.0147 16.1536 35.3932 16.1204C34.6876 16.0872 33.8813 16.0043 33.0245 15.656C31.4454 14.8931 30.3367 13.3176 30.2863 11.6425C30.2863 9.66895 31.0926 8.57435 31.9158 7.89438C33.5789 6.61735 35.8971 6.50126 37.493 6.91588C38.7529 7.2144 40.1472 7.89438 40.9704 8.67386L38.9041 11.5264C38.6017 11.3108 37.1402 10.6474 36.5859 10.4982C35.7291 10.2494 34.6372 10.3821 34.15 10.6806C33.9988 10.7635 33.7805 11.1118 33.8477 11.5264C33.8477 11.8249 34.1332 12.2561 34.3348 12.3722C34.7716 12.5878 35.1748 12.7039 35.7459 12.7371C36.5523 12.7371 37.8962 12.7371 38.9209 13.2181C40.6176 14.1302 41.6087 15.6892 41.4743 17.4803C41.3735 19.0393 40.2984 20.5485 38.8873 21.2783C37.8458 21.9582 36.4347 22.207 35.2252 22.1075Z" fill="white"/>
<path d="M50.2097 21.9583C48.2106 21.9583 46.3291 21.1954 44.8844 19.8355C43.4061 18.4424 42.5662 16.5517 42.5494 14.5118C42.5158 12.4718 43.2885 10.5646 44.6996 9.08855C46.1107 7.66226 48.0258 6.79985 50.0921 6.78326C52.1583 6.75009 54.0734 7.51299 55.5517 8.90611L52.9983 11.5265C52.2591 10.83 51.268 10.4319 50.2265 10.4319H50.1593C49.0841 10.4319 48.093 10.8631 47.3539 11.626C46.6147 12.3889 46.2115 13.384 46.2451 14.462C46.2451 15.5234 46.6819 16.5019 47.4546 17.2317C48.2274 17.9614 49.2353 18.3594 50.3273 18.3263C51.3184 18.3263 52.2423 17.9282 52.9815 17.2648L55.4845 19.935C54.0902 21.212 52.2759 21.9417 50.3944 21.9749H50.2097V21.9583Z" fill="white"/>
<path d="M70.9565 6.83294V21.9914H67.8823V20.6148C66.6224 21.4607 65.1105 21.9914 63.481 21.9914C59.2309 21.9914 55.7703 18.5583 55.7703 14.379C55.7703 10.183 59.2141 6.7666 63.481 6.7666C65.1105 6.7666 66.6224 7.28073 67.8823 8.14314V6.83294H70.9565ZM67.4623 14.379C67.4623 12.1898 65.6816 10.4318 63.4474 10.4318C61.2635 10.4318 59.466 12.1898 59.466 14.379C59.466 16.535 61.2467 18.3096 63.4474 18.3096C65.6816 18.3096 67.4623 16.535 67.4623 14.379Z" fill="white"/>
<path d="M88.6623 14.6774C88.6623 18.8402 85.2353 22.2235 81.0524 22.2235C79.4733 22.2235 78.0286 21.7425 76.8359 20.9465V26.9999H73.1738V6.93237H76.8359V8.45817C78.0454 7.62893 79.4901 7.18115 81.0524 7.18115C85.2521 7.16456 88.6623 10.5478 88.6623 14.6774ZM85.0002 14.6774C85.0002 12.5214 83.2363 10.78 81.0524 10.78C78.8686 10.78 77.0711 12.5214 77.0711 14.6774C77.0711 16.8334 78.8518 18.608 81.0524 18.608C83.2363 18.608 85.0002 16.85 85.0002 14.6774Z" fill="white"/>
<path d="M91.9885 5.12469C90.611 5.12469 89.5022 4.0301 89.5022 2.62039V2.45455C89.5022 1.09459 90.611 0 91.9885 0C93.3996 0 94.5587 1.09459 94.5587 2.45455V2.62039C94.5587 4.01351 93.3996 5.12469 91.9885 5.12469ZM93.9036 21.8919H90.275V6.78317H93.9036V21.8919Z" fill="white"/>
<path d="M103.177 21.9583C101.178 21.9583 99.296 21.1954 97.8513 19.8355C96.373 18.4424 95.533 16.5517 95.5162 14.5118C95.4826 12.4718 96.2554 10.5646 97.6665 9.08855C99.0776 7.66226 100.993 6.79985 103.059 6.78326C105.126 6.75009 107.041 7.51299 108.519 8.90611L105.966 11.5265C105.226 10.83 104.235 10.4319 103.194 10.4319H103.127C102.051 10.4319 101.06 10.8631 100.321 11.626C99.5816 12.3889 99.1784 13.384 99.212 14.462C99.212 15.5234 99.6488 16.5019 100.421 17.2317C101.195 17.9614 102.203 18.3594 103.295 18.3263C104.286 18.3263 105.21 17.9282 105.949 17.2648L108.452 19.935C107.057 21.212 105.243 21.9417 103.362 21.9749H103.177V21.9583Z" fill="white"/>
<path d="M12.4965 20.0841C12.1941 20.1173 12.1101 19.7027 12.3957 19.6198C12.4125 19.6198 12.4125 19.6198 12.4293 19.6032C18.3929 17.9447 22.7606 14.9429 22.1894 12.9029C21.6014 10.863 16.293 10.5479 10.3294 12.2064C4.3658 13.8648 -0.00191331 16.8667 0.569249 18.9066C2.24914 24.7942 8.44792 28.2438 14.4115 26.5854C19.2664 25.242 22.475 20.93 22.5926 16.2033C18.2753 19.8685 12.4965 20.0841 12.4965 20.0841Z" fill="white"/>
<path d="M18.4096 5.04182C17.368 1.37659 13.5043 -0.762849 9.77497 0.265407C6.95276 1.06147 5.00409 3.46627 4.71851 6.20275C5.22247 5.87106 7.45673 4.54428 10.8501 4.32867C10.9341 4.32867 10.9845 4.31209 10.9845 4.31209C11.1692 4.27892 11.2196 4.56086 11.0516 4.61062H11.0348C7.30554 5.63887 4.58412 7.51295 4.93689 8.78998C5.30647 10.067 8.59905 10.2495 12.3284 9.22118C16.0577 8.17634 18.7791 6.31885 18.4096 5.04182Z" fill="white"/>
</g>
<defs>
<clipPath id="clip0_114_4912">
<rect width="108" height="27" fill="white" transform="translate(0.518799)"/>
</clipPath>
</defs>
</svg>
