<svg width="122" height="28" viewBox="0 0 122 28" fill="none" xmlns="http://www.w3.org/2000/svg">
<g clip-path="url(#clip0_143_8417)">
<path d="M21.4773 5.13542C16.8752 4.80485 11.7489 4.80486 7.14671 5.13542C6.18332 5.20462 5.45337 5.9423 5.38094 6.84397C5.14863 9.73562 5.11773 14.0679 5.33074 16.9566C5.4011 17.9108 6.23883 18.7298 7.37217 18.7298H10.925V23.1125L7.37941 23.11C4.12682 23.11 1.20731 20.6992 0.95512 17.2792C0.725526 14.1658 0.757237 9.60818 1.00752 6.49263C1.25836 3.37027 3.76912 0.979229 6.83237 0.759202C11.6439 0.4136 16.9802 0.413599 21.7917 0.759201C24.8549 0.979227 27.3657 3.37027 27.6166 6.49263C27.8669 9.60818 27.8559 14.1658 27.6263 17.2792C27.3741 20.6992 24.4613 23.1198 21.2087 23.1198L17.6998 23.1173L10.925 27.5V23.1125L17.6998 18.7298H21.2093C22.3426 18.7298 23.1803 17.9108 23.2507 16.9566C23.4637 14.0679 23.4754 9.73562 23.2431 6.84397C23.1707 5.9423 22.4408 5.20462 21.4773 5.13542Z" fill="#FE5000"/>
<path d="M34.5157 19.7639H45.1186V17.1017H37.7287V3.69897H34.5157V19.7639Z" fill="#1B1B20"/>
<path d="M46.6553 19.7642H49.7765V7.83025H46.6553V19.7642ZM46.4029 4.70905C46.4029 5.7418 47.1602 6.5221 48.2159 6.5221C49.2716 6.5221 50.029 5.7418 50.029 4.70905C50.029 3.6763 49.2716 2.896 48.2159 2.896C47.1602 2.896 46.4029 3.6763 46.4029 4.70905Z" fill="#1B1B20"/>
<path d="M62.0147 7.83008H58.8935L56.3231 16.574L53.7527 7.83008H50.6315L54.6937 19.7641H57.9526L62.0147 7.83008Z" fill="#1B1B20"/>
<path d="M67.5844 20.0393C70.2237 20.0393 72.358 18.4557 72.7711 16.2755H70.0401C69.7417 17.1017 68.9155 17.7902 67.5844 17.7902C65.7714 17.7902 65.0599 16.5738 65.0599 15.1739V14.8755H72.8629V12.7871C72.8629 9.91831 71.0728 7.55444 67.5385 7.55444C63.9583 7.55444 62.0305 9.84946 62.0305 13.0854V14.7149C62.0305 18.0656 64.2108 20.0393 67.5844 20.0393ZM65.0599 12.5576C65.0599 10.9511 65.7484 9.75766 67.5385 9.75766C69.2139 9.75766 69.9942 10.8822 69.9942 12.374V12.6723H65.0599V12.5576Z" fill="#1B1B20"/>
<path d="M81.1582 20.0853C85.2204 20.0853 87.7219 17.3313 87.8825 14.0494H84.899C84.6925 15.8625 83.545 17.446 81.1582 17.446C78.4731 17.446 77.3255 15.61 77.3255 13.0396V10.4233C77.3255 7.85294 78.4731 6.01694 81.1582 6.01694C83.545 6.01694 84.6925 7.60049 84.899 9.41354H87.8825C87.7219 6.13169 85.2204 3.37769 81.1582 3.37769C76.3157 3.37769 74.1355 6.47594 74.1355 10.584V12.879C74.1355 16.987 76.3157 20.0853 81.1582 20.0853Z" fill="#1B1B20"/>
<path d="M89.5794 19.764H92.7008V12.6954C92.7008 11.0889 93.5954 10.2627 94.9958 10.2627C96.5105 10.2627 97.1756 11.2496 97.1756 12.6266V19.764H100.297V12.1217C100.297 9.2988 98.6678 7.5546 96.074 7.5546C94.5368 7.5546 93.32 8.22015 92.7008 9.2529V3.0105H89.5794V19.764Z" fill="#1B1B20"/>
<path d="M106.255 20.0393C107.632 20.0393 109.147 19.4655 109.697 18.6623V19.7639H112.703V12.1445C112.703 9.36749 110.661 7.55444 107.678 7.55444C105.107 7.55444 103.248 8.79374 102.559 11.1117H105.451C105.772 10.4691 106.438 9.98716 107.517 9.98716C108.802 9.98716 109.582 10.8134 109.582 11.915V13.5444C109.031 13.0854 107.976 12.5346 106.553 12.5346C103.684 12.5346 101.733 13.728 101.733 16.3214C101.733 18.6393 103.569 20.0393 106.255 20.0393ZM107.058 17.9738C105.75 17.9738 104.763 17.3312 104.763 16.2296C104.763 15.128 105.681 14.5313 107.149 14.5313C108.55 14.5313 109.582 15.1509 109.582 16.2066C109.582 17.2164 108.435 17.9738 107.058 17.9738Z" fill="#1B1B20"/>
<path d="M118.536 19.7639H120.694V17.2394H119.431C118.605 17.2394 118.307 16.9181 118.307 16.1378V10.3544H120.854V7.82994H118.307V4.57104H115.162V7.82994H113.464V10.3544H115.162V16.3673C115.162 18.4787 116.241 19.7639 118.536 19.7639Z" fill="#1B1B20"/>
</g>
<defs>
<clipPath id="clip0_143_8417">
<rect width="120.6" height="27" fill="white" transform="translate(0.799988 0.5)"/>
</clipPath>
</defs>
</svg>
