<svg width="102" height="27" viewBox="0 0 102 27" fill="none" xmlns="http://www.w3.org/2000/svg">
<g clip-path="url(#clip0_114_4909)">
<path fill-rule="evenodd" clip-rule="evenodd" d="M1.32069 0.00124476H8.22632C8.47911 0.00124476 8.69481 0.145744 8.7917 0.379134C8.88816 0.612525 8.8376 0.86698 8.659 1.0456L1.75334 7.95126C1.57472 8.12987 1.32026 8.18043 1.08645 8.08397C0.853063 7.98707 0.708984 7.77138 0.708984 7.51859V0.612947C0.708984 0.276342 0.98366 0.00124476 1.32069 0.00124476ZM12.2041 0.000677957C13.5669 -0.00184973 14.7221 -0.0153307 16.0971 0.376461C20.2404 1.55731 23.2973 5.38718 23.2973 9.89617C23.2973 15.3387 18.8443 19.7912 13.4022 19.7912H6.29812L10.604 21.2025V26.327C10.604 26.664 10.3289 26.9387 9.99236 26.9387H1.32069C0.98366 26.9387 0.708984 26.664 0.708984 26.327V11.4974C0.708984 11.3289 0.769228 11.184 0.888029 11.0648L11.7731 0.180144C11.8915 0.0613427 12.036 0.00109924 12.2041 0.000677957Z" fill="white"/>
<path fill-rule="evenodd" clip-rule="evenodd" d="M32.1113 22.2738C32.1113 22.4616 32.2163 22.5682 32.4058 22.5682H33.7522C33.9418 22.5682 34.0467 22.4633 34.0467 22.2738V17.2984C34.5937 18.0138 35.7719 18.3293 36.4871 18.3293C38.9488 18.3293 40.8634 16.7933 40.8634 13.8692C40.8634 11.1553 38.9488 9.40907 36.4871 9.40907C34.0257 9.40907 32.1113 10.9455 32.1113 13.8692V22.2738ZM34.0467 13.8691C34.0467 11.7653 35.4141 11.2602 36.4871 11.2602C37.5603 11.2602 38.9278 11.7653 38.9278 13.8691C38.9278 15.973 37.5603 16.4777 36.4871 16.4777C35.4141 16.4777 34.0467 15.973 34.0467 13.8691ZM51.5925 13.953C51.5925 10.9236 49.6782 9.40907 47.2168 9.40907C44.7342 9.40907 42.7568 11.0921 42.7568 13.9324C42.7568 16.2044 44.1874 18.3082 46.796 18.3082C47.6168 18.3082 48.9421 18.0555 49.6573 16.9408V17.782C49.6573 17.9716 49.7626 18.077 49.9519 18.077H51.2986C51.4879 18.077 51.5925 17.9716 51.5925 17.782V13.953ZM49.6573 13.9323C49.6573 16.0152 48.016 16.6041 46.9644 16.5409C45.8915 16.4777 44.7133 15.8045 44.7133 13.8691C44.7133 11.8917 46.1439 11.2602 47.2168 11.2602C48.2898 11.2602 49.6573 11.7653 49.6573 13.9323ZM57.0519 22.5295C57.2214 22.5885 57.3638 22.559 57.4515 22.361L62.9538 9.93486C63.0186 9.78825 62.9322 9.66142 62.7854 9.66142H61.2707C61.0813 9.66142 60.9339 9.74569 60.8498 9.93486L58.2831 15.8467L55.7374 9.93486C55.6746 9.74569 55.5271 9.66142 55.3374 9.66142H53.7809C53.6334 9.66142 53.5497 9.78741 53.6128 9.93486L57.2311 18.077L55.6422 21.7088C55.5625 21.8912 55.6203 22.0282 55.7893 22.0876L57.0519 22.5295ZM69.3913 11.2602C70.3589 11.2602 71.4952 11.5968 71.4952 13.6164V17.7821C71.4952 17.9717 71.6002 18.077 71.7895 18.077H73.1362C73.3252 18.077 73.4305 17.9717 73.4305 17.7821V13.6164C73.4305 10.7555 71.7264 9.4091 69.3913 9.4091C68.4027 9.4091 67.6451 9.76675 67.1189 10.3347V4.55423C67.1189 4.3651 67.0136 4.25977 66.8246 4.25977H65.478C65.2893 4.25977 65.1837 4.3655 65.1837 4.55423V17.7821C65.1837 17.9712 65.289 18.077 65.478 18.077H66.8246C67.0139 18.077 67.1189 17.9717 67.1189 17.7821V13.4694C67.182 11.6811 68.4446 11.2602 69.3913 11.2602ZM84.3921 13.8692C84.3921 10.9447 82.4772 9.40907 80.0158 9.40907C77.554 9.40907 75.6397 10.9447 75.6397 13.8692C75.6397 16.7933 77.554 18.3293 80.0158 18.3293C81.5305 18.3293 82.7718 17.782 83.5504 16.7095C83.6557 16.562 83.5923 16.3935 83.4448 16.3308L82.2038 15.7835C82.0354 15.6992 81.8673 15.7624 81.7198 15.8677C81.2362 16.3514 80.5834 16.4778 80.0158 16.4778C79.006 16.4778 77.7437 16.0363 77.5753 14.2269H84.0759C84.2446 14.2269 84.3921 14.1005 84.3921 13.9324V13.8692ZM77.7228 12.8172C78.1015 11.5967 79.1531 11.2602 80.0158 11.2602C80.8784 11.2602 81.9301 11.5967 82.3091 12.8172H77.7228ZM91.9866 10.0402C92.0497 9.87165 91.9238 9.72463 91.755 9.66142C91.2295 9.514 90.7034 9.45122 90.1982 9.45122C88.2629 9.45122 86.706 10.3978 86.706 13.0064V17.7821C86.706 17.9717 86.811 18.077 87.0007 18.077H88.347C88.5363 18.077 88.6416 17.9717 88.6416 17.7821V13.0064C88.6416 11.66 89.4833 11.3234 90.4087 11.3234C90.7452 11.3234 91.0821 11.3655 91.4398 11.4287C91.6082 11.4919 91.755 11.3655 91.7763 11.1974L91.9866 10.0402ZM101.959 13.8692C101.959 10.9447 100.044 9.40907 97.5826 9.40907C95.1216 9.40907 93.207 10.9447 93.207 13.8692C93.207 16.7933 95.1216 18.3293 97.5826 18.3293C99.0977 18.3293 100.339 17.782 101.117 16.7095C101.223 16.562 101.159 16.3935 101.012 16.3308L99.771 15.7835C99.6029 15.6992 99.4342 15.7624 99.2867 15.8677C98.803 16.3514 98.1507 16.4778 97.5826 16.4778C96.5728 16.4778 95.3109 16.0363 95.1422 14.2269H101.643C101.812 14.2269 101.959 14.1005 101.959 13.9324V13.8692ZM95.2897 12.8172C95.6684 11.5967 96.7203 11.2602 97.5826 11.2602C98.4456 11.2602 99.4976 11.5967 99.8763 12.8172H95.2897Z" fill="white"/>
</g>
<defs>
<clipPath id="clip0_114_4909">
<rect width="101.25" height="27" fill="white" transform="translate(0.708984)"/>
</clipPath>
</defs>
</svg>
