<svg width="30" height="30" viewBox="0 0 30 30" fill="none" xmlns="http://www.w3.org/2000/svg">
<path d="M19.8874 15.4623H25.7499C25.6499 21.2998 24.4999 22.2623 20.9124 24.3873C20.4999 24.6373 20.3624 25.1623 20.6124 25.5873C20.8624 25.9998 21.3874 26.1373 21.8124 25.8873C26.0374 23.3873 27.5124 21.8623 27.5124 14.5873V7.8498C27.5124 5.7123 25.7749 3.9873 23.6499 3.9873H19.8999C17.6999 3.9873 16.0374 5.6498 16.0374 7.8498V11.5998C16.0249 13.7998 17.6874 15.4623 19.8874 15.4623Z" fill="#03BD9D"/>
<path d="M6.3625 15.4623H12.225C12.125 21.2998 10.975 22.2623 7.3875 24.3873C6.975 24.6373 6.8375 25.1623 7.0875 25.5873C7.3375 25.9998 7.8625 26.1373 8.2875 25.8873C12.5125 23.3873 13.9875 21.8623 13.9875 14.5873V7.8498C13.9875 5.7123 12.25 3.9873 10.125 3.9873H6.375C4.1625 3.9873 2.5 5.6498 2.5 7.8498V11.5998C2.5 13.7998 4.1625 15.4623 6.3625 15.4623Z" fill="#03BD9D"/>
</svg>
