<svg width="16" height="16" viewBox="0 0 16 16" fill="none" xmlns="http://www.w3.org/2000/svg">
<path d="M7.99992 10.4667V10.54C7.99992 10.7267 7.85325 10.8733 7.66658 10.8733H1.66659C1.47992 10.8733 1.33325 10.7267 1.33325 10.54V10.4667C1.33325 9.29333 1.62659 9 2.81325 9H6.51992C7.70658 9 7.99992 9.29333 7.99992 10.4667Z" fill="white"/>
<path d="M1.66659 11.54C1.47992 11.54 1.33325 11.6867 1.33325 11.8734V12.54V13.2C1.33325 14.3734 1.62659 14.6667 2.81325 14.6667H6.51992C7.70658 14.6667 7.99992 14.3734 7.99992 13.2V12.54V11.8734C7.99992 11.6867 7.85325 11.54 7.66658 11.54H1.66659Z" fill="white"/>
<path d="M14.6667 10C14.6667 12.58 12.58 14.6667 10 14.6667L10.7 13.5" stroke="white" stroke-width="1.5" stroke-linecap="round" stroke-linejoin="round"/>
<path d="M1.33325 5.99967C1.33325 3.41967 3.41992 1.33301 5.99992 1.33301L5.29992 2.49967" stroke="white" stroke-width="1.5" stroke-linecap="round" stroke-linejoin="round"/>
<path d="M12.3333 7.33301C13.9901 7.33301 15.3333 5.98986 15.3333 4.33301C15.3333 2.67615 13.9901 1.33301 12.3333 1.33301C10.6764 1.33301 9.33325 2.67615 9.33325 4.33301C9.33325 5.98986 10.6764 7.33301 12.3333 7.33301Z" fill="white"/>
</svg>
