<svg width="16" height="16" viewBox="0 0 16 16" fill="none" xmlns="http://www.w3.org/2000/svg">
<path d="M10.8266 5.17301C10.0466 4.39301 9.02659 3.99967 7.99992 3.99967V7.99967L5.17325 10.8263C6.73325 12.3863 9.26659 12.3863 10.8333 10.8263C12.3933 9.26634 12.3933 6.73301 10.8266 5.17301ZM7.99992 1.33301C4.31992 1.33301 1.33325 4.31967 1.33325 7.99967C1.33325 11.6797 4.31992 14.6663 7.99992 14.6663C11.6799 14.6663 14.6666 11.6797 14.6666 7.99967C14.6666 4.31967 11.6799 1.33301 7.99992 1.33301ZM7.99992 13.333C5.05325 13.333 2.66659 10.9463 2.66659 7.99967C2.66659 5.05301 5.05325 2.66634 7.99992 2.66634C10.9466 2.66634 13.3333 5.05301 13.3333 7.99967C13.3333 10.9463 10.9466 13.333 7.99992 13.333Z" fill="white"/>
</svg>
