<svg width="16" height="16" viewBox="0 0 16 16" fill="none" xmlns="http://www.w3.org/2000/svg">
<path d="M12.7001 11.2663C12.9667 10.7997 13.1667 10.2663 13.1667 9.66634C13.1667 7.99967 11.8334 6.66634 10.1667 6.66634C8.50008 6.66634 7.16675 7.99967 7.16675 9.66634C7.16675 11.333 8.50008 12.6663 10.1667 12.6663C10.7667 12.6663 11.3001 12.4663 11.7667 12.1997L13.9001 14.333L14.8334 13.3997L12.7001 11.2663ZM10.1667 11.333C9.23341 11.333 8.50008 10.5997 8.50008 9.66634C8.50008 8.73301 9.23341 7.99967 10.1667 7.99967C11.1001 7.99967 11.8334 8.73301 11.8334 9.66634C11.8334 10.5997 11.1001 11.333 10.1667 11.333ZM7.83341 13.333V14.6663C4.15341 14.6663 1.16675 11.6797 1.16675 7.99967C1.16675 4.31967 4.15341 1.33301 7.83341 1.33301C11.0601 1.33301 13.7467 3.62634 14.3667 6.66634H12.9867C12.5601 5.02634 11.3867 3.68634 9.83341 3.05967V3.33301C9.83341 4.06634 9.23341 4.66634 8.50008 4.66634H7.16675V5.99967C7.16675 6.36634 6.86675 6.66634 6.50008 6.66634H5.16675V7.99967H6.50008V9.99967H5.83341L2.64008 6.80634C2.55341 7.19301 2.50008 7.58634 2.50008 7.99967C2.50008 10.9397 4.89341 13.333 7.83341 13.333Z" fill="white"/>
</svg>
