<svg width="94" height="91" viewBox="0 0 94 91" fill="none" xmlns="http://www.w3.org/2000/svg">
<rect width="93.5083" height="90.04" rx="45.02" fill="#6842EF"/>
<circle cx="47" cy="47" r="20.5" stroke="white" stroke-opacity="0.12"/>
<path d="M30.6858 79.6437L26.8504 77.2483C26.51 77.0357 26.2373 76.7939 26.0324 76.5229C25.8196 76.247 25.6751 75.9586 25.5988 75.6579C25.5225 75.3572 25.5209 75.0426 25.594 74.7141C25.6543 74.3886 25.7833 74.0675 25.981 73.7508C26.1788 73.4342 26.3904 73.1922 26.6159 73.025C26.8286 72.8607 27.0507 72.7518 27.2821 72.6983C27.5057 72.6398 27.7308 72.6318 27.9574 72.6743C28.176 72.7118 28.3828 72.7859 28.5777 72.8967L28.6222 72.8254C28.4402 72.7117 28.2685 72.555 28.1071 72.3552C27.9379 72.1504 27.8156 71.9145 27.7403 71.6474C27.6522 71.3833 27.6254 71.0915 27.6599 70.7719C27.6895 70.4602 27.8155 70.1263 28.038 69.7701C28.2456 69.4376 28.4963 69.1595 28.7901 68.9358C29.071 68.7151 29.3732 68.5572 29.6967 68.4621C30.0201 68.367 30.352 68.3377 30.6924 68.3742C31.0278 68.4186 31.3499 68.5372 31.6586 68.73L35.8622 71.3553L30.6858 79.6437ZM33.4641 71.7063L31.2792 70.3418C30.9784 70.1539 30.6979 70.0833 30.4377 70.1299C30.1726 70.1844 29.9486 70.3581 29.7657 70.651L29.5135 71.0547C29.3306 71.3476 29.2728 71.6251 29.3402 71.8873C29.4075 72.1494 29.5916 72.3744 29.8925 72.5623L32.0774 73.9269L33.4641 71.7063ZM31.2764 75.2093L29.3409 74.0005C29.0559 73.8225 28.7873 73.7593 28.535 73.8108C28.2778 73.8703 28.0627 74.0385 27.8897 74.3156L27.6598 74.6837C27.4867 74.9608 27.4324 75.224 27.4968 75.4733C27.5562 75.7305 27.7285 75.9481 28.0134 76.126L29.949 77.3348L31.2764 75.2093Z" fill="white"/>
<path d="M21.765 59.1701L21.7983 59.2317C21.9936 59.2003 22.1917 59.194 22.3928 59.2125C22.5812 59.2273 22.7728 59.2775 22.9677 59.3631C23.1581 59.4405 23.3417 59.5641 23.5184 59.7338C23.6906 59.8953 23.8478 60.1074 23.9899 60.37C24.3496 61.035 24.4074 61.6616 24.1633 62.25C23.9191 62.8384 23.3948 63.3501 22.5903 63.7853L18.5268 65.9835L17.6741 64.4073L21.5776 62.2958C22.0209 62.056 22.315 61.7855 22.4598 61.4843C22.5964 61.1876 22.5625 60.8504 22.3583 60.4728C22.2739 60.3168 22.1712 60.176 22.0502 60.0505C21.9248 59.9167 21.79 59.8145 21.6457 59.744C21.4932 59.6779 21.3354 59.6413 21.1723 59.634C21.001 59.6312 20.8292 59.6764 20.6568 59.7696L16.4085 62.0677L15.5559 60.4916L21.9837 57.0144L22.8363 58.5906L21.765 59.1701Z" fill="white"/>
<path d="M12.7281 45.6871L12.7032 44.0073L21.3558 46.8192C21.6185 46.9087 21.8441 47.0127 22.0325 47.1312C22.2302 47.2403 22.3908 47.3733 22.5145 47.5301C22.6382 47.687 22.7297 47.877 22.789 48.1001C22.8483 48.3232 22.8802 48.5841 22.8846 48.8828L22.9006 49.9606L21.4728 49.9818L21.4532 48.666L20.4264 48.3452L12.808 51.0765L12.7817 49.2987L16.6263 47.9675L18.4671 47.4641L18.4658 47.3802L16.6106 46.9036L12.7281 45.6871Z" fill="white"/>
<path d="M27.789 28.1568C27.1941 28.7499 26.5831 29.1482 25.9558 29.3519C25.3351 29.5489 24.7048 29.6239 24.0647 29.5768L24.0969 27.8444C24.6117 27.8848 25.0869 27.8327 25.5227 27.6881C25.9651 27.537 26.3648 27.2835 26.7217 26.9276C27.1249 26.5257 27.3432 26.1366 27.3768 25.7605C27.4038 25.3777 27.269 25.0377 26.9724 24.7402C26.7418 24.5089 26.4879 24.3864 26.2107 24.3728C25.9335 24.3592 25.5803 24.5006 25.1508 24.7969L24.3976 25.3502C22.7988 26.5093 21.4392 26.5271 20.319 25.4035C20.0092 25.0928 19.7854 24.7559 19.6473 24.3927C19.5159 24.023 19.4702 23.6401 19.5104 23.2442C19.5506 22.8483 19.6766 22.4525 19.8884 22.0568C20.1002 21.6479 20.4011 21.2491 20.791 20.8603C21.3132 20.3397 21.8549 19.9709 22.4162 19.754C22.9775 19.537 23.565 19.4587 24.1786 19.519L24.1266 21.2514C23.7438 21.2112 23.3643 21.2469 22.988 21.3586C22.6116 21.4702 22.2384 21.7105 21.8682 22.0796C21.4915 22.4552 21.2798 22.8112 21.2331 23.1478C21.1864 23.4711 21.2916 23.7616 21.5486 24.0194C21.8122 24.2838 22.0826 24.403 22.3598 24.377C22.637 24.351 22.9738 24.1997 23.3702 23.9231L24.1333 23.3996C24.9591 22.8266 25.6987 22.5373 26.352 22.5317C27.0054 22.5129 27.6188 22.791 28.1921 23.366C28.5216 23.6965 28.762 24.0565 28.9132 24.4461C29.0644 24.8225 29.1265 25.2219 29.0995 25.6443C29.0725 26.0534 28.9497 26.4723 28.7313 26.9009C28.5195 27.323 28.2054 27.7416 27.789 28.1568Z" fill="white"/>
<path d="M38.8067 21.4112C38.29 21.5726 37.8003 21.6328 37.3376 21.5916C36.881 21.5387 36.4615 21.4008 36.079 21.1781C35.7026 20.9437 35.3691 20.6275 35.0785 20.2294C34.7851 19.8224 34.5507 19.3382 34.3753 18.777C34.2027 18.2247 34.1181 17.7035 34.1214 17.2136C34.1337 16.7208 34.2291 16.2754 34.4079 15.8773C34.5838 15.4703 34.8458 15.1195 35.1938 14.825C35.539 14.5215 35.9655 14.2905 36.4733 14.1318C37.0167 13.962 37.5181 13.908 37.9774 13.9698C38.4368 14.0316 38.8457 14.1825 39.2043 14.4225C39.5628 14.6624 39.8713 14.9768 40.1296 15.3654C40.3941 15.7423 40.6015 16.1713 40.7518 16.6524L40.9272 17.2136L36.2903 18.6626L36.3446 18.8363C36.5033 19.3441 36.7739 19.7094 37.1564 19.9321C37.5361 20.1459 38.0066 20.1651 38.5678 19.9897C38.9954 19.8561 39.315 19.6584 39.5266 19.3967C39.7471 19.1323 39.9211 18.8286 40.0486 18.4856L41.2921 19.2264C41.1323 19.7164 40.8392 20.1551 40.4127 20.5426C39.9923 20.9184 39.457 21.208 38.8067 21.4112ZM36.9009 15.4063C36.4465 15.5483 36.1331 15.8124 35.9605 16.1988C35.7879 16.5852 35.7767 17.019 35.927 17.5L35.9604 17.6069L38.8201 16.7133L38.7825 16.5931C38.6322 16.112 38.3908 15.7621 38.0584 15.5433C37.7321 15.3127 37.3463 15.2671 36.9009 15.4063Z" fill="white"/>
<path d="M49.8904 20.2218C49.2779 20.1561 48.8443 19.9547 48.5895 19.6176C48.3346 19.2805 48.2371 18.8335 48.2969 18.2767L49.214 9.72976L50.9958 9.92095L50.0428 18.802L51.0033 18.905L50.8509 20.3249L49.8904 20.2218Z" fill="white"/>
<path d="M58.9272 22.9914C58.3761 22.7162 58.04 22.3761 57.9187 21.9713C57.7975 21.5665 57.862 21.1136 58.1122 20.6126L61.9532 12.9225L63.5564 13.7232L59.5653 21.7139L60.4295 22.1455L59.7914 23.4231L58.9272 22.9914Z" fill="white"/>
<path d="M71.173 35.8816L70.5542 34.1403L79.7619 30.8677L81.2388 35.0231C81.3888 35.4452 81.4572 35.8468 81.4441 36.2279C81.431 36.609 81.3375 36.9592 81.1637 37.2785C81.0019 37.6034 80.7669 37.89 80.4589 38.1381C80.154 38.3951 79.7861 38.6001 79.3552 38.7533C78.722 38.9783 78.1252 39.027 77.5647 38.8993C77.0074 38.7804 76.5304 38.4695 76.1338 37.9667L73.0578 41.1846L72.3686 39.2454L75.3076 36.2693L74.7216 34.6204L71.173 35.8816ZM76.9829 36.3425C77.1017 36.6767 77.2834 36.9093 77.528 37.0403C77.7815 37.1681 78.0753 37.1726 78.4095 37.0538L79.0163 36.8382C79.3505 36.7194 79.5711 36.532 79.6783 36.276C79.7854 36.02 79.7796 35.725 79.6608 35.3908L78.8637 33.1482L76.1859 34.0999L76.9829 36.3425Z" fill="white"/>
<path d="M72.8901 50.8414C72.9749 50.3068 73.1385 49.8414 73.381 49.4451C73.6311 49.0596 73.9409 48.7449 74.3104 48.5011C74.6876 48.268 75.1191 48.1097 75.6048 48.0261C76.0998 47.944 76.6377 47.949 77.2184 48.0412C77.7899 48.1318 78.2944 48.2875 78.7319 48.5081C79.168 48.738 79.5246 49.0214 79.8019 49.3583C80.0884 49.6967 80.2863 50.0872 80.3956 50.5298C80.5142 50.9739 80.5318 51.4586 80.4484 51.9841C80.3592 52.5464 80.1849 53.0196 79.9255 53.4037C79.6661 53.7878 79.3492 54.0871 78.975 54.3018C78.6007 54.5165 78.1821 54.6532 77.7191 54.7121C77.264 54.7816 76.7875 54.7769 76.2897 54.6979L75.709 54.6057L76.4703 49.8077L76.2906 49.7792C75.7651 49.6959 75.3177 49.7761 74.9483 50.0198C74.588 50.2651 74.3619 50.6781 74.2697 51.2588C74.1995 51.7013 74.2346 52.0754 74.3751 52.3812C74.5141 52.6962 74.709 52.987 74.9596 53.2536L73.7436 54.0387C73.3755 53.6779 73.1127 53.2204 72.9549 52.6661C72.8049 52.1226 72.7833 51.5144 72.8901 50.8414ZM79.1166 51.8011C79.1912 51.331 79.0937 50.9328 78.8242 50.6065C78.5547 50.2802 78.171 50.0776 77.6733 49.9986L77.5626 49.9811L77.0931 52.9401L77.2176 52.9598C77.7153 53.0388 78.1361 52.978 78.4797 52.7774C78.8312 52.5874 79.0435 52.262 79.1166 51.8011Z" fill="white"/>
<path d="M70.1966 59.8066L76.0653 64.1615L74.9974 65.6006L74.0193 64.8748L73.9776 64.931C74.2034 65.2845 74.3267 65.6665 74.3474 66.0771C74.3701 66.5007 74.2118 66.9411 73.8725 67.3983C73.422 68.0054 72.8786 68.3228 72.2422 68.3503C71.6058 68.3778 70.9203 68.119 70.1858 67.574L66.4757 64.8208L67.5436 63.3818L71.1075 66.0264C71.5272 66.3379 71.8977 66.4965 72.2188 66.5024C72.5399 66.5082 72.8283 66.3387 73.0842 65.9939C73.1954 65.844 73.2814 65.6812 73.3421 65.5054C73.4047 65.3427 73.4365 65.1745 73.4375 65.0009C73.4404 64.8404 73.4069 64.6819 73.3371 64.5254C73.2747 64.3746 73.1648 64.2407 73.0074 64.1239L69.1287 61.2457L70.1966 59.8066Z" fill="white"/>
<path d="M58.9165 70.4127C59.4609 70.1245 59.9517 70.0441 60.3889 70.1717C60.8222 70.3119 61.1786 70.6459 61.4582 71.1738L63.3385 74.7247L64.2911 74.2202L64.9594 75.4822L64.4645 75.7443C64.2253 75.8709 64.0929 76.0097 64.0672 76.1606C64.0376 76.3241 64.0818 76.5173 64.1997 76.74L64.7828 77.8411L63.3599 78.5945L62.4231 76.8253L61.0992 77.5263L60.431 76.2643L61.7548 75.5633L59.6714 71.6289L58.4465 72.2775L57.7783 71.0155L58.9165 70.4127Z" fill="white"/>
</svg>
