<svg width="146" height="133" viewBox="0 0 146 133" fill="none" xmlns="http://www.w3.org/2000/svg">
<path d="M13.3335 74.1956C9.84826 71.0804 8.68414 69.5246 6.44034 64.6542C4.04069 59.4384 3.71021 56.3503 5.55213 56.0285C6.315 55.8757 6.71831 56.3598 7.26618 58.0861C9.80627 66.993 13.1588 71.453 20.0257 75.3032C26.7299 78.9977 34.1621 80.0042 43.3327 78.3085L47.7565 77.5637L48.0033 74.2188C48.2706 70.3048 50.4328 67.5178 52.6415 68.1112C54.5798 68.6174 56.8574 70.7976 57.0799 72.2124C57.3896 74.1277 55.9673 76.8135 54.1599 77.9288C51.6447 79.4213 51.5808 80.611 53.5908 84.9633C55.8346 89.8337 59.6226 95.0539 64.0313 99.3965C74.5535 109.812 89.6009 109.669 107.153 98.9979C109.776 97.4369 112.213 95.7717 112.65 95.3074C113.15 94.8779 114.87 93.2622 116.629 91.7329C123.036 86.1655 128.755 78.6643 133.427 69.8665L136.203 64.6498L134.116 65.3502C131.99 65.9644 129.834 65.078 129.866 63.6123C129.884 62.5258 137.797 60.7055 139.158 61.4686C140.766 62.3705 144.138 69.2277 143.588 70.4676C142.993 71.8109 141.306 70.7364 140.131 68.3355C139.445 66.9192 139.12 66.6077 138.845 67.2277C138.044 69.036 132.073 78.8473 129.989 81.807C117.039 100.219 97.2142 111.487 80.3705 110.106C76.5742 109.784 75.9716 109.575 69.1666 105.759C62.176 101.84 62.0133 101.684 58.1201 97.0497C53.6608 91.7756 53.1016 90.9461 50.3284 85.0047L48.3115 80.8421L44.543 81.5028C38.2543 82.6212 34.7835 82.6103 29.0168 81.5056C24.7324 80.716 16.2298 76.7226 13.3335 74.1956ZM53.3688 73.6149C54.1245 71.9099 53.6569 70.8737 52.3718 71.5077C51.4715 71.9705 51.0552 75.3494 51.896 75.3693C52.274 75.3877 52.9336 74.5965 53.3688 73.6149Z" fill="#4E5561"/>
</svg>
