<svg width="126" height="28" viewBox="0 0 126 28" fill="none" xmlns="http://www.w3.org/2000/svg">
<g clip-path="url(#clip0_143_9144)">
<path d="M33.7002 5.86719H35.8335V11.8005C36.7002 10.5338 37.9001 9.86715 39.3001 9.86715C41.2335 9.86715 42.3669 10.9338 42.3669 13.0672V20.3338H40.2335V13.6672C40.2335 12.2005 39.7001 11.8005 38.6335 11.8005C37.9668 11.8005 37.3668 12.2005 36.7668 12.9338C36.1668 13.7338 35.9002 14.7338 35.9002 16.0005V20.3338H33.7668L33.7002 5.86719Z" fill="#3A3938"/>
<path d="M53.0336 15.7331H45.7669C45.7669 17.3331 46.7003 18.5998 48.3003 18.5998C49.4336 18.5998 50.5003 17.9331 50.9669 16.8665L52.7669 17.5998C51.7003 19.5998 50.5003 20.4665 48.2336 20.4665C44.8336 20.4665 43.4336 17.5998 43.4336 15.1331C43.4336 12.6665 44.8336 9.7998 48.2336 9.7998C51.5003 9.7998 52.9669 12.4665 52.9669 14.7998V15.7331H53.0336ZM45.8336 13.9998H50.8336C50.6336 12.7331 49.7669 11.7331 48.3669 11.7331C46.9669 11.7331 46.1003 12.6665 45.8336 13.9998Z" fill="#3A3938"/>
<path d="M69.7001 9.8665C70.2334 9.8665 70.7001 9.99984 71.3001 10.2665C71.8334 10.5332 72.2334 10.7998 72.5001 11.1332V5.7998H74.6334V20.2665H72.5001V19.0665C72.1001 19.7332 70.9668 20.3998 69.7001 20.3998C66.7001 20.3998 65.1001 18.4665 65.1001 15.0665C65.1001 11.8665 66.7001 9.8665 69.7001 9.8665ZM67.3001 15.1332C67.3001 16.1998 67.5668 16.9998 68.0334 17.6665C68.5001 18.2665 69.1668 18.5998 69.9001 18.5998C70.7001 18.5998 71.3001 18.2665 71.7668 17.6665C72.2334 17.0665 72.5001 16.1998 72.5001 15.1332C72.5001 14.0665 72.2334 13.2665 71.7668 12.6665C71.3001 12.0665 70.6334 11.7332 69.9001 11.7332C69.1001 11.7332 68.5001 12.0665 68.0334 12.6665C67.5668 13.2665 67.3001 14.1332 67.3001 15.1332Z" fill="#3A3938"/>
<path d="M82.7002 11.4662L81.3669 12.6662C80.9002 12.0662 80.3002 11.7329 79.5669 11.7329C78.9669 11.7329 78.5669 12.1329 78.5669 12.7329C78.5669 12.9329 78.6335 13.1995 78.8335 13.3329C79.1669 13.6662 79.5002 13.8662 80.4335 14.1995C81.1669 14.4662 81.4335 14.5995 82.0335 14.9329C82.8335 15.3995 83.2335 16.0662 83.3002 17.1329C83.3002 18.0662 82.9669 18.7995 82.3002 19.4662C81.6335 20.0662 80.7669 20.3995 79.7002 20.3995C77.7669 20.3995 76.3669 19.1329 75.7002 17.6662L77.5002 16.6662C78.0335 17.9329 78.8335 18.5329 79.7669 18.5329C80.7002 18.5329 81.1669 18.0662 81.1669 17.1995C81.1669 16.8662 81.0335 16.5995 80.6335 16.3995C80.4335 16.2662 80.3002 16.1995 80.1002 16.1329C79.7669 15.9995 79.0335 15.7329 78.7002 15.5995C77.2335 14.9995 76.5002 14.0662 76.5002 12.7995C76.5002 11.9995 76.8335 11.2662 77.3669 10.7329C77.9669 10.1329 78.7002 9.86621 79.6335 9.86621C80.9002 9.86621 82.0335 10.4662 82.7002 11.4662Z" fill="#3A3938"/>
<path d="M89.5 20.4662C88.3 20.4662 87.2333 19.8662 86.7666 19.1329V24.4663H84.6333V9.99954H86.7666V11.1995C87.1666 10.5329 88.3 9.86621 89.5666 9.86621C92.5666 9.86621 94.1666 11.7995 94.1666 15.1995C94.1 18.3995 92.5 20.4662 89.5 20.4662ZM91.9 15.1329C91.9 14.0662 91.6333 13.2662 91.1666 12.6662C90.7 12.0662 90.0333 11.7329 89.3 11.7329C88.5 11.7329 87.9 12.0662 87.4333 12.6662C86.9666 13.2662 86.7 14.1329 86.7 15.1329C86.7 16.1995 86.9666 16.9995 87.4333 17.6662C87.9 18.2662 88.5666 18.5995 89.3 18.5995C90.1 18.5995 90.7 18.2662 91.1666 17.6662C91.6333 17.0662 91.9 16.1995 91.9 15.1329Z" fill="#3A3938"/>
<path d="M115.1 17.5998C114.233 19.4665 112.767 20.4665 110.633 20.4665C109.1 20.4665 107.9 19.9331 107.033 18.9331C106.167 17.9331 105.767 16.6665 105.767 15.1331C105.767 13.5998 106.167 12.3331 107.033 11.3331C107.9 10.3331 109.1 9.7998 110.633 9.7998C112.767 9.7998 114.233 10.7331 115.1 12.6665L113.233 13.4665C112.7 12.2665 111.833 11.6665 110.7 11.6665C108.967 11.6665 108.1 13.0665 108.1 15.0665C108.1 17.1331 108.967 18.4665 110.7 18.4665C111.833 18.4665 112.7 17.8665 113.233 16.6665L115.1 17.5998Z" fill="#3A3938"/>
<path d="M125.367 15.7331H118.1C118.1 17.3331 119.033 18.5998 120.633 18.5998C121.767 18.5998 122.833 17.9331 123.3 16.8665L125.1 17.5998C124.033 19.5998 122.833 20.4665 120.567 20.4665C117.167 20.4665 115.767 17.5998 115.767 15.1331C115.767 12.6665 117.167 9.7998 120.567 9.7998C123.833 9.7998 125.3 12.4665 125.3 14.7998V15.7331H125.367ZM118.167 13.9998H123.167C122.967 12.7331 122.1 11.7331 120.7 11.7331C119.3 11.7331 118.367 12.6665 118.167 13.9998Z" fill="#3A3938"/>
<path d="M58.8999 9.86621C59.4332 9.86621 59.8999 9.99954 60.4999 10.2662C61.0333 10.5329 61.4332 10.7995 61.6999 11.1329V9.99954H63.8333V20.3329H62.0332L61.6999 19.1329C61.2999 19.7995 60.1665 20.4662 58.8999 20.4662C55.8999 20.4662 54.2999 18.5329 54.2999 15.1329C54.2332 11.9329 55.8332 9.86621 58.8999 9.86621ZM56.4999 15.1995C56.4999 16.2662 56.7665 17.0662 57.2332 17.7329C57.6999 18.3329 58.3666 18.6662 59.0999 18.6662C59.8999 18.6662 60.4999 18.3329 60.9665 17.7329C61.4332 17.1329 61.6999 16.2662 61.6999 15.1995C61.6999 14.1329 61.4332 13.3329 60.9665 12.7329C60.4999 12.1329 59.8333 11.7995 59.0999 11.7995C58.2999 11.7995 57.6999 12.1329 57.2332 12.7329C56.7665 13.2662 56.4999 14.1329 56.4999 15.1995Z" fill="#3A3938"/>
<path d="M99.7666 9.86621C100.3 9.86621 100.767 9.99954 101.367 10.2662C101.9 10.5329 102.3 10.7995 102.567 11.1329V9.99954H104.7V20.3329H102.9L102.567 19.1329C102.167 19.7995 101.033 20.4662 99.7666 20.4662C96.7666 20.4662 95.1666 18.5329 95.1666 15.1329C95.0999 11.9329 96.6999 9.86621 99.7666 9.86621ZM97.3666 15.1995C97.3666 16.2662 97.6332 17.0662 98.0999 17.7329C98.5666 18.3329 99.2332 18.6662 99.9666 18.6662C100.767 18.6662 101.367 18.3329 101.833 17.7329C102.3 17.1329 102.567 16.2662 102.567 15.1995C102.567 14.1329 102.3 13.3329 101.833 12.7329C101.367 12.1329 100.7 11.7995 99.9666 11.7995C99.1666 11.7995 98.5666 12.1329 98.0999 12.7329C97.5666 13.2662 97.3666 14.1329 97.3666 15.1995Z" fill="#3A3938"/>
<path d="M27.1001 13.8664C27.4334 18.2664 25.3667 20.7331 24.1667 22.4664C22.3001 24.4664 19.8334 27.1998 13.7667 27.3331C8.56673 27.5331 6.0334 25.2664 3.90007 23.2664C1.10007 20.1998 0.366732 18.3331 0.233398 13.8664C0.233398 11.0664 1.30007 8.3331 3.16673 5.86646C5.76673 2.1998 9.90006 0.933131 13.7667 0.666467C17.7667 0.533133 20.9667 2.53313 23.1667 4.73313C25.9667 7.7331 26.8334 10.2664 27.1001 13.8664Z" fill="#FF7E1D"/>
</g>
<defs>
<clipPath id="clip0_143_9144">
<rect width="125.333" height="28" fill="white" transform="translate(0.233398)"/>
</clipPath>
</defs>
</svg>
