<svg width="44" height="55" viewBox="0 0 44 55" fill="none" xmlns="http://www.w3.org/2000/svg">
<path d="M2.25366 0.228424C1.43805 0.539989 0.536585 1.45321 0.236098 2.28048L0 2.90361V27.496V52.0884L0.236098 52.7116C0.547317 53.5603 1.43805 54.4521 2.28585 54.7636L2.90829 55H22H41.0917L41.7141 54.7636C42.562 54.4521 43.4527 53.5603 43.7639 52.7116L44 52.0884L43.9785 29.6663C43.9463 8.31846 43.9356 7.2226 43.7532 6.85731C43.6459 6.64243 42.2185 5.10608 40.5873 3.45155C38.3659 1.18462 37.4966 0.368092 37.1317 0.206936C36.6595 0.0028038 36.4341 -0.00793839 19.7463 0.0028038H2.8439L2.25366 0.228424ZM35.7366 3.64493C35.7366 5.10608 35.7688 5.43914 35.962 5.94409C36.2517 6.72839 36.9922 7.53416 37.7541 7.91019C38.3444 8.20028 38.441 8.21102 40.2224 8.24325L42.0683 8.28623L42.0468 30.1282L42.0146 51.981L41.7893 52.2818C41.6712 52.443 41.4029 52.6901 41.2098 52.8298L40.8556 53.0661H22H3.14439L2.79024 52.819C2.59707 52.6901 2.32878 52.443 2.21073 52.2818L1.98537 51.981V27.496V3.01105L2.21073 2.71023C2.32878 2.54907 2.59707 2.30196 2.79024 2.1623L3.14439 1.92593H19.4351H35.7366V3.64493ZM39.9541 6.30938C39.1063 6.35235 38.6985 6.2664 38.3122 5.93335C37.7971 5.5036 37.6683 5.14906 37.6683 4.16063V3.27964L39.1171 4.77303L40.5766 6.27715L39.9541 6.30938Z" fill="#03BD9D"/>
<path d="M16.9022 10.0914L15.9256 11.0584L15.668 10.7898C15.5285 10.6393 15.1958 10.4137 14.9275 10.2848C14.4446 10.0484 14.348 10.0377 10.9997 10.0377C7.21144 10.0377 7.18998 10.0377 6.39583 10.736C6.1812 10.9294 5.89144 11.2947 5.76266 11.5311C5.5373 11.9501 5.52657 12.1112 5.49437 15.4311C5.46218 18.7724 5.47291 18.912 5.69827 19.4277C5.99876 20.1476 6.69632 20.7707 7.41535 20.9856C8.24169 21.2327 13.7578 21.2327 14.6056 20.9856C15.3246 20.7707 16.1939 19.9434 16.3978 19.2666C16.4836 18.9657 16.5266 17.9343 16.5266 16.0434V13.2608L17.868 11.9179C18.9841 10.8005 19.231 10.4997 19.2846 10.1774C19.3383 9.83357 19.2953 9.73688 19.0163 9.44679C18.7695 9.19969 18.5871 9.12448 18.2866 9.12448C17.9324 9.12448 17.7929 9.22118 16.9022 10.0914ZM14.2944 12.2187L14.5412 12.455L13.2319 13.7658L11.9227 15.0765L11.2251 14.4104C10.6456 13.8517 10.4739 13.7443 10.1627 13.7443C9.62608 13.7443 9.45437 13.8302 9.27193 14.1955C8.97144 14.7757 9.13242 15.098 10.2807 16.2368C11.3432 17.3005 11.7617 17.5583 12.1695 17.4401C12.2875 17.4079 12.8885 16.8815 13.5002 16.2906L14.5949 15.1947V16.9352V18.6649L14.2622 18.955L13.9188 19.2343L10.9246 19.2021L7.91974 19.1699L7.66218 18.8691L7.40462 18.5682V15.5922C7.40462 12.3906 7.42608 12.2509 7.98413 12.0253C8.10218 11.9716 9.52949 11.9393 11.1285 11.9501C14.0046 11.9716 14.0583 11.9716 14.2944 12.2187Z" fill="#6842EF"/>
<path d="M21.6024 11.9607C20.9799 12.24 20.8297 13.0136 21.3019 13.4755L21.5595 13.7441H29.7799H38.0004L38.258 13.4755C38.6121 13.1317 38.6121 12.5731 38.2687 12.1648L38.0112 11.864L29.9731 11.8425C23.3087 11.821 21.8921 11.8425 21.6024 11.9607Z" fill="#03BD9D"/>
<path d="M21.3459 16.741C21.0133 17.074 20.9489 17.4608 21.1635 17.8583C21.4318 18.3633 21.3567 18.3525 26.5938 18.3633H31.5625L31.8201 18.0947C32.0025 17.9228 32.0884 17.7187 32.0884 17.4608C32.0884 16.4079 32.2064 16.4294 26.5079 16.4294H21.6572L21.3459 16.741Z" fill="#03BD9D"/>
<path d="M7.21151 23.0587C6.5998 23.2736 5.85931 24.0364 5.64468 24.6702C5.39785 25.3901 5.38712 31.4281 5.63395 32.1264C5.85931 32.771 6.25638 33.2437 6.84663 33.5875L7.35102 33.8884L10.8603 33.9206C14.1227 33.9528 14.4125 33.9421 14.831 33.7487C15.5071 33.4479 15.9364 33.0396 16.2476 32.4165L16.5266 31.8578V28.3983V24.9388L16.2261 24.3694C15.8935 23.7248 15.2281 23.1554 14.6164 22.9835C14.3803 22.919 12.8993 22.876 10.9461 22.8868C8.31687 22.8868 7.58712 22.9298 7.21151 23.0587ZM14.3266 25.0785L14.5949 25.3364V28.4091V31.4818L14.3266 31.7396L14.0691 32.0082H10.9998H7.93053L7.67297 31.7396L7.40468 31.4818V28.4091V25.3364L7.67297 25.0785L7.93053 24.8099H10.9998H14.0691L14.3266 25.0785Z" fill="#03BD9D"/>
<path d="M21.5058 24.8318C20.9692 25.0896 20.8941 25.8632 21.3448 26.3252L21.6561 26.6367H29.78H37.9039L38.2151 26.3252C38.6229 25.9061 38.6444 25.3797 38.2473 24.9822L37.9575 24.7028L29.8444 24.7136C24.4892 24.7136 21.6561 24.7566 21.5058 24.8318Z" fill="#03BD9D"/>
<path d="M21.3026 29.5916C20.9485 29.9354 20.9485 30.494 21.2919 30.9023L21.5494 31.2031H26.5397H31.5299L31.809 30.9453C32.1846 30.5907 32.1953 29.8924 31.8411 29.5593C31.5943 29.323 31.5729 29.323 26.5719 29.323H21.5602L21.3026 29.5916Z" fill="#03BD9D"/>
<path d="M7.47929 35.8119C6.59929 36.0483 5.81588 36.8433 5.56905 37.7243C5.50466 37.9929 5.47246 39.3896 5.49393 41.4953C5.52612 44.7077 5.53685 44.8689 5.76222 45.2879C5.891 45.5242 6.18076 45.8895 6.39539 46.0829C7.18954 46.7812 7.211 46.7812 10.9456 46.7812C13.9612 46.7812 14.3798 46.7598 14.8305 46.5879C15.4529 46.3515 16.2149 45.535 16.3973 44.9226C16.5798 44.3209 16.5798 38.1648 16.3973 37.5524C16.1934 36.8755 15.3242 36.0483 14.6051 35.8334C13.8432 35.6078 8.2949 35.597 7.47929 35.8119ZM14.3154 37.9069L14.5944 38.1648V41.2482V44.3317L14.3154 44.5895L14.0364 44.8474H10.9778H7.91929L7.66173 44.5466L7.40417 44.2457V41.2697C7.40417 38.0681 7.42563 37.9284 7.98368 37.7028C8.10173 37.6491 9.51832 37.6168 11.1281 37.6276L14.0364 37.6491L14.3154 37.9069Z" fill="#03BD9D"/>
<path d="M21.7098 37.5622C21.0766 37.6912 20.819 38.6796 21.302 39.1523L21.5595 39.4209H29.78H38.0005L38.2581 39.1523C38.6122 38.8085 38.6122 38.2498 38.2688 37.8416L38.0112 37.5407L29.9732 37.53C25.5625 37.5193 21.8385 37.5407 21.7098 37.5622Z" fill="#03BD9D"/>
<path d="M21.356 42.4187C20.8731 42.8914 20.9696 43.665 21.5384 43.9228C21.7101 44.0088 23.3306 44.041 26.6789 44.041H31.5618L31.8194 43.7724C32.1521 43.4501 32.1843 42.784 31.8838 42.4187L31.6799 42.1609L26.6682 42.1286L21.6672 42.0964L21.356 42.4187Z" fill="#03BD9D"/>
</svg>
