<svg width="127" height="28" viewBox="0 0 127 28" fill="none" xmlns="http://www.w3.org/2000/svg">
<g clip-path="url(#clip0_143_9141)">
<path d="M22.4099 4.80711C17.6373 4.46429 12.3213 4.4643 7.54858 4.80711C6.54951 4.87887 5.79253 5.64387 5.71742 6.57894C5.4765 9.57768 5.44445 14.0704 5.66536 17.0661C5.73832 18.0556 6.60708 18.9049 7.78239 18.9049H11.4668V23.45L7.7899 23.4474C4.41684 23.4474 1.3892 20.9473 1.12767 17.4007C0.889577 14.1719 0.922463 9.44552 1.18202 6.21458C1.44214 2.97658 4.0459 0.496979 7.2226 0.268802C12.2123 -0.0895997 17.7463 -0.0896012 22.736 0.268801C25.9127 0.496977 28.5165 2.97658 28.7766 6.21458C29.0361 9.44552 29.0248 14.1719 28.7867 17.4007C28.5251 20.9473 25.5045 23.4576 22.1314 23.4576L18.4926 23.4549L11.4668 28V23.45L18.4926 18.9049H22.132C23.3073 18.9049 24.176 18.0556 24.249 17.0661C24.4699 14.0704 24.482 9.57768 24.2411 6.57894C24.166 5.64387 23.4091 4.87887 22.4099 4.80711Z" fill="#FE5000"/>
<path d="M35.9312 19.9773H46.9268V17.2165H39.2632V3.31738H35.9312V19.9773Z" fill="#1B1B20"/>
<path d="M48.5206 19.9774H51.7574V7.60138H48.5206V19.9774ZM48.2588 4.36458C48.2588 5.43558 49.0442 6.24478 50.139 6.24478C51.2338 6.24478 52.0192 5.43558 52.0192 4.36458C52.0192 3.29357 51.2338 2.48438 50.139 2.48438C49.0442 2.48438 48.2588 3.29357 48.2588 4.36458Z" fill="#1B1B20"/>
<path d="M64.4488 7.60156H61.212L58.5464 16.6693L55.8808 7.60156H52.644L56.8566 19.9775H60.2362L64.4488 7.60156Z" fill="#1B1B20"/>
<path d="M70.2249 20.2626C72.9619 20.2626 75.1753 18.6205 75.6037 16.3595H72.7715C72.4621 17.2163 71.6053 17.9302 70.2249 17.9302C68.3447 17.9302 67.6069 16.6688 67.6069 15.217V14.9076H75.6989V12.7418C75.6989 9.76685 73.8425 7.31543 70.1773 7.31543C66.4645 7.31543 64.4653 9.69545 64.4653 13.0512V14.741C64.4653 18.2158 66.7263 20.2626 70.2249 20.2626ZM67.6069 12.5038C67.6069 10.8378 68.3209 9.60025 70.1773 9.60025C71.9147 9.60025 72.7239 10.7664 72.7239 12.3134V12.6228H67.6069V12.5038Z" fill="#1B1B20"/>
<path d="M84.3014 20.3108C88.514 20.3108 91.1082 17.4548 91.2747 14.0514H88.1807C87.9665 15.9316 86.7766 17.5738 84.3014 17.5738C81.5168 17.5738 80.3267 15.6698 80.3267 13.0042V10.291C80.3267 7.62537 81.5168 5.72137 84.3014 5.72137C86.7766 5.72137 87.9665 7.36357 88.1807 9.24377H91.2747C91.1082 5.84037 88.514 2.98438 84.3014 2.98438C79.2796 2.98438 77.0186 6.19738 77.0186 10.4576V12.8376C77.0186 17.0978 79.2796 20.3108 84.3014 20.3108Z" fill="#1B1B20"/>
<path d="M93.0342 19.9776H96.2712V12.6472C96.2712 10.9812 97.1989 10.1244 98.6512 10.1244C100.222 10.1244 100.912 11.1478 100.912 12.5758V19.9776H104.149V12.0522C104.149 9.12472 102.459 7.31591 99.7693 7.31591C98.1752 7.31591 96.9133 8.00611 96.2712 9.07711V2.60352H93.0342V19.9776Z" fill="#1B1B20"/>
<path d="M110.327 20.2626C111.755 20.2626 113.326 19.6677 113.897 18.8347V19.977H117.015V12.0754C117.015 9.19563 114.897 7.31543 111.803 7.31543C109.137 7.31543 107.209 8.60063 106.495 11.0044H109.494C109.827 10.338 110.518 9.83825 111.636 9.83825C112.969 9.83825 113.778 10.695 113.778 11.8374V13.5272C113.207 13.0512 112.112 12.48 110.636 12.48C107.662 12.48 105.638 13.7176 105.638 16.407C105.638 18.8108 107.542 20.2626 110.327 20.2626ZM111.16 18.1206C109.804 18.1206 108.78 17.4542 108.78 16.3118C108.78 15.1694 109.732 14.5506 111.255 14.5506C112.707 14.5506 113.778 15.1933 113.778 16.288C113.778 17.3352 112.588 18.1206 111.16 18.1206Z" fill="#1B1B20"/>
<path d="M123.063 19.9772H125.301V17.3592H123.991C123.134 17.3592 122.825 17.026 122.825 16.2168V10.2192H125.467V7.60128H122.825V4.22168H119.564V7.60128H117.803V10.2192H119.564V16.4548C119.564 18.6444 120.683 19.9772 123.063 19.9772Z" fill="#1B1B20"/>
</g>
<defs>
<clipPath id="clip0_143_9141">
<rect width="125.067" height="28" fill="white" transform="translate(0.966797)"/>
</clipPath>
</defs>
</svg>
