<svg width="106" height="28" viewBox="0 0 106 28" fill="none" xmlns="http://www.w3.org/2000/svg">
<g clip-path="url(#clip0_143_9146)">
<path fill-rule="evenodd" clip-rule="evenodd" d="M1.43416 0.00129087H8.59557C8.85771 0.00129087 9.0814 0.151142 9.18188 0.393176C9.28191 0.635212 9.22948 0.89909 9.04426 1.08433L1.88284 8.24575C1.6976 8.43097 1.43372 8.48341 1.19125 8.38337C0.949219 8.28289 0.799805 8.05921 0.799805 7.79705V0.635649C0.799805 0.286577 1.08465 0.00129087 1.43416 0.00129087ZM12.7206 0.000703067C14.134 -0.00191824 15.3319 -0.0158985 16.7579 0.390404C21.0547 1.61499 24.2247 5.5867 24.2247 10.2627C24.2247 15.9068 19.6068 20.5242 13.9631 20.5242H6.59594L11.0614 21.9878V27.3021C11.0614 27.6516 10.7761 27.9364 10.427 27.9364H1.43416C1.08465 27.9364 0.799805 27.6516 0.799805 27.3021V11.9233C0.799805 11.7485 0.862279 11.5982 0.985481 11.4746L12.2737 0.186816C12.3965 0.0636146 12.5463 0.00113995 12.7206 0.000703067Z" fill="#D70432"/>
<path fill-rule="evenodd" clip-rule="evenodd" d="M33.3652 23.0991C33.3652 23.294 33.474 23.4045 33.6706 23.4045H35.0669C35.2635 23.4045 35.3723 23.2957 35.3723 23.0991V17.9396C35.9395 18.6814 37.1614 19.0086 37.903 19.0086C40.4559 19.0086 42.4415 17.4157 42.4415 14.3833C42.4415 11.5689 40.4559 9.75799 37.903 9.75799C35.3505 9.75799 33.3652 11.3513 33.3652 14.3833V23.0991ZM35.3723 14.3832C35.3723 12.2014 36.7904 11.6776 37.903 11.6776C39.016 11.6776 40.4342 12.2014 40.4342 14.3832C40.4342 16.5651 39.016 17.0885 37.903 17.0885C36.7904 17.0885 35.3723 16.5651 35.3723 14.3832ZM53.568 14.4702C53.568 11.3286 51.5828 9.75799 49.0302 9.75799C46.4556 9.75799 44.405 11.5034 44.405 14.4488C44.405 16.805 45.8886 18.9868 48.5938 18.9868C49.445 18.9868 50.8194 18.7246 51.5611 17.5686V18.4411C51.5611 18.6377 51.6703 18.7469 51.8666 18.7469H53.2631C53.4595 18.7469 53.568 18.6377 53.568 18.4411V14.4702ZM51.5611 14.4488C51.5611 16.6087 49.859 17.2195 48.7684 17.154C47.6558 17.0885 46.4339 16.3903 46.4339 14.3832C46.4339 12.3325 47.9176 11.6776 49.0302 11.6776C50.1429 11.6776 51.5611 12.2014 51.5611 14.4488ZM59.2296 23.3643C59.4053 23.4255 59.553 23.3949 59.644 23.1896L65.35 10.3033C65.4172 10.1512 65.3276 10.0197 65.1754 10.0197H63.6046C63.4082 10.0197 63.2553 10.1071 63.1681 10.3033L60.5064 16.434L57.8663 10.3033C57.8012 10.1071 57.6483 10.0197 57.4516 10.0197H55.8374C55.6844 10.0197 55.5976 10.1503 55.6631 10.3033L59.4154 18.7469L57.7676 22.5133C57.685 22.7025 57.7449 22.8445 57.9202 22.9061L59.2296 23.3643ZM72.0259 11.6777C73.0294 11.6777 74.2078 12.0268 74.2078 14.1212V18.4411C74.2078 18.6377 74.3167 18.7469 74.513 18.7469H75.9095C76.1055 18.7469 76.2147 18.6377 76.2147 18.4411V14.1212C76.2147 11.1543 74.4476 9.75802 72.0259 9.75802C71.0008 9.75802 70.215 10.1289 69.6694 10.7179V4.72334C69.6694 4.5272 69.5602 4.41797 69.3642 4.41797H67.9677C67.772 4.41797 67.6625 4.52762 67.6625 4.72334V18.4411C67.6625 18.6372 67.7717 18.7469 67.9677 18.7469H69.3642C69.5605 18.7469 69.6694 18.6377 69.6694 18.4411V13.9687C69.7348 12.1141 71.0442 11.6777 72.0259 11.6777ZM87.5824 14.3833C87.5824 11.3505 85.5965 9.75799 83.0439 9.75799C80.491 9.75799 78.5058 11.3505 78.5058 14.3833C78.5058 17.4157 80.491 19.0086 83.0439 19.0086C84.6147 19.0086 85.902 18.4411 86.7095 17.3288C86.8187 17.1759 86.7529 17.0011 86.5999 16.936L85.313 16.3685C85.1383 16.2811 84.964 16.3467 84.8111 16.4559C84.3095 16.9574 83.6326 17.0885 83.0439 17.0885C81.9967 17.0885 80.6877 16.6306 80.5131 14.7542H87.2544C87.4294 14.7542 87.5824 14.6232 87.5824 14.4488V14.3833ZM80.666 13.2924C81.0587 12.0267 82.1493 11.6776 83.0439 11.6776C83.9385 11.6776 85.0291 12.0267 85.4222 13.2924H80.666ZM95.4581 10.4125C95.5235 10.2377 95.393 10.0852 95.218 10.0197C94.673 9.8668 94.1274 9.8017 93.6034 9.8017C91.5965 9.8017 89.982 10.7834 89.982 13.4886V18.4411C89.982 18.6377 90.0908 18.7469 90.2875 18.7469H91.6837C91.88 18.7469 91.9892 18.6377 91.9892 18.4411V13.4886C91.9892 12.0923 92.8621 11.7432 93.8218 11.7432C94.1708 11.7432 94.5201 11.7869 94.8911 11.8524C95.0657 11.918 95.218 11.7869 95.24 11.6126L95.4581 10.4125ZM105.8 14.3833C105.8 11.3505 103.814 9.75799 101.261 9.75799C98.7092 9.75799 96.7237 11.3505 96.7237 14.3833C96.7237 17.4157 98.7092 19.0086 101.261 19.0086C102.833 19.0086 104.12 18.4411 104.927 17.3288C105.036 17.1759 104.971 17.0011 104.818 16.936L103.531 16.3685C103.357 16.2811 103.182 16.3467 103.029 16.4559C102.527 16.9574 101.85 17.0885 101.261 17.0885C100.214 17.0885 98.9056 16.6306 98.7306 14.7542H105.473C105.647 14.7542 105.8 14.6232 105.8 14.4488V14.3833ZM98.8835 13.2924C99.2762 12.0267 100.367 11.6776 101.261 11.6776C102.156 11.6776 103.247 12.0267 103.64 13.2924H98.8835Z" fill="#1C1A1A"/>
</g>
<defs>
<clipPath id="clip0_143_9146">
<rect width="105" height="28" fill="white" transform="translate(0.799805)"/>
</clipPath>
</defs>
</svg>
