<svg width="60" height="60" viewBox="0 0 60 60" fill="none" xmlns="http://www.w3.org/2000/svg">
<path d="M40.1143 2.2148C39.9747 2.35445 39.8995 2.56929 39.8995 2.85933C39.8995 3.14937 39.9747 3.36421 40.1143 3.50386C40.3184 3.70796 40.4795 3.7187 43.3155 3.7187L46.2911 3.72945L45.7539 4.21284C36.1182 13 26.7618 18.6289 18.2217 20.7988C16.7715 21.164 14.8487 21.5078 13.6885 21.6044C12.2598 21.7226 11.959 21.7763 11.7442 21.9912C11.4541 22.2812 11.4649 22.9794 11.7657 23.2802C11.9913 23.5058 12.0664 23.5166 13.3018 23.4521C18.1788 23.205 24.5704 21.0996 30.6075 17.7373C35.9463 14.7724 41.8116 10.4541 46.7207 5.87788L47.5801 5.07222L47.6338 8.11226C47.6875 10.9589 47.6983 11.163 47.8916 11.3027C48.2032 11.5283 48.8799 11.496 49.1377 11.2382C49.3418 11.0341 49.3526 10.8837 49.3526 6.72652C49.3526 2.56929 49.3418 2.4189 49.1377 2.2148C48.9336 2.0107 48.7832 1.99995 44.626 1.99995C40.4688 1.99995 40.3184 2.0107 40.1143 2.2148Z" fill="#03BD9D"/>
<path d="M44.4112 14.2461C44.1964 14.4609 44.1964 14.6006 44.1964 32.7227V50.9844H42.4776H40.7589V35.3008C40.7589 19.7568 40.7589 19.6172 40.544 19.4023C40.3399 19.1982 40.1895 19.1875 36.462 19.1875C32.7344 19.1875 32.5841 19.1982 32.3799 19.4023C32.1651 19.6172 32.1651 19.7568 32.1651 35.3008V50.9844H30.4464H28.7276V37.8789C28.7276 24.9131 28.7276 24.7734 28.5128 24.5586C28.3087 24.3545 28.1583 24.3438 24.4307 24.3438C20.7032 24.3438 20.5528 24.3545 20.3487 24.5586C20.1339 24.7734 20.1339 24.9131 20.1339 32.1641V39.5654L20.3809 39.791C20.7247 40.1133 21.3155 40.1025 21.6163 39.7803L21.8526 39.5332V32.7979V26.0625H24.4307H27.0089V38.5234V50.9844H25.086H23.1524L22.9376 51.2637C22.6475 51.6289 22.6475 52.0586 22.9376 52.4238L23.1524 52.7031H39.6954H56.2276V53.9922V55.2812H38.3096H20.3809L20.1553 55.5283C19.8331 55.8721 19.8438 56.4629 20.1661 56.7637L20.4132 57H38.9649C57.377 57 57.5167 57 57.7315 56.7852C57.9356 56.5811 57.9464 56.4307 57.9464 53.9922C57.9464 51.5537 57.9356 51.4033 57.7315 51.1992C57.5274 50.9951 57.377 50.9844 55.1534 50.9844H52.7901V32.7227C52.7901 14.6006 52.7901 14.4609 52.5753 14.2461C52.3712 14.042 52.2208 14.0312 48.4932 14.0312C44.7657 14.0312 44.6153 14.042 44.4112 14.2461ZM51.0714 33.3672V50.9844H48.4932H45.9151V33.3672V15.75H48.4932H51.0714V33.3672ZM39.0401 35.9453V50.9844H36.462H33.8839V35.9453V20.9062H36.462H39.0401V35.9453Z" fill="#03BD9D"/>
<path d="M8.31738 28.8561C8.11328 29.0602 8.10254 29.2106 8.10254 32.7555V36.4508L8.34961 36.6764C8.67188 36.9772 9.16602 36.9772 9.54199 36.6871L9.82129 36.4723V33.4107V30.36H12.3994H14.9775V33.4C14.9775 36.44 14.9775 36.4508 15.2246 36.6764C15.5469 36.9772 16.041 36.9772 16.417 36.6871L16.6963 36.4723V32.7662C16.6963 29.2106 16.6855 29.0602 16.4814 28.8561C16.2773 28.652 16.127 28.6412 12.3994 28.6412C8.67188 28.6412 8.52148 28.652 8.31738 28.8561Z" fill="#03BD9D"/>
<path d="M10.1973 38.2979C6.80273 39.1895 4.40723 41.4238 3.31152 44.7539C3.03223 45.6025 3.01074 45.7852 3 47.4932C3 48.9756 3.04297 49.4482 3.2041 50.0176C4.02051 52.8213 5.90039 55.0342 8.46777 56.1943C9.91797 56.8496 10.4336 56.9463 12.4531 56.9463C14.1611 56.9355 14.3438 56.9141 15.1924 56.6348C18.5869 55.5176 20.9395 52.9502 21.7021 49.5234C21.9277 48.5029 21.8633 46.0215 21.584 45.0225C21.3262 44.0771 20.5527 42.5518 19.8867 41.6924C18.7588 40.2207 16.7178 38.8457 14.9238 38.3516C13.9141 38.083 11.1641 38.04 10.1973 38.2979ZM13.9463 40.0381C16.4922 40.5322 18.7588 42.5625 19.6826 45.1729C19.9404 45.9141 19.9727 46.1289 19.9727 47.5469C19.9727 48.9648 19.9404 49.1797 19.6826 49.9209C19.5215 50.3721 19.21 51.0488 18.9951 51.4248C18.4795 52.3057 17.1582 53.627 16.2773 54.1426C11.8838 56.6992 6.3623 54.4111 4.9873 49.4697C4.72949 48.5029 4.69727 46.8486 4.93359 45.8496C5.88965 41.7998 9.85352 39.2432 13.9463 40.0381Z" fill="#6842EF"/>
<path d="M11.7549 41.7461C11.6367 41.8643 11.54 42.0576 11.54 42.1758C11.54 42.3262 11.4326 42.4121 11.1211 42.498C10.4658 42.6699 9.70312 43.25 9.33789 43.8301C9.03711 44.3242 9.01562 44.4316 9.01562 45.3984C9.01562 46.3652 9.03711 46.4727 9.33789 46.9668C9.70312 47.5469 10.4658 48.127 11.1211 48.2988L11.54 48.417V49.6523V50.8984L11.1963 50.6943C10.9385 50.5439 10.8096 50.3613 10.7129 50.0176C10.541 49.4375 10.3369 49.2656 9.7998 49.2656C9.20898 49.2656 8.96191 49.5557 8.96191 50.2324C8.96191 51.2852 9.76758 52.2412 10.9277 52.5635C11.3896 52.6924 11.54 52.7891 11.54 52.9395C11.54 53.2832 11.9268 53.5625 12.3994 53.5625C12.8721 53.5625 13.2588 53.2725 13.2588 52.918C13.2588 52.7676 13.3662 52.6816 13.6777 52.5957C14.333 52.4238 15.0957 51.8438 15.4609 51.2637C15.7617 50.7695 15.7832 50.6621 15.7832 49.6953C15.7832 48.7285 15.7617 48.6211 15.4609 48.127C15.0957 47.5469 14.333 46.9668 13.6777 46.7949L13.2588 46.6768V45.4414V44.1953L13.6025 44.3994C13.8604 44.5498 13.9893 44.7324 14.0859 45.0762C14.2578 45.6562 14.4619 45.8281 14.999 45.8281C15.5898 45.8281 15.8369 45.5381 15.8369 44.8613C15.8369 43.8086 15.042 42.8633 13.8818 42.5195C13.4307 42.3906 13.2588 42.2832 13.2588 42.1436C13.2588 41.8105 12.8613 41.5312 12.3994 41.5312C12.1094 41.5312 11.8945 41.6064 11.7549 41.7461ZM11.54 45.3984C11.54 45.9893 11.4971 46.4727 11.4434 46.4727C11.1963 46.4727 10.7881 45.7959 10.7881 45.3984C10.7881 45.001 11.1963 44.3242 11.4434 44.3242C11.4971 44.3242 11.54 44.8076 11.54 45.3984ZM13.7314 48.9541C14.1074 49.4053 14.1074 49.9854 13.7314 50.4365C13.5811 50.6191 13.4092 50.7695 13.3555 50.7695C13.3018 50.7695 13.2588 50.2861 13.2588 49.6953C13.2588 49.1045 13.3018 48.6211 13.3555 48.6211C13.4092 48.6211 13.5811 48.7715 13.7314 48.9541Z" fill="#6842EF"/>
</svg>
