<svg width="109" height="28" viewBox="0 0 109 28" fill="none" xmlns="http://www.w3.org/2000/svg">
<g clip-path="url(#clip0_143_9148)">
<path d="M35.4068 22.6073C33.3741 22.4912 30.8207 21.1147 29.7959 20.0864L32.047 17.2504C32.6014 17.864 35.2556 19.3733 37.0699 19.0416C37.557 18.9421 38.1114 18.5274 38.1114 17.8806C38.145 17.4494 37.7754 17.0514 37.4562 16.9021C37.1538 16.6865 36.1963 16.6534 35.5748 16.6202C34.8692 16.587 34.0629 16.5041 33.2061 16.1558C31.627 15.3929 30.5183 13.8174 30.4679 12.1423C30.4679 10.1687 31.2742 9.0741 32.0974 8.39413C33.7605 7.1171 36.0787 7.00101 37.6746 7.41563C38.9345 7.71415 40.3288 8.39413 41.152 9.17361L39.0857 12.0262C38.7833 11.8106 37.3218 11.1472 36.7675 10.998C35.9107 10.7492 34.8188 10.8819 34.3316 11.1804C34.1804 11.2633 33.9621 11.6116 34.0293 12.0262C34.0293 12.3247 34.3148 12.7559 34.5164 12.872C34.9532 13.0876 35.3564 13.2037 35.9275 13.2369C36.7339 13.2369 38.0778 13.2369 39.1025 13.7179C40.7992 14.63 41.7903 16.189 41.6559 17.9801C41.5551 19.5391 40.48 21.0483 39.0689 21.7781C38.0274 22.458 36.6163 22.7068 35.4068 22.6073Z" fill="#2A3137"/>
<path d="M50.3913 22.4583C48.3922 22.4583 46.5107 21.6954 45.066 20.3355C43.5877 18.9424 42.7478 17.0517 42.731 15.0118C42.6974 12.9718 43.4701 11.0646 44.8812 9.58855C46.2923 8.16226 48.2074 7.29985 50.2737 7.28326C52.3399 7.25009 54.255 8.01299 55.7333 9.40611L53.1799 12.0265C52.4407 11.33 51.4496 10.9319 50.4081 10.9319H50.3409C49.2657 10.9319 48.2746 11.3631 47.5355 12.126C46.7963 12.8889 46.3931 13.884 46.4267 14.962C46.4267 16.0234 46.8635 17.0019 47.6362 17.7317C48.409 18.4614 49.4169 18.8594 50.5089 18.8263C51.5 18.8263 52.4239 18.4282 53.1631 17.7648L55.6661 20.435C54.2718 21.712 52.4575 22.4417 50.576 22.4749H50.3913V22.4583Z" fill="#2A3137"/>
<path d="M71.1379 7.33294V22.4914H68.0637V21.1148C66.8038 21.9607 65.2919 22.4914 63.6624 22.4914C59.4123 22.4914 55.9517 19.0583 55.9517 14.879C55.9517 10.683 59.3955 7.2666 63.6624 7.2666C65.2919 7.2666 66.8038 7.78073 68.0637 8.64314V7.33294H71.1379ZM67.6437 14.879C67.6437 12.6898 65.863 10.9318 63.6288 10.9318C61.4449 10.9318 59.6474 12.6898 59.6474 14.879C59.6474 17.035 61.4281 18.8096 63.6288 18.8096C65.863 18.8096 67.6437 17.035 67.6437 14.879Z" fill="#2A3137"/>
<path d="M88.844 15.1777C88.844 19.3405 85.417 22.7238 81.2341 22.7238C79.655 22.7238 78.2103 22.2428 77.0176 21.4468V27.5002H73.3555V7.43262H77.0176V8.95842C78.2271 8.12918 79.6718 7.6814 81.2341 7.6814C85.4338 7.66481 88.844 11.0481 88.844 15.1777ZM85.1819 15.1777C85.1819 13.0217 83.418 11.2803 81.2341 11.2803C79.0503 11.2803 77.2528 13.0217 77.2528 15.1777C77.2528 17.3337 79.0335 19.1083 81.2341 19.1083C83.418 19.1083 85.1819 17.3503 85.1819 15.1777Z" fill="#2A3137"/>
<path d="M92.1704 5.62469C90.7929 5.62469 89.6841 4.5301 89.6841 3.12039V2.95455C89.6841 1.59459 90.7929 0.5 92.1704 0.5C93.5815 0.5 94.7406 1.59459 94.7406 2.95455V3.12039C94.7406 4.51351 93.5815 5.62469 92.1704 5.62469ZM94.0855 22.3919H90.4569V7.28317H94.0855V22.3919Z" fill="#2A3137"/>
<path d="M103.358 22.4583C101.359 22.4583 99.4776 21.6954 98.0329 20.3355C96.5546 18.9424 95.7146 17.0517 95.6978 15.0118C95.6642 12.9718 96.437 11.0646 97.8481 9.58855C99.2592 8.16226 101.174 7.29985 103.24 7.28326C105.307 7.25009 107.222 8.01299 108.7 9.40611L106.147 12.0265C105.407 11.33 104.416 10.9319 103.375 10.9319H103.308C102.232 10.9319 101.241 11.3631 100.502 12.126C99.7632 12.8889 99.36 13.884 99.3936 14.962C99.3936 16.0234 99.8304 17.0019 100.603 17.7317C101.376 18.4614 102.384 18.8594 103.476 18.8263C104.467 18.8263 105.391 18.4282 106.13 17.7648L108.633 20.435C107.238 21.712 105.424 22.4417 103.543 22.4749H103.358V22.4583Z" fill="#2A3137"/>
<path d="M12.6781 20.5838C12.3757 20.617 12.2917 20.2024 12.5773 20.1195C12.5941 20.1195 12.5941 20.1195 12.6109 20.1029C18.5745 18.4444 22.9422 15.4426 22.371 13.4026C21.783 11.3627 16.4746 11.0476 10.511 12.7061C4.54744 14.3645 0.179727 17.3664 0.750889 19.4063C2.43078 25.2939 8.62956 28.7435 14.5931 27.0851C19.448 25.7417 22.6566 21.4297 22.7742 16.703C18.4569 20.3682 12.6781 20.5838 12.6781 20.5838Z" fill="#F54547"/>
<path d="M18.591 5.54207C17.5494 1.87684 13.6857 -0.262605 9.95636 0.765651C7.13415 1.56172 5.18548 3.96652 4.8999 6.703C5.40386 6.37131 7.63812 5.04453 11.0315 4.82892C11.1155 4.82892 11.1659 4.81234 11.1659 4.81234C11.3506 4.77916 11.401 5.06111 11.233 5.11087H11.2162C7.48693 6.13912 4.76551 8.0132 5.11828 9.29023C5.48786 10.5672 8.78044 10.7497 12.5098 9.72143C16.2391 8.67659 18.9605 6.8191 18.591 5.54207Z" fill="#F54547"/>
</g>
<defs>
<clipPath id="clip0_143_9148">
<rect width="108" height="27" fill="white" transform="translate(0.700195 0.5)"/>
</clipPath>
</defs>
</svg>
