<svg width="60" height="60" viewBox="0 0 60 60" fill="none" xmlns="http://www.w3.org/2000/svg">
<path d="M28.8024 4.62803C28.6843 4.7139 28.0832 5.78728 27.4714 7.0324L26.3551 9.27577L24.0258 9.60851C22.7485 9.79099 21.5785 9.99493 21.4175 10.0701C21.0418 10.2418 20.7628 10.8322 20.8486 11.2937C20.9023 11.5728 21.2887 12.0129 22.7056 13.3868L24.4874 15.115L24.0688 17.5623C23.7038 19.7412 23.6716 20.031 23.8004 20.3423C23.9614 20.7287 24.3908 21.0078 24.8416 21.0078C25.0885 21.0078 26.5375 20.2994 28.8668 19.0435L29.4679 18.7215L31.5395 19.8164C32.6773 20.4282 33.7614 20.9434 33.9546 20.9756C34.3517 21.04 34.9099 20.7931 35.0816 20.4819C35.2534 20.1491 35.2105 19.6339 34.8133 17.3261L34.4376 15.1686L36.2624 13.3331C37.8402 11.7445 38.0871 11.4547 38.0871 11.1649C38.0871 10.6926 37.9261 10.3169 37.6363 10.1237C37.4968 10.0271 36.3804 9.82319 34.9636 9.61925L32.5377 9.27577L31.4858 7.08607C30.8525 5.78728 30.3158 4.8105 30.1656 4.6817C29.8543 4.43482 29.1137 4.40262 28.8024 4.62803ZM31.0887 11.1649C31.2497 11.3152 31.7434 11.4333 32.8705 11.5943C33.7292 11.7231 34.4376 11.8519 34.4376 11.8948C34.4376 11.927 33.9331 12.4422 33.3213 13.0433C32.5914 13.7518 32.1835 14.2348 32.1406 14.4387C32.0762 14.6856 32.3231 16.4567 32.5699 17.5515C32.6129 17.7769 32.4841 17.734 31.1423 17.0363C29.9509 16.4245 29.5967 16.2849 29.3391 16.3386C29.1566 16.3708 28.4267 16.6928 27.729 17.0685C27.0206 17.4442 26.4195 17.7125 26.4087 17.6589C26.3873 17.6052 26.4731 16.9397 26.6019 16.1669C26.7415 15.3726 26.8059 14.6105 26.7737 14.4065C26.72 14.1167 26.4517 13.8054 25.5608 12.9682C24.9275 12.3778 24.4337 11.8733 24.4659 11.8519C24.4874 11.8304 25.1421 11.7231 25.9042 11.6157C27.9759 11.3367 27.8793 11.4118 28.7272 9.65145L29.4464 8.15945L30.1548 9.56558C30.552 10.3384 30.9706 11.0576 31.0887 11.1649Z" fill="#6842EF"/>
<path d="M10.4906 14.3413C10.3511 14.4487 9.90024 15.2215 9.49235 16.0373L8.75172 17.54L7.08798 17.7762C6.16488 17.905 5.32764 18.066 5.2203 18.1196C4.95196 18.2592 4.70508 18.7851 4.70508 19.193C4.70508 19.4936 4.88755 19.719 5.99313 20.8353L7.27046 22.1341L7.00211 23.7764C6.85184 24.678 6.75523 25.5367 6.78744 25.687C6.83037 25.8373 6.98064 26.0841 7.12018 26.2237C7.56027 26.6638 7.98962 26.5779 9.6963 25.7084L11.2098 24.9463L12.6588 25.7084C14.3118 26.5886 14.6768 26.653 15.2135 26.2022C15.6321 25.8587 15.6428 25.4938 15.3101 23.508L15.0632 22.0912L16.2654 20.9534C17.7466 19.558 17.9613 19.032 17.3388 18.3451C17.0704 18.0552 16.7377 17.9586 14.9773 17.7225L13.5927 17.54L12.7984 15.9514C12.369 15.0712 11.9182 14.3091 11.8001 14.2447C11.4566 14.073 10.7697 14.1159 10.4906 14.3413ZM12.1758 19.4614C12.3153 19.558 12.7984 19.6868 13.2385 19.7512L14.0328 19.8693L13.3995 20.5348C12.691 21.2754 12.6374 21.4471 12.8628 22.6171C12.9272 22.9284 12.9486 23.2075 12.9272 23.2289C12.9057 23.2504 12.5622 23.1001 12.1651 22.8962C11.7679 22.6815 11.3278 22.5098 11.1883 22.5098C11.038 22.5098 10.5872 22.6815 10.1686 22.8962L9.40648 23.2719L9.49235 22.703C9.6963 21.4471 9.65336 21.2969 8.90199 20.5348L8.22576 19.8585L8.9664 19.7727C10.0827 19.6546 10.3189 19.5043 10.7911 18.5919L11.199 17.7976L11.5532 18.549C11.7465 18.9569 12.0255 19.3648 12.1758 19.4614Z" fill="#6842EF"/>
<path d="M46.9852 14.3413C46.8457 14.4487 46.3949 15.2215 45.987 16.0373L45.2463 17.54L43.5826 17.7762C42.6595 17.905 41.8223 18.066 41.7149 18.1196C41.4466 18.2592 41.1997 18.7851 41.1997 19.193C41.1997 19.4936 41.3822 19.719 42.4878 20.8353L43.7651 22.1341L43.4967 23.7764C43.3465 24.678 43.2499 25.5367 43.2821 25.687C43.325 25.8373 43.4753 26.0841 43.6148 26.2237C44.0549 26.6638 44.4843 26.5779 46.1909 25.7084L47.7044 24.9463L49.1535 25.7084C50.8065 26.5886 51.1714 26.653 51.7081 26.2022C52.1267 25.8587 52.1375 25.4938 51.8047 23.508L51.5578 22.0912L52.76 20.9534C54.2413 19.558 54.456 19.032 53.8334 18.3451C53.565 18.0552 53.2323 17.9586 51.472 17.7225L50.0873 17.54L49.293 15.9514C48.8636 15.0712 48.4128 14.3091 48.2947 14.2447C47.9513 14.073 47.2643 14.1159 46.9852 14.3413ZM48.6704 19.4614C48.81 19.558 49.293 19.6868 49.7331 19.7512L50.5274 19.8693L49.8941 20.5348C49.1857 21.2754 49.132 21.4471 49.3574 22.6171C49.4218 22.9284 49.4433 23.2075 49.4218 23.2289C49.4003 23.2504 49.0568 23.1001 48.6597 22.8962C48.2625 22.6815 47.8225 22.5098 47.6829 22.5098C47.5326 22.5098 47.0818 22.6815 46.6632 22.8962L45.9011 23.2719L45.987 22.703C46.1909 21.4471 46.148 21.2969 45.3966 20.5348L44.7204 19.8585L45.461 19.7727C46.5773 19.6546 46.8135 19.5043 47.2858 18.5919L47.6937 17.7976L48.0479 18.549C48.2411 18.9569 48.5202 19.3648 48.6704 19.4614Z" fill="#6842EF"/>
<path d="M27.6216 23.9489C25.9364 24.3353 24.702 25.033 23.4247 26.3103C22.3298 27.4052 21.7395 28.339 21.2672 29.7559C20.9988 30.5502 20.9774 30.7434 20.9774 32.3856C20.9774 34.0279 20.9988 34.2211 21.2672 35.0154C21.4282 35.4877 21.7609 36.2391 21.9971 36.6792C22.6089 37.774 24.1116 39.2767 25.2065 39.8886C26.0544 40.3501 27.4928 40.8653 27.9651 40.8653C28.4481 40.8653 28.169 40.9727 27.2674 41.1337C24.4336 41.6274 21.8146 43.0658 19.9147 45.1803L19.2063 45.9639L18.8521 45.6311C18.3368 45.1374 17.2957 44.4612 16.5014 44.0962C15.7715 43.7527 14.0648 43.2268 13.6784 43.2268C13.5603 43.2268 13.3886 43.1838 13.3027 43.1302C13.1954 43.0658 13.292 43.0121 13.5925 42.9584C13.8394 42.9155 14.4297 42.7008 14.9128 42.4647C16.5336 41.6811 17.8109 40.0925 18.2724 38.3214C18.4979 37.4842 18.4979 35.8741 18.2724 35.0369C17.6928 32.8043 15.8788 30.9902 13.6462 30.4106C12.8089 30.1852 11.1989 30.1852 10.3616 30.4106C8.129 30.9902 6.31499 32.8043 5.73536 35.0369C5.50995 35.8741 5.50995 37.4842 5.73536 38.3214C6.30425 40.5111 8.04313 42.2822 10.2328 42.9155C10.8339 43.0872 10.8554 43.098 10.5548 43.1624C8.42955 43.6239 7.03415 44.2358 5.75683 45.2447C4.41511 46.3074 3.51347 47.4559 2.8265 48.9479C2.19321 50.3218 2.10734 50.7941 2.05367 53.2092L2 55.4096L2.28981 55.7102L2.59036 56H29.5H56.4096L56.7102 55.7102L57 55.4096L56.9463 53.2092C56.8927 50.7941 56.8068 50.3218 56.1735 48.9479C55.4865 47.4559 54.5849 46.3074 53.2432 45.2447C51.9658 44.2358 50.5705 43.6239 48.4452 43.1624C48.1446 43.098 48.1661 43.0872 48.7672 42.9155C50.9569 42.2822 52.6957 40.5111 53.2646 38.3214C53.49 37.4842 53.49 35.8741 53.2646 35.0369C52.685 32.8043 50.871 30.9902 48.6384 30.4106C47.8011 30.1852 46.1911 30.1852 45.3538 30.4106C43.1212 30.9902 41.3072 32.8043 40.7276 35.0369C40.631 35.4018 40.5558 36.1317 40.5558 36.6792C40.5558 38.5254 41.1569 39.9852 42.4342 41.2625C43.2607 42.089 44.5166 42.8082 45.4075 42.9584C45.708 43.0121 45.8046 43.0658 45.6973 43.1302C45.6114 43.1838 45.4397 43.2268 45.3216 43.2268C44.9352 43.2268 43.2285 43.7527 42.4986 44.0962C41.7043 44.4612 40.6632 45.1374 40.1479 45.6311L39.7937 45.9639L39.0853 45.1803C37.1639 43.055 34.6522 41.6704 31.7004 41.123L30.7344 40.9405L31.3784 40.8009C32.9885 40.4682 34.2873 39.749 35.5753 38.461C36.6702 37.3661 37.2605 36.4323 37.7328 35.0154C38.0012 34.2211 38.0226 34.0279 38.0226 32.3856C38.0226 30.7434 38.0012 30.5502 37.7328 29.7559C37.2605 28.3497 36.6702 27.4052 35.5753 26.3103C34.4805 25.2155 33.5252 24.6144 32.1298 24.1635C31.4106 23.9167 31.0349 23.8737 29.7683 23.8415C28.7486 23.8201 28.0617 23.8523 27.6216 23.9489ZM31.0564 26.2137C32.1835 26.5035 33.0207 26.9973 33.9545 27.9311C35.2855 29.2514 35.8329 30.5609 35.8329 32.3856C35.8329 34.2104 35.2855 35.5199 33.9545 36.8402C32.6343 38.1712 31.3247 38.7186 29.5 38.7186C27.6753 38.7186 26.3657 38.1712 25.0455 36.8402C23.7145 35.5199 23.1671 34.2104 23.1671 32.3856C23.1671 30.5609 23.7145 29.2514 25.0455 27.9311C25.9578 27.008 26.8058 26.5035 27.8899 26.2244C28.6735 26.0205 30.2621 26.0098 31.0564 26.2137ZM13.7857 32.8687C14.6015 33.2658 15.4173 34.0923 15.8251 34.9081C16.1042 35.4984 16.1364 35.6487 16.1364 36.6792C16.1364 37.7096 16.1042 37.8599 15.8251 38.4502C15.4173 39.2767 14.6015 40.0925 13.775 40.5004C13.1846 40.7795 13.0343 40.8117 12.0039 40.8117C10.9735 40.8117 10.8232 40.7795 10.2328 40.5004C9.40632 40.0925 8.59055 39.2767 8.18267 38.4502C7.90359 37.8599 7.87139 37.7096 7.87139 36.6792C7.87139 35.6702 7.90359 35.4877 8.1612 34.9617C8.54762 34.1782 9.08431 33.5664 9.7498 33.137C10.5548 32.6218 11.0593 32.493 12.1756 32.5252C12.9914 32.5466 13.249 32.6003 13.7857 32.8687ZM48.7779 32.8687C49.5937 33.2658 50.4094 34.0923 50.8173 34.9081C51.0964 35.4984 51.1286 35.6487 51.1286 36.6792C51.1286 37.7096 51.0964 37.8599 50.8173 38.4502C50.4094 39.2767 49.5937 40.0925 48.7672 40.5004C48.1768 40.7795 48.0265 40.8117 46.9961 40.8117C45.9657 40.8117 45.8154 40.7795 45.225 40.5004C44.3985 40.0925 43.5827 39.2767 43.1749 38.4502C42.8958 37.8599 42.8636 37.7096 42.8636 36.6792C42.8636 35.6702 42.8958 35.4877 43.1534 34.9617C43.5398 34.1782 44.0765 33.5664 44.742 33.137C45.547 32.6218 46.0515 32.493 47.1678 32.5252C47.9836 32.5466 48.2412 32.6003 48.7779 32.8687ZM32.2801 43.5488C33.8687 43.9996 35.5431 44.9335 36.7346 46.0283C38.6989 47.8208 40.1265 50.8692 40.1265 53.2843V53.8532H29.5H18.8735V53.2843C18.8735 51.3523 19.7752 49.0016 21.2028 47.1983C22.6196 45.395 24.6483 44.1069 26.9776 43.5059C27.9865 43.2482 28.0617 43.2375 29.822 43.2804C31.1315 43.3019 31.6575 43.3663 32.2801 43.5488ZM14.6015 45.7707C15.7285 46.1571 16.5336 46.6294 17.3493 47.37L17.9612 47.9282L17.8109 48.2824C17.0381 50.193 16.6194 51.8997 16.6194 53.1555V53.8532H10.3831H4.14676L4.2219 52.8013C4.33997 51.0517 4.73712 49.8817 5.60656 48.6581C6.70141 47.1339 8.20414 46.0927 10.0933 45.5775C10.7373 45.4057 11.1345 45.3843 12.2722 45.4165C13.4744 45.4487 13.7964 45.5023 14.6015 45.7707ZM49.3897 45.7278C51.9229 46.5543 53.9194 48.6473 54.5527 51.1376C54.6386 51.4811 54.7459 52.2324 54.7781 52.8013L54.8532 53.8532H48.6169H42.3806V53.1555C42.3806 51.8997 41.9619 50.193 41.1891 48.2824L41.0388 47.9282L41.6507 47.37C42.4235 46.6616 43.2393 46.1786 44.2053 45.8458C45.3753 45.4379 45.751 45.3843 47.2108 45.4165C48.2949 45.4379 48.7135 45.5023 49.3897 45.7278Z" fill="#03BD9D"/>
<path d="M28.7058 45.5454C28.4804 45.7708 28.4268 45.9318 28.4268 46.3397C28.4268 47.0481 28.7917 47.4131 29.5001 47.4131C30.2086 47.4131 30.5735 47.0481 30.5735 46.3397C30.5735 45.9318 30.5198 45.7708 30.2944 45.5454C30.069 45.32 29.908 45.2663 29.5001 45.2663C29.0923 45.2663 28.9312 45.32 28.7058 45.5454Z" fill="#6842EF"/>
<path d="M32.8703 46.8114C32.5912 47.0905 32.5054 47.2623 32.5054 47.5735C32.5054 47.9385 32.602 48.0673 33.611 49.0655C34.2872 49.7203 34.8561 50.3858 35.06 50.7615C35.4679 51.4914 35.747 51.7061 36.2944 51.7061C36.8526 51.7061 37.2068 51.4484 37.3356 50.944C37.4322 50.5897 37.4215 50.4395 37.2282 50.0316C36.8955 49.2587 36.1334 48.2605 35.3069 47.4984C34.0725 46.3499 33.4929 46.1889 32.8703 46.8114Z" fill="#6842EF"/>
</svg>
